<svg xmlns="http://www.w3.org/2000/svg" width="20" height="20" viewBox="0 0 20 20">
    <g fill="#727272" fill-rule="evenodd">
        <path fill-rule="nonzero" d="M11.12 19.31c4.465 0 8.104-4.159 8.104-9.31 0-5.151-3.639-9.31-8.103-9.31C6.656.69 3.017 4.849 3.017 10c0 5.151 3.64 9.31 8.104 9.31zm0 .69c-4.867 0-8.792-4.487-8.792-10S6.253 0 11.12 0c4.867 0 8.793 4.487 8.793 10s-3.926 10-8.793 10z"/>
        <path fill-rule="nonzero" d="M3.017 10c0 4.726 3.082 8.676 7.117 9.24l2.449.341-2.45.341A7.828 7.828 0 0 1 9.053 20C4.184 20 .259 15.513.259 10S4.184 0 9.052 0c.354 0 .713.026 1.082.078l2.449.34-2.45.343C6.1 1.324 3.018 5.274 3.018 10zm-.69 0c0-4.06 2.141-7.603 5.26-9.158C3.816 1.634.947 5.426.947 10s2.87 8.366 6.638 9.158C4.468 17.603 2.328 14.06 2.328 10z"/>
        <path fill-rule="nonzero" d="M2.624 10.345H.604c-.191 0-.173.154-.173.345 0 .19-.018.344.172.344h2.021a.345.345 0 0 0 0-.69zM2.672 8.62H.603c-.19 0 0 .155 0 .346 0 .19-.19.344 0 .344h2.07c.19 0 .148-.154.148-.344 0-.19.042-.345-.149-.345zM2.684 12.069H.948a.345.345 0 0 0 0 .69h2.07c.19 0 .01-.155.01-.345a.345.345 0 0 0-.344-.345zM3.374 13.793H1.638a.345.345 0 0 0 0 .69h2.07c.19 0 .01-.155.01-.345a.345.345 0 0 0-.344-.345zM2.93 6.897H1.078a.345.345 0 0 0-.345.344c0 .19.025.345.215.345h2.07c.19 0 .256-.154.256-.345a.345.345 0 0 0-.344-.344zM3.706 5.172H1.8a.345.345 0 0 0-.345.345c0 .19-.008.345.183.345h2.069c.19 0 .113-.277.113-.277s.077-.413-.114-.413zM4.887 3.103h-1.87a.345.345 0 1 0 0 .69h1.87a.345.345 0 1 0 0-.69zM6.79 1.38H4.74a.345.345 0 1 0 0 .689H6.79a.345.345 0 1 0 0-.69zM4.408 15.862H2.672a.345.345 0 1 0 0 .69h2.07c.19 0 .01-.155.01-.345a.345.345 0 0 0-.344-.345zM6.135 17.586H4.397a.345.345 0 0 0 0 .69h2.072c.19 0 .011-.155.011-.345a.345.345 0 0 0-.345-.345zM11.236 17.258a5.41 5.41 0 0 1-.642-.038.345.345 0 1 0-.082.685c.24.028.48.043.724.043a.345.345 0 1 0 0-.69zm-2.5-.61a5.868 5.868 0 0 1-.558-.326.345.345 0 1 0-.38.575c.202.134.41.255.623.365a.345.345 0 0 0 .315-.614zm-2.002-1.647a6.974 6.974 0 0 1-.385-.525.345.345 0 1 0-.575.382c.133.2.275.392.424.577A.345.345 0 0 0 6.734 15zM5.497 12.73a7.78 7.78 0 0 1-.182-.629.345.345 0 1 0-.67.164c.057.232.123.46.199.685a.345.345 0 1 0 .653-.22zm-.41-2.613a8.22 8.22 0 0 1 .03-.656.345.345 0 1 0-.686-.06 8.91 8.91 0 0 0-.034.71.345.345 0 0 0 .69.006zm.444-2.585c.073-.207.154-.41.244-.607a.345.345 0 1 0-.629-.284 8.275 8.275 0 0 0-.265.663.345.345 0 1 0 .65.228zM6.817 5.26c.14-.167.288-.326.442-.476a.345.345 0 1 0-.482-.494c-.17.166-.333.342-.488.526a.345.345 0 0 0 .528.444zm2.016-1.596c.194-.094.392-.178.594-.25a.345.345 0 0 0-.23-.65c-.227.08-.45.175-.667.281a.345.345 0 1 0 .303.62zm2.527-.56c.216.006.43.024.641.054a.345.345 0 1 0 .098-.683 6.088 6.088 0 0 0-.723-.06.345.345 0 0 0-.016.69zm2.47.66c.189.1.373.213.552.336a.345.345 0 1 0 .39-.569 6.6 6.6 0 0 0-.615-.376.345.345 0 0 0-.327.608zm1.975 1.682c.133.17.259.347.377.53a.345.345 0 0 0 .58-.372 7.706 7.706 0 0 0-.414-.584.345.345 0 1 0-.543.426zm1.208 2.307c.066.208.123.418.172.632a.345.345 0 1 0 .673-.152 8.5 8.5 0 0 0-.187-.688.345.345 0 0 0-.658.208zm.37 2.618a8.19 8.19 0 0 1-.042.655.345.345 0 0 0 .686.071c.025-.235.04-.471.045-.71a.345.345 0 1 0-.69-.016zm-.487 2.58a7.55 7.55 0 0 1-.253.602.345.345 0 1 0 .623.295 8.24 8.24 0 0 0 .277-.658.345.345 0 1 0-.647-.24zm-1.325 2.248c-.144.164-.294.32-.451.468a.345.345 0 0 0 .472.502c.173-.163.34-.335.498-.516a.345.345 0 1 0-.52-.454zm-2.047 1.552c-.196.09-.396.17-.599.236a.345.345 0 0 0 .215.656c.229-.076.454-.164.673-.266a.345.345 0 0 0-.289-.626z"/>
        <path d="M14.74 12.597a.286.286 0 0 0-.206-.09c-.083 0-.164.037-.242.114-.612.641-1.433.966-2.439.966-.806 0-1.496-.233-2.05-.694-.506-.419-.856-.972-1.044-1.648h2.758c.207 0 .34-.134.34-.34 0-.207-.133-.34-.34-.34H8.634a4.955 4.955 0 0 1 .001-.999h3.106c.207 0 .34-.134.34-.34 0-.208-.133-.341-.34-.341H8.759c.185-.671.52-1.224.997-1.647a2.648 2.648 0 0 1 1.8-.696c.68 0 1.32.208 1.898.617.238.172.451.362.634.564v.718c0 .207.133.34.34.34.207 0 .34-.133.34-.34V6.314c0-.206-.133-.34-.34-.34-.207 0-.34.134-.34.34v.453c-.74-.6-1.56-.905-2.437-.905-.92 0-1.717.297-2.365.884-.613.554-1.024 1.273-1.222 2.139h-.69c-.206 0-.34.133-.34.34 0 .207.134.34.34.34h.579a5.345 5.345 0 0 0-.023.51c0 .179.007.342.021.49h-.8c-.207 0-.34.133-.34.34 0 .206.133.34.34.34h.912c.201.883.63 1.606 1.277 2.154.682.577 1.527.869 2.513.869 1.147 0 2.129-.394 2.92-1.17a.327.327 0 0 0 .107-.234c0-.114-.08-.207-.14-.267"/>
    </g>
</svg>
