<svg xmlns="http://www.w3.org/2000/svg" width="20" height="20" viewBox="0 0 20 20">
    <g fill="#727272" fill-rule="nonzero">
        <path d="M10.138 19.192a.761.761 0 0 1-1.29.116l-.783-1.045A.323.323 0 0 1 8 18.069v-7.258c0-.178.144-.323.323-.323h3.225c.179 0 .323.145.323.323v8.04c0 .347-.467.456-.622.147l-.507-1.014-.604 1.208zm-1.493-1.23l.72.959c.051.069.157.06.196-.018l.892-1.785a.323.323 0 0 1 .577 0l.196.391v-6.375h-2.58v6.828z"/>
        <path d="M14.945 19.49a.279.279 0 0 0-.089.262.33.33 0 0 0-.005-.02.322.322 0 0 1 .094-.241zm-9.954.342a.323.323 0 1 1-.604-.226l1.21-3.226c.104-.28.5-.28.604 0l.928 2.476a.116.116 0 0 0 .202.029l.729-.973a.323.323 0 0 1 .516 0l.784 1.046c.052.069.158.059.197-.018l.892-1.785a.323.323 0 0 1 .577 0l.872 1.744c.04.08.15.086.2.012l.387-.58a.323.323 0 0 1 .537 0l.344.515c.052.078.17.066.204-.021l.497-1.242a.323.323 0 0 1 .595-.01 45.605 45.605 0 0 1 .127.295c.095.22.19.444.28.657l.025.062c.117.278.211.512.278.688.04.103.07.185.089.248.012.039.021.072.027.102.006.025.009.05.01.076a.303.303 0 0 1-.097.246.323.323 0 0 1-.55-.214 25.242 25.242 0 0 0-.352-.897l-.026-.062a63.548 63.548 0 0 0-.096-.229l-.208.52c-.227.569-1 .649-1.34.139l-.075-.113-.12.178a.761.761 0 0 1-1.313-.082l-.584-1.166-.604 1.208a.761.761 0 0 1-1.29.116l-.525-.701-.47.628a.761.761 0 0 1-1.323-.19l-.626-1.67-.908 2.42zM8.323 2.258A.323.323 0 0 1 8 1.935V.323C8 .144 8.144 0 8.323 0h3.225c.179 0 .323.144.323.323v1.612a.323.323 0 0 1-.323.323H8.323zm2.903-.645V.645h-2.58v.968h2.58z"/>
        <path d="M.871 2.49v7.762c0 .131.105.236.237.236H19c.13 0 .237-.106.237-.236V2.49A.236.236 0 0 0 19 2.253H1.108a.238.238 0 0 0-.237.237zm-.636 0c0-.481.392-.872.873-.872H19c.483 0 .873.389.873.872v7.762a.874.874 0 0 1-.873.872H1.108a.872.872 0 0 1-.873-.872V2.49z"/>
    </g>
</svg>
