<svg xmlns="http://www.w3.org/2000/svg" width="20" height="20" viewBox="0 0 20 20">
    <g fill="#FFF" fill-rule="nonzero">
        <path d="M3.454 3.131A9.396 9.396 0 0 1 9.974.506c5.211 0 9.452 4.26 9.452 9.494a.253.253 0 0 0 .506 0c0-5.514-4.467-10-9.959-10a9.902 9.902 0 0 0-6.869 2.765.253.253 0 1 0 .35.366z"/>
        <path d="M3.533.253a.253.253 0 1 0-.507 0v2.942h2.93a.253.253 0 0 0 0-.506H3.534V.253zM15.805 10.233l-.332-.032.331-.034.004.033a3.731 3.731 0 0 1-.003.033zm-4.447 4.437a7.49 7.49 0 0 1-1.186.094.333.333 0 0 1 0-.667c.51 0 1-.055 1.46-.157.511-.113.986-.284 1.412-.502.177-.09.345-.189.504-.295.99-.66 1.607-1.603 1.607-2.637 0-1.957-2.213-3.59-4.983-3.59-.942 0-1.845.19-2.628.542a.333.333 0 0 1-.128.03l-1.62.04.369.395a.333.333 0 0 1-.011.465c-.47.461-.78.994-.904 1.557a.333.333 0 0 1-.325.262h-1.49c.18 1.618 1.65 3.04 3.787 3.62.145.04.246.171.246.322v1.467h.852v-1.21c0-.193.165-.346.358-.331a8.19 8.19 0 0 0 1.05.01c.173.008.308.012.444.012.496 0 .982-.052 1.448-.155a.335.335 0 0 1 .405.326v1.348h.852v-1.889c0-.12.064-.23.167-.289.186-.096.35-.192.504-.295 1.016-.675 1.607-1.627 1.607-2.637 0-.09-.004-.18-.014-.27v-.067a3.07 3.07 0 0 0 .014-.296.333.333 0 1 1 .667 0c0 .11-.005.218-.014.327.01.102.014.204.014.306 0 1.04-.492 2.007-1.34 2.759a5.344 5.344 0 0 1-1.12.758l.182-.296v2.222c0 .184-.15.334-.334.334h-1.519a.333.333 0 0 1-.333-.334v-1.681l.405.325a7.499 7.499 0 0 1-2.016.159 8.89 8.89 0 0 1-.76.007v1.19c0 .184-.15.334-.334.334H7.134a.333.333 0 0 1-.333-.334V14.4c-2.413-.74-4.05-2.502-4.05-4.526 0-.184.148-.333.333-.333h1.584c.153-.5.423-.97.795-1.392l-.658-.708a.333.333 0 0 1 .236-.56l2.292-.058a7.11 7.11 0 0 1 2.84-.573c2.702 0 4.983 1.427 5.526 3.366a3.302 3.302 0 0 1 .123.891c0 1.06-.505 2.02-1.34 2.759a5.355 5.355 0 0 1-1.12.758 6.694 6.694 0 0 1-2.005.647z"/>
        <path d="M13.245 6.962a3.245 3.245 0 1 0-6.49 0 .333.333 0 0 0 .667 0 2.578 2.578 0 1 1 5.156 0 .333.333 0 1 0 .667 0zM15.553 10.276a3.641 3.641 0 0 0 .904-.34c.714-.387 1.117-.958.956-1.716-.155-.728-.716-1.126-1.356-1.104-.64.023-1.156.486-.871 1.056.081.163.177.294.286.394a.814.814 0 0 0 .898.166.333.333 0 1 0-.293-.598c.008-.005.01-.005.008-.005-.048.014-.097.006-.162-.054a.689.689 0 0 1-.14-.2c-.009-.016.067-.084.297-.092.33-.012.596.177.68.575.088.41-.137.73-.62.992a2.986 2.986 0 0 1-.725.273.333.333 0 1 0 .138.653zM6.582 10.207a.586.586 0 1 1 0-1.173.586.586 0 0 1 0 1.173zm0-.667a.08.08 0 1 0 0 .16.08.08 0 0 0 0-.16zM10 19.962a.385.385 0 0 1 0-.77 9.3 9.3 0 0 0 1.473-.116.385.385 0 1 1 .122.76 10.07 10.07 0 0 1-1.595.126zm3.542-.645c.5-.19.983-.42 1.446-.686a.385.385 0 0 0-.384-.666 9.187 9.187 0 0 1-1.335.632.385.385 0 0 0 .273.72zm3.081-1.863c.4-.353.771-.739 1.11-1.151a.385.385 0 0 0-.595-.488 9.29 9.29 0 0 1-1.025 1.063.385.385 0 0 0 .51.576zm2.213-2.806c.25-.47.463-.962.635-1.468a.385.385 0 1 0-.728-.248c-.16.467-.355.92-.586 1.355a.385.385 0 1 0 .679.361zM.593 13.363c.182.503.404.99.664 1.457a.385.385 0 1 0 .672-.375c-.24-.43-.444-.88-.612-1.344a.385.385 0 0 0-.724.262zm1.816 3.109c.348.405.727.782 1.135 1.127a.385.385 0 1 0 .497-.587 9.29 9.29 0 0 1-1.048-1.041.385.385 0 0 0-.584.5zm2.773 2.255a9.95 9.95 0 0 0 1.46.657.385.385 0 1 0 .258-.725 9.18 9.18 0 0 1-1.347-.606.385.385 0 0 0-.37.674zm3.442 1.141a.385.385 0 0 1 .105-.762c.418.058.843.087 1.271.087a.385.385 0 1 1 0 .769c-.463 0-.923-.032-1.376-.094z"/>
    </g>
</svg>
