<?xml version="1.0" encoding="utf-8"?>
<!-- Generator: Adobe Illustrator 15.0.0, SVG Export Plug-In . SVG Version: 6.00 Build 0)  -->
<!DOCTYPE svg PUBLIC "-//W3C//DTD SVG 1.1//EN" "http://www.w3.org/Graphics/SVG/1.1/DTD/svg11.dtd">
<svg version="1.1" id="Layer_1" xmlns="http://www.w3.org/2000/svg" xmlns:xlink="http://www.w3.org/1999/xlink" x="0px" y="0px"
	 width="22px" height="22px" viewBox="0 0 22 22" enable-background="new 0 0 22 22" xml:space="preserve">
<g>
	<defs>
		<path id="SVGID_1_" d="M1.917,16.854L16.854,1.917c0.079-0.079,0.184-0.105,0.289-0.105c0.104,0,0.21,0.053,0.289,0.105
			l2.677,2.678c0.079,0.079,0.105,0.184,0.105,0.289s-0.053,0.21-0.105,0.289l-1.706,1.707l-1.391-1.392
			c-0.263-0.262-0.683-0.262-0.919,0c-0.263,0.263-0.263,0.683,0,0.919l1.391,1.391l-1.574,1.575l-1.392-1.391
			c-0.263-0.263-0.683-0.263-0.919,0c-0.263,0.262-0.263,0.682,0,0.918l1.392,1.391l-1.575,1.575l-1.392-1.391
			c-0.262-0.263-0.682-0.263-0.918,0c-0.263,0.262-0.263,0.683,0,0.918l1.391,1.392l-1.549,1.549l-1.391-1.392
			c-0.262-0.263-0.683-0.263-0.918,0c-0.263,0.263-0.263,0.683,0,0.919l1.391,1.392L8.48,16.801L7.089,15.41
			c-0.263-0.263-0.683-0.263-0.919,0c-0.262,0.263-0.262,0.683,0,0.919l1.391,1.391l-2.336,2.337c-0.158,0.157-0.42,0.157-0.551,0
			l-2.756-2.651c-0.079-0.079-0.105-0.184-0.105-0.289C1.812,17.037,1.839,16.933,1.917,16.854z M3.65,21.001L3.65,21.001
			C3.965,21.316,4.411,21.5,4.857,21.5s0.893-0.184,1.208-0.499L21.001,6.065C21.316,5.75,21.5,5.304,21.5,4.857
			s-0.184-0.893-0.499-1.208L18.35,0.999C18.035,0.684,17.589,0.5,17.143,0.5s-0.893,0.184-1.208,0.499L0.999,15.935
			C0.684,16.25,0.5,16.67,0.5,17.143c0,0.446,0.184,0.893,0.499,1.207L3.65,21.001z"/>
	</defs>
	<clipPath id="SVGID_2_">
		<use xlink:href="#SVGID_1_"  overflow="visible"/>
	</clipPath>
	<rect x="-4.5" y="-4.5" clip-path="url(#SVGID_2_)" fill="#727272" width="31" height="31"/>
</g>
</svg>
