<?xml version="1.0" encoding="utf-8"?>
<!-- Generator: Adobe Illustrator 15.0.0, SVG Export Plug-In . SVG Version: 6.00 Build 0)  -->
<!DOCTYPE svg PUBLIC "-//W3C//DTD SVG 1.1//EN" "http://www.w3.org/Graphics/SVG/1.1/DTD/svg11.dtd">
<svg version="1.1" id="Layer_1" xmlns="http://www.w3.org/2000/svg" xmlns:xlink="http://www.w3.org/1999/xlink" x="0px" y="0px"
	 width="50px" height="50px" viewBox="0 0 50 50" enable-background="new 0 0 50 50" xml:space="preserve">
<g>
	<path d="M31.778,45.405l-5.744-1.438l-5.748,1.438H17.83l8.204-2.053l8.189,2.053H31.778z"/>
	<path fill="#EDEDEC" d="M31.778,45.405l-5.744-5.588l-5.748,5.588H17.83l8.204-7.977l8.189,7.964L31.778,45.405z"/>
	<g transform="translate(11.068 16.056)">
		<defs>
			<filter id="Adobe_OpacityMaskFilter" filterUnits="userSpaceOnUse" x="14.525" y="17.707" width="1.737" height="13.228">
				<feColorMatrix  type="matrix" values="1 0 0 0 0  0 1 0 0 0  0 0 1 0 0  0 0 0 1 0"/>
			</filter>
		</defs>
		<mask maskUnits="userSpaceOnUse" x="14.525" y="17.707" width="1.737" height="13.228" id="b">
			<g filter="url(#Adobe_OpacityMaskFilter)">
				<path id="a" fill="#FFFFFF" d="M14.525,24.189l0.439-0.428l1.298,1.265v-2.393l-1.298-1.263l-0.439,0.429V24.189z"/>
			</g>
		</mask>
		<path mask="url(#b)" d="M14.525,30.934h1.737V17.707h-1.737V30.934z"/>
	</g>
	<path fill="#EDEDEC" d="M25.163,46.99h1.736V33.763h-1.736V46.99z"/>
	<path fill="#03256B" d="M5.136,33.784h41.797V2.47H5.136V33.784z"/>
	<path d="M4.545,11.136h42.978V2.889H4.545V11.136z"/>
	<path fill="#164DC8" d="M4.545,10.718h42.978v-8.25H4.545V10.718z"/>
	<path fill="none" stroke="#000000" stroke-width="1.6" d="M13.046,2.455v4.491"/>
	<path fill="#EDEDEC" d="M11.754,0.955v5.655h1.574V0.955H11.754z"/>
	<path fill="none" stroke="#000000" stroke-width="1.6" d="M39.849,2.455v4.491"/>
	<path d="M19.738,23.657l2.273-2.212h2.036l3.842,3.736l5.118-4.979h4.796l2.945-2.862l-0.692-0.675l-2.654,2.581h-4.794
		l-4.719,4.584l-3.43-3.34h-2.858l-2.272,2.212h-4.427l-3.766,3.659l0.694,0.675l3.479-3.385L19.738,23.657z"/>
	<path d="M42.653,16.273c-0.013,0.816-0.684,1.471-1.5,1.461c-0.819,0.013-1.491-0.642-1.505-1.459l0,0
		c0-0.807,0.675-1.462,1.5-1.462c0.83,0,1.505,0.655,1.505,1.462V16.273z M41.67,16.273c-0.004-0.283-0.237-0.509-0.521-0.505
		c-0.284,0-0.519,0.228-0.519,0.507s0.234,0.504,0.523,0.504c0.284,0,0.517-0.227,0.517-0.504V16.273z M12.468,27.206
		c-0.012,0.814-0.683,1.467-1.499,1.456c-0.819,0.014-1.493-0.64-1.505-1.456c0-0.002,0-0.004,0-0.004
		c0-0.804,0.672-1.459,1.502-1.459c0.829,0,1.501,0.655,1.501,1.459V27.206z M11.487,27.206c-0.004-0.284-0.237-0.513-0.521-0.508
		l0,0c-0.286,0-0.521,0.229-0.521,0.504c0,0.279,0.234,0.506,0.523,0.506c0.286,0,0.518-0.227,0.518-0.506V27.206z"/>
	<path fill="#16E3A7" d="M19.659,23.127l2.272-2.211h2.07l3.825,3.72l5.105-4.96h4.794l2.934-2.852l-0.639-0.622l-2.668,2.591H32.56
		l-4.732,4.601l-3.45-3.355h-2.818l-2.272,2.21h-4.429l-3.756,3.653l0.637,0.621l3.494-3.396H19.659z"/>
	<g>
		<path fill="#16E3A7" d="M42.552,15.783c-0.009,0.799-0.666,1.436-1.463,1.423l0,0c-0.797,0.013-1.454-0.624-1.463-1.421v-0.002
			c0-0.785,0.657-1.422,1.463-1.422C41.899,14.361,42.552,14.998,42.552,15.783z M41.648,15.783
			c-0.003-0.303-0.251-0.547-0.555-0.544c-0.003,0-0.003,0-0.005,0c-0.304-0.005-0.557,0.239-0.56,0.544l0,0
			c0,0.301,0.251,0.544,0.56,0.544c0.304,0.005,0.553-0.237,0.56-0.54c0-0.002,0-0.004,0-0.006V15.783z M12.368,26.714
			c-0.013,0.796-0.667,1.431-1.464,1.42c-0.796,0.011-1.451-0.624-1.464-1.42c0-0.786,0.657-1.423,1.464-1.423
			C11.713,25.291,12.368,25.928,12.368,26.714z M11.463,26.714c0-0.303-0.25-0.547-0.559-0.547c-0.304-0.004-0.555,0.24-0.56,0.547
			l0,0c0,0.297,0.251,0.541,0.56,0.541C11.208,27.26,11.459,27.018,11.463,26.714L11.463,26.714z"/>
		<path fill="#EDEDEC" d="M38.74,0.955v5.655h1.569V0.955H38.74z"/>
	</g>
</g>
</svg>
