<?xml version="1.0" encoding="utf-8"?>
<!-- Generator: Adobe Illustrator 15.0.0, SVG Export Plug-In . SVG Version: 6.00 Build 0)  -->
<!DOCTYPE svg PUBLIC "-//W3C//DTD SVG 1.1//EN" "http://www.w3.org/Graphics/SVG/1.1/DTD/svg11.dtd">
<svg version="1.1" id="Layer_1" xmlns="http://www.w3.org/2000/svg" xmlns:xlink="http://www.w3.org/1999/xlink" x="0px" y="0px"
	 width="25px" height="25px" viewBox="0 0 25 25" enable-background="new 0 0 25 25" xml:space="preserve">
<g>
	<defs>
		<circle id="SVGID_1_" cx="12.5" cy="12.5" r="12.5"/>
	</defs>
	<clipPath id="SVGID_2_">
		<use xlink:href="#SVGID_1_"  overflow="visible"/>
	</clipPath>
</g>
<g>
	<defs>
		<path id="SVGID_3_" d="M7.497,19C7.223,19,7,18.777,7,18.504c0-2.849,1.908-5.167,4.254-5.167h3.392
			c2.346,0,4.254,2.318,4.254,5.167c0,0.273-0.223,0.496-0.496,0.496H7.497z M12.953,12.307c-2.015,0-3.653-1.639-3.653-3.654
			C9.3,6.639,10.939,5,12.953,5c2.015,0,3.653,1.639,3.653,3.653C16.606,10.668,14.968,12.307,12.953,12.307z"/>
	</defs>
	<clipPath id="SVGID_4_">
		<use xlink:href="#SVGID_3_"  overflow="visible"/>
	</clipPath>
	<rect x="2" clip-path="url(#SVGID_4_)" fill="#727272" width="21.9" height="24"/>
</g>
</svg>
