<svg xmlns="http://www.w3.org/2000/svg" width="20" height="20" viewBox="0 0 20 20">
    <g fill="#727272" fill-rule="nonzero">
        <path d="M.87 3.617h2.02l.484 14.68a1.684 1.684 0 0 0 1.683 1.64h9.93c.905 0 1.662-.724 1.683-1.64l.484-14.68h2.02c.23 0 .42-.191.42-.426a.424.424 0 0 0-.42-.425H13.45V1.319c0-.702-.568-1.276-1.262-1.276H7.855c-.694 0-1.262.574-1.262 1.276v1.447H.87a.424.424 0 0 0-.421.425c0 .235.19.426.42.426zm6.564-2.298c0-.234.19-.425.421-.425h4.355c.231 0 .42.191.42.425v1.447H7.435V1.319zm8.878 2.298l-.484 14.66c-.02.468-.378.83-.841.83h-9.93c-.463 0-.82-.362-.841-.83l-.484-14.66h12.58z"/>
        <path d="M10.022 16.915c.231 0 .42-.192.42-.426V6.064a.424.424 0 0 0-.42-.426.424.424 0 0 0-.42.426v10.425c0 .234.189.426.42.426zM13.178 16.915c.231 0 .42-.192.42-.426V6.064a.424.424 0 0 0-.42-.426.424.424 0 0 0-.421.426v10.425c0 .234.19.426.42.426zM6.866 16.915c.232 0 .421-.192.421-.426V6.064a.424.424 0 0 0-.42-.426.424.424 0 0 0-.421.426v10.425c0 .234.189.426.42.426z"/>
    </g>
</svg>
