<?xml version="1.0" encoding="utf-8"?>
<!-- Generator: Adobe Illustrator 15.0.0, SVG Export Plug-In . SVG Version: 6.00 Build 0)  -->
<!DOCTYPE svg PUBLIC "-//W3C//DTD SVG 1.1//EN" "http://www.w3.org/Graphics/SVG/1.1/DTD/svg11.dtd">
<svg version="1.1" id="Layer_1" xmlns="http://www.w3.org/2000/svg" xmlns:xlink="http://www.w3.org/1999/xlink" x="0px" y="0px"
	 width="24px" height="24px" viewBox="0 0 24 24" enable-background="new 0 0 24 24" xml:space="preserve">
<g>
	<path fill="#03256B" d="M10.488,19.549C5.257,19.549,1,15.389,1,10.274S5.257,1,10.488,1c5.232,0,9.488,4.16,9.488,9.274
		S15.721,19.549,10.488,19.549z M10.488,2.943c-4.16,0-7.545,3.289-7.545,7.331c0,4.043,3.385,7.332,7.545,7.332
		s7.545-3.289,7.545-7.332C18.033,6.232,14.648,2.943,10.488,2.943z"/>
	<path fill="#03256B" d="M22.029,22.092c-0.23,0-0.461-0.081-0.646-0.246l-4.66-4.143c-0.4-0.355-0.438-0.971-0.08-1.37
		c0.355-0.402,0.969-0.439,1.371-0.081l4.66,4.143c0.402,0.354,0.438,0.971,0.08,1.371C22.562,21.981,22.295,22.092,22.029,22.092z"
		/>
</g>
</svg>
