<?xml version="1.0" encoding="utf-8"?>
<!-- Generator: Adobe Illustrator 15.0.0, SVG Export Plug-In . SVG Version: 6.00 Build 0)  -->
<!DOCTYPE svg PUBLIC "-//W3C//DTD SVG 1.1//EN" "http://www.w3.org/Graphics/SVG/1.1/DTD/svg11.dtd">
<svg version="1.1" id="Layer_1" xmlns="http://www.w3.org/2000/svg" xmlns:xlink="http://www.w3.org/1999/xlink" x="0px" y="0px"
	 width="120px" height="116px" viewBox="0 0 120 116" enable-background="new 0 0 120 116" xml:space="preserve">
<g opacity="0.5">
	<path fill="#EDEDEC" d="M52.751,102.174C24.219,102.174,1,79.482,1,51.584S24.219,1,52.751,1c28.542,0,51.756,22.691,51.756,50.584
		C104.507,79.482,81.293,102.174,52.751,102.174z M52.751,11.597c-22.689,0-41.154,17.94-41.154,39.987
		c0,22.05,18.464,39.989,41.154,39.989c22.693,0,41.155-17.939,41.155-39.989C93.906,29.537,75.444,11.597,52.751,11.597z"/>
	<path fill="#EDEDEC" d="M115.703,116.044c-1.257,0-2.515-0.442-3.526-1.342L86.759,92.106c-2.179-1.939-2.387-5.295-0.438-7.474
		c1.939-2.189,5.284-2.392,7.479-0.442l25.419,22.596c2.194,1.934,2.386,5.3,0.437,7.479
		C118.611,115.437,117.152,116.044,115.703,116.044z"/>
</g>
</svg>
