<?xml version="1.0" encoding="utf-8"?>
<!-- Generator: Adobe Illustrator 15.0.0, SVG Export Plug-In . SVG Version: 6.00 Build 0)  -->
<!DOCTYPE svg PUBLIC "-//W3C//DTD SVG 1.1//EN" "http://www.w3.org/Graphics/SVG/1.1/DTD/svg11.dtd">
<svg version="1.1" id="Layer_1" xmlns="http://www.w3.org/2000/svg" xmlns:xlink="http://www.w3.org/1999/xlink" x="0px" y="0px"
	 width="28px" height="45px" viewBox="0 0 28 45" enable-background="new 0 0 28 45" xml:space="preserve">
<g>
	<path fill="#FFFFFF" d="M14.602,40.133c-0.309,0.333-0.829,0.352-1.162,0.042c-0.014-0.014-0.028-0.026-0.042-0.042
		c-0.195-0.207-0.387-0.42-0.575-0.633c-2.138-2.376-4.163-4.852-6.07-7.414c-1.183-1.585-2.295-3.221-3.331-4.904
		c-2.198-3.604-3.42-6.648-3.42-9.021C-0.087,10.428,6.108,4.089,13.84,4.001c7.732-0.088,14.071,6.107,14.159,13.839
		c0.001,0.105,0.001,0.213,0,0.32c0,2.372-1.226,5.417-3.417,9.021c-1.036,1.684-2.148,3.318-3.332,4.9
		C19.171,34.878,16.952,37.562,14.602,40.133z M15.434,36.714c1.563-1.817,3.062-3.688,4.492-5.608
		c1.153-1.543,2.238-3.138,3.247-4.777c2.052-3.368,3.183-6.177,3.183-8.167c0-6.822-5.531-12.354-12.354-12.354
		c-6.823,0-12.353,5.531-12.353,12.353c0,1.992,1.128,4.799,3.18,8.167c1.009,1.641,2.093,3.233,3.247,4.776
		c1.863,2.504,3.841,4.92,5.927,7.242C14.434,37.863,14.915,37.314,15.434,36.714z"/>
	<path fill="#FFFFFF" d="M14.001,22.457c-2.729,0.053-4.983-2.116-5.036-4.845c-0.052-2.729,2.117-4.983,4.846-5.036
		c0.063,0,0.127,0,0.19,0c2.729,0.053,4.899,2.308,4.847,5.036C18.797,20.267,16.656,22.406,14.001,22.457z M14.001,20.812
		c1.819,0,3.294-1.475,3.294-3.294c0-1.82-1.475-3.295-3.294-3.295c-1.819,0.042-3.259,1.552-3.216,3.371
		c0.041,1.759,1.457,3.175,3.216,3.216V20.812z"/>
</g>
</svg>
