<svg xmlns="http://www.w3.org/2000/svg" width="20" height="20" viewBox="0 0 20 20">
    <g fill="#FFF" fill-rule="nonzero">
        <path d="M19.149 19.167H.85V8.977L4.618 6.6a.411.411 0 0 0 .127-.576.431.431 0 0 0-.588-.124L.195 8.4A.415.415 0 0 0 0 8.75v10.833c0 .23.19.417.426.417h19.148a.421.421 0 0 0 .426-.417V8.75a.415.415 0 0 0-.195-.35l-3.962-2.5a.431.431 0 0 0-.588.124.411.411 0 0 0 .127.576l3.767 2.377v10.19z"/>
        <path d="M.205 12.856l5.957 3.542c.201.12.463.057.585-.14a.412.412 0 0 0-.143-.572L.646 12.144a.43.43 0 0 0-.584.14.412.412 0 0 0 .143.572zM19.354 12.144l-5.958 3.542a.412.412 0 0 0-.143.572.43.43 0 0 0 .585.14l5.957-3.542c.201-.12.265-.376.143-.572a.43.43 0 0 0-.584-.14z"/>
        <path d="M18.945 19.532a.43.43 0 0 0 .578-.166.412.412 0 0 0-.17-.565l-9.362-5a.433.433 0 0 0-.415.004l-8.936 5a.412.412 0 0 0-.158.568c.116.2.376.27.58.155l8.73-4.884 9.153 4.888z"/>
        <path d="M14.894 5.417v9.375c0 .23.19.416.425.416a.421.421 0 0 0 .426-.416V5c0-.23-.19-.417-.426-.417H4.681A.421.421 0 0 0 4.255 5v9.792c0 .23.19.416.426.416a.421.421 0 0 0 .425-.416V5.417h9.788z"/>
        <path d="M13.391 5.353a.43.43 0 0 0 .587-.132.412.412 0 0 0-.135-.574l-3.405-2.084a.433.433 0 0 0-.45 0L6.582 4.647a.412.412 0 0 0-.135.574.43.43 0 0 0 .586.132l3.179-1.945 3.178 1.945zM7.234 8.75h2.255V7.083H7.234V8.75zm-.425-2.5h3.106c.235 0 .425.187.425.417v2.5c0 .23-.19.416-.425.416H6.809a.421.421 0 0 1-.426-.416v-2.5c0-.23.19-.417.426-.417zM6.383 11.25h6.808v-.833H6.383zM6.383 12.917h6.808v-.834H6.383zM18.173 4.878l1.505-1.473a.41.41 0 0 0 0-.59.432.432 0 0 0-.602 0L17.57 4.29a.41.41 0 0 0 0 .589.432.432 0 0 0 .602 0zM2.429 4.289L.924 2.816a.432.432 0 0 0-.602 0 .41.41 0 0 0 0 .589l1.505 1.473a.432.432 0 0 0 .602 0 .41.41 0 0 0 0-.59zM14.863 2.655L15.714.57a.414.414 0 0 0-.237-.541.429.429 0 0 0-.553.232l-.851 2.083a.414.414 0 0 0 .237.542.429.429 0 0 0 .553-.232zM6.353 2.345L5.5.262A.429.429 0 0 0 4.948.03a.414.414 0 0 0-.237.541l.851 2.084a.429.429 0 0 0 .553.232.414.414 0 0 0 .238-.542z"/>
    </g>
</svg>
