<?xml version="1.0" encoding="utf-8"?>
<!-- Generator: Adobe Illustrator 15.0.0, SVG Export Plug-In . SVG Version: 6.00 Build 0)  -->
<!DOCTYPE svg PUBLIC "-//W3C//DTD SVG 1.1//EN" "http://www.w3.org/Graphics/SVG/1.1/DTD/svg11.dtd">
<svg version="1.1" id="Layer_1" xmlns="http://www.w3.org/2000/svg" xmlns:xlink="http://www.w3.org/1999/xlink" x="0px" y="0px"
	 width="22px" height="21px" viewBox="0 0 22 21" enable-background="new 0 0 22 21" xml:space="preserve">
<g>
	<defs>
		<polygon id="SVGID_1_" points="17.992,9.992 20.074,6.82 21.122,7.608 19.041,10.781 16.959,13.953 16.435,14.751 13.829,10.781 
			11.747,7.609 12.795,6.82 14.878,9.992 16.435,12.365 		"/>
	</defs>
	<clipPath id="SVGID_2_">
		<use xlink:href="#SVGID_1_"  overflow="visible"/>
	</clipPath>
	<rect x="6.747" y="1.82" clip-path="url(#SVGID_2_)" fill="#727272" width="19.375" height="17.931"/>
</g>
<polygon fill="none" stroke="#727272" stroke-miterlimit="10" points="17.992,9.992 20.074,6.82 21.122,7.608 19.041,10.781 
	16.959,13.953 16.435,14.751 13.829,10.781 11.747,7.609 12.795,6.82 14.878,9.992 16.435,12.365 "/>
<g>
	<defs>
		<polygon id="SVGID_3_" points="3.353,11.579 1.271,14.751 0.223,13.963 2.305,10.79 4.386,7.618 4.91,6.82 7.516,10.79 
			9.598,13.963 8.55,14.751 6.468,11.579 4.91,9.206 		"/>
	</defs>
	<clipPath id="SVGID_4_">
		<use xlink:href="#SVGID_3_"  overflow="visible"/>
	</clipPath>
	<rect x="-4.777" y="1.82" clip-path="url(#SVGID_4_)" fill="#727272" width="19.375" height="17.931"/>
</g>
<polygon fill="none" stroke="#727272" stroke-miterlimit="10" points="3.353,11.579 1.271,14.751 0.223,13.963 2.305,10.79 
	4.386,7.618 4.91,6.82 7.516,10.79 9.598,13.963 8.55,14.751 6.468,11.579 4.91,9.206 "/>
</svg>
