<svg xmlns="http://www.w3.org/2000/svg" width="20" height="20" viewBox="0 0 20 20">
    <g fill="#FFF" fill-rule="nonzero">
        <path d="M.762 19.208h18.483V7.132H.762v12.076zM.007 6.34H20V20H.007V6.34z"/>
        <path d="M.762 6.34h18.483V2.774H.762V6.34zM.007 1.98H20v5.151H.007v-5.15z"/>
        <path d="M3.404 0v2.774h.754V0zM15.48 0v2.774h.754V0zM2.76 8.437l-1.335 1.4a.41.41 0 0 0 0 .561.365.365 0 0 0 .534 0l1.334-1.4a.41.41 0 0 0 0-.561.365.365 0 0 0-.534 0zM6.533 8.437l-1.334 1.4a.41.41 0 0 0 0 .561.365.365 0 0 0 .534 0l1.334-1.4a.41.41 0 0 0 0-.561.365.365 0 0 0-.534 0zM10.307 8.437l-1.335 1.4a.41.41 0 0 0 0 .561.365.365 0 0 0 .534 0l1.334-1.4a.41.41 0 0 0 0-.561.365.365 0 0 0-.533 0zM14.08 8.437l-1.334 1.4a.41.41 0 0 0 0 .561.365.365 0 0 0 .534 0l1.334-1.4a.41.41 0 0 0 0-.561.365.365 0 0 0-.534 0zM17.854 8.437l-1.334 1.4a.41.41 0 0 0 0 .561.365.365 0 0 0 .533 0l1.334-1.4a.41.41 0 0 0 0-.561.365.365 0 0 0-.533 0zM2.76 11.607l-1.335 1.4a.41.41 0 0 0 0 .56.365.365 0 0 0 .534 0l1.334-1.4a.41.41 0 0 0 0-.56.365.365 0 0 0-.534 0zM6.533 11.607l-1.334 1.4a.41.41 0 0 0 0 .56.365.365 0 0 0 .534 0l1.334-1.4a.41.41 0 0 0 0-.56.365.365 0 0 0-.534 0zM10.307 11.607l-1.335 1.4a.41.41 0 0 0 0 .56.365.365 0 0 0 .534 0l1.334-1.4a.41.41 0 0 0 0-.56.365.365 0 0 0-.533 0zM14.445 11.608L13.11 13.01a.41.41 0 0 0 0 .56.365.365 0 0 0 .533 0l1.334-1.4a.41.41 0 0 0 0-.56.365.365 0 0 0-.533 0z"/>
        <path d="M13.11 12.169l1.335 1.4a.365.365 0 0 0 .533 0 .41.41 0 0 0 0-.56l-1.334-1.4a.365.365 0 0 0-.533 0 .41.41 0 0 0 0 .56zM17.854 11.607l-1.334 1.4a.41.41 0 0 0 0 .56.365.365 0 0 0 .533 0l1.334-1.4a.41.41 0 0 0 0-.56.365.365 0 0 0-.533 0zM2.76 14.776l-1.335 1.401a.41.41 0 0 0 0 .56.365.365 0 0 0 .534 0l1.334-1.4a.41.41 0 0 0 0-.56.365.365 0 0 0-.534 0zM6.533 14.776l-1.334 1.401a.41.41 0 0 0 0 .56.365.365 0 0 0 .534 0l1.334-1.4a.41.41 0 0 0 0-.56.365.365 0 0 0-.534 0zM10.357 14.82l-1.334 1.401a.41.41 0 0 0 0 .56.365.365 0 0 0 .533 0l1.335-1.4a.41.41 0 0 0 0-.56.365.365 0 0 0-.534 0z"/>
        <path d="M9.023 15.38l1.334 1.402a.365.365 0 0 0 .534 0 .41.41 0 0 0 0-.56L9.556 14.82a.365.365 0 0 0-.533 0 .41.41 0 0 0 0 .56zM14.08 14.776l-1.334 1.401a.41.41 0 0 0 0 .56.365.365 0 0 0 .534 0l1.334-1.4a.41.41 0 0 0 0-.56.365.365 0 0 0-.534 0zM17.854 14.776l-1.334 1.401a.41.41 0 0 0 0 .56.365.365 0 0 0 .533 0l1.334-1.4a.41.41 0 0 0 0-.56.365.365 0 0 0-.533 0z"/>
    </g>
</svg>
