<svg xmlns="http://www.w3.org/2000/svg" width="20" height="20" viewBox="0 0 20 20">
    <g fill="#727272" fill-rule="nonzero">
        <path d="M9.41 15.956l-4.575.782L2.52 3.285 16.45.904l1.721 10.007c.04.228.256.38.474.34a.42.42 0 0 0 .332-.486L17.186.348c-.039-.227-.252-.384-.47-.341l-5.132.878L1.262.002A.392.392 0 0 0 .96.103a.423.423 0 0 0-.14.294L0 15.517a.416.416 0 0 0 .364.441l3.576.409.16.927a.412.412 0 0 0 .47.341l4.975-.851a.418.418 0 0 0 .336-.483.413.413 0 0 0-.47-.345zm-8.57-.789L1.614.875l6.682.571-6.316 1.08a.411.411 0 0 0-.267.173.428.428 0 0 0-.069.315l2.148 12.49-2.952-.337z"/>
        <path d="M15.146 10.92c-2.482 0-4.503 2.073-4.503 4.62 0 2.549 2.02 4.62 4.503 4.62s4.503-2.071 4.503-4.62c0-2.547-2.02-4.62-4.503-4.62zm0 8.4c-2.031 0-3.684-1.695-3.684-3.78 0-2.083 1.653-3.78 3.684-3.78s3.684 1.697 3.684 3.78c0 2.085-1.653 3.78-3.684 3.78z"/>
        <path d="M17.073 13.564a.402.402 0 0 0-.58 0l-1.347 1.383-1.347-1.383a.402.402 0 0 0-.58 0 .428.428 0 0 0 0 .594l1.348 1.383-1.347 1.382a.428.428 0 0 0 0 .594.406.406 0 0 0 .579 0l1.347-1.382 1.348 1.382a.406.406 0 0 0 .579 0 .428.428 0 0 0 0-.594l-1.348-1.382 1.348-1.383a.428.428 0 0 0 0-.594z"/>
    </g>
</svg>
