<svg xmlns="http://www.w3.org/2000/svg" width="20" height="20" viewBox="0 0 20 20">
    <g fill="#FFF" fill-rule="nonzero">
        <path d="M9.41 15.956l-4.576.782L2.521 3.286 16.45.904l1.721 10.007c.04.229.256.38.474.34a.42.42 0 0 0 .332-.486L17.186.348c-.039-.227-.252-.384-.47-.34l-5.132.877L1.262.002A.392.392 0 0 0 .96.104a.423.423 0 0 0-.14.294l-.818 15.12a.416.416 0 0 0 .362.44l3.577.409.16.927a.412.412 0 0 0 .47.341l4.974-.85a.418.418 0 0 0 .337-.484.413.413 0 0 0-.47-.345zm-8.57-.789L1.614.876l6.682.57-6.317 1.081a.411.411 0 0 0-.266.172.428.428 0 0 0-.07.315l2.15 12.49-2.953-.337z"/>
        <path d="M15.146 10.921c-2.482 0-4.503 2.072-4.503 4.62s2.02 4.62 4.503 4.62c2.482 0 4.503-2.072 4.503-4.62s-2.02-4.62-4.503-4.62zm0 8.4c-2.031 0-3.684-1.696-3.684-3.78 0-2.084 1.653-3.78 3.684-3.78s3.684 1.696 3.684 3.78c0 2.084-1.653 3.78-3.684 3.78z"/>
        <path d="M14.03 14c-.265 0-.529.105-.73.315-.4.42-.4 1.094 0 1.515l1.637 1.716a.085.085 0 0 0 .124 0l1.638-1.715a1.103 1.103 0 0 0 0-1.514 1.002 1.002 0 0 0-1.459 0l-.24.251-.24-.253c-.202-.21-.467-.315-.73-.315z"/>
    </g>
</svg>
