<svg xmlns="http://www.w3.org/2000/svg" width="42" height="42" viewBox="0 0 42 42">
    <g fill="none" fill-rule="evenodd" transform="translate(1 1)">
        <circle cx="20" cy="20" r="20" stroke="#FFF"/>
        <path fill="#FFF" fill-rule="nonzero" d="M33.688 36.305l.012.211-.147.117c-.054.043-.156.121-.302.23a31.264 31.264 0 0 1-3.825 2.382c-3.015 1.585-6.054 2.558-8.941 2.613-2.952.056-6.043-.841-9.088-2.368a29.115 29.115 0 0 1-2.83-1.622 23.124 23.124 0 0 1-1.075-.745s-.212-.11-.423-.225a.79.79 0 0 1-.81-.8v-3.787c0-2.526 2.171-4.672 4.666-4.672h3.524l1.47-3.087a.768.768 0 0 1 1.041-.367.48.48 0 0 0 .126.032c.607-.15 3.19-.002 4.644.017.422-.01.746-.02.895-.025a.33.33 0 0 0 .09-.024.768.768 0 0 1 1.04.367l1.471 3.087h4.02c2.48 0 4.495 2.055 4.495 4.588v3.788c0 .102-.019.2-.053.29zM12.192 12.038C12.192 8.704 14.824 6 18.068 6h9.22a.79.79 0 0 1 .778.8v6.262a2.639 2.639 0 0 1 1.44 2.358v.538c0 1.06-.614 1.987-1.517 2.398-.54 3.987-3.87 7.022-7.86 7.022-3.974 0-7.3-3.02-7.856-6.986a2.633 2.633 0 0 1-1.606-2.434v-.538c0-1.066.619-1.994 1.525-2.402v-.98z"/>
    </g>
</svg>
