<?xml version="1.0" encoding="utf-8"?>
<!-- Generator: Adobe Illustrator 15.0.0, SVG Export Plug-In . SVG Version: 6.00 Build 0)  -->
<!DOCTYPE svg PUBLIC "-//W3C//DTD SVG 1.1//EN" "http://www.w3.org/Graphics/SVG/1.1/DTD/svg11.dtd">
<svg version="1.1" id="Layer_1" xmlns="http://www.w3.org/2000/svg" xmlns:xlink="http://www.w3.org/1999/xlink" x="0px" y="0px"
	 width="40px" height="40px" viewBox="0 0 40 40" enable-background="new 0 0 40 40" xml:space="preserve">
<path fill="#FEFEF8" d="M20,0C8.955,0,0,8.432,0,18.834c0,4.58,1.744,8.906,4.852,12.298L3.72,39.127
	C3.631,39.756,4.342,40.21,4.928,39.9H4.927l7.13-3.776c2.522,1.024,5.22,1.548,7.943,1.543c11.045,0,20-8.431,20-18.833
	C40,8.432,31.045,0,20,0z M14.8,21.828c-1.234,0-2.235-1-2.236-2.234c0-1.234,1-2.235,2.234-2.236c0.001,0,0.001,0,0.002,0
	c1.234,0,2.235,1.002,2.234,2.236C17.033,20.828,16.034,21.828,14.8,21.828z M20.084,21.828c-1.234,0-2.235-1-2.236-2.234
	c0-1.234,1-2.235,2.234-2.236c0,0,0.001,0,0.002,0c1.234,0,2.234,1.002,2.234,2.236C22.317,20.828,21.317,21.828,20.084,21.828z
	 M25.367,21.828c-1.234,0-2.236-1-2.236-2.234c0-1.234,1-2.235,2.234-2.236c0,0,0.001,0,0.002,0c1.234,0,2.234,1.002,2.234,2.236
	C27.601,20.828,26.601,21.828,25.367,21.828z"/>
</svg>
