<svg xmlns="http://www.w3.org/2000/svg" width="22" height="21" viewBox="0 0 22 21">
    <path fill="#EDEDEC" fill-rule="nonzero" d="M7.4 1c-1.97 0-3.758.379-5.095 1.033C.968 2.687 0 3.663 0 4.87v11.583c0 1.194.957 2.166 2.297 2.82 1.34.656 3.13 1.041 5.104 1.041 1.658 0 3.185-.277 4.425-.754.969.48 2.063.754 3.222.754 3.945 0 7.154-3.139 7.154-6.998 0-3.86-3.209-6.998-7.154-6.998-.085 0-.17.004-.254.007V4.87c0-1.206-.96-2.182-2.298-2.836C11.16 1.38 9.372 1 7.401 1zm0 .973c1.844 0 3.51.374 4.672.943 1.163.568 1.75 1.292 1.75 1.953-.23 1.025-.997 1.589-1.75 1.945-1.162.569-2.828.943-4.671.943-1.844 0-3.51-.374-4.672-.943-.861-.436-1.645-1.101-1.75-1.945 0-.66.587-1.385 1.75-1.953 1.163-.57 2.828-.943 4.672-.943zM.988 6.829c.365.33.816.622 1.318.868C3.642 8.35 5.429 8.73 7.401 8.73c.855 0 1.672-.077 2.436-.211a7.008 7.008 0 0 0-1.388 2.089c-.341.029-.69.053-1.048.053-1.841 0-3.504-.376-4.664-.943C1.577 9.15.987 8.437.987 7.765v-.936zm14.06.453c3.413 0 6.168 2.695 6.168 6.033 0 3.338-2.755 6.033-6.167 6.033S8.88 16.653 8.88 13.315c0-3.338 2.755-6.033 6.167-6.033zm.255 1.93c-1.884 0-3.487 1.22-4.016 2.896h-.725a.506.506 0 0 0-.47.506.509.509 0 0 0 .517.46h.508c-.004.08-.015.16-.015.241 0 .163.012.325.03.483h-.57a.506.506 0 0 0-.47.505.509.509 0 0 0 .517.46h.77a4.206 4.206 0 0 0 3.924 2.655c1.344 0 2.271-.585 3.053-1.35a.49.49 0 0 0 .008-.687.517.517 0 0 0-.702 0c-.698.684-1.283 1.071-2.359 1.071a3.215 3.215 0 0 1-2.852-1.689h3.091a.508.508 0 0 0 .501-.483.508.508 0 0 0-.5-.482h-3.416a3.108 3.108 0 0 1-.03-.724h3.445a.508.508 0 0 0 .501-.483.508.508 0 0 0-.5-.483h-3.208a3.21 3.21 0 0 1 2.968-1.93c1.076 0 1.661.38 2.36 1.063a.517.517 0 0 0 .7 0 .49.49 0 0 0-.007-.686c-.782-.765-1.709-1.342-3.053-1.342zM.987 9.726c.363.327.811.616 1.31.86 1.34.655 3.13 1.04 5.104 1.04.24 0 .474-.01.709-.022a6.862 6.862 0 0 0-.216 1.712c0 .078.005.157.008.234-.166.006-.332.007-.501.007-1.841 0-3.504-.375-4.664-.942-1.16-.568-1.75-1.281-1.75-1.953v-.936zm0 2.896a5.72 5.72 0 0 0 1.31.86c1.34.655 3.13 1.04 5.104 1.04.202 0 .403-.005.6-.014.118.665.33 1.298.625 1.885-.398.039-.804.06-1.225.06-1.841 0-3.504-.375-4.664-.942-1.16-.568-1.75-1.281-1.75-1.954v-.935zm0 2.896a5.72 5.72 0 0 0 1.31.86c1.34.655 3.13 1.04 5.104 1.04.614 0 1.21-.034 1.78-.105a7.083 7.083 0 0 0 1.565 1.584c-.973.28-2.118.452-3.345.452-1.84 0-3.503-.375-4.664-.942-1.161-.568-1.75-1.282-1.75-1.954v-.935z"/>
</svg>
