<svg xmlns="http://www.w3.org/2000/svg" xmlns:xlink="http://www.w3.org/1999/xlink" width="22" height="21" viewBox="0 0 22 21">
    <defs>
        <path id="a" d="M0 10.414h21.684V.032H0z"/>
    </defs>
    <g fill="none" fill-rule="evenodd">
        <g transform="translate(0 5.353)">
            <mask id="b" fill="#fff">
                <use xlink:href="#a"/>
            </mask>
            <path fill="#03256B" d="M21.685 5.223l-1.524 1.47c-5.146 4.962-13.491 4.962-18.638 0L0 5.222l1.523-1.468c5.147-4.963 13.492-4.963 18.638 0l1.524 1.468z" mask="url(#b)"/>
        </g>
        <path fill="#000" d="M15.406 10.87c0 2.181-1.834 3.95-4.097 3.95-2.263 0-4.097-1.769-4.097-3.95 0-2.183 1.834-3.951 4.097-3.951 2.263 0 4.097 1.768 4.097 3.95"/>
        <path fill="#164DC8" d="M14.89 10.53c0 2.182-1.833 3.95-4.096 3.95-2.262 0-4.097-1.768-4.097-3.95 0-2.182 1.835-3.95 4.097-3.95 2.263 0 4.097 1.768 4.097 3.95"/>
        <path fill="#03256B" d="M13.17 10.53c0 1.24-1.042 2.245-2.327 2.245-1.286 0-2.329-1.005-2.329-2.245 0-1.24 1.043-2.245 2.329-2.245 1.285 0 2.327 1.005 2.327 2.245"/>
        <path fill="#EDEDEC" fill-rule="nonzero" d="M8.842 10.53c0-1.051.884-1.903 1.974-1.903v-.683c-1.482 0-2.682 1.158-2.682 2.586h.708z"/>
        <path fill="#000" d="M14.79 6.774l.378 1.122h1.224l-.99.693.378 1.122-.99-.693-.99.693.378-1.122-.99-.693h1.224z"/>
        <path fill="#16E3A7" d="M14.588 6.58l.378 1.121h1.224l-.99.694.378 1.122-.99-.693-.99.693.379-1.122-.99-.694h1.223z"/>
    </g>
</svg>
