<svg xmlns="http://www.w3.org/2000/svg" width="22" height="21" viewBox="0 0 22 21">
    <path fill="#EDEDEC" fill-rule="nonzero" stroke="#EDEDEC" stroke-width=".5" d="M7.688 10.42a.385.385 0 0 1-.046-.034 5.329 5.329 0 0 1-.393-.378 8.218 8.218 0 0 1-.837-1.032C5.763 8.029 5.33 6.98 5.214 5.848a.387.387 0 0 1 .34-.427.384.384 0 0 1 .42.347c.067.662.262 1.299.559 1.901.081-.34.24-.688.474-1.04.083-.124.277-.316.591-.6l.059-.054a29.898 29.898 0 0 1 .613-.536l.057-.04c.345-.197.381-.653.09-1.175a17.376 17.376 0 0 0-.34-.553c-.27-.418-.56-.836-.862-1.224-.413-.532-.812-.964-1.179-1.26A2.693 2.693 0 0 0 5.631.91a1.104 1.104 0 0 0-1.316.202l-.969.987c-2.6 2.648-1.891 5.773 1.513 9.24l5.614 5.718c3.404 3.467 6.472 4.19 9.072 1.54l.969-.986c.347-.354.428-.898.198-1.34a2.75 2.75 0 0 0-.27-.412c-.291-.374-.716-.781-1.239-1.202a16.672 16.672 0 0 0-1.74-1.22c-.517-.3-.964-.264-1.158.087l-.04.059a28.042 28.042 0 0 1-.526.624l-.052.06c-.28.32-.468.518-.59.602a3.265 3.265 0 0 1-.897.449 6.631 6.631 0 0 0 2.124.603c.21.023.362.214.34.427a.384.384 0 0 1-.419.347c-1.08-.114-2.085-.475-3-1.003a8.24 8.24 0 0 1-1.043-.714 5.051 5.051 0 0 1-.385-.337.389.389 0 0 1-.06-.078 4.466 4.466 0 0 1-.032-.032l-4.037-4.112zm10.156 2.343c.03.018.085.051.161.099a17.42 17.42 0 0 1 1.672 1.185c.565.455 1.03.9 1.363 1.329.14.18.256.358.347.531a1.944 1.944 0 0 1-.333 2.254l-.969.986c-2.966 3.022-6.488 2.192-10.152-1.54L4.32 11.888C.654 8.156-.161 4.57 2.806 1.548l.969-.986A1.858 1.858 0 0 1 5.988.223c.17.092.345.21.522.354.42.34.858.813 1.304 1.388a17.738 17.738 0 0 1 1.263 1.87c.473.845.408 1.768-.343 2.223a30.212 30.212 0 0 0-.572.5l-.056.051c-.252.229-.436.41-.467.457-.605.909-.545 1.648.24 2.448l4.386 4.467c.785.8 1.51.86 2.403.244.046-.031.224-.219.449-.475l.05-.058a29.383 29.383 0 0 0 .49-.582c.447-.765 1.354-.831 2.187-.347z"/>
</svg>
