<svg xmlns="http://www.w3.org/2000/svg" width="22" height="21" viewBox="0 0 22 21">
    <path fill="#EDEDEC" fill-rule="evenodd" d="M10.505 11.439a5.225 5.225 0 0 1-5.22-5.22A5.225 5.225 0 0 1 10.506 1a5.225 5.225 0 0 1 5.219 5.22 5.225 5.225 0 0 1-5.22 5.219zm0-9.02a3.805 3.805 0 0 1 3.8 3.8 3.805 3.805 0 0 1-3.8 3.8 3.805 3.805 0 0 1-3.801-3.8c0-2.096 1.704-3.8 3.8-3.8zM18.29 21a.71.71 0 0 1-.709-.71c0-3.287-2.09-5.961-4.66-5.961H8.078c-2.568 0-4.658 2.674-4.658 5.962a.71.71 0 0 1-1.419 0c0-4.07 2.726-7.38 6.077-7.38h4.846c3.351 0 6.078 3.31 6.078 7.38a.71.71 0 0 1-.71.709z"/>
</svg>
