<svg xmlns="http://www.w3.org/2000/svg" width="22" height="21" viewBox="0 0 22 21">
    <path fill="#EDEDEC" fill-rule="nonzero" d="M3.15 20.501c.315.315.761.499 1.208.499.446 0 .892-.184 1.207-.499L20.501 5.565c.315-.315.499-.761.499-1.208 0-.446-.184-.892-.499-1.207L17.85.499A1.731 1.731 0 0 0 16.642 0c-.446 0-.892.184-1.207.499L.499 15.435A1.685 1.685 0 0 0 0 16.642c0 .447.184.893.499 1.208l2.651 2.651zm-1.732-4.147L16.354 1.418a.395.395 0 0 1 .288-.105.55.55 0 0 1 .29.105l2.677 2.677a.395.395 0 0 1 .105.289.55.55 0 0 1-.105.288L17.902 6.38l-1.39-1.391c-.263-.263-.683-.263-.92 0-.262.262-.262.682 0 .918l1.392 1.392-1.575 1.575-1.392-1.392c-.262-.262-.682-.262-.918 0-.263.263-.263.683 0 .919l1.391 1.391-1.575 1.575-1.391-1.391c-.263-.262-.683-.262-.919 0-.263.263-.263.683 0 .919l1.391 1.391-1.549 1.549-1.39-1.391c-.263-.263-.683-.263-.92 0-.262.262-.262.682 0 .918l1.392 1.391-1.549 1.55-1.391-1.392c-.263-.262-.683-.262-.919 0-.263.262-.263.682 0 .919l1.391 1.391-2.336 2.336c-.157.158-.42.158-.551 0l-2.757-2.651a.395.395 0 0 1-.105-.289c0-.078.027-.183.105-.262z"/>
</svg>
