<svg xmlns="http://www.w3.org/2000/svg" width="22" height="21" viewBox="0 0 22 21">
    <g fill="none" fill-rule="evenodd">
        <path fill="#000" fill-rule="nonzero" d="M21.361 15.31l-1.358-1.351-.804.801 1.357 1.352zM23.97 17.642l-2.475-2.465-1.073 1.069 2.474 2.464z"/>
        <path fill="#000" fill-rule="nonzero" d="M20.27 11.75a2.815 2.815 0 0 0-2.82-2.809 2.815 2.815 0 0 0-2.821 2.81 2.815 2.815 0 0 0 2.82 2.81 2.815 2.815 0 0 0 2.821-2.81zm1.138 0a3.95 3.95 0 0 1-3.959 3.943 3.95 3.95 0 0 1-3.958-3.942 3.95 3.95 0 0 1 3.958-3.943 3.95 3.95 0 0 1 3.959 3.943z"/>
        <path fill="#164DC8" d="M6.615 3L2 4.26v15.425l4.615-1.26z"/>
        <path fill="#03256B" d="M6.615 3v15.426l4.615 1.259V4.259z"/>
        <path fill="#164DC8" d="M15.845 3L11.23 4.26v15.425l4.615-1.26z"/>
        <path fill="#03256B" d="M15.845 3v15.426l4.615 1.259V4.259z"/>
        <path fill="#EDEDEC" fill-rule="nonzero" d="M20.124 11.75a3.048 3.048 0 0 0-3.054-3.04 3.047 3.047 0 0 0-3.054 3.04 3.048 3.048 0 0 0 3.054 3.042 3.048 3.048 0 0 0 3.054-3.041zm.671 0c0 2.05-1.668 3.711-3.725 3.711a3.718 3.718 0 0 1-3.725-3.71c0-2.05 1.668-3.71 3.725-3.71a3.718 3.718 0 0 1 3.725 3.71z"/>
        <path fill="#000" d="M9.07 11.382v-.573h1.01l-.505.287z"/>
        <path fill="#16E3A7" d="M9.049 11.382l-.374-.644-.374-.644h1.494l-.373.644z"/>
        <path fill="#000" d="M12.931 9.307V8.74h.797l-.398.283z"/>
        <path fill="#16E3A7" d="M12.915 9.191l-.294-.507-.294-.507h1.176l-.294.507z"/>
        <path fill="#000" d="M11.8 16.162v-.921h1.625l-.812.46z"/>
        <path fill="#16E3A7" d="M11.766 16.162l-.6-1.035-.6-1.035h2.4l-.6 1.035z"/>
        <path fill="#000" d="M4.72 14.413v-.665h1.173l-.587.333z"/>
        <path fill="#16E3A7" d="M4.696 14.413l-.433-.748-.433-.746H5.56l-.432.746z"/>
        <path fill="#000" d="M5.713 9.55v-.566h.782l-.391.283z"/>
        <path fill="#16E3A7" d="M5.697 9.427l-.29-.499-.289-.498h1.156l-.288.498z"/>
        <path fill="#000" d="M17.094 12.625v-.665h1.173l-.586.333z"/>
        <path fill="#16E3A7" d="M17.07 12.625l-.433-.747-.433-.747h1.732l-.433.747z"/>
        <path fill="#000" d="M8.607 18.97l-1.992-.544L2 19.686M17.836 18.97l-1.991-.544-4.615 1.26"/>
        <path fill="#EDEDEC" fill-rule="nonzero" d="M23.456 17.775l-2.474-2.464-.805.801 2.474 2.464z"/>
        <path fill="#EDEDEC" fill-rule="nonzero" d="M23.266 17.915l-3.807-3.792-.475.473 3.808 3.792z"/>
    </g>
</svg>
