<svg xmlns="http://www.w3.org/2000/svg" width="22" height="20" viewBox="0 0 22 20">
    <path fill="#EDEDEC" fill-rule="nonzero" d="M3.535 0a.662.662 0 0 0-.58.354L.083 5.687A.67.67 0 0 0 0 6v1.111c0 1.07.636 2 1.547 2.424v9.798c0 .369.296.667.662.667h16.792a.665.665 0 0 0 .663-.667V9.535a2.68 2.68 0 0 0 1.547-2.424V6a.67.67 0 0 0-.083-.313L18.256.354a.662.662 0 0 0-.58-.354H3.536zm.394 1.333h13.353l2.154 4H1.774l2.155-4zM1.326 6.667h2.651v.444c0 .75-.58 1.333-1.326 1.333a1.312 1.312 0 0 1-1.325-1.333v-.444zm3.977 0h2.651v.444c0 .75-.58 1.333-1.326 1.333a1.312 1.312 0 0 1-1.325-1.333v-.444zm3.977 0h2.651v.444c0 .75-.58 1.333-1.326 1.333A1.312 1.312 0 0 1 9.28 7.111v-.444zm3.977 0h2.651v.444c0 .75-.58 1.333-1.326 1.333a1.312 1.312 0 0 1-1.325-1.333v-.444zm3.977 0h2.651v.444c0 .75-.58 1.333-1.325 1.333a1.312 1.312 0 0 1-1.326-1.333v-.444zM4.64 8.868c.487.557 1.198.91 1.988.91.791 0 1.502-.353 1.989-.91.487.557 1.198.91 1.988.91.791 0 1.502-.353 1.989-.91.487.557 1.198.91 1.988.91.791 0 1.502-.353 1.989-.91.44.505 1.066.837 1.768.896v8.903H9.943v-6.445a.665.665 0 0 0-.663-.666H4.86a.665.665 0 0 0-.662.666v6.445H2.872V9.764a2.638 2.638 0 0 0 1.768-.896zm6.85 2.688a.665.665 0 0 0-.664.666v3.111c0 .369.297.667.663.667h4.861a.665.665 0 0 0 .663-.667v-3.11a.665.665 0 0 0-.663-.667h-4.86zm-5.966 1.333h3.093v5.778H5.524v-5.778zm6.628 0h3.535v1.778h-3.535v-1.778z"/>
</svg>
