<?xml version="1.0" encoding="utf-8"?>
<!-- Generator: Adobe Illustrator 15.0.0, SVG Export Plug-In . SVG Version: 6.00 Build 0)  -->
<!DOCTYPE svg PUBLIC "-//W3C//DTD SVG 1.1//EN" "http://www.w3.org/Graphics/SVG/1.1/DTD/svg11.dtd">
<svg version="1.1" id="Layer_1" xmlns="http://www.w3.org/2000/svg" xmlns:xlink="http://www.w3.org/1999/xlink" x="0px" y="0px"
	 width="60px" height="50px" viewBox="0 0 60 50" enable-background="new 0 0 60 50" xml:space="preserve">
<g>
	<path d="M53.082,34.722l-3.08-3.064l-1.823,1.815l3.078,3.065L53.082,34.722z M59,40.011l-5.614-5.592l-2.435,2.425l5.612,5.588
		L59,40.011z"/>
	<path d="M50.606,26.647c-0.007-3.524-2.871-6.376-6.395-6.371c-3.525-0.008-6.389,2.845-6.398,6.371c0,0,0,0,0,0.002
		c0.007,3.526,2.871,6.381,6.396,6.372l0,0c3.525,0.009,6.39-2.844,6.396-6.37c0,0,0,0,0-0.002V26.647z M53.188,26.647
		c-0.009,4.947-4.026,8.952-8.974,8.942c-0.003,0-0.005,0-0.005,0c-4.947,0.01-8.965-3.992-8.977-8.94l0,0
		c0.01-4.947,4.026-8.95,8.975-8.941h0.002c4.947-0.012,8.965,3.989,8.979,8.938c0,0.002,0,0.002,0,0.004V26.647z"/>
	<path fill="#164DC8" d="M19.64,6.804L9.173,9.661v34.983l10.467-2.858V6.804z"/>
	<path fill="#03256B" d="M19.64,6.804v34.983l10.466,2.856V9.658L19.64,6.804z"/>
	<path fill="#164DC8" d="M40.573,6.804L30.105,9.661v34.983l10.468-2.858V6.804z"/>
	<path fill="#03256B" d="M40.573,6.804v34.983l10.465,2.856V9.658L40.573,6.804z"/>
	<path fill="#EDEDEC" d="M50.276,26.647c-0.012-3.816-3.112-6.902-6.926-6.895c-3.818-0.009-6.919,3.078-6.928,6.895l0,0
		c0.009,3.818,3.109,6.905,6.928,6.898l0,0c3.816,0.007,6.917-3.08,6.926-6.896V26.647z M51.798,26.647
		c0,4.648-3.783,8.416-8.447,8.416c-4.655,0.009-8.438-3.757-8.446-8.414c0-4.648,3.782-8.413,8.446-8.413
		c4.655-0.01,8.438,3.758,8.447,8.413V26.647z"/>
	<path d="M25.207,25.812v-1.299h2.291l-1.146,0.649L25.207,25.812z"/>
	<path fill="#16E3A7" d="M25.159,25.812l-0.849-1.461l-0.848-1.46h3.389l-0.847,1.46L25.159,25.812z"/>
	<path d="M33.965,21.107v-1.286h1.808l-0.904,0.642L33.965,21.107z"/>
	<path fill="#16E3A7" d="M33.927,20.844l-0.666-1.149l-0.667-1.15h2.667l-0.667,1.15L33.927,20.844z"/>
	<path d="M31.398,36.653v-2.089h3.685l-1.84,1.044L31.398,36.653z"/>
	<path fill="#16E3A7" d="M31.32,36.653l-1.359-2.348L28.6,31.958h5.442l-1.359,2.348L31.32,36.653z"/>
	<path d="M15.343,32.687v-1.508h2.659l-1.331,0.755L15.343,32.687z"/>
	<path fill="#16E3A7" d="M15.287,32.687l-0.981-1.696l-0.982-1.692h3.924l-0.979,1.692L15.287,32.687z"/>
	<path d="M17.594,21.657v-1.283h1.774l-0.888,0.643L17.594,21.657z"/>
	<path fill="#16E3A7" d="M17.558,21.379L16.9,20.248l-0.655-1.13h2.621l-0.653,1.13L17.558,21.379z"/>
	<path d="M43.404,28.632v-1.509h2.662l-1.329,0.756L43.404,28.632z"/>
	<path fill="#16E3A7" d="M43.351,28.632l-0.983-1.694l-0.98-1.694h3.926l-0.98,1.694L43.351,28.632z"/>
	<path d="M24.157,43.022l-4.518-1.235L9.173,44.644 M45.087,43.022l-4.514-1.235l-10.468,2.856"/>
	<path fill="#EDEDEC" d="M57.833,40.312l-5.61-5.591l-1.827,1.816l5.61,5.59L57.833,40.312z"/>
	<path fill="#EDEDEC" d="M57.4,40.629l-8.633-8.6l-1.076,1.071l8.636,8.603L57.4,40.629z"/>
</g>
</svg>
