<?xml version="1.0" encoding="utf-8"?>
<!-- Generator: Adobe Illustrator 15.0.0, SVG Export Plug-In . SVG Version: 6.00 Build 0)  -->
<!DOCTYPE svg PUBLIC "-//W3C//DTD SVG 1.1//EN" "http://www.w3.org/Graphics/SVG/1.1/DTD/svg11.dtd">
<svg version="1.1" id="Layer_1" xmlns="http://www.w3.org/2000/svg" xmlns:xlink="http://www.w3.org/1999/xlink" x="0px" y="0px"
	 width="215px" height="60px" viewBox="0 0 215 60" enable-background="new 0 0 215 60" xml:space="preserve">
<rect fill="#FFFFFF" width="215" height="60"/>
<g>
	<g>
		<polygon fill="#00E0A6" points="57.383,33.202 53.438,26.353 49.494,19.5 57.398,19.51 65.303,19.521 61.344,26.362 		"/>
		<path fill="#002C6C" d="M39.768,22.757l-1.93-3.247l-6.758-0.008h0.002H30l14.848,25.785c1.238,2.15,4.342,2.15,5.582,0.004
			l1.158-2.004L39.768,22.757z"/>
	</g>
	<g>
		<g>
			<path fill="#002C6C" d="M93.496,32.602v1.996H71.172c0.26,2.482,1.186,4.464,2.777,5.945c1.592,1.48,3.443,2.219,5.553,2.219
				c3.814,0,6.516-1.59,8.109-4.773l5.164,1.111c-1.109,2.85-2.824,5.006-5.135,6.469c-2.314,1.461-5.025,2.193-8.137,2.193
				c-3.852,0-7.156-1.35-9.914-4.055c-2.758-2.703-4.137-6.182-4.137-10.439c0-4.294,1.379-7.803,4.137-10.523
				c2.758-2.722,6.139-4.082,10.135-4.082c3.74,0,6.934,1.305,9.58,3.915C91.951,25.188,93.35,28.529,93.496,32.602z M79.725,23.771
				c-1.926,0-3.701,0.593-5.33,1.776c-1.631,1.188-2.648,2.834-3.055,4.943h16.215c-0.445-2.184-1.369-3.85-2.775-4.998
				C83.371,24.345,81.688,23.771,79.725,23.771z"/>
			<path fill="#002C6C" d="M138.199,24.215v13.384c0,1.482,0.371,2.638,1.111,3.472c0.742,0.832,1.76,1.248,3.055,1.248
				c1.59,0,3.145-0.498,4.664-1.498l1.721,4.83c-2.293,1.408-4.553,2.109-6.773,2.109c-3.037,0-5.387-0.85-7.051-2.551
				c-1.666-1.705-2.5-4.092-2.5-7.167V24.215h-5.945v-4.775h5.945V8.777L138.199,7v12.439h11.387v4.775H138.199z"/>
			<path fill="#002C6C" d="M124.502,46.984h-5.723V31.78c0-4.146-3.373-7.519-7.52-7.519c-4.145,0-7.518,3.372-7.518,7.519v15.204
				H98.02V31.78c0-7.302,5.941-13.24,13.24-13.24c7.301,0,13.242,5.938,13.242,13.24V46.984z"/>
			<path fill="#002C6C" d="M153.52,19.439h5.723v15.203c0,4.146,3.371,7.52,7.516,7.52c4.146,0,7.52-3.373,7.52-7.52V19.439H180
				v15.203c0,7.301-5.939,13.24-13.242,13.24c-7.301,0-13.238-5.939-13.238-13.24V19.439z"/>
		</g>
	</g>
</g>
</svg>
