<?xml version="1.0" encoding="utf-8"?>
<!-- Generator: Adobe Illustrator 15.0.0, SVG Export Plug-In . SVG Version: 6.00 Build 0)  -->
<!DOCTYPE svg PUBLIC "-//W3C//DTD SVG 1.1//EN" "http://www.w3.org/Graphics/SVG/1.1/DTD/svg11.dtd">
<svg version="1.1" id="Layer_1" xmlns="http://www.w3.org/2000/svg" xmlns:xlink="http://www.w3.org/1999/xlink" x="0px" y="0px"
	 width="153px" height="42px" viewBox="0 0 153 42" enable-background="new 0 0 153 42" xml:space="preserve">
<g>
	<g>
		<polygon fill="#00E0A6" points="27.93,26.727 23.907,19.739 19.885,12.751 27.947,12.761 36.01,12.771 31.97,19.749 		"/>
		<path fill="#002C6C" d="M9.963,16.072l-1.968-3.311l-6.892-0.009l0.001,0.001L0,12.752l15.146,26.301
			c1.262,2.192,4.427,2.195,5.693,0.004l1.182-2.045L9.963,16.072z"/>
	</g>
	<g>
		<g>
			<path fill="#002C6C" d="M64.767,26.113v2.038H41.996c0.265,2.53,1.209,4.552,2.832,6.062c1.624,1.511,3.513,2.266,5.665,2.266
				c3.89,0,6.646-1.623,8.271-4.871l5.267,1.133c-1.132,2.908-2.88,5.107-5.238,6.599c-2.361,1.491-5.126,2.237-8.299,2.237
				c-3.928,0-7.299-1.378-10.111-4.135c-2.813-2.757-4.22-6.306-4.22-10.649c0-4.38,1.406-7.959,4.22-10.734
				c2.812-2.776,6.259-4.164,10.337-4.164c3.814,0,7.072,1.331,9.771,3.994S64.616,21.96,64.767,26.113z M50.719,17.106
				c-1.963,0-3.776,0.605-5.437,1.812c-1.662,1.21-2.701,2.89-3.116,5.042h16.541c-0.454-2.228-1.397-3.927-2.832-5.099
				C54.439,17.692,52.721,17.106,50.719,17.106z"/>
			<path fill="#002C6C" d="M110.365,17.559v13.652c0,1.511,0.377,2.69,1.132,3.541c0.756,0.849,1.794,1.274,3.116,1.274
				c1.622,0,3.209-0.511,4.758-1.53l1.756,4.927c-2.341,1.436-4.645,2.153-6.911,2.153c-3.096,0-5.494-0.868-7.193-2.604
				c-1.698-1.737-2.549-4.173-2.549-7.309V17.559h-6.062v-4.871h6.062V1.812L110.365,0v12.688h11.611v4.871H110.365z"/>
			<path fill="#002C6C" d="M96.392,40.783h-5.837V25.276c0-4.229-3.44-7.669-7.669-7.669s-7.668,3.44-7.668,7.669v15.507h-5.837
				V25.276c0-7.447,6.059-13.506,13.505-13.506c7.447,0,13.506,6.059,13.506,13.506V40.783z"/>
			<path fill="#002C6C" d="M125.989,12.688h5.837v15.507c0,4.229,3.44,7.669,7.668,7.669c4.229,0,7.669-3.439,7.669-7.669V12.688
				H153v15.507c0,7.447-6.059,13.506-13.506,13.506s-13.505-6.059-13.505-13.506V12.688z"/>
		</g>
	</g>
</g>
</svg>
