<?xml version="1.0" encoding="utf-8"?>
<!-- Generator: Adobe Illustrator 15.0.0, SVG Export Plug-In . SVG Version: 6.00 Build 0)  -->
<!DOCTYPE svg PUBLIC "-//W3C//DTD SVG 1.1//EN" "http://www.w3.org/Graphics/SVG/1.1/DTD/svg11.dtd">
<svg version="1.1" id="Layer_1" xmlns="http://www.w3.org/2000/svg" xmlns:xlink="http://www.w3.org/1999/xlink" x="0px" y="0px"
	 width="120px" height="33px" viewBox="0 0 120 33" enable-background="new 0 0 120 33" xml:space="preserve">
<g>
	<path fill="#03256B" d="M119.978,16.594c0,2.036,0.058,4.075-0.014,6.108c-0.092,2.62-1.123,4.878-2.932,6.771
		c-1.499,1.568-3.312,2.608-5.441,3.025c-3.617,0.708-6.813-0.182-9.51-2.708c-1.973-1.849-3.028-4.162-3.268-6.848
		c-0.029-0.325-0.025-0.654-0.025-0.981c-0.002-3.882-0.001-7.764-0.001-11.645c0-0.364,0-0.364,0.375-0.364h3.873
		c0.359,0,0.359,0,0.359,0.35v11.727c0,2.999,2.024,5.447,4.963,6.007c3.128,0.595,6.333-1.593,6.908-4.728
		c0.075-0.408,0.114-0.829,0.114-1.245c0.009-3.909,0.005-7.818,0.005-11.727c0-0.385,0-0.385,0.383-0.385
		c1.3,0,2.6,0.006,3.9-0.005c0.25-0.002,0.323,0.068,0.322,0.32c-0.009,2.109-0.005,4.218-0.005,6.327H119.978L119.978,16.594z
		 M54.402,25.479v-5.59c0-5.149,3.591-9.504,8.642-10.479c5.686-1.097,11.312,2.717,12.362,8.402
		c0.133,0.723,0.202,1.457,0.206,2.191c0.02,3.881,0.009,7.762,0.009,11.644c0,0.36-0.001,0.358-0.353,0.358
		c-1.318,0-2.636-0.005-3.954,0.007c-0.25,0.002-0.323-0.07-0.323-0.322c0.008-3.918,0.003-7.835,0.007-11.752
		c0.002-2.634-1.539-4.854-4.008-5.759c-3.427-1.257-7.346,1.055-7.889,4.661c-0.062,0.413-0.094,0.83-0.096,1.247
		c-0.007,3.854-0.004,7.708-0.004,11.562c0,0.355-0.001,0.355-0.352,0.355c-1.3,0.001-2.6-0.006-3.9,0.008
		c-0.268,0.003-0.356-0.056-0.355-0.343C54.409,29.606,54.403,27.543,54.402,25.479L54.402,25.479z M86.557,0
		c0.007,0.139,0.016,0.235,0.016,0.331c0.001,3.073,0.002,6.145,0.002,9.218c0,0.402-0.001,0.403,0.392,0.403
		c2.791,0,5.581,0.004,8.372-0.006c0.279-0.001,0.355,0.078,0.352,0.352c-0.015,1.063-0.015,2.127,0,3.19
		c0.004,0.271-0.087,0.332-0.343,0.332c-2.8-0.008-5.6-0.005-8.399-0.005c-0.371,0-0.372,0.001-0.372,0.374
		c0,3.437,0,6.872-0.001,10.309c0,0.595,0.063,1.179,0.276,1.739c0.508,1.339,1.694,2.083,3.137,2.021
		c1.21-0.053,2.317-0.405,3.345-1.033c0.084-0.052,0.172-0.099,0.28-0.159c0.037,0.084,0.074,0.154,0.101,0.229
		c0.407,1.137,0.81,2.274,1.22,3.41c0.056,0.155,0.064,0.253-0.105,0.354c-1.574,0.929-3.248,1.55-5.094,1.58
		c-1.669,0.027-3.28-0.236-4.719-1.16c-1.554-0.997-2.471-2.444-2.836-4.226c-0.167-0.828-0.255-1.669-0.261-2.513
		c-0.028-3.508-0.012-7.018-0.012-10.526c0-0.394,0-0.395-0.404-0.395c-1.346-0.001-2.691-0.006-4.037,0.004
		c-0.239,0.002-0.312-0.069-0.31-0.309c0.012-1.082,0.012-2.164,0-3.245c-0.002-0.255,0.081-0.321,0.329-0.319
		c1.345,0.012,2.69,0.006,4.036,0.006c0.387,0,0.387,0,0.387-0.381c0-2.59,0.004-5.181-0.008-7.772
		c-0.001-0.289,0.085-0.403,0.363-0.485C83.681,0.896,85.09,0.452,86.557,0L86.557,0z M0,10C0.89,10,1.725,10,2.56,10
		c1.154,0.001,2.308,0.008,3.462,0.002c0.194-0.001,0.311,0.055,0.412,0.229c2.735,4.734,5.477,9.464,8.214,14.196
		c0.846,1.462,1.682,2.93,2.53,4.39c0.096,0.164,0.097,0.288,0,0.448c-0.287,0.474-0.547,0.964-0.839,1.434
		c-1.062,1.707-3.479,1.66-4.483-0.083C8.439,24.683,5.024,18.749,1.604,12.816c-0.476-0.826-0.951-1.653-1.426-2.48
		C0.125,10.243,0.078,10.147,0,10L0,10z M33.208,22.031c0.094,0.908,0.286,1.747,0.657,2.533c0.936,1.982,2.43,3.346,4.595,3.792
		c2.153,0.443,4.199,0.089,5.989-1.278c0.755-0.576,1.318-1.325,1.755-2.165c0.088-0.169,0.172-0.209,0.358-0.168
		c1.223,0.271,2.449,0.528,3.673,0.79c0.07,0.015,0.138,0.04,0.246,0.07c-0.114,0.271-0.212,0.532-0.331,0.783
		c-1.657,3.507-4.467,5.44-8.257,6.014c-1.866,0.283-3.731,0.25-5.521-0.377c-4.052-1.421-6.647-4.206-7.52-8.446
		c-0.509-2.473-0.395-4.956,0.58-7.312c1.513-3.66,4.243-5.952,8.121-6.774c2.43-0.515,4.845-0.354,7.107,0.752
		c3.191,1.561,5.216,4.096,6.062,7.558c0.324,1.328,0.355,2.679,0.332,4.035c-0.003,0.162-0.075,0.201-0.218,0.196
		c-0.218-0.007-0.436-0.002-0.654-0.002L33.208,22.031L33.208,22.031z M33.359,18.676h12.863c0.006-0.053,0.016-0.081,0.011-0.106
		c-0.033-0.15-0.065-0.301-0.106-0.45c-0.354-1.289-0.949-2.436-1.988-3.31c-1.426-1.199-3.091-1.623-4.91-1.389
		c-2.317,0.299-4.137,1.402-5.279,3.492C33.652,17.455,33.455,18.039,33.359,18.676L33.359,18.676z"/>
	<path fill="#00E5A9" d="M28.229,10.049l-6.312,10.896L15.64,10.049H28.229L28.229,10.049z"/>
</g>
</svg>
