<svg xmlns="http://www.w3.org/2000/svg" xmlns:xlink="http://www.w3.org/1999/xlink" width="22" height="21" viewBox="0 0 22 21">
    <defs>
        <path id="a" d="M.193 1.652l.193-.188.571.556V.968L.386.412.193.6z"/>
    </defs>
    <g fill="none" fill-rule="evenodd">
        <path fill="#000" d="M13.983 19.979l-2.528-.633-2.529.633H7.845l3.61-.904 3.604.903z"/>
        <path fill="#EDEDEC" d="M13.983 19.979l-2.528-2.459-2.529 2.459H7.845l3.61-3.51 3.604 3.504z"/>
        <g transform="translate(11.068 16.056)">
            <mask id="b" fill="#fff">
                <use xlink:href="#a"/>
            </mask>
            <path fill="#000" d="M.193 4.62h.764V-1.2H.193z" mask="url(#b)"/>
        </g>
        <path fill="#EDEDEC" d="M11.072 20.676h.764v-5.82h-.764z"/>
        <path fill="#03256B" d="M2.26 14.865h18.39V1.087H2.26z"/>
        <path fill="#000" d="M2 4.9h18.91V1.271H2z"/>
        <path fill="#164DC8" d="M2 4.716h18.91v-3.63H2z"/>
        <path stroke="#000" stroke-width="1.6" d="M5.74 1.08v1.976"/>
        <path fill="#EDEDEC" fill-rule="nonzero" d="M5.172.42v2.488h.692V.42z"/>
        <path stroke="#000" stroke-width="1.6" d="M17.533 1.08v1.976"/>
        <path fill="#000" fill-rule="nonzero" d="M8.685 10.409l1-.973h.896l1.69 1.644 2.253-2.191h2.11L17.93 7.63l-.305-.297-1.168 1.136h-2.11l-2.075 2.017-1.51-1.47H9.505l-1 .973H6.557L4.9 11.6l.305.297 1.531-1.49z"/>
        <path fill="#000" fill-rule="nonzero" d="M18.767 7.16a.652.652 0 0 1-.66.643.652.652 0 0 1-.662-.642c0-.355.297-.643.661-.643.365 0 .661.288.661.643zm-.432 0a.226.226 0 0 0-.229-.222c-.126 0-.229.1-.229.223s.103.222.23.222c.126 0 .228-.1.228-.222zM5.486 11.97a.652.652 0 0 1-.66.642.652.652 0 0 1-.662-.643c0-.354.296-.642.661-.642.365 0 .661.288.661.642zm-.432 0a.226.226 0 0 0-.229-.223c-.126 0-.229.1-.229.222 0 .123.103.223.23.223.126 0 .228-.1.228-.223z"/>
        <path fill="#16E3A7" fill-rule="nonzero" d="M8.65 10.176l1-.973h.911l1.683 1.637 2.246-2.183h2.11l1.29-1.254-.281-.274-1.173 1.14h-2.11l-2.082 2.024-1.518-1.476h-1.24l-1 .972H6.537l-1.652 1.608.28.273 1.537-1.494z"/>
        <g fill-rule="nonzero">
            <path fill="#16E3A7" d="M18.723 6.945a.635.635 0 0 1-.644.626.635.635 0 0 1-.644-.626c0-.346.289-.626.644-.626.356 0 .644.28.644.626zm-.398 0a.242.242 0 0 0-.246-.24.243.243 0 0 0-.246.24c0 .132.11.239.246.239a.242.242 0 0 0 .246-.24zM5.442 11.754a.635.635 0 0 1-.644.625.635.635 0 0 1-.644-.625c0-.346.289-.626.644-.626.356 0 .644.28.644.626zm-.398 0c0-.133-.11-.24-.246-.24a.243.243 0 0 0-.246.24c0 .131.11.238.246.238a.242.242 0 0 0 .246-.238z"/>
            <path fill="#EDEDEC" d="M17.046.42v2.488h.691V.42z"/>
        </g>
    </g>
</svg>
