<svg xmlns="http://www.w3.org/2000/svg" width="20" height="20" viewBox="0 0 20 20">
    <g fill="#727272" fill-rule="nonzero">
        <path d="M19.303 4.788H.788v11.424h18.515V4.788zm.788 11.818a.394.394 0 0 1-.394.394H.394A.394.394 0 0 1 0 16.606V4.394C0 4.176.176 4 .394 4h19.303c.218 0 .394.176.394.394v12.212z"/>
        <path d="M.623 4.073a.394.394 0 0 0-.458.642l9.652 6.893a.394.394 0 0 0 .46-.002l.116-.084.328-.238a4087.098 4087.098 0 0 1 4.73-3.434l.03-.022c1.934-1.4 3.43-2.48 4.316-3.113a.394.394 0 1 0-.458-.642 917.75 917.75 0 0 0-4.32 3.117l-.03.022a3587.013 3587.013 0 0 0-4.731 3.434l-.215.156-9.42-6.729zM.673 16.885l6.224-6.224a.394.394 0 1 0-.558-.558L.115 16.328a.394.394 0 1 0 .558.557zM19.976 16.328l-6.224-6.225a.394.394 0 1 0-.558.558l6.224 6.224a.394.394 0 1 0 .558-.557z"/>
    </g>
</svg>
