<svg xmlns="http://www.w3.org/2000/svg" width="20" height="20" viewBox="0 0 20 20">
    <g fill="#727272" fill-rule="nonzero">
        <path d="M1.324 4.95l2.07-1.862a.426.426 0 0 1 .585.015l2.963 2.963a.426.426 0 0 1 .041.554l-.703.951c-.675.914-.57 2.334.235 3.14l2.763 2.762c.805.805 2.224.912 3.14.235l.95-.703a.426.426 0 0 1 .554.042l2.963 2.963c.16.16.167.417.015.585l-1.862 2.069c-1.411 1.568-3.887 1.782-5.518.468-.152-.094-.446-.315-.93-.73-.848-.726-2.03-1.834-3.6-3.404-1.57-1.57-2.679-2.752-3.406-3.603-.417-.487-.64-.781-.733-.933-1.298-1.648-1.089-4.106.473-5.512zm2.338-.96L1.894 5.583C.659 6.693.497 8.658 1.534 9.954l.038.055c.007.012.04.062.109.154a13 13 0 0 0 .55.68c.711.831 1.805 1.998 3.36 3.553 1.557 1.556 2.722 2.65 3.553 3.36.287.246.51.425.677.549.093.068.142.1.154.108l.06.04c1.276 1.047 3.255.882 4.37-.358l1.593-1.769-2.419-2.419-.656.486c-1.254.926-3.144.785-4.247-.318l-2.763-2.763c-1.102-1.103-1.243-2.994-.317-4.247l.485-.656-2.419-2.418zM17.447 8.51c0-1.569-.613-3.08-1.745-4.212a5.939 5.939 0 0 0-4.213-1.745.426.426 0 1 0 0 .851c1.346 0 2.64.525 3.611 1.496a5.088 5.088 0 0 1 1.496 3.61.426.426 0 1 0 .85 0z"/>
        <path d="M20 8.936c0-2.354-.919-4.62-2.617-6.319A8.908 8.908 0 0 0 11.063 0a.426.426 0 1 0 0 .851c2.132 0 4.18.831 5.718 2.368a8.057 8.057 0 0 1 2.368 5.717.426.426 0 1 0 .851 0zM14.894 8.936c0-1.009-.394-1.98-1.122-2.708a3.818 3.818 0 0 0-2.708-1.122.426.426 0 1 0 0 .851c.785 0 1.54.306 2.106.873.567.566.873 1.32.873 2.106a.426.426 0 1 0 .85 0z"/>
    </g>
</svg>
