<?xml version="1.0" encoding="utf-8"?>
<!-- Generator: Adobe Illustrator 15.0.0, SVG Export Plug-In . SVG Version: 6.00 Build 0)  -->
<!DOCTYPE svg PUBLIC "-//W3C//DTD SVG 1.1//EN" "http://www.w3.org/Graphics/SVG/1.1/DTD/svg11.dtd">
<svg version="1.1" id="Layer_1" xmlns="http://www.w3.org/2000/svg" xmlns:xlink="http://www.w3.org/1999/xlink" x="0px" y="0px"
	 width="22px" height="21px" viewBox="0 0 22 21" enable-background="new 0 0 22 21" xml:space="preserve">
<path fill="#EDEDEC" stroke="#EDEDEC" stroke-width="0.5" d="M7.688,10.42c-0.016-0.01-0.032-0.021-0.046-0.034
	c-0.137-0.119-0.269-0.245-0.393-0.378C6.942,9.687,6.663,9.342,6.412,8.976C5.763,8.029,5.33,6.98,5.214,5.848
	C5.19,5.636,5.342,5.445,5.554,5.421C5.765,5.4,5.953,5.555,5.974,5.766c0,0.001,0,0.001,0,0.002
	C6.041,6.43,6.236,7.067,6.533,7.669c0.081-0.34,0.24-0.688,0.474-1.04c0.083-0.124,0.277-0.316,0.591-0.6l0.059-0.054
	c0.202-0.182,0.406-0.36,0.613-0.536l0.057-0.04c0.345-0.197,0.381-0.653,0.09-1.175c-0.11-0.187-0.223-0.371-0.34-0.553
	c-0.27-0.418-0.56-0.836-0.862-1.224c-0.413-0.532-0.812-0.964-1.179-1.26C5.91,1.083,5.774,0.99,5.631,0.91
	C5.196,0.675,4.659,0.758,4.315,1.112L3.346,2.099c-2.6,2.648-1.891,5.773,1.513,9.24l5.614,5.718
	c3.404,3.467,6.472,4.19,9.072,1.541l0.969-0.986c0.348-0.354,0.428-0.898,0.198-1.34c-0.077-0.146-0.168-0.283-0.271-0.412
	c-0.291-0.375-0.715-0.781-1.238-1.202c-0.554-0.443-1.135-0.851-1.74-1.22c-0.518-0.301-0.964-0.265-1.158,0.086l-0.039,0.06
	c-0.173,0.21-0.348,0.419-0.527,0.624l-0.051,0.061c-0.28,0.319-0.469,0.518-0.59,0.602c-0.275,0.195-0.577,0.346-0.897,0.449
	c0.669,0.318,1.388,0.521,2.124,0.603c0.21,0.022,0.361,0.214,0.34,0.427c-0.02,0.211-0.207,0.367-0.418,0.348c0,0,0,0-0.001,0
	c-1.08-0.114-2.085-0.475-3-1.004c-0.366-0.211-0.714-0.449-1.043-0.713c-0.134-0.106-0.263-0.219-0.386-0.338
	c-0.022-0.023-0.043-0.049-0.06-0.078c-0.011-0.01-0.021-0.021-0.032-0.031L7.688,10.42L7.688,10.42z M17.844,12.764
	c0.03,0.018,0.086,0.051,0.161,0.098c0.58,0.362,1.139,0.758,1.672,1.186c0.565,0.455,1.03,0.9,1.363,1.329
	c0.14,0.181,0.256,0.358,0.347,0.531c0.387,0.744,0.253,1.653-0.332,2.254l-0.97,0.985c-2.966,3.022-6.487,2.192-10.152-1.539
	L4.32,11.889C0.654,8.156-0.161,4.57,2.806,1.548l0.969-0.986c0.579-0.595,1.482-0.733,2.213-0.339
	c0.17,0.092,0.345,0.21,0.522,0.354c0.42,0.34,0.858,0.813,1.304,1.388c0.46,0.596,0.882,1.221,1.263,1.87
	C9.55,4.68,9.485,5.603,8.734,6.058c-0.193,0.164-0.383,0.331-0.572,0.5L8.106,6.609C7.854,6.838,7.67,7.019,7.639,7.066
	c-0.605,0.909-0.545,1.648,0.24,2.448l4.387,4.466c0.784,0.801,1.51,0.86,2.402,0.244c0.046-0.031,0.225-0.219,0.449-0.475
	l0.05-0.059c0.166-0.191,0.329-0.385,0.49-0.582C16.104,12.346,17.011,12.279,17.844,12.764z"/>
</svg>
