<svg xmlns="http://www.w3.org/2000/svg" width="40" height="40" viewBox="0 0 40 40">
    <g fill="#727272" fill-rule="nonzero">
        <path d="M4.928 39.9c-.586.31-1.297-.144-1.208-.773l1.132-7.995C1.744 27.74 0 23.414 0 18.834 0 8.432 8.955 0 20 0s20 8.432 20 18.834-8.955 18.833-20 18.833a21 21 0 0 1-7.943-1.543L4.927 39.9zm6.688-5.307a.859.859 0 0 1 .738-.029A19.26 19.26 0 0 0 20 36.13c10.145 0 18.37-7.744 18.37-17.295 0-9.552-8.225-17.296-18.37-17.296-10.145 0-18.37 7.744-18.37 17.296 0 4.318 1.687 8.388 4.686 11.539a.74.74 0 0 1 .202.616l-.965 6.815 6.063-3.21z"/>
        <path d="M14.8 21.828a2.235 2.235 0 1 1 0-4.47 2.235 2.235 0 0 1 0 4.47zm0-1.51a.725.725 0 1 0 0-1.45.725.725 0 0 0 0 1.45zM20.084 21.828a2.235 2.235 0 1 1 0-4.47 2.235 2.235 0 0 1 0 4.47zm0-1.51a.725.725 0 1 0 0-1.45.725.725 0 0 0 0 1.45zM25.367 21.828a2.235 2.235 0 1 1 0-4.47 2.235 2.235 0 0 1 0 4.47zm0-1.51a.725.725 0 1 0 0-1.45.725.725 0 0 0 0 1.45z"/>
    </g>
</svg>
