<?xml version="1.0" encoding="utf-8"?>
<!-- Generator: Adobe Illustrator 15.0.0, SVG Export Plug-In . SVG Version: 6.00 Build 0)  -->
<!DOCTYPE svg PUBLIC "-//W3C//DTD SVG 1.1//EN" "http://www.w3.org/Graphics/SVG/1.1/DTD/svg11.dtd">
<svg version="1.1" id="Layer_1" xmlns="http://www.w3.org/2000/svg" xmlns:xlink="http://www.w3.org/1999/xlink" x="0px" y="0px"
	 width="22px" height="21px" viewBox="0 0 22 21" enable-background="new 0 0 22 21" xml:space="preserve">
<g>
	<path fill="#727272" d="M19.93,5.681H2.444C2.199,5.681,2,5.88,2,6.125v13.006c0,0.245,0.199,0.444,0.444,0.444H19.93
		c0.246,0,0.444-0.199,0.444-0.444l0,0V6.125C20.374,5.88,20.176,5.681,19.93,5.681L19.93,5.681z M19.486,18.688H2.888v-4.732
		c1.15,1.006,3.642,2.508,8.266,2.508c4.648,0,7.171-1.518,8.333-2.521V18.688z M7.177,5.222c0.246,0,0.444-0.199,0.444-0.444l0,0
		V2.97c0-0.045,0.037-0.082,0.082-0.082h7.033c0.046,0,0.082,0.037,0.082,0.082v1.808c0.001,0.246,0.199,0.444,0.445,0.444
		c0.244,0,0.443-0.199,0.443-0.444V2.97c0-0.536-0.435-0.97-0.971-0.97H7.703c-0.536,0-0.97,0.435-0.97,0.97v1.808
		C6.733,5.023,6.932,5.222,7.177,5.222z"/>
	<path fill="#FFFFFF" d="M19.486,12.682c-0.42,0.517-2.662,2.894-8.333,2.894c-5.636,0-7.857-2.384-8.266-2.892V6.57h16.598v6.114
		V12.682z"/>
	<path fill="#727272" d="M9.79,13.9h2.794c0.246,0,0.444-0.199,0.444-0.445c0-0.245-0.198-0.444-0.444-0.444H9.79
		c-0.245,0-0.444,0.199-0.444,0.444s0.199,0.443,0.444,0.443l0,0V13.9z"/>
</g>
</svg>
