<svg xmlns="http://www.w3.org/2000/svg" width="20" height="20" viewBox="0 0 20 20">
    <g fill="#FFF" fill-rule="nonzero">
        <path d="M19.077 19.968H1.097a.875.875 0 0 1-.875-.875V1.114a.875.875 0 0 1 1.5-.62l17.973 17.98a.875.875 0 0 1-.618 1.5v-.008zm.088-.968l-1.543-1.543-.5.5a.375.375 0 0 1-.53-.53l.5-.5-1.105-1.104-.5.5a.375.375 0 0 1-.53-.53l.5-.5-1.105-1.105-.5.5a.375.375 0 0 1-.53-.53l.5-.5-1.105-1.105-.5.5a.375.375 0 0 1-.53-.53l.5-.5-1.105-1.105-.5.5a.375.375 0 0 1-.53-.53l.5-.5-1.105-1.105-.5.5a.377.377 0 0 1-.532-.533l.5-.5L7.81 7.645l-.5.5a.375.375 0 0 1-.53-.53l.5-.5L6.172 6l-.5.5a.375.375 0 0 1-.53-.53l.5-.5-1.105-1.105-.5.5a.375.375 0 0 1-.537-.522l.5-.5L2.9 2.75l-.5.5a.375.375 0 0 1-.53-.53l.5-.5-1.183-1.183A.118.118 0 0 0 1.1 1a.137.137 0 0 0-.05 0 .12.12 0 0 0-.078.115v17.978c0 .069.056.125.125.125h17.98a.125.125 0 0 0 .088-.213V19z"/>
        <path d="M12.18 16.968H3.848a.625.625 0 0 1-.625-.625V8a.625.625 0 0 1 1.067-.442l8.333 8.342a.625.625 0 0 1-.443 1.068zM3.973 8.313v7.905h7.905L3.973 8.313z"/>
    </g>
</svg>
