<?xml version="1.0" encoding="UTF-8" standalone="no"?>
<svg width="20px" height="20px" viewBox="0 0 20 20" version="1.1" xmlns="http://www.w3.org/2000/svg" xmlns:xlink="http://www.w3.org/1999/xlink">
    <!-- Generator: Sketch 44.1 (41455) - http://www.bohemiancoding.com/sketch -->
    <title>Icons Grey / area-grey</title>
    <desc>Created with Sketch.</desc>
    <defs></defs>
    <g id="Symbols" stroke="none" stroke-width="1" fill="none" fill-rule="evenodd">
        <g id="Icons-Grey-/-area-grey" fill-rule="nonzero" fill="#727272">
            <g id="Group-5" transform="translate(10.000000, 10.000000) scale(-1, 1) translate(-10.000000, -10.000000) ">
                <path d="M0.9225,19.9675 L18.9025,19.9675 C19.3857492,19.9675 19.7775,19.5757492 19.7775,19.0925 L19.7775,1.115 C19.7806254,0.758078673 19.5666414,0.435037417 19.2367739,0.298692177 C18.9069064,0.162346937 18.5272885,0.240032737 18.2775,0.495 L0.305,18.475 C0.0503715898,18.7244716 -0.0274629425,19.1034709 0.108235747,19.4331034 C0.243934437,19.7627358 0.566035004,19.9770952 0.9225,19.975 L0.9225,19.9675 Z M0.835,19 L2.3775,17.4575 L2.8775,17.9575 C3.02525488,18.0951794 3.25550486,18.0911169 3.3983109,17.9483109 C3.54111694,17.8055049 3.54517943,17.5752549 3.4075,17.4275 L2.9075,16.9275 L4.0125,15.8225 L4.5125,16.3225 C4.66025488,16.4601794 4.89050486,16.4561169 5.0333109,16.3133109 C5.17611694,16.1705049 5.18017943,15.9402549 5.0425,15.7925 L4.5425,15.2925 L5.6475,14.1875 L6.1475,14.6875 C6.29525488,14.8251794 6.52550486,14.8211169 6.6683109,14.6783109 C6.81111694,14.5355049 6.81517943,14.3052549 6.6775,14.1575 L6.1775,13.6575 L7.2825,12.5525 L7.7825,13.0525 C7.93025488,13.1901794 8.16050486,13.1861169 8.3033109,13.0433109 C8.44611694,12.9005049 8.45017943,12.6702549 8.3125,12.5225 L7.8125,12.0225 L8.9175,10.9175 L9.4175,11.4175 C9.56525488,11.5551794 9.79550486,11.5511169 9.9383109,11.4083109 C10.0811169,11.2655049 10.0851794,11.0352549 9.9475,10.8875 L9.4475,10.3875 L10.5525,9.2825 L11.0525,9.7825 C11.1995458,9.92954581 11.4379542,9.92954581 11.585,9.7825 C11.7320458,9.63545419 11.7320458,9.39704581 11.585,9.25 L11.085,8.75 L12.19,7.645 L12.69,8.145 C12.8377549,8.28267943 13.0680049,8.27861694 13.2108109,8.1358109 C13.3536169,7.99300486 13.3576794,7.76275488 13.22,7.615 L12.72,7.115 L13.8275,6 L14.3275,6.5 C14.4752549,6.63767943 14.7055049,6.63361694 14.8483109,6.4908109 C14.9911169,6.34800486 14.9951794,6.11775488 14.8575,5.97 L14.3575,5.47 L15.4625,4.365 L15.9625,4.865 C16.1081875,5.00548619 16.339068,5.00502172 16.4841891,4.86395049 C16.6293102,4.72287927 16.6363075,4.49210443 16.5,4.3425 L16,3.8425 L17.1,2.75 L17.6,3.25 C17.7477549,3.38767943 17.9780049,3.38361694 18.1208109,3.2408109 C18.2636169,3.09800486 18.2676794,2.86775488 18.13,2.72 L17.63,2.22 L18.8125,1.0375 C18.8350701,1.01321541 18.866849,0.999595863 18.9,1 C18.9165266,0.99694423 18.9334734,0.99694423 18.95,1 C18.9976102,1.0180152 19.0286734,1.06410889 19.0275,1.115 L19.0275,19.0925 C19.0275,19.1615356 18.9715356,19.2175 18.9025,19.2175 L0.9225,19.2175 C0.872490604,19.2167975 0.82771395,19.1863532 0.808671004,19.1401061 C0.789628058,19.0938589 0.799985035,19.0407125 0.835,19.005 L0.835,19 Z" id="Shape"></path>
                <path d="M7.82,16.9675 L16.1525,16.9675 C16.497678,16.9675 16.7775,16.687678 16.7775,16.3425 L16.7775,8 C16.7779529,7.7468639 16.6256714,7.5184519 16.3918291,7.42151961 C16.1579868,7.32458732 15.8887677,7.37827895 15.71,7.5575 L7.3775,15.9 C7.19827895,16.0787677 7.14458732,16.3479868 7.24151961,16.5818291 C7.3384519,16.8156714 7.5668639,16.9679529 7.82,16.9675 L7.82,16.9675 Z M16.0275,8.3125 L16.0275,16.2175 L8.1225,16.2175 L16.0275,8.3125 Z" id="Shape"></path>
            </g>
        </g>
    </g>
</svg>