<svg xmlns="http://www.w3.org/2000/svg" width="45" height="45" viewBox="0 0 45 45">
    <g fill="#535353" fill-rule="nonzero">
        <path d="M2.368 41.648l6.316-5.684V1.58H2.368v40.07zM1.578 0h7.896a.79.79 0 0 1 .79.79v35.526a.79.79 0 0 1-.262.587l-7.895 7.105A.79.79 0 0 1 .79 43.42V.79A.79.79 0 0 1 1.58 0z"/>
        <path d="M3.636 42.632h34.259v-5.527H9.777l-6.14 5.527zm5.838-7.106h29.21a.79.79 0 0 1 .79.79v7.105a.79.79 0 0 1-.79.79H1.58c-.724 0-1.066-.893-.528-1.377l7.895-7.105a.79.79 0 0 1 .528-.203zM1.579 33.158h3.947a.79.79 0 1 0 0-1.58H1.58a.79.79 0 1 0 0 1.58zM1.579 29.21h3.947a.79.79 0 1 0 0-1.578H1.58a.79.79 0 0 0 0 1.579zM1.579 25.263h3.947a.79.79 0 1 0 0-1.579H1.58a.79.79 0 1 0 0 1.58zM1.579 21.316h3.947a.79.79 0 1 0 0-1.58H1.58a.79.79 0 1 0 0 1.58zM1.579 17.368h3.947a.79.79 0 0 0 0-1.579H1.58a.79.79 0 1 0 0 1.58zM1.579 13.421h3.947a.79.79 0 1 0 0-1.579H1.58a.79.79 0 1 0 0 1.58zM1.579 9.474h3.947a.79.79 0 1 0 0-1.58H1.58a.79.79 0 1 0 0 1.58zM1.579 5.526h3.947a.79.79 0 1 0 0-1.579H1.58a.79.79 0 1 0 0 1.58z"/>
    </g>
</svg>
