<?xml version="1.0" encoding="utf-8"?>
<!-- Generator: Adobe Illustrator 15.0.0, SVG Export Plug-In . SVG Version: 6.00 Build 0)  -->
<!DOCTYPE svg PUBLIC "-//W3C//DTD SVG 1.1//EN" "http://www.w3.org/Graphics/SVG/1.1/DTD/svg11.dtd">
<svg version="1.1" id="Layer_1" xmlns="http://www.w3.org/2000/svg" xmlns:xlink="http://www.w3.org/1999/xlink" x="0px" y="0px"
	 width="22px" height="22px" viewBox="0 0 22 22" enable-background="new 0 0 22 22" xml:space="preserve">
<g>
	<defs>
		<path id="SVGID_1_" d="M21.53,17.767c0,2.35-4.701,3.831-10.524,3.831S0.482,20.116,0.482,17.767c0-2.348,4.7-3.829,10.523-3.829
			S21.53,15.419,21.53,17.767z M20.03,17.767c0-0.379-0.805-0.979-2.339-1.462c-1.742-0.549-4.131-0.867-6.686-0.867
			c-2.556,0-4.943,0.318-6.686,0.867c-1.534,0.483-2.338,1.083-2.338,1.462c0,0.381,0.804,0.979,2.338,1.463
			c1.742,0.55,4.13,0.868,6.686,0.868s4.943-0.318,6.686-0.868C19.226,18.746,20.03,18.147,20.03,17.767z"/>
	</defs>
	<clipPath id="SVGID_2_">
		<use xlink:href="#SVGID_1_"  overflow="visible"/>
	</clipPath>
	<rect x="-4.518" y="8.938" clip-path="url(#SVGID_2_)" fill="#727272" width="31.048" height="17.66"/>
</g>
<g>
	<defs>
		<polygon id="SVGID_3_" points="20.388,1.152 11,17.448 1.612,1.152 		"/>
	</defs>
	<clipPath id="SVGID_4_">
		<use xlink:href="#SVGID_3_"  overflow="visible"/>
	</clipPath>
	<rect x="-3.388" y="-3.848" clip-path="url(#SVGID_4_)" fill="#727272" width="28.775" height="26.296"/>
</g>
<g>
	<defs>
		<path id="SVGID_5_" d="M11,18.95L0.314,0.402h21.371L11,18.95z M2.91,1.902L11,15.945l8.09-14.043H2.91z"/>
	</defs>
	<clipPath id="SVGID_6_">
		<use xlink:href="#SVGID_5_"  overflow="visible"/>
	</clipPath>
	<rect x="-4.686" y="-4.598" clip-path="url(#SVGID_6_)" fill="#727272" width="31.371" height="28.548"/>
</g>
</svg>
