<svg xmlns="http://www.w3.org/2000/svg" width="20" height="20" viewBox="0 0 20 20">
    <g fill="#FFF" fill-rule="nonzero">
        <path d="M9.987 19.677a.45.45 0 0 1-.659 0 16.038 16.038 0 0 1-.315-.346 56.345 56.345 0 0 1-3.32-4.056 35.965 35.965 0 0 1-1.822-2.682C2.669 10.621 2 8.956 2 7.658a7.658 7.658 0 1 1 15.315 0c0 1.298-.67 2.963-1.87 4.935a35.965 35.965 0 0 1-1.822 2.681 56.345 56.345 0 0 1-3.636 4.403zm.455-1.871a55.459 55.459 0 0 0 2.457-3.068 35.083 35.083 0 0 0 1.776-2.613c1.122-1.842 1.74-3.378 1.74-4.467a6.757 6.757 0 1 0-13.514 0c0 1.09.617 2.625 1.739 4.467a35.083 35.083 0 0 0 1.776 2.613A55.459 55.459 0 0 0 9.658 18.7c.237-.265.5-.564.784-.894z"/>
        <path d="M9.658 9.009a2.703 2.703 0 1 1 0-5.405 2.703 2.703 0 0 1 0 5.405zm0-.9a1.802 1.802 0 1 0 0-3.604 1.802 1.802 0 0 0 0 3.603z"/>
    </g>
</svg>
