<?xml version="1.0" encoding="utf-8"?>
<!-- Generator: Adobe Illustrator 15.0.0, SVG Export Plug-In . SVG Version: 6.00 Build 0)  -->
<!DOCTYPE svg PUBLIC "-//W3C//DTD SVG 1.1//EN" "http://www.w3.org/Graphics/SVG/1.1/DTD/svg11.dtd">
<svg version="1.1" id="Layer_1" xmlns="http://www.w3.org/2000/svg" xmlns:xlink="http://www.w3.org/1999/xlink" x="0px" y="0px"
	 width="22px" height="22px" viewBox="0 0 22 22" enable-background="new 0 0 22 22" xml:space="preserve">
<g>
	<defs>
		<path id="SVGID_1_" d="M0.886,15.861c0.363,0.326,0.812,0.615,1.311,0.859c1.34,0.654,3.129,1.041,5.103,1.041
			c0.615,0,1.211-0.035,1.781-0.105c0.434,0.607,0.961,1.137,1.565,1.582c-0.973,0.281-2.118,0.453-3.346,0.453
			c-1.84,0-3.503-0.375-4.664-0.943c-1.161-0.566-1.75-1.281-1.75-1.953V15.861z M0.886,12.965c0.363,0.326,0.812,0.615,1.311,0.859
			c1.34,0.656,3.129,1.041,5.103,1.041c0.203,0,0.404-0.006,0.602-0.016c0.117,0.666,0.33,1.299,0.625,1.885
			c-0.398,0.039-0.805,0.061-1.226,0.061c-1.84,0-3.503-0.375-4.664-0.941c-1.16-0.568-1.75-1.281-1.75-1.953V12.965z M0.886,10.069
			c0.363,0.327,0.812,0.616,1.311,0.859c1.34,0.656,3.129,1.041,5.103,1.041c0.241,0,0.475-0.01,0.709-0.021
			c-0.141,0.547-0.216,1.121-0.216,1.711c0,0.078,0.005,0.156,0.008,0.234C7.635,13.898,7.469,13.9,7.299,13.9
			c-1.84,0-3.503-0.377-4.664-0.943c-1.16-0.568-1.75-1.281-1.75-1.953V10.069z M15.201,9.556c-1.885,0-3.488,1.22-4.016,2.896
			c-0.24,0-0.49,0-0.725,0c-0.259,0.012-0.482,0.254-0.471,0.506c0.012,0.252,0.258,0.473,0.517,0.461h0.509
			C11.01,13.496,11,13.578,11,13.658c0,0.162,0.012,0.324,0.032,0.482c-0.188,0-0.387,0-0.571,0
			c-0.259,0.012-0.482,0.252-0.471,0.506c0.012,0.252,0.258,0.473,0.517,0.459h0.771c0.604,1.549,2.133,2.656,3.924,2.656
			c1.344,0,2.271-0.586,3.053-1.352c0.189-0.176,0.191-0.504,0.008-0.686s-0.52-0.184-0.701,0c-0.699,0.684-1.283,1.07-2.359,1.07
			c-1.244,0-2.318-0.684-2.852-1.689h3.09c0.262,0.004,0.502-0.227,0.502-0.482c0-0.254-0.24-0.486-0.502-0.482h-3.414
			c-0.025-0.156-0.039-0.318-0.039-0.482c0-0.08,0.002-0.162,0.008-0.24h3.445c0.262,0.002,0.502-0.229,0.502-0.484
			c0-0.254-0.24-0.486-0.502-0.482h-3.207c0.484-1.135,1.629-1.93,2.969-1.93c1.076,0,1.66,0.38,2.359,1.063
			c0.182,0.184,0.518,0.182,0.701,0s0.182-0.51-0.008-0.686C17.473,10.133,16.545,9.556,15.201,9.556z M14.947,7.625
			c3.412,0,6.166,2.696,6.166,6.033c0,3.338-2.754,6.033-6.166,6.033S8.78,16.996,8.78,13.658
			C8.78,10.321,11.535,7.625,14.947,7.625z M0.886,7.173C1.251,7.502,1.702,7.795,2.204,8.04c1.337,0.654,3.124,1.033,5.095,1.033
			c0.855,0,1.672-0.077,2.436-0.211c-0.582,0.605-1.053,1.312-1.387,2.089c-0.341,0.029-0.69,0.053-1.049,0.053
			c-1.84,0-3.503-0.375-4.664-0.943s-1.75-1.281-1.75-1.953V7.173z M7.299,2.316c1.844,0,3.509,0.374,4.671,0.943
			s1.75,1.292,1.75,1.953c-0.229,1.025-0.996,1.589-1.75,1.946C10.809,7.726,9.143,8.1,7.299,8.1c-1.843,0-3.509-0.374-4.671-0.942
			c-0.861-0.437-1.645-1.102-1.75-1.946c0-0.661,0.587-1.384,1.75-1.953S5.456,2.316,7.299,2.316z M7.299,1.343
			c-1.971,0-3.758,0.379-5.095,1.033s-2.305,1.63-2.305,2.835v11.583c0,1.195,0.957,2.166,2.297,2.82
			c1.34,0.656,3.13,1.041,5.103,1.041c1.659,0,3.185-0.277,4.425-0.754c0.969,0.48,2.062,0.754,3.223,0.754
			c3.945,0,7.154-3.139,7.154-6.998S18.893,6.66,14.947,6.66c-0.086,0-0.17,0.004-0.254,0.007V5.212
			c0-1.206-0.961-2.181-2.299-2.835C11.059,1.722,9.271,1.343,7.299,1.343z"/>
	</defs>
	<clipPath id="SVGID_2_">
		<use xlink:href="#SVGID_1_"  overflow="visible"/>
	</clipPath>
	<rect x="-5.101" y="-3.657" clip-path="url(#SVGID_2_)" fill="#727272" width="32.203" height="29.313"/>
</g>
</svg>
