<?xml version="1.0" encoding="utf-8"?>
<!-- Generator: Adobe Illustrator 15.0.0, SVG Export Plug-In . SVG Version: 6.00 Build 0)  -->
<!DOCTYPE svg PUBLIC "-//W3C//DTD SVG 1.1//EN" "http://www.w3.org/Graphics/SVG/1.1/DTD/svg11.dtd">
<svg version="1.1" id="Layer_1" xmlns="http://www.w3.org/2000/svg" xmlns:xlink="http://www.w3.org/1999/xlink" x="0px" y="0px"
	 width="31px" height="28px" viewBox="0 0 31 28" enable-background="new 0 0 31 28" xml:space="preserve">
<g id="reload" display="none">
</g>
<g id="add" display="none">
</g>
<g id="next" display="none">
</g>
<g id="close" display="none">
</g>
<g id="prev" display="none">
</g>
<g id="search" display="none">
</g>
<g>
	<path fill="#727272" d="M8.245,17.847l0.565-0.565l-2.908-2.937c-1.147-1.201-1.78-2.777-1.78-4.439
		c0-3.534,2.861-6.409,6.377-6.409c1.99,0,3.829,0.906,5.044,2.487l0.317,0.412l0.317-0.412c1.216-1.581,3.054-2.487,5.044-2.487
		c0.428,0,0.845,0.044,1.248,0.125l0.658-0.659c-0.607-0.168-1.245-0.266-1.906-0.266c-2.073,0-4.001,0.874-5.361,2.414
		c-1.36-1.541-3.288-2.414-5.361-2.414c-3.958,0-7.177,3.234-7.177,7.209c0,1.869,0.711,3.642,2.006,4.997L8.245,17.847z"/>
	<path fill="#727272" d="M26.687,6.617C27.262,7.58,27.6,8.703,27.6,9.905c0,1.758-0.693,3.396-1.958,4.618l-9.78,9.879
		l-3.463-3.497l-0.565,0.565l4.028,4.068l10.343-10.446c1.416-1.368,2.196-3.21,2.196-5.188c0-1.425-0.419-2.75-1.132-3.87
		L26.687,6.617z"/>
</g>
<rect x="15.501" y="-3.705" transform="matrix(0.7065 0.7077 -0.7077 0.7065 14.4328 -7.2038)" fill="#727272" width="0.8" height="35.008"/>
</svg>
