<?xml version="1.0" encoding="UTF-8" standalone="no"?>
<svg width="19px" height="20px" viewBox="0 0 19 20" version="1.1" xmlns="http://www.w3.org/2000/svg" xmlns:xlink="http://www.w3.org/1999/xlink">
    <!-- Generator: Sketch 44.1 (41455) - http://www.bohemiancoding.com/sketch -->
    <title>agricultural-white</title>
    <desc>Created with Sketch.</desc>
    <defs></defs>
    <g id="Symbols" stroke="none" stroke-width="1" fill="none" fill-rule="evenodd">
        <g id="agricultural-white" fill-rule="nonzero" fill="#FFFFFF">
            <path d="M6.45344386,6.36843731 L7.11244666,6.36843731 L7.53936727,1.03469573 L6.02652325,1.03469573 L6.45344386,6.36843731 Z M5.08457569,0.165130511 L8.48131482,0.165130511 L7.91519164,7.23800253 L5.65069888,7.23800253 L5.08457569,0.165130511 Z" id="Rectangle-135" transform="translate(6.782945, 3.701567) rotate(-45.000000) translate(-6.782945, -3.701567) "></path>
            <path d="M12.5900344,6.51228347 L11.9310316,6.51228347 L11.504111,11.8460251 L13.016955,11.8460251 L12.5900344,6.51228347 Z M13.9589026,12.7155903 L10.5621634,12.7155903 L11.1282866,5.64271825 L13.3927794,5.64271825 L13.9589026,12.7155903 Z" id="Rectangle-135" transform="translate(12.260533, 9.179154) rotate(-45.000000) translate(-12.260533, -9.179154) "></path>
            <path d="M6.45344386,11.8460251 L7.11244666,11.8460251 L7.53936727,6.51228347 L6.02652325,6.51228347 L6.45344386,11.8460251 Z M5.08457569,5.64271825 L8.48131482,5.64271825 L7.91519164,12.7155903 L5.65069888,12.7155903 L5.08457569,5.64271825 Z" id="Rectangle-137" transform="translate(6.782945, 9.179154) rotate(-135.000000) translate(-6.782945, -9.179154) "></path>
            <path d="M12.5900344,1.03469573 L11.9310316,1.03469573 L11.504111,6.36843731 L13.016955,6.36843731 L12.5900344,1.03469573 Z M13.9589026,7.23800253 L10.5621634,7.23800253 L11.1282866,0.165130511 L13.3927794,0.165130511 L13.9589026,7.23800253 Z" id="Rectangle-136" transform="translate(12.260533, 3.701567) rotate(-135.000000) translate(-12.260533, -3.701567) "></path>
            <path d="M4.36598736,18.7661509 L14.6009295,18.7661509 L12.2527914,13.236451 L6.71412549,13.236451 L4.36598736,18.7661509 Z M6.42639322,12.3668857 L12.5405237,12.3668857 C12.7149743,12.3668857 12.8725333,12.4711558 12.9407192,12.6317288 L15.6581105,19.030994 C15.7798698,19.3177287 15.5694308,19.6357161 15.257915,19.6357161 L3.70900191,19.6357161 C3.39748609,19.6357161 3.18704702,19.3177287 3.30880636,19.030994 L6.02619766,12.6317288 C6.0943836,12.4711558 6.25194254,12.3668857 6.42639322,12.3668857 Z" id="Rectangle-139"></path>
            <path d="M8.65465409,19.5377369 L7.78508887,18.6681717 L8.65465409,18.6681717 L8.65465409,19.5377369 Z M8.65465409,18.6681717 L10.3122628,18.6681717 L10.3122628,16.0288576 L8.65465409,16.0288576 L8.65465409,18.6681717 Z M7.78508887,15.1592924 L11.181828,15.1592924 L11.181828,19.5377369 L7.78508887,19.5377369 L7.78508887,15.1592924 Z" id="Rectangle-140"></path>
            <path d="M10.3122628,13.1384718 L11.181828,12.2689066 L10.3122628,12.2689066 L10.3122628,13.1384718 Z M8.65465409,13.1384718 L7.78508887,12.2689066 L8.65465409,12.2689066 L8.65465409,13.1384718 Z M10.3122628,9.09683063 L11.181828,9.09683063 L11.181828,13.1384718 L7.78508887,13.1384718 L7.78508887,9.09683063 L8.65465409,9.09683063 L8.65465409,12.2689066 L10.3122628,12.2689066 L10.3122628,9.09683063 Z M7.78508887,12.2689066 L8.65465409,13.1384718 L8.65465409,12.2689066 L7.78508887,12.2689066 Z M11.181828,12.2689066 L10.3122628,13.1384718 L10.3122628,12.2689066 L11.181828,12.2689066 Z M10.3122628,12.2689066 L10.3122628,9.09683063 L11.181828,9.09683063 L11.181828,13.1384718 L7.78508887,13.1384718 L7.78508887,9.09683063 L8.65465409,9.09683063 L8.65465409,12.2689066 L10.3122628,12.2689066 Z" id="Rectangle-141"></path>
        </g>
    </g>
</svg>