<?xml version="1.0" encoding="UTF-8" standalone="no"?>
<svg width="20px" height="20px" viewBox="0 0 20 20" version="1.1" xmlns="http://www.w3.org/2000/svg" xmlns:xlink="http://www.w3.org/1999/xlink">
    <!-- Generator: Sketch 44.1 (41455) - http://www.bohemiancoding.com/sketch -->
    <title>area-white</title>
    <desc>Created with Sketch.</desc>
    <defs></defs>
    <g id="Symbols" stroke="none" stroke-width="1" fill="none" fill-rule="evenodd">
        <g id="area-white" fill-rule="nonzero" fill="#FFFFFF">
            <path d="M1.10263683,19.9675 L19.0826368,19.9675 C19.565886,19.9675 19.9576368,19.5757492 19.9576368,19.0925 L19.9576368,1.115 C19.9607623,0.758078673 19.7467782,0.435037417 19.4169107,0.298692177 C19.0870432,0.162346937 18.7074253,0.240032737 18.4576368,0.495 L0.485136825,18.475 C0.230508415,18.7244716 0.152673883,19.1034709 0.288372572,19.4331034 C0.424071262,19.7627358 0.746171829,19.9770952 1.10263683,19.975 L1.10263683,19.9675 Z M1.01513683,19 L2.55763683,17.4575 L3.05763683,17.9575 C3.2053917,18.0951794 3.43564169,18.0911169 3.57844772,17.9483109 C3.72125376,17.8055049 3.72531626,17.5752549 3.58763683,17.4275 L3.08763683,16.9275 L4.19263683,15.8225 L4.69263683,16.3225 C4.8403917,16.4601794 5.07064169,16.4561169 5.21344772,16.3133109 C5.35625376,16.1705049 5.36031626,15.9402549 5.22263683,15.7925 L4.72263683,15.2925 L5.82763683,14.1875 L6.32763683,14.6875 C6.4753917,14.8251794 6.70564169,14.8211169 6.84844772,14.6783109 C6.99125376,14.5355049 6.99531626,14.3052549 6.85763683,14.1575 L6.35763683,13.6575 L7.46263683,12.5525 L7.96263683,13.0525 C8.1103917,13.1901794 8.34064169,13.1861169 8.48344772,13.0433109 C8.62625376,12.9005049 8.63031626,12.6702549 8.49263683,12.5225 L7.99263683,12.0225 L9.09763683,10.9175 L9.59763683,11.4175 C9.7453917,11.5551794 9.97564169,11.5511169 10.1184477,11.4083109 C10.2612538,11.2655049 10.2653163,11.0352549 10.1276368,10.8875 L9.62763683,10.3875 L10.7326368,9.2825 L11.2326368,9.7825 C11.3796826,9.92954581 11.618091,9.92954581 11.7651368,9.7825 C11.9121826,9.63545419 11.9121826,9.39704581 11.7651368,9.25 L11.2651368,8.75 L12.3701368,7.645 L12.8701368,8.145 C13.0178917,8.28267943 13.2481417,8.27861694 13.3909477,8.1358109 C13.5337538,7.99300486 13.5378163,7.76275488 13.4001368,7.615 L12.9001368,7.115 L14.0076368,6 L14.5076368,6.5 C14.6553917,6.63767943 14.8856417,6.63361694 15.0284477,6.4908109 C15.1712538,6.34800486 15.1753163,6.11775488 15.0376368,5.97 L14.5376368,5.47 L15.6426368,4.365 L16.1426368,4.865 C16.2883244,5.00548619 16.5192048,5.00502172 16.6643259,4.86395049 C16.809447,4.72287927 16.8164444,4.49210443 16.6801368,4.3425 L16.1801368,3.8425 L17.2801368,2.75 L17.7801368,3.25 C17.9278917,3.38767943 18.1581417,3.38361694 18.3009477,3.2408109 C18.4437538,3.09800486 18.4478163,2.86775488 18.3101368,2.72 L17.8101368,2.22 L18.9926368,1.0375 C19.0152069,1.01321541 19.0469859,0.999595863 19.0801368,1 C19.0966634,0.99694423 19.1136102,0.99694423 19.1301368,1 C19.1777471,1.0180152 19.2088102,1.06410889 19.2076368,1.115 L19.2076368,19.0925 C19.2076368,19.1615356 19.1516724,19.2175 19.0826368,19.2175 L1.10263683,19.2175 C1.05262743,19.2167975 1.00785078,19.1863532 0.988807829,19.1401061 C0.969764883,19.0938589 0.98012186,19.0407125 1.01513683,19.005 L1.01513683,19 Z" id="Shape" transform="translate(10.090068, 10.103663) scale(-1, 1) translate(-10.090068, -10.103663) "></path>
            <path d="M3.84863567,16.9675 L12.1811357,16.9675 C12.5263136,16.9675 12.8061357,16.687678 12.8061357,16.3425 L12.8061357,8 C12.8065886,7.7468639 12.6543071,7.5184519 12.4204648,7.42151961 C12.1866225,7.32458732 11.9174034,7.37827895 11.7386357,7.5575 L3.40613567,15.9 C3.22691462,16.0787677 3.173223,16.3479868 3.27015528,16.5818291 C3.36708757,16.8156714 3.59549957,16.9679529 3.84863567,16.9675 L3.84863567,16.9675 Z M12.0561357,8.3125 L12.0561357,16.2175 L4.15113567,16.2175 L12.0561357,8.3125 Z" id="Shape" transform="translate(8.014318, 12.170682) scale(-1, 1) translate(-8.014318, -12.170682) "></path>
        </g>
    </g>
</svg>