<?xml version="1.0" encoding="UTF-8" standalone="no"?>
<svg width="20px" height="20px" viewBox="0 0 20 20" version="1.1" xmlns="http://www.w3.org/2000/svg" xmlns:xlink="http://www.w3.org/1999/xlink">
    <!-- Generator: Sketch 44.1 (41455) - http://www.bohemiancoding.com/sketch -->
    <title>business-white</title>
    <desc>Created with Sketch.</desc>
    <defs></defs>
    <g id="Symbols" stroke="none" stroke-width="1" fill="none" fill-rule="evenodd">
        <g id="business-white" fill-rule="nonzero" fill="#FFFFFF">
            <path d="M0.754716981,13.3333333 L0.754716981,19.2982456 L19.245283,19.2982456 L19.245283,13.3333333 L0.754716981,13.3333333 Z M0,12.6315789 L20,12.6315789 L20,20 L0,20 L0,12.6315789 Z" id="Rectangle-161"></path>
            <path d="M4.46540881,8.91017099 L4.68816044,8.83619958 L5.16981132,9.1820488 L5.16981132,9.41596693 L4.46540881,9.64988506 L4.46540881,8.91017099 Z M2.70440252,10.2346804 L2.70440252,12.535902 L4.46540881,12.535902 L4.46540881,9.64988506 L2.70440252,10.2346804 Z M2,9.72888444 L5.16981132,8.67625286 L5.16981132,13.2376564 L2,13.2376564 L2,9.72888444 Z" id="Rectangle-163"></path>
            <path d="M7,9.42071294 L7,9.18679481 L7.48165088,8.84094558 L7.70440252,8.91491699 L7.70440252,9.65463106 L7,9.42071294 Z M7.70440252,12.540648 L9.46540881,12.540648 L9.46540881,10.2394264 L7.70440252,9.65463106 L7.70440252,12.540648 Z M10.1698113,9.73363044 L10.1698113,13.2424024 L7,13.2424024 L7,8.68099886 L10.1698113,9.73363044 Z" id="Rectangle-163"></path>
            <path d="M17.2553596,5.26315789 L15.0339486,5.26315789 L14.4422505,12.6315789 L17.8470577,12.6315789 L17.2553596,5.26315789 Z M14.3836478,4.56140351 L17.9056604,4.56140351 L18.6100629,13.3333333 L13.6792453,13.3333333 L14.3836478,4.56140351 Z" id="Rectangle-162"></path>
            <path d="M15.75527,3.52729348 C15.7477503,3.51231066 15.724632,3.44321671 15.697563,3.3083803 C15.64728,3.05791067 15.6163522,2.71898336 15.6163522,2.28070175 C15.6163522,1.93048228 15.716286,1.71809165 15.974971,1.40883663 C15.9834221,1.39873345 16.1035957,1.25734769 16.1390423,1.21402999 C16.3797,0.919933034 16.4968553,0.678123637 16.4968553,0.350877193 C16.4968553,0.15709307 16.3391695,0 16.1446541,0 C15.9501387,0 15.7924528,0.15709307 15.7924528,0.350877193 C15.7924528,0.483524473 15.7408573,0.59001789 15.5930725,0.770619137 C15.562596,0.807863082 15.4460197,0.945016548 15.433834,0.959584421 C15.0793115,1.38341211 14.9119497,1.73910836 14.9119497,2.28070175 C14.9119497,2.76347278 14.9470596,3.14822968 15.0068395,3.44600566 C15.0458082,3.64011662 15.0887277,3.76839109 15.1252332,3.84112758 C15.2122231,4.01445337 15.4237809,4.08470752 15.5977608,3.99804463 C15.7717406,3.91138173 15.8422599,3.70061926 15.75527,3.52729348 Z" id="Path-204"></path>
            <path d="M17.5162762,3.52729348 C17.5087566,3.51231066 17.4856383,3.44321671 17.4585693,3.3083803 C17.4082863,3.05791067 17.3773585,2.71898336 17.3773585,2.28070175 C17.3773585,1.93048228 17.4772923,1.71809165 17.7359773,1.40883663 C17.7444284,1.39873345 17.864602,1.25734769 17.9000486,1.21402999 C18.1407063,0.919933034 18.2578616,0.678123637 18.2578616,0.350877193 C18.2578616,0.15709307 18.1001758,0 17.9056604,0 C17.711145,0 17.5534591,0.15709307 17.5534591,0.350877193 C17.5534591,0.483524473 17.5018636,0.59001789 17.3540788,0.770619137 C17.3236023,0.807863082 17.207026,0.945016548 17.1948403,0.959584421 C16.8403178,1.38341211 16.672956,1.73910836 16.672956,2.28070175 C16.672956,2.76347278 16.7080659,3.14822968 16.7678458,3.44600566 C16.8068145,3.64011662 16.849734,3.76839109 16.8862395,3.84112758 C16.9732294,4.01445337 17.1847872,4.08470752 17.3587671,3.99804463 C17.5327469,3.91138173 17.6032662,3.70061926 17.5162762,3.52729348 Z" id="Path-204"></path>
            <path d="M2.46540881,15.4385965 L3.52201258,15.4385965 L3.52201258,14.7368421 L2.46540881,14.7368421 L2.46540881,15.4385965 Z M1.76100629,14.0350877 L4.22641509,14.0350877 L4.22641509,16.1403509 L1.76100629,16.1403509 L1.76100629,14.0350877 Z" id="Rectangle-165"></path>
            <path d="M5.98742138,15.4385965 L7.04402516,15.4385965 L7.04402516,14.7368421 L5.98742138,14.7368421 L5.98742138,15.4385965 Z M5.28301887,14.0350877 L7.74842767,14.0350877 L7.74842767,16.1403509 L5.28301887,16.1403509 L5.28301887,14.0350877 Z" id="Rectangle-166"></path>
            <path d="M9.50943396,15.4385965 L10.5660377,15.4385965 L10.5660377,14.7368421 L9.50943396,14.7368421 L9.50943396,15.4385965 Z M8.80503145,14.0350877 L11.2704403,14.0350877 L11.2704403,16.1403509 L8.80503145,16.1403509 L8.80503145,14.0350877 Z" id="Rectangle-167"></path>
            <path d="M13.0314465,15.4385965 L14.0880503,15.4385965 L14.0880503,14.7368421 L13.0314465,14.7368421 L13.0314465,15.4385965 Z M12.327044,14.0350877 L14.7924528,14.0350877 L14.7924528,16.1403509 L12.327044,16.1403509 L12.327044,14.0350877 Z" id="Rectangle-168"></path>
        </g>
    </g>
</svg>