<?xml version="1.0" encoding="UTF-8" standalone="no"?>
<svg width="20px" height="20px" viewBox="0 0 20 20" version="1.1" xmlns="http://www.w3.org/2000/svg" xmlns:xlink="http://www.w3.org/1999/xlink">
    <!-- Generator: Sketch 44.1 (41455) - http://www.bohemiancoding.com/sketch -->
    <title>calander-white</title>
    <desc>Created with Sketch.</desc>
    <defs></defs>
    <g id="Symbols" stroke="none" stroke-width="1" fill="none" fill-rule="evenodd">
        <g id="calander-white" fill-rule="nonzero" fill="#FFFFFF">
            <path d="M0.762116167,19.2075472 L19.245283,19.2075472 L19.245283,7.13207547 L0.762116167,7.13207547 L0.762116167,19.2075472 Z M0.00739918609,6.33962264 L20,6.33962264 L20,20 L0.00739918609,20 L0.00739918609,6.33962264 Z" id="Rectangle-1634"></path>
            <path d="M0.762116167,6.33962264 L19.245283,6.33962264 L19.245283,2.77358491 L0.762116167,2.77358491 L0.762116167,6.33962264 Z M0.00739918609,1.98113208 L20,1.98113208 L20,7.13207547 L0.00739918609,7.13207547 L0.00739918609,1.98113208 Z" id="Rectangle-1634"></path>
            <polygon id="Line" points="3.4036256 0 3.4036256 2.77358491 4.15834258 2.77358491 4.15834258 0"></polygon>
            <polygon id="Line" points="15.4790973 0 15.4790973 2.77358491 16.2338143 2.77358491 16.2338143 0"></polygon>
            <path d="M2.75943436,8.43680675 L1.42527063,9.83767867 C1.27790297,9.99241471 1.27790297,10.2432914 1.42527063,10.3980274 C1.57263828,10.5527635 1.81156846,10.5527635 1.95893612,10.3980274 L3.29309986,8.99715552 C3.44046752,8.84241948 3.44046752,8.59154279 3.29309986,8.43680675 C3.1457322,8.28207071 2.90680202,8.28207071 2.75943436,8.43680675 Z" id="Line"></path>
            <path d="M6.53301927,8.43680675 L5.19885553,9.83767867 C5.05148787,9.99241471 5.05148787,10.2432914 5.19885553,10.3980274 C5.34622319,10.5527635 5.58515337,10.5527635 5.73252103,10.3980274 L7.06668476,8.99715552 C7.21405242,8.84241948 7.21405242,8.59154279 7.06668476,8.43680675 C6.91931711,8.28207071 6.68038693,8.28207071 6.53301927,8.43680675 Z" id="Line-340"></path>
            <path d="M10.3066042,8.43680675 L8.97244044,9.83767867 C8.82507278,9.99241471 8.82507278,10.2432914 8.97244044,10.3980274 C9.11980809,10.5527635 9.35873827,10.5527635 9.50610593,10.3980274 L10.8402697,8.99715552 C10.9876373,8.84241948 10.9876373,8.59154279 10.8402697,8.43680675 C10.692902,8.28207071 10.4539718,8.28207071 10.3066042,8.43680675 Z" id="Line-343"></path>
            <path d="M14.0801891,8.43680675 L12.7460253,9.83767867 C12.5986577,9.99241471 12.5986577,10.2432914 12.7460253,10.3980274 C12.893393,10.5527635 13.1323232,10.5527635 13.2796908,10.3980274 L14.6138546,8.99715552 C14.7612222,8.84241948 14.7612222,8.59154279 14.6138546,8.43680675 C14.4664869,8.28207071 14.2275567,8.28207071 14.0801891,8.43680675 Z" id="Line-344"></path>
            <path d="M17.853774,8.43680675 L16.5196102,9.83767867 C16.3722426,9.99241471 16.3722426,10.2432914 16.5196102,10.3980274 C16.6669779,10.5527635 16.9059081,10.5527635 17.0532757,10.3980274 L18.3874395,8.99715552 C18.5348071,8.84241948 18.5348071,8.59154279 18.3874395,8.43680675 C18.2400718,8.28207071 18.0011416,8.28207071 17.853774,8.43680675 Z" id="Line-345"></path>
            <path d="M2.75943436,11.6066181 L1.42527063,13.00749 C1.27790297,13.162226 1.27790297,13.4131027 1.42527063,13.5678388 C1.57263828,13.7225748 1.81156846,13.7225748 1.95893612,13.5678388 L3.29309986,12.1669668 C3.44046752,12.0122308 3.44046752,11.7613541 3.29309986,11.6066181 C3.1457322,11.451882 2.90680202,11.451882 2.75943436,11.6066181 Z" id="Line-350"></path>
            <path d="M6.53301927,11.6066181 L5.19885553,13.00749 C5.05148787,13.162226 5.05148787,13.4131027 5.19885553,13.5678388 C5.34622319,13.7225748 5.58515337,13.7225748 5.73252103,13.5678388 L7.06668476,12.1669668 C7.21405242,12.0122308 7.21405242,11.7613541 7.06668476,11.6066181 C6.91931711,11.451882 6.68038693,11.451882 6.53301927,11.6066181 Z" id="Line-346"></path>
            <path d="M10.3066042,11.6066181 L8.97244044,13.00749 C8.82507278,13.162226 8.82507278,13.4131027 8.97244044,13.5678388 C9.11980809,13.7225748 9.35873827,13.7225748 9.50610593,13.5678388 L10.8402697,12.1669668 C10.9876373,12.0122308 10.9876373,11.7613541 10.8402697,11.6066181 C10.692902,11.451882 10.4539718,11.451882 10.3066042,11.6066181 Z" id="Line-347"></path>
            <path d="M14.4446895,11.6081543 L13.1105257,13.0090262 C12.9631581,13.1637623 12.9631581,13.414639 13.1105257,13.569375 C13.2578934,13.724111 13.4968236,13.724111 13.6441912,13.569375 L14.978355,12.1685031 C15.1257226,12.013767 15.1257226,11.7628903 14.978355,11.6081543 C14.8309873,11.4534183 14.5920571,11.4534183 14.4446895,11.6081543 Z" id="Line-348"></path>
            <path d="M13.1105257,12.1685031 L14.4446895,13.569375 C14.5920571,13.724111 14.8309873,13.724111 14.978355,13.569375 C15.1257226,13.414639 15.1257226,13.1637623 14.978355,13.0090262 L13.6441912,11.6081543 C13.4968236,11.4534183 13.2578934,11.4534183 13.1105257,11.6081543 C12.9631581,11.7628903 12.9631581,12.013767 13.1105257,12.1685031 Z" id="Line-356"></path>
            <path d="M17.853774,11.6066181 L16.5196102,13.00749 C16.3722426,13.162226 16.3722426,13.4131027 16.5196102,13.5678388 C16.6669779,13.7225748 16.9059081,13.7225748 17.0532757,13.5678388 L18.3874395,12.1669668 C18.5348071,12.0122308 18.5348071,11.7613541 18.3874395,11.6066181 C18.2400718,11.451882 18.0011416,11.451882 17.853774,11.6066181 Z" id="Line-349"></path>
            <path d="M2.75943436,14.7764294 L1.42527063,16.1773013 C1.27790297,16.3320374 1.27790297,16.582914 1.42527063,16.7376501 C1.57263828,16.8923861 1.81156846,16.8923861 1.95893612,16.7376501 L3.29309986,15.3367782 C3.44046752,15.1820421 3.44046752,14.9311654 3.29309986,14.7764294 C3.1457322,14.6216933 2.90680202,14.6216933 2.75943436,14.7764294 Z" id="Line-355"></path>
            <path d="M6.53301927,14.7764294 L5.19885553,16.1773013 C5.05148787,16.3320374 5.05148787,16.582914 5.19885553,16.7376501 C5.34622319,16.8923861 5.58515337,16.8923861 5.73252103,16.7376501 L7.06668476,15.3367782 C7.21405242,15.1820421 7.21405242,14.9311654 7.06668476,14.7764294 C6.91931711,14.6216933 6.68038693,14.6216933 6.53301927,14.7764294 Z" id="Line-351"></path>
            <path d="M10.3569336,14.8204346 L9.02276986,16.2213065 C8.8754022,16.3760425 8.8754022,16.6269192 9.02276986,16.7816553 C9.17013751,16.9363913 9.40906769,16.9363913 9.55643535,16.7816553 L10.8905991,15.3807833 C11.0379667,15.2260473 11.0379667,14.9751706 10.8905991,14.8204346 C10.7432314,14.6656985 10.5043013,14.6656985 10.3569336,14.8204346 Z" id="Line-352"></path>
            <path d="M9.02276986,15.3807833 L10.3569336,16.7816553 C10.5043013,16.9363913 10.7432314,16.9363913 10.8905991,16.7816553 C11.0379667,16.6269192 11.0379667,16.3760425 10.8905991,16.2213065 L9.55643535,14.8204346 C9.40906769,14.6656985 9.17013751,14.6656985 9.02276986,14.8204346 C8.8754022,14.9751706 8.8754022,15.2260473 9.02276986,15.3807833 Z" id="Line-357"></path>
            <path d="M14.0801891,14.7764294 L12.7460253,16.1773013 C12.5986577,16.3320374 12.5986577,16.582914 12.7460253,16.7376501 C12.893393,16.8923861 13.1323232,16.8923861 13.2796908,16.7376501 L14.6138546,15.3367782 C14.7612222,15.1820421 14.7612222,14.9311654 14.6138546,14.7764294 C14.4664869,14.6216933 14.2275567,14.6216933 14.0801891,14.7764294 Z" id="Line-353"></path>
            <path d="M17.853774,14.7764294 L16.5196102,16.1773013 C16.3722426,16.3320374 16.3722426,16.582914 16.5196102,16.7376501 C16.6669779,16.8923861 16.9059081,16.8923861 17.0532757,16.7376501 L18.3874395,15.3367782 C18.5348071,15.1820421 18.5348071,14.9311654 18.3874395,14.7764294 C18.2400718,14.6216933 18.0011416,14.6216933 17.853774,14.7764294 Z" id="Line-354"></path>
        </g>
    </g>
</svg>