<?xml version="1.0" encoding="UTF-8" standalone="no"?>
<svg width="20px" height="20px" viewBox="0 0 20 20" version="1.1" xmlns="http://www.w3.org/2000/svg" xmlns:xlink="http://www.w3.org/1999/xlink">
    <!-- Generator: Sketch 44.1 (41455) - http://www.bohemiancoding.com/sketch -->
    <title>catering-grey</title>
    <desc>Created with Sketch.</desc>
    <defs></defs>
    <g id="Symbols" stroke="none" stroke-width="1" fill="none" fill-rule="evenodd">
        <g id="catering-grey" fill-rule="nonzero" fill="#727272">
            <g id="Group-3">
                <path d="M15.7819777,1.82652117 C18.1501221,2.14399557 19.9797557,4.27369479 19.9998066,6.74227593 C20.0191869,9.06877675 18.4906801,11.0840156 16.3416198,11.6380251 C15.8247866,11.7710776 15.4454206,12.2273943 15.3948189,12.7767066 L14.9406847,17.7170238 C14.9005465,18.1541901 14.5977775,18.5190168 14.1316498,18.8479317 C13.9730274,18.9598608 13.8049411,19.059857 13.637006,19.1473672 C13.5357524,19.2001299 13.4557047,19.2376218 13.4088468,19.2577086 C11.2291138,20.208621 8.77121479,20.208621 6.5934244,19.2585488 C6.5446239,19.2376218 6.46457616,19.2001299 6.36332256,19.1473672 C6.19538748,19.059857 6.02730118,18.9598608 5.86867878,18.8479317 C5.40255109,18.5190168 5.09978214,18.1541901 5.05964996,17.7170892 L4.60515486,12.7765977 C4.5548321,12.2273762 4.17556302,11.7710831 3.65860126,11.6379974 C1.50972381,11.084035 -0.0188381587,9.06886674 0.000176956076,6.74229714 C0.0206000699,4.27360685 1.85027876,2.14398589 4.21833,1.82652397 C4.87514427,1.73850418 5.52596829,1.79405856 6.15196617,1.9807866 C7.05582176,0.74614217 8.46727574,0 10.0001643,0 C11.5330516,0 12.9445045,0.746140922 13.8483602,1.98078351 C14.4743396,1.79404472 15.1249212,1.73851126 15.7819777,1.82652117 Z M15.6934861,2.53490242 C15.0572089,2.4496758 14.4286292,2.52175431 13.8264013,2.73690702 L13.5766901,2.82611919 L13.4285029,2.59964168 C12.6627573,1.4293366 11.390119,0.714285714 10.0001643,0.714285714 C8.61020964,0.714285714 7.33757133,1.4293366 6.57182569,2.59964168 L6.42363855,2.82611919 L6.1739273,2.73690702 C5.57176705,2.52177846 4.94285194,2.44967068 4.3068425,2.53490242 C2.27983275,2.80664417 0.707274303,4.63699474 0.689807118,6.74838022 C0.67350807,8.74262918 1.9839188,10.4701994 3.8250681,10.9448321 C4.62597975,11.1510173 5.21375628,11.8581626 5.29171312,12.7089822 L5.7462019,17.6494048 C5.76149583,17.8159791 5.94576974,18.0380231 6.25698549,18.2576271 C6.38820885,18.3502226 6.53067157,18.4349751 6.67328551,18.5092905 C6.75836131,18.553623 6.82323646,18.5840086 6.85919158,18.5994343 C8.8677345,19.4756648 11.1325941,19.4756648 13.1430796,18.5985941 C13.1770921,18.5840086 13.2419673,18.553623 13.3270431,18.5092905 C13.469657,18.4349751 13.6121198,18.3502226 13.7433431,18.2576271 C14.0545589,18.0380231 14.2388328,17.8159791 14.2541304,17.6493648 L14.7082748,12.7089368 C14.7866606,11.858011 15.3744533,11.1509904 16.175153,10.9448598 C18.0164572,10.4701871 19.3267889,8.74259832 19.3101765,6.74836151 C19.2930273,4.63702873 17.7205414,2.80665028 15.6934861,2.53490242 Z" id="Stroke-44"></path>
                <path d="M10.0001643,17.5 C11.5854826,17.5 13.1226672,17.070919 14.5316892,16.2537427 L15.1058038,15.9207793 L15.0434396,16.5992068 L14.9406847,17.7170238 C14.9005465,18.1541901 14.5977775,18.5190168 14.1316498,18.8479317 C13.9730274,18.9598608 13.8049411,19.059857 13.637006,19.1473672 C13.5357524,19.2001299 13.4557047,19.2376218 13.4088468,19.2577086 C11.2291138,20.208621 8.77121479,20.208621 6.5934244,19.2585488 C6.5446239,19.2376218 6.46457616,19.2001299 6.36332256,19.1473672 C6.19538748,19.059857 6.02730118,18.9598608 5.86867878,18.8479317 C5.40255109,18.5190168 5.09978214,18.1541901 5.05964763,17.717064 L4.8945248,15.9207793 L5.46863936,16.2537427 C6.87766141,17.070919 8.41484599,17.5 10.0001643,17.5 Z M10.0001643,18.2142857 C8.50767594,18.2142857 7.0553434,17.8608731 5.70354969,17.1854138 L5.7462019,17.6494048 C5.76149583,17.8159791 5.94576974,18.0380231 6.25698549,18.2576271 C6.38820885,18.3502226 6.53067157,18.4349751 6.67328551,18.5092905 C6.75836131,18.553623 6.82323646,18.5840086 6.85919158,18.5994343 C8.8677345,19.4756648 11.1325941,19.4756648 13.1430796,18.5985941 C13.1770921,18.5840086 13.2419673,18.553623 13.3270431,18.5092905 C13.469657,18.4349751 13.6121198,18.3502226 13.7433431,18.2576271 C14.0545589,18.0380231 14.2388328,17.8159791 14.2541304,17.6493646 L14.2967789,17.1854138 C12.9449852,17.8608731 11.4926527,18.2142857 10.0001643,18.2142857 Z" id="Stroke-46"></path>
                <path d="M6.20972365,12.5442981 L6.55455124,15.401441 C6.57817279,15.5971624 6.75051423,15.735993 6.93948662,15.7115278 C7.12845901,15.6870626 7.26250236,15.5085661 7.23888081,15.3128447 L6.89405322,12.4557019 C6.87043167,12.2599805 6.69809023,12.1211499 6.50911784,12.145615 C6.32014545,12.1700802 6.1861021,12.3485767 6.20972365,12.5442981 Z" id="Stroke-48"></path>
                <path d="M8.62085395,13.2142857 L8.62085395,16.0714286 C8.62085395,16.2686731 8.77523852,16.4285714 8.96568154,16.4285714 C9.15612456,16.4285714 9.31050913,16.2686731 9.31050913,16.0714286 L9.31050913,13.2142857 C9.31050913,13.0170412 9.15612456,12.8571429 8.96568154,12.8571429 C8.77523852,12.8571429 8.62085395,13.0170412 8.62085395,13.2142857 Z" id="Stroke-50"></path>
                <path d="M13.1062754,12.4557019 L12.7614478,15.3128447 C12.7378262,15.5085661 12.8718696,15.6870626 13.060842,15.7115278 C13.2498144,15.735993 13.4221558,15.5971624 13.4457774,15.401441 L13.7906049,12.5442981 C13.8142265,12.3485767 13.6801832,12.1700802 13.4912108,12.145615 C13.3022384,12.1211499 13.1298969,12.2599805 13.1062754,12.4557019 Z" id="Stroke-52"></path>
                <path d="M10.6898195,13.2142857 L10.6898195,16.0714286 C10.6898195,16.2686731 10.844204,16.4285714 11.0346471,16.4285714 C11.2250901,16.4285714 11.3794746,16.2686731 11.3794746,16.0714286 L11.3794746,13.2142857 C11.3794746,13.0170412 11.2250901,12.8571429 11.0346471,12.8571429 C10.844204,12.8571429 10.6898195,13.0170412 10.6898195,13.2142857 Z" id="Stroke-54"></path>
                <path d="M2.75079236,6.14787716 C2.76054188,6.10179732 2.78914001,6.00586865 2.8423605,5.8771629 C2.93336812,5.65707462 3.06035483,5.43624585 3.22843603,5.23060609 C3.71920005,4.63017846 4.45417826,4.27381405 5.51367293,4.28569336 C5.70410478,4.28782853 5.86015152,4.12967049 5.86221306,3.93243749 C5.8642746,3.7352045 5.71157029,3.57358467 5.52113843,3.5714495 C4.25389342,3.55724084 3.32409696,4.00806559 2.70206526,4.7690933 C2.33236659,5.22140295 2.14484605,5.67489323 2.07712244,5.99497999 C2.03635696,6.18765268 2.15411616,6.37807196 2.34014497,6.42029335 C2.52617378,6.46251474 2.71002688,6.34054985 2.75079236,6.14787716 Z" id="Stroke-56"></path>
                <path d="M8.48674602,2.78270123 C8.50084459,2.77142842 8.53543297,2.74629243 8.58863054,2.71182073 C8.68137551,2.65172256 8.7892142,2.59104589 8.91018241,2.53420883 C9.73725947,2.14560564 10.6322271,2.14560564 11.5268458,2.79279228 C11.6829745,2.90573917 11.8979461,2.86621315 12.0069982,2.70450844 C12.1160504,2.54280373 12.0778873,2.32015461 11.9217587,2.20720772 C10.8048831,1.39923563 9.656428,1.39923563 8.62526751,1.88372768 C8.36664999,2.00523945 8.17607984,2.12872775 8.06530672,2.21729877 C7.91455899,2.33783235 7.8866962,2.56211377 8.00307345,2.71824535 C8.1194507,2.87437693 8.33599829,2.90323481 8.48674602,2.78270123 Z" id="Stroke-58"></path>
            </g>
        </g>
    </g>
</svg>