<?xml version="1.0" encoding="UTF-8" standalone="no"?>
<svg width="20px" height="20px" viewBox="0 0 20 20" version="1.1" xmlns="http://www.w3.org/2000/svg" xmlns:xlink="http://www.w3.org/1999/xlink">
    <!-- Generator: Sketch 44.1 (41455) - http://www.bohemiancoding.com/sketch -->
    <title>coins-grey</title>
    <desc>Created with Sketch.</desc>
    <defs></defs>
    <g id="Symbols" stroke="none" stroke-width="1" fill="none" fill-rule="evenodd">
        <g id="coins-grey" fill-rule="nonzero" fill="#727272">
            <path d="M2,17.8378378 C2,18.8823848 3.58695526,19.4594595 5.51351351,19.4594595 C7.44007176,19.4594595 9.02702703,18.8823848 9.02702703,17.8378378 L9.02702703,1.66713135 C9.02702703,1.36859906 8.78501878,1.12659081 8.48648649,1.12659081 C8.18795419,1.12659081 7.94594595,1.36859906 7.94594595,1.66713135 L7.94594595,17.8378378 C7.94594595,17.8313103 7.79332121,17.9625269 7.43099688,18.0942812 C6.94041912,18.2726731 6.25315171,18.3783784 5.51351351,18.3783784 C4.77387532,18.3783784 4.0866079,18.2726731 3.59603014,18.0942812 C3.23370582,17.9625269 3.08108108,17.8313103 3.08108108,17.8378378 C3.08108108,17.5393055 2.83907284,17.2972973 2.54054054,17.2972973 C2.24200824,17.2972973 2,17.5393055 2,17.8378378 Z" id="Oval-1412"></path>
            <path d="M10.9459459,17.9351184 C10.9459459,18.9796654 12.5329012,19.55674 14.4594595,19.55674 C16.3860177,19.55674 17.972973,18.9796654 17.972973,17.9351184 L17.972973,7.02702703 C17.972973,6.72849473 17.7309647,6.48648649 17.4324324,6.48648649 C17.1339001,6.48648649 16.8918919,6.72849473 16.8918919,7.02702703 L16.8918919,17.9351184 C16.8918919,17.9285909 16.7392672,18.0598074 16.3769428,18.1915617 C15.8863651,18.3699536 15.1990977,18.475659 14.4594595,18.475659 C13.7198213,18.475659 13.0325538,18.3699536 12.5419761,18.1915617 C12.1796518,18.0598074 12.027027,17.9285909 12.027027,17.9351184 C12.027027,17.6365861 11.7850188,17.3945779 11.4864865,17.3945779 C11.1879542,17.3945779 10.9459459,17.6365861 10.9459459,17.9351184 Z" id="Oval-1412"></path>
            <path d="M2,16.7844751 C2,17.8290221 3.58695526,18.4060968 5.51351351,18.4060968 C7.44007176,18.4060968 9.02702703,17.8290221 9.02702703,16.7844751 L9.02702703,0.540540541 C9.02702703,0.242008243 8.78501878,0 8.48648649,0 C8.18795419,0 7.94594595,0.242008243 7.94594595,0.540540541 L7.94594595,16.7844751 C7.94594595,16.7779477 7.79332121,16.9091642 7.43099688,17.0409185 C6.94041912,17.2193104 6.25315171,17.3250157 5.51351351,17.3250157 C4.77387532,17.3250157 4.0866079,17.2193104 3.59603014,17.0409185 C3.23370582,16.9091642 3.08108108,16.7779477 3.08108108,16.7844751 C3.08108108,16.4859429 2.83907284,16.2439346 2.54054054,16.2439346 C2.24200824,16.2439346 2,16.4859429 2,16.7844751 Z" id="Oval-1417" transform="translate(5.513514, 9.203048) scale(-1, -1) translate(-5.513514, -9.203048) "></path>
            <path d="M10.9459459,17.132242 C10.9459459,18.176789 12.5329012,18.7538636 14.4594595,18.7538636 C16.3860177,18.7538636 17.972973,18.176789 17.972973,17.132242 L17.972973,5.94594595 C17.972973,5.64741365 17.7309647,5.40540541 17.4324324,5.40540541 C17.1339001,5.40540541 16.8918919,5.64741365 16.8918919,5.94594595 L16.8918919,17.132242 C16.8918919,17.1257145 16.7392672,17.256931 16.3769428,17.3886853 C15.8863651,17.5670773 15.1990977,17.6727826 14.4594595,17.6727826 C13.7198213,17.6727826 13.0325538,17.5670773 12.5419761,17.3886853 C12.1796518,17.256931 12.027027,17.1257145 12.027027,17.132242 C12.027027,16.8337097 11.7850188,16.5917015 11.4864865,16.5917015 C11.1879542,16.5917015 10.9459459,16.8337097 10.9459459,17.132242 Z" id="Oval-1417" transform="translate(14.459459, 12.079635) scale(-1, -1) translate(-14.459459, -12.079635) "></path>
            <path d="M2,15.1351351 C2,16.1796821 3.58695526,16.7567568 5.51351351,16.7567568 C7.44007176,16.7567568 9.02702703,16.1796821 9.02702703,15.1351351 C9.02702703,14.8366028 8.78501878,14.5945946 8.48648649,14.5945946 C8.18795419,14.5945946 7.94594595,14.8366028 7.94594595,15.1351351 C7.94594595,15.1286076 7.79332121,15.2598242 7.43099688,15.3915785 C6.94041912,15.5699704 6.25315171,15.6756757 5.51351351,15.6756757 C4.77387532,15.6756757 4.0866079,15.5699704 3.59603014,15.3915785 C3.23370582,15.2598242 3.08108108,15.1286076 3.08108108,15.1351351 C3.08108108,14.8366028 2.83907284,14.5945946 2.54054054,14.5945946 C2.24200824,14.5945946 2,14.8366028 2,15.1351351 Z" id="Oval-1412"></path>
            <path d="M10.9459459,15.1351351 C10.9459459,16.1796821 12.5329012,16.7567568 14.4594595,16.7567568 C16.3860177,16.7567568 17.972973,16.1796821 17.972973,15.1351351 C17.972973,14.8366028 17.7309647,14.5945946 17.4324324,14.5945946 C17.1339001,14.5945946 16.8918919,14.8366028 16.8918919,15.1351351 C16.8918919,15.1286076 16.7392672,15.2598242 16.3769428,15.3915785 C15.8863651,15.5699704 15.1990977,15.6756757 14.4594595,15.6756757 C13.7198213,15.6756757 13.0325538,15.5699704 12.5419761,15.3915785 C12.1796518,15.2598242 12.027027,15.1286076 12.027027,15.1351351 C12.027027,14.8366028 11.7850188,14.5945946 11.4864865,14.5945946 C11.1879542,14.5945946 10.9459459,14.8366028 10.9459459,15.1351351 Z" id="Oval-1412"></path>
            <path d="M2,12.4324324 C2,13.4769794 3.58695526,14.0540541 5.51351351,14.0540541 C7.44007176,14.0540541 9.02702703,13.4769794 9.02702703,12.4324324 C9.02702703,12.1339001 8.78501878,11.8918919 8.48648649,11.8918919 C8.18795419,11.8918919 7.94594595,12.1339001 7.94594595,12.4324324 C7.94594595,12.4259049 7.79332121,12.5571214 7.43099688,12.6888758 C6.94041912,12.8672677 6.25315171,12.972973 5.51351351,12.972973 C4.77387532,12.972973 4.0866079,12.8672677 3.59603014,12.6888758 C3.23370582,12.5571214 3.08108108,12.4259049 3.08108108,12.4324324 C3.08108108,12.1339001 2.83907284,11.8918919 2.54054054,11.8918919 C2.24200824,11.8918919 2,12.1339001 2,12.4324324 Z" id="Oval-1412"></path>
            <path d="M10.9459459,12.4324324 C10.9459459,13.4769794 12.5329012,14.0540541 14.4594595,14.0540541 C16.3860177,14.0540541 17.972973,13.4769794 17.972973,12.4324324 C17.972973,12.1339001 17.7309647,11.8918919 17.4324324,11.8918919 C17.1339001,11.8918919 16.8918919,12.1339001 16.8918919,12.4324324 C16.8918919,12.4259049 16.7392672,12.5571214 16.3769428,12.6888758 C15.8863651,12.8672677 15.1990977,12.972973 14.4594595,12.972973 C13.7198213,12.972973 13.0325538,12.8672677 12.5419761,12.6888758 C12.1796518,12.5571214 12.027027,12.4259049 12.027027,12.4324324 C12.027027,12.1339001 11.7850188,11.8918919 11.4864865,11.8918919 C11.1879542,11.8918919 10.9459459,12.1339001 10.9459459,12.4324324 Z" id="Oval-1412"></path>
            <path d="M2,12.4324324 C2,13.4769794 3.58695526,14.0540541 5.51351351,14.0540541 C7.44007176,14.0540541 9.02702703,13.4769794 9.02702703,12.4324324 C9.02702703,12.1339001 8.78501878,11.8918919 8.48648649,11.8918919 C8.18795419,11.8918919 7.94594595,12.1339001 7.94594595,12.4324324 C7.94594595,12.4259049 7.79332121,12.5571214 7.43099688,12.6888758 C6.94041912,12.8672677 6.25315171,12.972973 5.51351351,12.972973 C4.77387532,12.972973 4.0866079,12.8672677 3.59603014,12.6888758 C3.23370582,12.5571214 3.08108108,12.4259049 3.08108108,12.4324324 C3.08108108,12.1339001 2.83907284,11.8918919 2.54054054,11.8918919 C2.24200824,11.8918919 2,12.1339001 2,12.4324324 Z" id="Oval-1415"></path>
            <path d="M10.9459459,12.4324324 C10.9459459,13.4769794 12.5329012,14.0540541 14.4594595,14.0540541 C16.3860177,14.0540541 17.972973,13.4769794 17.972973,12.4324324 C17.972973,12.1339001 17.7309647,11.8918919 17.4324324,11.8918919 C17.1339001,11.8918919 16.8918919,12.1339001 16.8918919,12.4324324 C16.8918919,12.4259049 16.7392672,12.5571214 16.3769428,12.6888758 C15.8863651,12.8672677 15.1990977,12.972973 14.4594595,12.972973 C13.7198213,12.972973 13.0325538,12.8672677 12.5419761,12.6888758 C12.1796518,12.5571214 12.027027,12.4259049 12.027027,12.4324324 C12.027027,12.1339001 11.7850188,11.8918919 11.4864865,11.8918919 C11.1879542,11.8918919 10.9459459,12.1339001 10.9459459,12.4324324 Z" id="Oval-1415"></path>
            <path d="M2,9.72972973 C2,10.7742767 3.58695526,11.3513514 5.51351351,11.3513514 C7.44007176,11.3513514 9.02702703,10.7742767 9.02702703,9.72972973 C9.02702703,9.43119743 8.78501878,9.18918919 8.48648649,9.18918919 C8.18795419,9.18918919 7.94594595,9.43119743 7.94594595,9.72972973 C7.94594595,9.72320224 7.79332121,9.85441875 7.43099688,9.98617305 C6.94041912,10.164565 6.25315171,10.2702703 5.51351351,10.2702703 C4.77387532,10.2702703 4.0866079,10.164565 3.59603014,9.98617305 C3.23370582,9.85441875 3.08108108,9.72320224 3.08108108,9.72972973 C3.08108108,9.43119743 2.83907284,9.18918919 2.54054054,9.18918919 C2.24200824,9.18918919 2,9.43119743 2,9.72972973 Z" id="Oval-1413"></path>
            <path d="M10.9459459,9.72972973 C10.9459459,10.7742767 12.5329012,11.3513514 14.4594595,11.3513514 C16.3860177,11.3513514 17.972973,10.7742767 17.972973,9.72972973 C17.972973,9.43119743 17.7309647,9.18918919 17.4324324,9.18918919 C17.1339001,9.18918919 16.8918919,9.43119743 16.8918919,9.72972973 C16.8918919,9.72320224 16.7392672,9.85441875 16.3769428,9.98617305 C15.8863651,10.164565 15.1990977,10.2702703 14.4594595,10.2702703 C13.7198213,10.2702703 13.0325538,10.164565 12.5419761,9.98617305 C12.1796518,9.85441875 12.027027,9.72320224 12.027027,9.72972973 C12.027027,9.43119743 11.7850188,9.18918919 11.4864865,9.18918919 C11.1879542,9.18918919 10.9459459,9.43119743 10.9459459,9.72972973 Z" id="Oval-1413"></path>
            <path d="M2,7.02702703 C2,8.07157401 3.58695526,8.64864865 5.51351351,8.64864865 C7.44007176,8.64864865 9.02702703,8.07157401 9.02702703,7.02702703 C9.02702703,6.72849473 8.78501878,6.48648649 8.48648649,6.48648649 C8.18795419,6.48648649 7.94594595,6.72849473 7.94594595,7.02702703 C7.94594595,7.02049953 7.79332121,7.15171604 7.43099688,7.28347035 C6.94041912,7.46186226 6.25315171,7.56756757 5.51351351,7.56756757 C4.77387532,7.56756757 4.0866079,7.46186226 3.59603014,7.28347035 C3.23370582,7.15171604 3.08108108,7.02049953 3.08108108,7.02702703 C3.08108108,6.72849473 2.83907284,6.48648649 2.54054054,6.48648649 C2.24200824,6.48648649 2,6.72849473 2,7.02702703 Z" id="Oval-1414"></path>
            <path d="M2,7.02702703 C2,8.07157401 3.58695526,8.64864865 5.51351351,8.64864865 C7.44007176,8.64864865 9.02702703,8.07157401 9.02702703,7.02702703 C9.02702703,6.72849473 8.78501878,6.48648649 8.48648649,6.48648649 C8.18795419,6.48648649 7.94594595,6.72849473 7.94594595,7.02702703 C7.94594595,7.02049953 7.79332121,7.15171604 7.43099688,7.28347035 C6.94041912,7.46186226 6.25315171,7.56756757 5.51351351,7.56756757 C4.77387532,7.56756757 4.0866079,7.46186226 3.59603014,7.28347035 C3.23370582,7.15171604 3.08108108,7.02049953 3.08108108,7.02702703 C3.08108108,6.72849473 2.83907284,6.48648649 2.54054054,6.48648649 C2.24200824,6.48648649 2,6.72849473 2,7.02702703 Z" id="Oval-1418"></path>
            <path d="M2,4.32432432 C2,5.3688713 3.58695526,5.94594595 5.51351351,5.94594595 C7.44007176,5.94594595 9.02702703,5.3688713 9.02702703,4.32432432 C9.02702703,4.02579203 8.78501878,3.78378378 8.48648649,3.78378378 C8.18795419,3.78378378 7.94594595,4.02579203 7.94594595,4.32432432 C7.94594595,4.31779683 7.79332121,4.44901334 7.43099688,4.58076764 C6.94041912,4.75915955 6.25315171,4.86486486 5.51351351,4.86486486 C4.77387532,4.86486486 4.0866079,4.75915955 3.59603014,4.58076764 C3.23370582,4.44901334 3.08108108,4.31779683 3.08108108,4.32432432 C3.08108108,4.02579203 2.83907284,3.78378378 2.54054054,3.78378378 C2.24200824,3.78378378 2,4.02579203 2,4.32432432 Z" id="Oval-1416"></path>
            <path d="M2,1.62162162 C2,2.6661686 3.58695526,3.24324324 5.51351351,3.24324324 C7.44007176,3.24324324 9.02702703,2.6661686 9.02702703,1.62162162 C9.02702703,1.32308932 8.78501878,1.08108108 8.48648649,1.08108108 C8.18795419,1.08108108 7.94594595,1.32308932 7.94594595,1.62162162 C7.94594595,1.61509413 7.79332121,1.74631064 7.43099688,1.87806494 C6.94041912,2.05645685 6.25315171,2.16216216 5.51351351,2.16216216 C4.77387532,2.16216216 4.0866079,2.05645685 3.59603014,1.87806494 C3.23370582,1.74631064 3.08108108,1.61509413 3.08108108,1.62162162 C3.08108108,1.32308932 2.83907284,1.08108108 2.54054054,1.08108108 C2.24200824,1.08108108 2,1.32308932 2,1.62162162 Z" id="Oval-1417"></path>
            <path d="M10.9459459,7.02702703 C10.9459459,8.07157401 12.5329012,8.64864865 14.4594595,8.64864865 C16.3860177,8.64864865 17.972973,8.07157401 17.972973,7.02702703 C17.972973,6.72849473 17.7309647,6.48648649 17.4324324,6.48648649 C17.1339001,6.48648649 16.8918919,6.72849473 16.8918919,7.02702703 C16.8918919,7.02049953 16.7392672,7.15171604 16.3769428,7.28347035 C15.8863651,7.46186226 15.1990977,7.56756757 14.4594595,7.56756757 C13.7198213,7.56756757 13.0325538,7.46186226 12.5419761,7.28347035 C12.1796518,7.15171604 12.027027,7.02049953 12.027027,7.02702703 C12.027027,6.72849473 11.7850188,6.48648649 11.4864865,6.48648649 C11.1879542,6.48648649 10.9459459,6.72849473 10.9459459,7.02702703 Z" id="Oval-1417"></path>
        </g>
    </g>
</svg>