<?xml version="1.0" encoding="UTF-8" standalone="no"?>
<svg width="30px" height="20px" viewBox="0 0 30 20" version="1.1" xmlns="http://www.w3.org/2000/svg" xmlns:xlink="http://www.w3.org/1999/xlink">
    <!-- Generator: Sketch 44.1 (41455) - http://www.bohemiancoding.com/sketch -->
    <title>distribution-white</title>
    <desc>Created with Sketch.</desc>
    <defs></defs>
    <g id="Symbols" stroke="none" stroke-width="1" fill="none" fill-rule="evenodd">
        <g id="distribution-white" fill-rule="nonzero" fill="#FFFFFF">
            <path d="M10.3469971,19.2 L15.2469971,19.2 L15.2469971,0.8 L10.3469971,0.8 L10.3469971,19.2 Z M9.54699707,0 L16.0469971,0 L16.0469971,20 L9.54699707,20 L9.54699707,0 Z" id="Rectangle-153"></path>
            <path d="M10.3358004,3.36499788 L10.3358004,19.9744681 L-0.00266113281,19.9744681 L-0.00266113281,6.20715888 L5.93343354,3.36499788 L5.93343354,5.47282063 L10.3358004,3.36499788 Z M5.13343354,6.74282487 L5.13343354,4.63500212 L0.797338867,6.7110942 L0.797338867,19.1744681 L9.53580041,19.1744681 L9.53580041,4.63500212 L5.13343354,6.74282487 Z" id="Rectangle-151"></path>
            <path d="M25.4380738,19.9148936 C24.1774024,19.9148936 23.1554262,18.8824137 23.1554262,17.6087852 C23.1554262,16.3351567 24.1774024,15.3026767 25.4380738,15.3026767 C26.6987453,15.3026767 27.7207214,16.3351567 27.7207214,17.6087852 C27.7207214,18.8824137 26.6987453,19.9148936 25.4380738,19.9148936 Z M25.4380738,19.1461908 C26.2785214,19.1461908 26.9598389,18.4578709 26.9598389,17.6087852 C26.9598389,16.7596995 26.2785214,16.0713795 25.4380738,16.0713795 C24.5976262,16.0713795 23.9163088,16.7596995 23.9163088,17.6087852 C23.9163088,18.4578709 24.5976262,19.1461908 25.4380738,19.1461908 Z" id="Oval-33-Copy-17"></path>
            <path d="M27.5064815,8.76870281 L29.2732178,12.6954709 L29.2732178,17.2244338 L27.3710114,17.2244338 C27.1608995,17.2244338 26.9905702,17.3965138 26.9905702,17.6087852 C26.9905702,17.8210566 27.1608995,17.9931366 27.3710114,17.9931366 L29.653659,17.9931366 C29.8637709,17.9931366 30.0341003,17.8210566 30.0341003,17.6087852 L30.0341003,12.6122169 C30.0341003,12.5573504 30.0224729,12.5031198 30,12.4531711 L28.0977937,8.22530566 C28.0360594,8.08809441 27.9006403,8 27.7514527,8 L22.8057163,8 C22.5956044,8 22.425275,8.17207999 22.425275,8.38435141 L22.425275,15.3026767 C22.425275,15.5149482 22.5956044,15.6870281 22.8057163,15.6870281 C23.0158282,15.6870281 23.1861575,15.5149482 23.1861575,15.3026767 L23.1861575,8.76870281 L27.5064815,8.76870281 Z" id="Path-138-Copy-5"></path>
            <path d="M25.7288667,15.3026767 L18.0898589,15.3026767 C17.938161,15.3026767 17.8151855,15.4747567 17.8151855,15.6870281 C17.8151855,15.8992996 17.938161,16.0713795 18.0898589,16.0713795 L25.7288667,16.0713795 C25.8805646,16.0713795 26.00354,15.8992996 26.00354,15.6870281 C26.00354,15.4747567 25.8805646,15.3026767 25.7288667,15.3026767 Z" id="Path-139-Copy-5"></path>
            <path d="M15.9458008,15.3026767 L20.9081223,15.3026767 L20.9081223,8.76870281 L15.9458008,8.76870281 L15.9458008,15.3026767 Z M15.663875,8 L21.384273,8 C21.5399763,8 21.6661987,8.17207999 21.6661987,8.38435141 L21.6661987,15.6870281 C21.6661987,15.8992996 21.5399763,16.0713795 21.384273,16.0713795 L15.663875,16.0713795 C15.5081717,16.0713795 15.3819493,15.8992996 15.3819493,15.6870281 L15.3819493,8.38435141 C15.3819493,8.17207999 15.5081717,8 15.663875,8 Z" id="Rectangle-122-Copy"></path>
            <path d="M19.7275636,17.9931366 L21.2493286,17.9931366 L21.2493286,17.2244338 L19.7275636,17.2244338 L19.7275636,17.9931366 Z M19.3471223,16.455731 L21.6297699,16.455731 C21.8398818,16.455731 22.0102111,16.6278109 22.0102111,16.8400824 L22.0102111,18.377488 C22.0102111,18.5897594 21.8398818,18.7618394 21.6297699,18.7618394 L19.3471223,18.7618394 C19.1370104,18.7618394 18.966681,18.5897594 18.966681,18.377488 L18.966681,16.8400824 C18.966681,16.6278109 19.1370104,16.455731 19.3471223,16.455731 Z" id="Rectangle-119-Copy-5"></path>
            <path d="M25.8232897,9.92175704 L28.1329744,9.92175704 C28.3430863,9.92175704 28.5134157,9.74967705 28.5134157,9.53740563 C28.5134157,9.32513421 28.3430863,9.15305422 28.1329744,9.15305422 L25.4428485,9.15305422 C25.2327365,9.15305422 25.0624072,9.32513421 25.0624072,9.53740563 L25.0624072,13.0209779 C25.0624072,13.1836073 25.1637212,13.3286344 25.3153937,13.3831183 L29.4069824,14.8961143 C29.6049523,14.9672291 29.822502,14.8627432 29.8928933,14.6627386 C29.9632846,14.462734 29.8598617,14.2429483 29.6618919,14.1718335 L25.8232897,12.7497153 L25.8232897,9.92175704 Z" id="Path-140-Copy-5"></path>
            <path d="M3.29444862,14.7531915 L4.23291016,14.7531915 L4.23291016,13.8 L3.29444862,13.8 L3.29444862,14.7531915 Z M2.49444862,13 L5.03291016,13 L5.03291016,15.5531915 L2.49444862,15.5531915 L2.49444862,13 Z" id="Rectangle-157"></path>
            <path d="M3.29444862,11.7531915 L4.23291016,11.7531915 L4.23291016,10.8 L3.29444862,10.8 L3.29444862,11.7531915 Z M2.49444862,10 L5.03291016,10 L5.03291016,12.5531915 L2.49444862,12.5531915 L2.49444862,10 Z" id="Rectangle-157-Copy"></path>
            <path d="M6.29444862,14.7531915 L7.23291016,14.7531915 L7.23291016,13.8 L6.29444862,13.8 L6.29444862,14.7531915 Z M5.49444862,13 L8.03291016,13 L8.03291016,15.5531915 L5.49444862,15.5531915 L5.49444862,13 Z" id="Rectangle-157-Copy-2"></path>
            <path d="M6.29444862,11.7531915 L7.23291016,11.7531915 L7.23291016,10.8 L6.29444862,10.8 L6.29444862,11.7531915 Z M5.49444862,10 L8.03291016,10 L8.03291016,12.5531915 L5.49444862,12.5531915 L5.49444862,10 Z" id="Rectangle-157-Copy-3"></path>
            <path d="M15.6386353,15.3874951 C16.8993068,15.3874951 17.9212829,16.419975 17.9212829,17.6936035 C17.9212829,18.967232 16.8993068,19.999712 15.6386353,19.999712 M15.6386353,19.2310091 C16.479083,19.2310091 17.1604004,18.5426892 17.1604004,17.6936035 C17.1604004,16.8445178 16.479083,16.1561979 15.6386353,16.1561979" id="Oval-33-Copy-18"></path>
        </g>
    </g>
</svg>