<?xml version="1.0" encoding="UTF-8" standalone="no"?>
<svg width="30px" height="20px" viewBox="0 0 30 20" version="1.1" xmlns="http://www.w3.org/2000/svg" xmlns:xlink="http://www.w3.org/1999/xlink">
    <!-- Generator: Sketch 44.1 (41455) - http://www.bohemiancoding.com/sketch -->
    <title>distribution-grey</title>
    <desc>Created with Sketch.</desc>
    <defs></defs>
    <g id="Symbols" stroke="none" stroke-width="1" fill="none" fill-rule="evenodd">
        <g id="distribution-grey" fill-rule="nonzero" fill="#727272">
            <g id="Group-3" transform="translate(9.115385, 0.000000)">
                <path d="M1.23161245,19.2 L6.13161245,19.2 L6.13161245,0.8 L1.23161245,0.8 L1.23161245,19.2 Z M0.431612455,0 L6.93161245,0 L6.93161245,20 L0.431612455,20 L0.431612455,0 Z" id="Rectangle-153"></path>
            </g>
            <path d="M10.3358004,3.36499788 L10.3358004,19.9744681 L-0.00266113281,19.9744681 L-0.00266113281,6.20715888 L5.93343354,3.36499788 L5.93343354,5.47282063 L10.3358004,3.36499788 Z M5.13343354,6.74282487 L5.13343354,4.63500212 L0.797338867,6.7110942 L0.797338867,19.1744681 L9.53580041,19.1744681 L9.53580041,4.63500212 L5.13343354,6.74282487 Z" id="Rectangle-151"></path>
            <g id="Group-4" transform="translate(15.000000, 8.000000)">
                <path d="M10.4380738,11.9148936 C9.17740236,11.9148936 8.15542623,10.8824137 8.15542623,9.60878518 C8.15542623,8.33515665 9.17740236,7.30267673 10.4380738,7.30267673 C11.6987453,7.30267673 12.7207214,8.33515665 12.7207214,9.60878518 C12.7207214,10.8824137 11.6987453,11.9148936 10.4380738,11.9148936 Z M10.4380738,11.1461908 C11.2785214,11.1461908 11.9598389,10.4578709 11.9598389,9.60878518 C11.9598389,8.75969949 11.2785214,8.07137955 10.4380738,8.07137955 C9.59762618,8.07137955 8.91630875,8.75969949 8.91630875,9.60878518 C8.91630875,10.4578709 9.59762618,11.1461908 10.4380738,11.1461908 Z" id="Oval-33-Copy-17"></path>
                <path d="M12.5064815,0.768702814 L14.2732178,4.69547093 L14.2732178,9.22443377 L12.3710114,9.22443377 C12.1608995,9.22443377 11.9905702,9.39651375 11.9905702,9.60878518 C11.9905702,9.8210566 12.1608995,9.99313658 12.3710114,9.99313658 L14.653659,9.99313658 C14.8637709,9.99313658 15.0341003,9.8210566 15.0341003,9.60878518 L15.0341003,4.61221688 C15.0341003,4.55735039 15.0224729,4.50311976 15,4.45317114 L13.0977937,0.225305663 C13.0360594,0.0880944075 12.9006403,0 12.7514527,0 L7.80571627,0 C7.59560436,0 7.42527501,0.172079986 7.42527501,0.384351407 L7.42527501,7.30267673 C7.42527501,7.51494815 7.59560436,7.68702814 7.80571627,7.68702814 C8.01582818,7.68702814 8.18615754,7.51494815 8.18615754,7.30267673 L8.18615754,0.768702814 L12.5064815,0.768702814 Z" id="Path-138-Copy-5"></path>
                <path d="M10.7288667,7.30267673 L3.08985894,7.30267673 C2.93816101,7.30267673 2.81518555,7.47475672 2.81518555,7.68702814 C2.81518555,7.89929956 2.93816101,8.07137955 3.08985894,8.07137955 L10.7288667,8.07137955 C10.8805646,8.07137955 11.00354,7.89929956 11.00354,7.68702814 C11.00354,7.47475672 10.8805646,7.30267673 10.7288667,7.30267673 Z" id="Path-139-Copy-5"></path>
                <path d="M0.945800781,7.30267673 L5.90812227,7.30267673 L5.90812227,0.768702814 L0.945800781,0.768702814 L0.945800781,7.30267673 Z M0.663875037,0 L6.38427299,0 C6.53997628,0 6.66619873,0.172079986 6.66619873,0.384351407 L6.66619873,7.68702814 C6.66619873,7.89929956 6.53997628,8.07137955 6.38427299,8.07137955 L0.663875037,8.07137955 C0.508171747,8.07137955 0.381949292,7.89929956 0.381949292,7.68702814 L0.381949292,0.384351407 C0.381949292,0.172079986 0.508171747,0 0.663875037,0 Z" id="Rectangle-122-Copy"></path>
                <path d="M4.72756356,9.99313658 L6.24932861,9.99313658 L6.24932861,9.22443377 L4.72756356,9.22443377 L4.72756356,9.99313658 Z M4.34712229,8.45573095 L6.62976988,8.45573095 C6.83988179,8.45573095 7.01021114,8.62781094 7.01021114,8.84008236 L7.01021114,10.377488 C7.01021114,10.5897594 6.83988179,10.7618394 6.62976988,10.7618394 L4.34712229,10.7618394 C4.13701038,10.7618394 3.96668103,10.5897594 3.96668103,10.377488 L3.96668103,8.84008236 C3.96668103,8.62781094 4.13701038,8.45573095 4.34712229,8.45573095 Z" id="Rectangle-119-Copy-5"></path>
                <path d="M10.8232897,1.92175704 L13.1329744,1.92175704 C13.3430863,1.92175704 13.5134157,1.74967705 13.5134157,1.53740563 C13.5134157,1.32513421 13.3430863,1.15305422 13.1329744,1.15305422 L10.4428485,1.15305422 C10.2327365,1.15305422 10.0624072,1.32513421 10.0624072,1.53740563 L10.0624072,5.02097787 C10.0624072,5.18360735 10.1637212,5.32863444 10.3153937,5.38311826 L14.4069824,6.89611431 C14.6049523,6.96722908 14.822502,6.86274322 14.8928933,6.6627386 C14.9632846,6.46273399 14.8598617,6.2429483 14.6618919,6.17183353 L10.8232897,4.74971534 L10.8232897,1.92175704 Z" id="Path-140-Copy-5"></path>
            </g>
            <path d="M3.29444862,14.7531915 L4.23291016,14.7531915 L4.23291016,13.8 L3.29444862,13.8 L3.29444862,14.7531915 Z M2.49444862,13 L5.03291016,13 L5.03291016,15.5531915 L2.49444862,15.5531915 L2.49444862,13 Z" id="Rectangle-157"></path>
            <path d="M3.29444862,11.7531915 L4.23291016,11.7531915 L4.23291016,10.8 L3.29444862,10.8 L3.29444862,11.7531915 Z M2.49444862,10 L5.03291016,10 L5.03291016,12.5531915 L2.49444862,12.5531915 L2.49444862,10 Z" id="Rectangle-157-Copy"></path>
            <path d="M6.29444862,14.7531915 L7.23291016,14.7531915 L7.23291016,13.8 L6.29444862,13.8 L6.29444862,14.7531915 Z M5.49444862,13 L8.03291016,13 L8.03291016,15.5531915 L5.49444862,15.5531915 L5.49444862,13 Z" id="Rectangle-157-Copy-2"></path>
            <path d="M6.29444862,11.7531915 L7.23291016,11.7531915 L7.23291016,10.8 L6.29444862,10.8 L6.29444862,11.7531915 Z M5.49444862,10 L8.03291016,10 L8.03291016,12.5531915 L5.49444862,12.5531915 L5.49444862,10 Z" id="Rectangle-157-Copy-3"></path>
            <path d="M15.6386353,15.3874951 C16.8993068,15.3874951 17.9212829,16.419975 17.9212829,17.6936035 C17.9212829,18.967232 16.8993068,19.999712 15.6386353,19.999712 M15.6386353,19.2310091 C16.479083,19.2310091 17.1604004,18.5426892 17.1604004,17.6936035 C17.1604004,16.8445178 16.479083,16.1561979 15.6386353,16.1561979" id="Oval-33-Copy-18"></path>
        </g>
    </g>
</svg>