<?xml version="1.0" encoding="UTF-8" standalone="no"?>
<svg width="22px" height="20px" viewBox="0 0 22 20" version="1.1" xmlns="http://www.w3.org/2000/svg" xmlns:xlink="http://www.w3.org/1999/xlink">
    <!-- Generator: Sketch 44.1 (41455) - http://www.bohemiancoding.com/sketch -->
    <title>education-grey</title>
    <desc>Created with Sketch.</desc>
    <defs></defs>
    <g id="Symbols" stroke="none" stroke-width="1" fill="none" fill-rule="evenodd">
        <g id="education-grey" fill-rule="nonzero" fill="#727272">
            <path d="M10.4289327,10.9026546 C10.7264792,11.057783 11.263921,11.0578875 11.5616679,10.9026546 L21.05285,5.95434719 C21.1277449,5.9153001 21.1352781,5.90561063 21.1352503,5.94456722 C21.1352223,5.98368827 21.1278596,5.97420602 21.05285,5.93509912 L11.5616679,0.986791666 C11.2641213,0.831663278 10.7266796,0.831558817 10.4289327,0.986791666 L0.937750619,5.93509912 C0.862855719,5.97414621 0.855322457,5.98383568 0.855350314,5.94487909 C0.855378289,5.90575804 0.862740996,5.91524029 0.937750619,5.95434719 L10.4289327,10.9026546 Z M0.547729619,5.16044546 L10.0389117,0.212138002 C10.5815923,-0.0707931028 11.4093168,-0.0706322205 11.9516889,0.212138002 L21.442871,5.16044546 C22.1734656,5.54134713 22.1728885,6.34840006 21.442871,6.72900085 L11.9516889,11.6773083 C11.4090083,11.9602394 10.5812837,11.9600785 10.0389117,11.6773083 L0.547729619,6.72900085 C-0.182865062,6.34809918 -0.182287961,5.54104625 0.547729619,5.16044546 Z" id="Rectangle-1623"></path>
            <path d="M16.2330169,9.10127224 L16.2330169,16.9349279 C16.2330169,17.175284 16.4244936,17.370131 16.6606921,17.370131 C16.8968905,17.370131 17.0883672,17.175284 17.0883672,16.9349279 L17.0883672,9.10127224 C17.0883672,8.8609162 16.8968905,8.66606914 16.6606921,8.66606914 C16.4244936,8.66606914 16.2330169,8.8609162 16.2330169,9.10127224 Z" id="Line"></path>
            <path d="M16.6606921,19.9813496 C15.7158983,19.9813496 14.9499915,19.2019614 14.9499915,18.2405372 C14.9499915,17.2791131 15.7158983,16.4997248 16.6606921,16.4997248 C17.6054859,16.4997248 18.3713926,17.2791131 18.3713926,18.2405372 C18.3713926,19.2019614 17.6054859,19.9813496 16.6606921,19.9813496 Z M16.6606921,19.1109434 C17.133089,19.1109434 17.5160423,18.7212493 17.5160423,18.2405372 C17.5160423,17.7598252 17.133089,17.370131 16.6606921,17.370131 C16.1882952,17.370131 15.8053418,17.7598252 15.8053418,18.2405372 C15.8053418,18.7212493 16.1882952,19.1109434 16.6606921,19.1109434 Z" id="Oval-1441"></path>
            <path d="M5.1120781,6.44410805 L7.07757523,5.57370186 C7.32030356,5.46621138 7.41868865,5.20479661 7.29732449,4.98981564 C7.17596032,4.77483467 6.88080504,4.68769642 6.63807671,4.7951869 L4.67257958,5.66559309 C4.42985125,5.77308358 4.33146616,6.03449834 4.45283032,6.24947931 C4.57419449,6.46446028 4.86934977,6.55159854 5.1120781,6.44410805 Z" id="Line"></path>
            <path d="M7.07757523,7.31451424 L9.04307235,6.44410805 C9.28580068,6.33661757 9.38418578,6.0752028 9.26282161,5.86022183 C9.14145745,5.64524086 8.84630216,5.55810261 8.60357384,5.66559309 L6.63807671,6.53599928 C6.39534838,6.64348977 6.29696329,6.90490453 6.41832745,7.1198855 C6.53969161,7.33486647 6.8348469,7.42200473 7.07757523,7.31451424 Z" id="Line"></path>
            <path d="M17.6779032,13.7685097 C17.2774859,13.9650162 16.8080268,14.1622771 16.2740745,14.3468312 C14.7426805,14.8761389 13.0066017,15.1941156 11.1009154,15.1941156 C9.19522911,15.1941156 7.45915024,14.8761389 5.92775625,14.3468312 C5.39380396,14.1622771 4.92434484,13.9650162 4.52392754,13.7685097 C4.42017088,13.7175907 4.33143778,13.6720031 4.25811331,13.6328914 L4.25811331,8.23086605 C4.25811331,7.99051001 4.06663664,7.79566295 3.83043818,7.79566295 C3.59423973,7.79566295 3.40276305,7.99051001 3.40276305,8.23086605 L3.40276305,13.8885063 C3.40276305,14.0401961 3.48037946,14.1809418 3.60761468,14.2599738 C3.70690391,14.3216473 3.88993362,14.4237135 4.15237302,14.5525067 C4.58333497,14.7640031 5.08487731,14.9747451 5.65266416,15.1709937 C7.26909627,15.7296938 9.09717964,16.0645218 11.1009154,16.0645218 C13.1046511,16.0645218 14.9327345,15.7296938 16.5491666,15.1709937 C17.1169534,14.9747451 17.6184958,14.7640031 18.0494577,14.5525067 C18.3118971,14.4237135 18.4949269,14.3216473 18.5942161,14.2599738 C18.7214513,14.1809418 18.7990677,14.0401961 18.7990677,13.8885063 L18.7990677,8.23086605 C18.7990677,7.99051001 18.607591,7.79566295 18.3713926,7.79566295 C18.1351941,7.79566295 17.9437175,7.99051001 17.9437175,8.23086605 L17.9437175,13.6328914 C17.870393,13.6720031 17.7816599,13.7175907 17.6779032,13.7685097 Z" id="Rectangle-1624"></path>
        </g>
    </g>
</svg>