<?xml version="1.0" encoding="UTF-8" standalone="no"?>
<svg width="20px" height="20px" viewBox="0 0 20 20" version="1.1" xmlns="http://www.w3.org/2000/svg" xmlns:xlink="http://www.w3.org/1999/xlink">
    <!-- Generator: Sketch 44.1 (41455) - http://www.bohemiancoding.com/sketch -->
    <title>email-white</title>
    <desc>Created with Sketch.</desc>
    <defs></defs>
    <g id="Symbols" stroke="none" stroke-width="1" fill="none" fill-rule="evenodd">
        <g id="email-white" fill-rule="nonzero" fill="#FFFFFF">
            <path d="M19.3030609,4.78787879 L0.787909386,4.78787879 L0.787909386,16.2121212 L19.3030609,16.2121212 L19.3030609,4.78787879 Z M20.0909397,16.6060606 C20.0909397,16.8236273 19.914567,17 19.6970003,17 L0.393969992,17 C0.176403272,17 3.05981675e-05,16.8236273 3.05981675e-05,16.6060606 L3.05981675e-05,4.39393939 C3.05981675e-05,4.17637267 0.176403272,4 0.393969992,4 L19.6970003,4 C19.914567,4 20.0909397,4.17637267 20.0909397,4.39393939 L20.0909397,16.6060606 Z" id="Rectangle-240"></path>
            <path d="M0.622942614,4.07337772 C0.445901292,3.94691964 0.199866409,3.98792545 0.0734083216,4.16496677 C-0.0530497655,4.34200809 -0.0120439516,4.58804298 0.16499737,4.71450106 L9.81651252,11.6084405 C9.95450199,11.7070044 10.1400825,11.7062035 10.2772161,11.6064522 C10.2973707,11.5917917 10.2973707,11.5917917 10.3931944,11.5221038 C10.5243409,11.4267364 10.5243409,11.4267364 10.721109,11.283679 C11.0743091,11.0269049 11.4680141,10.7407829 11.8921761,10.4326508 C13.1040578,9.55228022 14.3172052,8.67191282 15.4512247,7.85025769 L15.4819423,7.82800161 C17.4154832,6.42709598 18.9111699,5.34747868 19.7973385,4.71450106 C19.9743798,4.58804298 20.0153857,4.34200809 19.8889276,4.16496677 C19.7624695,3.98792545 19.5164346,3.94691964 19.3393933,4.07337772 C18.4513314,4.70770767 16.9546219,5.78806326 15.0196802,7.18998381 L14.9889532,7.21224672 C13.8546384,8.03411572 12.6412377,8.91466702 11.4291115,9.79521517 C11.0048707,10.1034046 10.6110905,10.3895812 10.2578175,10.6464084 C10.1381922,10.7333802 10.0912756,10.7674902 10.043418,10.8022887 L0.622942614,4.07337772 Z" id="Triangle-10"></path>
            <path d="M0.672527209,16.8846178 L6.89658263,10.6605624 C7.05042554,10.5067195 7.05042554,10.2572909 6.89658263,10.103448 C6.74273973,9.94960506 6.4933111,9.94960506 6.3394682,10.103448 L0.115412775,16.3275034 C-0.0384301275,16.4813463 -0.0384301275,16.7307749 0.115412775,16.8846178 C0.269255678,17.0384607 0.518684306,17.0384607 0.672527209,16.8846178 Z" id="Path-561"></path>
            <path d="M19.9755575,16.3275034 L13.7515021,10.103448 C13.5976592,9.94960506 13.3482306,9.94960506 13.1943877,10.103448 C13.0405448,10.2572909 13.0405448,10.5067195 13.1943877,10.6605624 L19.4184431,16.8846178 C19.572286,17.0384607 19.8217146,17.0384607 19.9755575,16.8846178 C20.1294004,16.7307749 20.1294004,16.4813463 19.9755575,16.3275034 Z" id="Path-561-Copy"></path>
        </g>
    </g>
</svg>