<?xml version="1.0" encoding="UTF-8" standalone="no"?>
<svg width="20px" height="20px" viewBox="0 0 20 20" version="1.1" xmlns="http://www.w3.org/2000/svg" xmlns:xlink="http://www.w3.org/1999/xlink">
    <!-- Generator: Sketch 44.1 (41455) - http://www.bohemiancoding.com/sketch -->
    <title>erase-grey</title>
    <desc>Created with Sketch.</desc>
    <defs></defs>
    <g id="Symbols" stroke="none" stroke-width="1" fill="none" fill-rule="evenodd">
        <g id="erase-grey" fill-rule="nonzero" fill="#727272">
            <path d="M9.4102924,15.9558 L4.83450292,16.73784 L2.52081871,3.28524 L16.4504094,0.90384 L18.1721637,10.91076 C18.2122807,11.13924 18.4284211,11.29128 18.6461988,11.25096 C18.8680702,11.21064 19.017076,10.99308 18.9777778,10.7646 L17.1864327,0.34776 C17.1471345,0.12096 16.934269,-0.03612 16.7164912,0.00672 L11.5839766,0.88452 L1.26245614,0.00168 C1.1445614,-0.0084 1.04222222,0.0294 0.959532164,0.10332 C0.876023392,0.17808 0.825263158,0.28392 0.819532164,0.39732 L0.000818713451,15.51732 C-0.0114619883,15.73992 0.147368421,15.93396 0.363508772,15.95832 L3.94046784,16.36656 L4.10011696,17.29392 C4.13532164,17.4972 4.30725146,17.64084 4.50210526,17.64084 C4.52421053,17.64084 4.54795322,17.63916 4.56923977,17.63496 L9.5445614,16.78404 C9.76725146,16.74624 9.91871345,16.52952 9.88105263,16.30104 C9.84339181,16.07256 9.62807018,15.91716 9.4102924,15.9558 Z M0.84,15.16704 L1.61368421,0.87528 L8.29602339,1.44648 L1.97964912,2.52672 C1.87157895,2.5452 1.77578947,2.6082 1.71274854,2.69892 C1.6497076,2.78964 1.6251462,2.90388 1.64397661,3.01392 L3.7922807,15.50388 L0.84,15.16704 Z" id="Shape"></path>
            <path d="M15.1461988,10.92084 C12.6638596,10.92084 10.6432749,12.99312 10.6432749,15.54084 C10.6432749,18.08856 12.6638596,20.16084 15.1461988,20.16084 C17.628538,20.16084 19.6491228,18.08856 19.6491228,15.54084 C19.6491228,12.99312 17.628538,10.92084 15.1461988,10.92084 Z M15.1461988,19.32084 C13.1149708,19.32084 11.4619883,17.62488 11.4619883,15.54084 C11.4619883,13.4568 13.1149708,11.76084 15.1461988,11.76084 C17.1774269,11.76084 18.8304094,13.4568 18.8304094,15.54084 C18.8304094,17.62488 17.1774269,19.32084 15.1461988,19.32084 Z" id="Shape"></path>
            <path d="M17.0726316,13.56432 C16.9129825,13.40052 16.6534503,13.40052 16.4938012,13.56432 L15.1461988,14.94696 L13.7985965,13.56432 C13.6389474,13.40052 13.3794152,13.40052 13.2197661,13.56432 C13.060117,13.72812 13.060117,13.9944 13.2197661,14.1582 L14.5673684,15.54084 L13.2197661,16.92348 C13.060117,17.08728 13.060117,17.35356 13.2197661,17.51736 C13.3,17.59884 13.4047953,17.64 13.5095906,17.64 C13.614386,17.64 13.7191813,17.59884 13.7985965,17.51736 L15.1461988,16.13472 L16.4938012,17.51736 C16.5740351,17.59884 16.6788304,17.64 16.7836257,17.64 C16.8884211,17.64 16.9932164,17.59884 17.0726316,17.51736 C17.2322807,17.35356 17.2322807,17.08728 17.0726316,16.92348 L15.7250292,15.54084 L17.0726316,14.1582 C17.2322807,13.9944 17.2322807,13.72812 17.0726316,13.56432 Z" id="Shape"></path>
        </g>
    </g>
</svg>