<?xml version="1.0" encoding="UTF-8" standalone="no"?>
<svg width="20px" height="20px" viewBox="0 0 20 20" version="1.1" xmlns="http://www.w3.org/2000/svg" xmlns:xlink="http://www.w3.org/1999/xlink">
    <!-- Generator: Sketch 44.1 (41455) - http://www.bohemiancoding.com/sketch -->
    <title>follow-white </title>
    <desc>Created with Sketch.</desc>
    <defs></defs>
    <g id="Symbols" stroke="none" stroke-width="1" fill="none" fill-rule="evenodd">
        <g id="follow-white-" fill-rule="nonzero" fill="#FFFFFF">
            <path d="M9.03814739,12.9493545 C9.03814739,13.1577639 8.8776457,13.326713 8.67965683,13.326713 L0.792864374,13.326713 C0.594875501,13.326713 0.434373808,13.1577639 0.434373808,12.9493545 C0.434373808,10.4484424 2.36039413,8.42105263 4.7362606,8.42105263 C7.11212707,8.42105263 9.03814739,10.4484424 9.03814739,12.9493545 Z" id="Oval-1402"></path>
            <path d="M1.67419268,3.14116696 C1.67419268,1.69223657 2.79204329,0.517318938 4.16953388,0.517318938 L8.08469817,0.517318938 C8.26710414,0.517318938 8.4149734,0.672970788 8.4149734,0.864977075 L8.4149734,3.58617388 C8.77969793,3.77315103 9.02659419,4.16685854 9.02659419,4.61096948 L9.02659419,4.84472103 C9.02659419,5.30567809 8.76598564,5.70829108 8.38250176,5.88675026 C8.15311388,7.61939303 6.73870472,8.93837157 5.04458304,8.93837157 C3.35711436,8.93837157 1.94519213,7.6260432 1.70889063,5.90252687 C1.30704095,5.73268873 1.02659419,5.31846935 1.02659419,4.84472103 L1.02659419,4.61096948 C1.02659419,4.14767939 1.28955573,3.74464104 1.67419268,3.5673091 L1.67419268,3.14116696 Z" id="Rectangle-2323-Copy"></path>
            <path d="M19.4343738,19.6226415 C19.4343738,19.8310508 19.2738721,20 19.0758832,20 L11.1890908,20 C10.9911019,20 10.8306002,19.8310508 10.8306002,19.6226415 C10.8306002,17.1217294 12.7566205,15.0943396 15.132487,15.0943396 C17.5083535,15.0943396 19.4343738,17.1217294 19.4343738,19.6226415 Z" id="Oval-1402"></path>
            <path d="M11.8069241,10.9900626 L11.8069241,10.2372751 C11.8069241,8.65466018 13.0767651,7.36842105 14.6412692,7.36842105 L15.5924604,7.36842105 C17.1584614,7.36842105 18.4268054,8.65254135 18.4268054,10.2372751 L18.4268054,10.9900626 C18.4268054,11.3752696 18.4888386,11.9152939 18.6009329,12.5658448 C18.6481934,12.840126 18.7034215,13.1285961 18.7650136,13.4264764 C18.8397614,13.7879822 18.9199076,14.1445872 19.0000418,14.4804691 C19.0280724,14.5979591 19.0540841,14.7044063 19.0774015,14.7978451 C19.0913248,14.8536392 19.1012077,14.8925141 19.1063752,14.9125077 C19.1502965,15.0824423 19.0523855,15.25684 18.8856704,15.305624 C18.8305935,15.3217405 18.7295573,15.3488188 18.5870116,15.3831695 C18.3519029,15.4398261 18.0842641,15.4963429 17.7885268,15.5490184 C16.9446833,15.6993202 16.0424144,15.7894737 15.1168648,15.7894737 C14.1913151,15.7894737 13.2890462,15.6993202 12.4452027,15.5490184 C12.1494654,15.4963429 11.8818266,15.4398261 11.6467179,15.3831695 C11.5041722,15.3488188 11.403136,15.3217405 11.3480591,15.305624 C11.181344,15.25684 11.083433,15.0824423 11.1273543,14.9125077 C11.1325219,14.8925141 11.1424048,14.8536392 11.1563281,14.7978451 C11.1796455,14.7044063 11.2056572,14.5979591 11.2336877,14.4804691 C11.3138219,14.1445872 11.3939681,13.7879822 11.4687159,13.4264764 C11.5303081,13.1285961 11.5855362,12.840126 11.6327966,12.5658448 C11.7448909,11.9152939 11.8069241,11.3752696 11.8069241,10.9900626 Z" id="Rectangle-2323"></path>
        </g>
    </g>
</svg>