<?xml version="1.0" encoding="UTF-8" standalone="no"?>
<svg width="20px" height="20px" viewBox="0 0 20 20" version="1.1" xmlns="http://www.w3.org/2000/svg" xmlns:xlink="http://www.w3.org/1999/xlink">
    <!-- Generator: Sketch 44.1 (41455) - http://www.bohemiancoding.com/sketch -->
    <title>glass-white</title>
    <desc>Created with Sketch.</desc>
    <defs></defs>
    <g id="Symbols" stroke="none" stroke-width="1" fill="none" fill-rule="evenodd">
        <g id="glass-white" fill-rule="nonzero" fill="#FFFFFF">
            <path d="M8.3277592,16.6555184 C3.72846479,16.6555184 0,12.9270536 0,8.3277592 C0,3.72846479 3.72846479,0 8.3277592,0 C12.9270536,0 16.6555184,3.72846479 16.6555184,8.3277592 C16.6555184,12.9270536 12.9270536,16.6555184 8.3277592,16.6555184 Z M8.3277592,15.8862876 C12.5022192,15.8862876 15.8862876,12.5022192 15.8862876,8.3277592 C15.8862876,4.15329922 12.5022192,0.769230769 8.3277592,0.769230769 C4.15329922,0.769230769 0.769230769,4.15329922 0.769230769,8.3277592 C0.769230769,12.5022192 4.15329922,15.8862876 8.3277592,15.8862876 Z" id="Oval-69"></path>
            <path d="M8.3277592,1.6722408 C4.65201789,1.6722408 1.6722408,4.65201789 1.6722408,8.3277592 C1.6722408,8.54017641 1.84443898,8.71237458 2.05685619,8.71237458 C2.2692734,8.71237458 2.44147157,8.54017641 2.44147157,8.3277592 C2.44147157,5.07685231 5.07685231,2.44147157 8.3277592,2.44147157 C8.54017641,2.44147157 8.71237458,2.2692734 8.71237458,2.05685619 C8.71237458,1.84443898 8.54017641,1.6722408 8.3277592,1.6722408 Z" id="Oval-69-Copy"></path>
            <polygon id="Line" points="13.6366737 14.180602 19.4105336 19.9544619 19.9544619 19.4105336 14.180602 13.6366737"></polygon>
        </g>
    </g>
</svg>