<?xml version="1.0" encoding="UTF-8" standalone="no"?>
<svg width="22px" height="20px" viewBox="0 0 22 20" version="1.1" xmlns="http://www.w3.org/2000/svg" xmlns:xlink="http://www.w3.org/1999/xlink">
    <!-- Generator: Sketch 44.1 (41455) - http://www.bohemiancoding.com/sketch -->
    <title>land-white</title>
    <desc>Created with Sketch.</desc>
    <defs></defs>
    <g id="Symbols" stroke="none" stroke-width="1" fill="none" fill-rule="evenodd">
        <g id="land-white" fill-rule="nonzero" fill="#FFFFFF">
            <path d="M3.03448276,11.0423077 L3.03448276,1.90384615 C3.03448276,1.69355311 2.86465973,1.52307692 2.65517241,1.52307692 C2.44568509,1.52307692 2.27586207,1.69355311 2.27586207,1.90384615 L2.27586207,11.0423077 C2.27586207,11.2526007 2.44568509,11.4230769 2.65517241,11.4230769 C2.86465973,11.4230769 3.03448276,11.2526007 3.03448276,11.0423077 Z" id="Path-197-Copy"></path>
            <path d="M8.34482759,17.1346154 C8.34482759,18.1843904 9.19572064,19.0384615 10.2433983,19.0384615 L19.3428086,19.0384615 C20.3943539,19.0384615 21.2413793,18.1877348 21.2413793,17.1346154 C21.2413793,16.0848403 20.3904863,15.2307692 19.3428086,15.2307692 L10.2433983,15.2307692 C9.19185298,15.2307692 8.34482759,16.081496 8.34482759,17.1346154 Z M7.5862069,17.1346154 C7.5862069,15.6609988 8.77278975,14.4692308 10.2433983,14.4692308 L19.3428086,14.4692308 C20.8094421,14.4692308 22,15.6642354 22,17.1346154 C22,18.608232 20.8134171,19.8 19.3428086,19.8 L10.2433983,19.8 C8.77676481,19.8 7.5862069,18.6049954 7.5862069,17.1346154 Z" id="Rectangle-159-Copy"></path>
            <path d="M10.2413793,18.6576923 C9.40343003,18.6576923 8.72413793,17.9757875 8.72413793,17.1346154 C8.72413793,16.2934432 9.40343003,15.6115385 10.2413793,15.6115385 C11.0793286,15.6115385 11.7586207,16.2934432 11.7586207,17.1346154 C11.7586207,17.9757875 11.0793286,18.6576923 10.2413793,18.6576923 Z M10.2413793,17.8961538 C10.6603539,17.8961538 11,17.5552015 11,17.1346154 C11,16.7140293 10.6603539,16.3730769 10.2413793,16.3730769 C9.82240467,16.3730769 9.48275862,16.7140293 9.48275862,17.1346154 C9.48275862,17.5552015 9.82240467,17.8961538 10.2413793,17.8961538 Z" id="Oval-47-Copy-3"></path>
            <path d="M19.3448276,18.6576923 C18.5068783,18.6576923 17.8275862,17.9757875 17.8275862,17.1346154 C17.8275862,16.2934432 18.5068783,15.6115385 19.3448276,15.6115385 C20.1827769,15.6115385 20.862069,16.2934432 20.862069,17.1346154 C20.862069,17.9757875 20.1827769,18.6576923 19.3448276,18.6576923 Z M19.3448276,17.8961538 C19.7638022,17.8961538 20.1034483,17.5552015 20.1034483,17.1346154 C20.1034483,16.7140293 19.7638022,16.3730769 19.3448276,16.3730769 C18.9258529,16.3730769 18.5862069,16.7140293 18.5862069,17.1346154 C18.5862069,17.5552015 18.9258529,17.8961538 19.3448276,17.8961538 Z" id="Oval-47-Copy-2"></path>
            <path d="M12.5172414,12.9461538 L21.2413793,12.9461538 L21.2413793,8.75769231 L12.5172414,8.75769231 L12.5172414,12.9461538 Z M12.137931,7.99615385 L21.6206897,7.99615385 C21.830177,7.99615385 22,8.16663004 22,8.37692308 L22,13.3269231 C22,13.5372161 21.830177,13.7076923 21.6206897,13.7076923 L12.137931,13.7076923 C11.9284437,13.7076923 11.7586207,13.5372161 11.7586207,13.3269231 L11.7586207,8.37692308 C11.7586207,8.16663004 11.9284437,7.99615385 12.137931,7.99615385 Z" id="Rectangle-160-Copy"></path>
            <path d="M11.7586207,12.1846154 L11.7586207,14.85 C11.7586207,15.060293 11.9284437,15.2307692 12.137931,15.2307692 C12.3474184,15.2307692 12.5172414,15.060293 12.5172414,14.85 L12.5172414,12.1846154 C12.5172414,11.9743223 12.3474184,11.8038462 12.137931,11.8038462 C11.9284437,11.8038462 11.7586207,11.9743223 11.7586207,12.1846154 Z" id="Path-198-Copy"></path>
            <path d="M15.9310345,14.85 L15.9310345,13.3269231 C15.9310345,13.11663 15.7612115,12.9461538 15.5517241,12.9461538 C15.3422368,12.9461538 15.1724138,13.11663 15.1724138,13.3269231 L15.1724138,14.85 C15.1724138,15.060293 15.3422368,15.2307692 15.5517241,15.2307692 C15.7612115,15.2307692 15.9310345,15.060293 15.9310345,14.85 Z" id="Path-199-Copy"></path>
            <path d="M18.9655172,8.37692308 L18.9655172,6.47307692 C18.9655172,6.26278388 18.7956942,6.09230769 18.5862069,6.09230769 C18.3767196,6.09230769 18.2068966,6.26278388 18.2068966,6.47307692 L18.2068966,8.37692308 C18.2068966,8.58721612 18.3767196,8.75769231 18.5862069,8.75769231 C18.7956942,8.75769231 18.9655172,8.58721612 18.9655172,8.37692308 Z" id="Path-200-Copy"></path>
            <path d="M22,8.37692308 L22,4.56923077 C22,4.35893773 21.830177,4.18846154 21.6206897,4.18846154 C21.4112023,4.18846154 21.2413793,4.35893773 21.2413793,4.56923077 L21.2413793,8.37692308 C21.2413793,8.58721612 21.4112023,8.75769231 21.6206897,8.75769231 C21.830177,8.75769231 22,8.58721612 22,8.37692308 Z" id="Path-201-Copy"></path>
            <path d="M13.0526963,7.27765524 C12.9837163,7.52001374 12.9401134,7.77534231 12.9159541,8.02999067 C12.9014553,8.1828141 12.8965517,8.30341297 12.8965517,8.37692308 C12.8965517,8.58721612 13.0663748,8.75769231 13.2758621,8.75769231 C13.4853494,8.75769231 13.6551724,8.58721612 13.6551724,8.37692308 C13.6551724,8.32610037 13.6591158,8.22911683 13.6711576,8.10219144 C13.6912327,7.89059175 13.7272518,7.67967229 13.7821283,7.48686595 C13.8818402,7.13653197 14.0289743,6.9015547 14.2041155,6.81364728 C14.4563194,6.68706034 14.487647,6.33829574 14.262069,6.16846154 L12.7448276,5.02615385 C12.5772377,4.89997802 12.3394855,4.93407326 12.2137931,5.10230769 C12.0881007,5.27054212 12.1220653,5.50920879 12.2896552,5.63538462 L13.4286101,6.49288626 C13.2629301,6.701816 13.140797,6.96811675 13.0526963,7.27765524 Z" id="Path-202-Copy"></path>
            <path d="M12.5172414,10.2807692 L12.5172414,12.5653846 L10.2413793,12.5653846 C9.61291735,12.5653846 9.10344828,12.053956 9.10344828,11.4230769 L9.10344828,5.18532833 L3.32425008,2.28461538 L1.89655172,2.28461538 L1.89655172,0 L3.79310345,0 C3.97821568,0 4.16053321,0.0453335019 4.32424356,0.132068711 L10.7725194,3.54842301 C11.1457492,3.74616352 11.3793103,4.13501661 11.3793103,4.55866199 L11.3793103,10.2807692 L12.5172414,10.2807692 Z M11.7586207,11.0423077 L10.6206897,11.0423077 L10.6206897,4.55866199 C10.6206897,4.41744687 10.542836,4.28782917 10.418426,4.22191567 L3.97015015,0.805561365 C3.91558004,0.776649629 3.85480753,0.761538462 3.79310345,0.761538462 L2.65517241,0.761538462 L2.65517241,1.52307692 L3.50333613,1.52307692 L9.86206897,4.71467167 L9.86206897,11.4230769 C9.86206897,11.63337 10.031892,11.8038462 10.2413793,11.8038462 L11.7586207,11.8038462 L11.7586207,11.0423077 Z" id="Path-203-Copy"></path>
            <path d="M12.8965517,17.5153846 L16.6896552,17.5153846 C16.8991425,17.5153846 17.0689655,17.3449084 17.0689655,17.1346154 C17.0689655,16.9243223 16.8991425,16.7538462 16.6896552,16.7538462 L12.8965517,16.7538462 C12.6870644,16.7538462 12.5172414,16.9243223 12.5172414,17.1346154 C12.5172414,17.3449084 12.6870644,17.5153846 12.8965517,17.5153846 Z" id="Path-204-Copy"></path>
            <path d="M2.65517241,15.9923077 C1.18876118,15.9923077 0,14.7989744 0,13.3269231 C0,11.8548718 1.18876118,10.6615385 2.65517241,10.6615385 C4.12158365,10.6615385 5.31034483,11.8548718 5.31034483,13.3269231 C5.31034483,14.7989744 4.12158365,15.9923077 2.65517241,15.9923077 Z M2.65517241,15.2307692 C3.70260901,15.2307692 4.55172414,14.3783883 4.55172414,13.3269231 C4.55172414,12.2754579 3.70260901,11.4230769 2.65517241,11.4230769 C1.60773582,11.4230769 0.75862069,12.2754579 0.75862069,13.3269231 C0.75862069,14.3783883 1.60773582,15.2307692 2.65517241,15.2307692 Z" id="Oval-49"></path>
            <path d="M2.65517241,11.8038462 C1.81722314,11.8038462 1.13793103,12.4857509 1.13793103,13.3269231 C1.13793103,13.5372161 1.30775406,13.7076923 1.51724138,13.7076923 C1.7267287,13.7076923 1.89655172,13.5372161 1.89655172,13.3269231 C1.89655172,12.906337 2.23619778,12.5653846 2.65517241,12.5653846 C2.86465973,12.5653846 3.03448276,12.3949084 3.03448276,12.1846154 C3.03448276,11.9743223 2.86465973,11.8038462 2.65517241,11.8038462 Z" id="Oval-49-Copy"></path>
        </g>
    </g>
</svg>