<?xml version="1.0" encoding="UTF-8" standalone="no"?>
<svg width="20px" height="20px" viewBox="0 0 20 20" version="1.1" xmlns="http://www.w3.org/2000/svg" xmlns:xlink="http://www.w3.org/1999/xlink">
    <!-- Generator: Sketch 44.1 (41455) - http://www.bohemiancoding.com/sketch -->
    <title>leisure-white</title>
    <desc>Created with Sketch.</desc>
    <defs></defs>
    <g id="Symbols" stroke="none" stroke-width="1" fill="none" fill-rule="evenodd">
        <g id="leisure-white" fill="#FFFFFF">
            <path d="M15.7233324,9.02349766 C16.2428608,8.48642032 17.0908262,8.48642032 17.6103546,9.02349766 C18.129883,9.560575 18.129883,10.4371836 17.6103477,10.9742681 L11.9494949,16.8259923 L11.8996276,16.8684032 C11.5511318,17.1103926 11.1233043,17.2414655 10.6739314,17.2414655 L1.33424142,17.2414655 C0.599646538,17.2414655 0,16.6215637 0,15.8621552 C0,15.1027466 0.599646538,14.4828448 1.33424142,14.4828448 L10.4423693,14.4828448 L15.7233324,9.02349766 Z M17.138629,10.4866011 C17.3976305,10.2188509 17.3976305,9.77890775 17.138629,9.51115751 C16.8796275,9.24340727 16.4540595,9.24340727 16.195058,9.51115751 L10.8163973,15.0715023 C10.7538426,15.1361701 10.6690002,15.1725 10.5805345,15.1725 L1.33424142,15.1725 C0.968087134,15.1725 0.667120712,15.4836327 0.667120712,15.8621552 C0.667120712,16.2406777 0.968087134,16.5518103 1.33424142,16.5518103 L10.6739314,16.5518103 C10.9811554,16.5518103 11.2693276,16.466885 11.502025,16.3132589 L17.138629,10.4866011 Z" id="Stroke-34" fill-rule="nonzero"></path>
            <path d="M7.93103448,4.13793103 C7.93103448,2.9952706 7.0047294,2.06896552 5.86206897,2.06896552 C4.71940853,2.06896552 3.79310345,2.9952706 3.79310345,4.13793103 C3.79310345,5.28059147 4.71940853,6.20689655 5.86206897,6.20689655 C7.0047294,6.20689655 7.93103448,5.28059147 7.93103448,4.13793103 Z M8.62068966,4.13793103 C8.62068966,5.6614775 7.38561543,6.89655172 5.86206897,6.89655172 C4.3385225,6.89655172 3.10344828,5.6614775 3.10344828,4.13793103 C3.10344828,2.61438457 4.3385225,1.37931034 5.86206897,1.37931034 C7.38561543,1.37931034 8.62068966,2.61438457 8.62068966,4.13793103 Z M6.20689655,1.72413793 L5.51724138,1.72413793 L5.51724138,0.689655172 L6.20689655,0.689655172 L6.20689655,1.72413793 Z M5.51724138,1.72413793 L5.51724138,0.689655172 C5.51724138,0.229885057 6.20689655,0.229885057 6.20689655,0.689655172 L6.20689655,1.72413793 C6.20689655,2.18390805 5.51724138,2.18390805 5.51724138,1.72413793 Z M6.20689655,7.5862069 L5.51724138,7.5862069 L5.51724138,6.55172414 L6.20689655,6.55172414 L6.20689655,7.5862069 Z M5.51724138,7.5862069 L5.51724138,6.55172414 C5.51724138,6.09195402 6.20689655,6.09195402 6.20689655,6.55172414 L6.20689655,7.5862069 C6.20689655,8.04597701 5.51724138,8.04597701 5.51724138,7.5862069 Z M8.27586207,4.48275862 L8.27586207,3.79310345 L9.31034483,3.79310345 L9.31034483,4.48275862 L8.27586207,4.48275862 Z M8.27586207,3.79310345 L9.31034483,3.79310345 C9.77011494,3.79310345 9.77011494,4.48275862 9.31034483,4.48275862 L8.27586207,4.48275862 C7.81609195,4.48275862 7.81609195,3.79310345 8.27586207,3.79310345 Z M2.4137931,4.48275862 L2.4137931,3.79310345 L3.44827586,3.79310345 L3.44827586,4.48275862 L2.4137931,4.48275862 Z M2.4137931,3.79310345 L3.44827586,3.79310345 C3.90804598,3.79310345 3.90804598,4.48275862 3.44827586,4.48275862 L2.4137931,4.48275862 C1.95402299,4.48275862 1.95402299,3.79310345 2.4137931,3.79310345 Z M4.39900234,2.18720456 L3.91134249,2.67486441 L3.17996318,1.9434851 L3.66762303,1.45582525 L4.39900234,2.18720456 Z M3.91134249,2.67486441 L3.17996318,1.9434851 C2.85485661,1.61837853 3.34251646,1.13071868 3.66762303,1.45582525 L4.39900234,2.18720456 C4.7241089,2.51231112 4.23644906,2.99997097 3.91134249,2.67486441 Z M8.54417475,6.33237697 L8.0565149,6.82003682 L7.32513559,6.08865751 L7.81279544,5.60099766 L8.54417475,6.33237697 Z M8.0565149,6.82003682 L7.32513559,6.08865751 C7.00002903,5.76355094 7.48768888,5.2758911 7.81279544,5.60099766 L8.54417475,6.33237697 C8.86928132,6.65748354 8.38162147,7.14514339 8.0565149,6.82003682 Z M7.81279544,2.67486441 L7.32513559,2.18720456 L8.0565149,1.45582525 L8.54417475,1.9434851 L7.81279544,2.67486441 Z M7.32513559,2.18720456 L8.0565149,1.45582525 C8.38162147,1.13071868 8.86928132,1.61837853 8.54417475,1.9434851 L7.81279544,2.67486441 C7.48768888,2.99997097 7.00002903,2.51231112 7.32513559,2.18720456 Z M3.66762303,6.82003682 L3.17996318,6.33237697 L3.91134249,5.60099766 L4.39900234,6.08865751 L3.66762303,6.82003682 Z M3.17996318,6.33237697 L3.91134249,5.60099766 C4.23644906,5.2758911 4.7241089,5.76355094 4.39900234,6.08865751 L3.66762303,6.82003682 C3.34251646,7.14514339 2.85485661,6.65748354 3.17996318,6.33237697 Z" id="Stroke-36" fill-rule="nonzero"></path>
            <path d="M15.0777694,4.98377908 L9.99707972,14.9837791 C9.78882256,15.3936785 9.17397347,15.0812927 9.38223063,14.6713933 L14.4629203,4.67139334 C14.6711774,4.26149394 15.2860265,4.57387968 15.0777694,4.98377908 Z" id="Path"></path>
            <path d="M12.7008021,2.08554115 C13.0715291,2.29951779 13.3127998,2.65217988 13.3920227,3.03629175 C13.7643163,2.91289339 14.1904634,2.94552843 14.5613414,3.15959229 C14.9322187,3.37365565 15.1734934,3.72642705 15.2527147,4.11064 C15.6250372,3.98715218 16.051232,4.01971195 16.4221814,4.23381701 C16.7929349,4.4480578 17.0341395,4.80070979 17.1133774,5.18476064 C17.4856414,5.06132997 17.9117593,5.09399578 18.2827208,5.30821298 C18.4417878,5.4000235 18.5775697,5.51760534 18.6872867,5.65235804 C18.9686062,4.09619227 18.2217155,2.48569546 16.6986573,1.60620453 C15.1752992,0.726942301 13.407149,0.885348365 12.200136,1.90704388 C12.3718144,1.93470995 12.5416545,1.99357737 12.7008021,2.08554115 Z M12.3558999,2.68275698 C12.0012537,2.47782389 11.5548386,2.58446953 11.3675497,2.90866682 C11.1375601,3.30677905 10.5404504,2.96193193 10.7703366,2.56375999 C12.0416611,0.36177588 14.7901915,-0.291625639 17.0434708,1.00893747 C19.2963387,2.30985752 20.1047792,5.01695314 18.8334565,7.2189341 C18.6035704,7.61710605 18.0063718,7.27241574 18.2361533,6.87418335 C18.4232079,6.55000059 18.2924392,6.11010917 17.9379054,5.90547893 C17.5863192,5.70245027 17.1502951,5.8105056 16.9614329,6.13782108 C16.7316514,6.53605347 16.1343029,6.19138126 16.3640843,5.79314887 C16.5529917,5.46575498 16.4285511,5.03401613 16.0772792,4.83103284 C15.7259341,4.62824304 15.2895649,4.73643791 15.1007433,5.06368315 C14.8709618,5.46191554 14.2736132,5.11724333 14.5033947,4.71901094 C14.6923146,4.39159535 14.5678272,3.95962267 14.2165896,3.75689491 C13.8651251,3.55403619 13.4288061,3.66207503 13.2400536,3.98920039 C13.0102721,4.38743278 12.4129235,4.04276057 12.642705,3.64452818 C12.8316052,3.31714682 12.7071716,2.8855044 12.3558999,2.68275698 Z" id="Stroke-37" fill-rule="nonzero"></path>
            <path d="M19.8963905,19.589973 L19.4251276,20.0776329 L15.0930959,15.5948743 L15.5643589,15.1072144 L19.8963905,19.589973 Z M19.4251276,20.0776329 L15.0930959,15.5948743 C14.7789207,15.2697677 15.2501836,14.7821079 15.5643589,15.1072144 L19.8963905,19.589973 C20.2105658,19.9150796 19.7393029,20.4027395 19.4251276,20.0776329 Z M19.1652413,19.833803 L0.333233204,19.833803 C0.149193587,19.833803 0,19.6794184 0,19.4889754 L0,19.4544926 C0,19.2640496 0.149193587,19.109665 0.333233204,19.109665 L18.3278262,19.109665 C18.4162052,19.109665 19.4481919,19.1261799 19.4481919,19.1261799 C19.7005435,19.3873118 19.5224243,19.833803 19.1652413,19.833803 Z M19.4251276,10.1009977 C19.5552633,9.96633411 19.7662549,9.96633411 19.8963905,10.1009977 C20.0265262,10.2356612 20.0265262,10.453994 19.8963905,10.5886575 L12.2320268,18.519692 C12.1695335,18.5843597 12.0847743,18.6206897 11.9963954,18.6206897 L0.333233204,18.6206897 C0.149193587,18.6206897 0,18.4663051 0,18.2758621 C0,18.0854191 0.149193587,17.9310345 0.333233204,17.9310345 L11.8583656,17.9310345 L19.4251276,10.1009977 Z" id="Stroke-35-Copy" fill-rule="nonzero"></path>
        </g>
    </g>
</svg>