<?xml version="1.0" encoding="UTF-8" standalone="no"?>
<svg width="25px" height="20px" viewBox="0 0 25 20" version="1.1" xmlns="http://www.w3.org/2000/svg" xmlns:xlink="http://www.w3.org/1999/xlink">
    <!-- Generator: Sketch 44.1 (41455) - http://www.bohemiancoding.com/sketch -->
    <title>list-grey</title>
    <desc>Created with Sketch.</desc>
    <defs></defs>
    <g id="Symbols" stroke="none" stroke-width="1" fill="none" fill-rule="evenodd">
        <g id="list-grey">
            <g id="Group-4" transform="translate(6.060606, 0.000000)"></g>
            <polygon id="Stroke-1" fill="#727272" fill-rule="nonzero" points="23.4618101 12.7004643 1.46122777 12.7004643 4.39059986 6.01253666 9.58229759 6.01253666 9.58229759 5.26253666 3.90031681 5.26253666 0.313931319 13.4504643 24.6091066 13.4504643 21.0227211 5.26253666 15.4789595 5.26253666 15.4789595 6.01253666 20.532438 6.01253666"></polygon>
            <polygon id="Stroke-3" fill="#727272" fill-rule="nonzero" points="0.562485204 15 24.3336441 15 24.3336441 14.5454545 0.562485204 14.5454545"></polygon>
            <polygon id="Stroke-5" fill="#727272" fill-rule="nonzero" points="0.562485204 16.2121212 24.3336441 16.2121212 24.3336441 15.7575758 0.562485204 15.7575758"></polygon>
            <polygon id="Stroke-7" fill="#727272" fill-rule="nonzero" points="0.562485204 17.4242424 24.3336441 17.4242424 24.3336441 16.969697 0.562485204 16.969697"></polygon>
            <polygon id="Stroke-9" fill="#727272" fill-rule="nonzero" points="0.562485204 18.6363636 24.3336441 18.6363636 24.3336441 18.1818182 0.562485204 18.1818182"></polygon>
            <polygon id="Stroke-11" fill="#727272" fill-rule="nonzero" points="0.562485204 19.8484848 24.3336441 19.8484848 24.3336441 19.3939394 0.562485204 19.3939394"></polygon>
            <path d="M7.17935293,0.602272727 L12.5037576,9.82396657 L17.8281622,0.602272727 L7.17935293,0.602272727 Z M12.5037576,11.3239122 L5.88028344,-0.147727273 L19.1272317,-0.147727273 L12.5037576,11.3239122 Z" id="Stroke-5" fill="#727272" fill-rule="nonzero"></path>
        </g>
    </g>
</svg>