<?xml version="1.0" encoding="UTF-8" standalone="no"?>
<svg width="20px" height="20px" viewBox="0 0 20 20" version="1.1" xmlns="http://www.w3.org/2000/svg" xmlns:xlink="http://www.w3.org/1999/xlink">
    <!-- Generator: Sketch 44.1 (41455) - http://www.bohemiancoding.com/sketch -->
    <title>marker-white </title>
    <desc>Created with Sketch.</desc>
    <defs></defs>
    <g id="Symbols" stroke="none" stroke-width="1" fill="none" fill-rule="evenodd">
        <g id="marker-white-" fill-rule="nonzero" fill="#FFFFFF">
            <path d="M9.98714577,19.6765227 C9.80903441,19.8675855 9.50628091,19.8675855 9.32816955,19.6765227 C9.31323626,19.6605036 9.28509901,19.6300697 9.24463596,19.5859194 C9.17770144,19.5128855 9.10020149,19.4275362 9.0130139,19.3305693 C8.76444224,19.0541169 8.48768573,18.7395996 8.18976078,18.3925877 C7.33862041,17.4012111 6.48744971,16.3471208 5.69219996,15.2744421 C5.00580645,14.348595 4.3924157,13.4501874 3.87054982,12.5933348 C2.66945724,10.6212585 2,8.95616363 2,7.65765766 C2,3.42845011 5.42845011,0 9.65765766,0 C13.8868652,0 17.3153153,3.42845011 17.3153153,7.65765766 C17.3153153,8.95616363 16.6458581,10.6212585 15.4447655,12.5933348 C14.9228996,13.4501874 14.3095089,14.348595 13.6231154,15.2744421 C12.8278656,16.3471208 11.9766949,17.4012111 11.1255545,18.3925877 C10.8276296,18.7395996 10.5508731,19.0541169 10.3023014,19.3305693 C10.2151138,19.4275362 10.1376139,19.5128855 10.0706794,19.5859194 C10.0302163,19.6300697 10.0020791,19.6605036 9.98714577,19.6765227 Z M10.442013,17.8057373 C11.2800618,16.8296092 12.1180803,15.7918066 12.8994072,14.7379079 C13.5705158,13.8326779 14.1688295,12.9563532 14.6753383,12.1247153 C15.7969164,10.2831941 16.4144144,8.74733369 16.4144144,7.65765766 C16.4144144,3.92600394 13.3893114,0.900900901 9.65765766,0.900900901 C5.92600394,0.900900901 2.9009009,3.92600394 2.9009009,7.65765766 C2.9009009,8.74733369 3.51839896,10.2831941 4.63997703,12.1247153 C5.14648586,12.9563532 5.74479947,13.8326779 6.41590815,14.7379079 C7.19723497,15.7918066 8.03525347,16.8296092 8.87330229,17.8057373 C9.15651114,18.1356084 9.42008186,18.4354165 9.65765766,18.7000811 C9.89523345,18.4354165 10.1588042,18.1356084 10.442013,17.8057373 Z" id="Oval-1464"></path>
            <path d="M9.65765766,9.00900901 C8.16499617,9.00900901 6.95495495,7.79896779 6.95495495,6.30630631 C6.95495495,4.81364482 8.16499617,3.6036036 9.65765766,3.6036036 C11.1503191,3.6036036 12.3603604,4.81364482 12.3603604,6.30630631 C12.3603604,7.79896779 11.1503191,9.00900901 9.65765766,9.00900901 Z M9.65765766,8.10810811 C10.6527653,8.10810811 11.4594595,7.30141396 11.4594595,6.30630631 C11.4594595,5.31119865 10.6527653,4.5045045 9.65765766,4.5045045 C8.66255,4.5045045 7.85585586,5.31119865 7.85585586,6.30630631 C7.85585586,7.30141396 8.66255,8.10810811 9.65765766,8.10810811 Z" id="Oval-1465"></path>
        </g>
    </g>
</svg>