<?xml version="1.0" encoding="UTF-8" standalone="no"?>
<svg width="20px" height="20px" viewBox="0 0 20 20" version="1.1" xmlns="http://www.w3.org/2000/svg" xmlns:xlink="http://www.w3.org/1999/xlink">
    <!-- Generator: Sketch 44.1 (41455) - http://www.bohemiancoding.com/sketch -->
    <title>no-avatar-white</title>
    <desc>Created with Sketch.</desc>
    <defs></defs>
    <g id="Symbols" stroke="none" stroke-width="1" fill="none" fill-rule="evenodd">
        <g id="no-avatar-white">
            <circle id="Oval-4" stroke="#FFFFFF" cx="10" cy="10" r="10"></circle>
            <path d="M16.8440658,18.1523174 L16.8501841,18.2581276 L16.7763924,18.3166724 C16.7493802,18.3381034 16.6985447,18.3771118 16.6254281,18.4311895 C16.5045053,18.5206252 16.3644044,18.6200963 16.2066623,18.7270947 C15.7566778,19.0323248 15.2547406,19.337398 14.7130356,19.6222238 C13.2054882,20.4148847 11.6859744,20.9014157 10.2423663,20.9287832 C8.76671822,20.9567581 7.22124213,20.5083986 5.69866842,19.7452288 C5.18360099,19.4870582 4.70812489,19.2105083 4.28322408,18.9337864 C4.13423305,18.8367542 4.00208122,18.7465342 3.88815351,18.6653989 C3.81920714,18.6162977 3.77128278,18.5808414 3.7457702,18.5613018 C3.7457702,18.5613018 3.63976782,18.5069047 3.53462255,18.4491582 C3.5292816,18.449382 3.52391289,18.4494949 3.51851852,18.4494949 C3.30374111,18.4494949 3.12962963,18.2704088 3.12962963,18.0494949 L3.12962963,16.1555556 C3.12962963,14.8923221 4.21508442,13.8195286 5.4625734,13.8195286 L7.22458242,13.8195286 L7.95988101,12.2758625 C8.05437734,12.0774794 8.28733576,11.9954513 8.48020819,12.0926475 C8.49209514,12.0986378 8.5134457,12.1039292 8.54304821,12.108585 C8.84667753,12.0330494 10.1380125,12.1072995 10.8651124,12.1168634 C11.0760826,12.1115403 11.2381927,12.1067189 11.3126346,12.1044297 C11.3330772,12.1011938 11.3482067,12.0972939 11.3574268,12.0926475 C11.5502992,11.9954513 11.7832576,12.0774794 11.8777539,12.2758625 L12.6130525,13.8195286 L14.6227092,13.8195286 C15.8625877,13.8195286 16.8703704,14.8471751 16.8703704,16.113468 L16.8703704,18.0074074 C16.8703704,18.058516 16.8610514,18.1073859 16.8440658,18.1523174 Z M6.09586057,6.01888292 C6.09586057,4.35180801 7.41209516,3 9.03404782,3 L13.6440329,3 C13.8588103,3 14.0329218,3.1790861 14.0329218,3.4 L14.0329218,6.53088811 C14.4623737,6.74601571 14.7530864,7.19899806 14.7530864,7.70997238 L14.7530864,7.97891651 C14.7530864,8.50927322 14.4462279,8.97250184 13.9946875,9.17782904 C13.7245903,11.1713308 12.0591672,12.6888889 10.0643912,12.6888889 C8.0774489,12.6888889 6.41495406,11.1789822 6.13671633,9.19598091 C5.66355074,9.00057268 5.33333333,8.52399028 5.33333333,7.97891651 L5.33333333,7.70997238 C5.33333333,7.17693139 5.64296243,6.71321337 6.09586057,6.50918313 L6.09586057,6.01888292 Z" id="Rectangle-2326" fill="#FFFFFF" fill-rule="nonzero"></path>
        </g>
    </g>
</svg>