<?xml version="1.0" encoding="utf-8"?>
<!-- Generator: Adobe Illustrator 15.0.0, SVG Export Plug-In . SVG Version: 6.00 Build 0)  -->
<!DOCTYPE svg PUBLIC "-//W3C//DTD SVG 1.1//EN" "http://www.w3.org/Graphics/SVG/1.1/DTD/svg11.dtd">
<svg version="1.1" id="Layer_1" xmlns="http://www.w3.org/2000/svg" xmlns:xlink="http://www.w3.org/1999/xlink" x="0px" y="0px"
	 width="22px" height="22px" viewBox="0 0 22 22" enable-background="new 0 0 22 22" xml:space="preserve">
<g>
	<defs>
		<path id="SVGID_1_" d="M15.506,16.475c0.469,0,0.849-0.379,0.849-0.848s-0.38-0.849-0.849-0.849H6.501
			c-0.468,0-0.848,0.38-0.848,0.849s0.38,0.848,0.848,0.848h3.634v3.329H8.33c-0.469,0-0.849,0.38-0.849,0.848
			c0,0.469,0.38,0.849,0.849,0.849h5.341c0.469,0,0.849-0.38,0.849-0.849c0-0.468-0.38-0.848-0.849-0.848h-1.837v-3.329H15.506z
			 M1.439,13.458h1.136v7.193c0,0.469,0.38,0.849,0.849,0.849s0.849-0.38,0.849-0.849v-7.193h13.456v7.193
			c0,0.469,0.38,0.849,0.849,0.849s0.848-0.38,0.848-0.849v-7.193h1.137c0.469,0,0.848-0.38,0.848-0.848
			c0-0.469-0.379-0.849-0.848-0.849H1.439c-0.469,0-0.849,0.38-0.849,0.849C0.591,13.078,0.971,13.458,1.439,13.458z M6.501,10.453
			v-2.37H5.807C5.545,8.082,5.312,8.251,5.233,8.5l-0.624,1.948H2.822l0.79-2.467c0.305-0.954,1.193-1.6,2.194-1.595h0.699V2.708
			C6.508,1.489,7.495,0.502,8.713,0.5h4.575c0.587,0,1.149,0.233,1.563,0.648C15.267,1.562,15.5,2.125,15.5,2.712v3.679h0.694
			c1.001-0.002,1.888,0.645,2.19,1.599l0.789,2.467h-1.776l-0.623-1.948c-0.077-0.255-0.313-0.429-0.58-0.426H15.5v2.37H6.501z"/>
	</defs>
	<clipPath id="SVGID_2_">
		<use xlink:href="#SVGID_1_"  overflow="visible"/>
	</clipPath>
	<rect x="-4.409" y="-4.5" clip-path="url(#SVGID_2_)" fill="#727272" width="30.818" height="31"/>
</g>
</svg>
