<?xml version="1.0" encoding="UTF-8" standalone="no"?>
<svg width="20px" height="20px" viewBox="0 0 20 20" version="1.1" xmlns="http://www.w3.org/2000/svg" xmlns:xlink="http://www.w3.org/1999/xlink">
    <!-- Generator: Sketch 44.1 (41455) - http://www.bohemiancoding.com/sketch -->
    <title>office-white</title>
    <desc>Created with Sketch.</desc>
    <defs></defs>
    <g id="Symbols" stroke="none" stroke-width="1" fill="none" fill-rule="evenodd">
        <g id="office-white" fill-rule="nonzero" fill="#FFFFFF">
            <path d="M6.7124183,18.8325291 L11.6797386,18.8325291 L11.6797386,11.689334 L6.7124183,10.7579615 L6.7124183,18.8325291 Z M5.92810458,9.81292126 L12.4640523,11.0384115 L12.4640523,19.6168428 L5.92810458,19.6168428 L5.92810458,9.81292126 Z" id="Rectangle-326"></path>
            <path d="M18.7246091,3.19435591 L18.2156863,2.45998009 L18.2156863,3.00350986 L18.7246091,3.19435591 Z M19,18.8325291 L18.2156863,19.6168428 L18.2156863,18.8325291 L19,18.8325291 Z M12.4640523,0.84664712 L12.4640523,0.00899969363 L19,2.45998009 L19,19.6168428 L12.4640523,19.6168428 L12.4640523,18.8325291 L18.2156863,18.8325291 L18.2156863,3.00350986 L12.4640523,0.84664712 Z M19,18.8325291 L18.2156863,19.6168428 L18.2156863,18.8325291 L19,18.8325291 Z M18.2156863,2.45998009 L18.7246091,3.19435591 L18.2156863,3.00350986 L18.2156863,2.45998009 Z M18.2156863,3.00350986 L12.4640523,0.84664712 L12.4640523,0.00899969363 L19,2.45998009 L19,19.6168428 L12.4640523,19.6168428 L12.4640523,18.8325291 L18.2156863,18.8325291 L18.2156863,3.00350986 Z" id="Rectangle-326"></path>
            <path d="M1.40196078,19.6168428 L0.617647059,18.8325291 L1.40196078,18.8325291 L1.40196078,19.6168428 Z M0.794007456,11.8026398 L1.40196078,11.0384115 L1.40196078,11.6623429 L0.794007456,11.8026398 Z M1.40196078,11.6623429 L5.92810458,10.6178482 L5.92810458,9.81292126 L0.617647059,11.0384115 L0.617647059,19.6168428 L5.92810458,19.6168428 L5.92810458,18.8325291 L1.40196078,18.8325291 L1.40196078,11.6623429 Z M1.40196078,11.0384115 L0.794007456,11.8026398 L1.40196078,11.6623429 L1.40196078,11.0384115 Z M0.617647059,18.8325291 L1.40196078,19.6168428 L1.40196078,18.8325291 L0.617647059,18.8325291 Z M5.92810458,10.6178482 L5.92810458,9.81292126 L0.617647059,11.0384115 L0.617647059,19.6168428 L5.92810458,19.6168428 L5.92810458,18.8325291 L1.40196078,18.8325291 L1.40196078,11.6623429 L5.92810458,10.6178482 Z" id="Rectangle-326"></path>
            <path d="M7.9379085,1.23448989 L7.32995517,1.99871828 L7.9379085,1.85842136 L7.9379085,1.23448989 Z M12.4640523,0.813926636 L12.4640523,11.4469082 L11.6797386,11.2659127 L11.6797386,0.994922111 L12.4640523,0.813926636 Z M12.4640523,0.804926942 L12.4640523,0 L7.15359477,1.23448989 L7.15359477,10.221418 L7.91799223,10.3978174 C7.93102344,10.3411183 7.9379085,10.2820722 7.9379085,10.221418 L7.9379085,1.85842136 L12.4640523,0.804926942 Z M12.4640523,0.813926636 L12.4640523,11.4469082 L11.6797386,11.2659127 L11.6797386,0.994922111 L12.4640523,0.813926636 Z M11.6797386,0.189995169 L7.15359477,1.23448989 L7.15359477,10.221418 L7.91799223,10.3978174 C7.93102344,10.3411183 7.9379085,10.2820722 7.9379085,10.221418 L7.9379085,1.85842136 L11.6797386,0.994922111 L11.6797386,0.189995169 Z" id="Rectangle-326"></path>
            <polygon id="Line" points="8.50224567 3.7525336 10.8971287 3.15381285 10.7069047 2.39291677 8.31202165 2.99163752"></polygon>
            <polygon id="Line" points="8.50224567 5.79501726 10.8971287 5.19629651 10.7069047 4.43540043 8.31202165 5.03412118"></polygon>
            <polygon id="Line" points="8.50224567 7.83750092 10.8971287 7.23878017 10.7069047 6.47788409 8.31202165 7.07660484"></polygon>
            <polygon id="Line" points="8.50224567 9.87998458 10.8971287 9.28126383 10.7069047 8.52036775 8.31202165 9.1190885"></polygon>
            <polygon id="Line" points="1.92928303 13.5321865 5.15390572 12.9947493 5.02496533 12.221107 1.80034265 12.7585442"></polygon>
            <polygon id="Line" points="1.92928303 15.5746701 5.15390572 15.037233 5.02496533 14.2635907 1.80034265 14.8010278"></polygon>
            <polygon id="Line" points="1.92928303 17.5354544 5.15390572 16.9980173 5.02496533 16.224375 1.80034265 16.7618121"></polygon>
        </g>
    </g>
</svg>