<?xml version="1.0" encoding="UTF-8" standalone="no"?>
<svg width="20px" height="20px" viewBox="0 0 20 20" version="1.1" xmlns="http://www.w3.org/2000/svg" xmlns:xlink="http://www.w3.org/1999/xlink">
    <!-- Generator: Sketch 44.1 (41455) - http://www.bohemiancoding.com/sketch -->
    <title>other-grey</title>
    <desc>Created with Sketch.</desc>
    <defs></defs>
    <g id="Symbols" stroke="none" stroke-width="1" fill="none" fill-rule="evenodd">
        <g id="other-grey" fill-rule="nonzero" fill="#727272">
            <path d="M0.754716981,11.3207547 L11.3207547,11.3207547 L11.3207547,0.754716981 L0.754716981,0.754716981 L0.754716981,11.3207547 Z M0.377358491,0 L11.6981132,0 C11.9065225,0 12.0754717,0.168949151 12.0754717,0.377358491 L12.0754717,11.6981132 C12.0754717,11.9065225 11.9065225,12.0754717 11.6981132,12.0754717 L0.377358491,12.0754717 C0.168949151,12.0754717 0,11.9065225 0,11.6981132 L0,0.377358491 C0,0.168949151 0.168949151,0 0.377358491,0 Z" id="Rectangle-2114"></path>
            <path d="M0.754716981,19.1949686 L4.52830189,19.1949686 L4.52830189,15.4213836 L0.754716981,15.4213836 L0.754716981,19.1949686 Z M0.377358491,14.6666667 L4.90566038,14.6666667 C5.11406972,14.6666667 5.28301887,14.8356158 5.28301887,15.0440252 L5.28301887,19.572327 C5.28301887,19.7807364 5.11406972,19.9496855 4.90566038,19.9496855 L0.377358491,19.9496855 C0.168949151,19.9496855 0,19.7807364 0,19.572327 L0,15.0440252 C0,14.8356158 0.168949151,14.6666667 0.377358491,14.6666667 Z" id="Rectangle-2114"></path>
            <path d="M15.4716981,4.52830189 L19.245283,4.52830189 L19.245283,0.754716981 L15.4716981,0.754716981 L15.4716981,4.52830189 Z M15.0943396,0 L19.6226415,0 C19.8310508,0 20,0.168949151 20,0.377358491 L20,4.90566038 C20,5.11406972 19.8310508,5.28301887 19.6226415,5.28301887 L15.0943396,5.28301887 C14.8859303,5.28301887 14.7169811,5.11406972 14.7169811,4.90566038 L14.7169811,0.377358491 C14.7169811,0.168949151 14.8859303,0 15.0943396,0 Z" id="Rectangle-2114"></path>
            <path d="M15.4719716,19.1949686 L19.2455565,19.1949686 L19.2455565,15.4213836 L15.4719716,15.4213836 L15.4719716,19.1949686 Z M15.0946131,14.6666667 L19.622915,14.6666667 C19.8313244,14.6666667 20.0002735,14.8356158 20.0002735,15.0440252 L20.0002735,19.572327 C20.0002735,19.7807364 19.8313244,19.9496855 19.622915,19.9496855 L15.0946131,19.9496855 C14.8862038,19.9496855 14.7172546,19.7807364 14.7172546,19.572327 L14.7172546,15.0440252 C14.7172546,14.8356158 14.8862038,14.6666667 15.0946131,14.6666667 Z" id="Rectangle-2114"></path>
        </g>
    </g>
</svg>