<?xml version="1.0" encoding="UTF-8" standalone="no"?>
<svg width="30px" height="20px" viewBox="0 0 30 20" version="1.1" xmlns="http://www.w3.org/2000/svg" xmlns:xlink="http://www.w3.org/1999/xlink">
    <!-- Generator: Sketch 44.1 (41455) - http://www.bohemiancoding.com/sketch -->
    <title>parking-white</title>
    <desc>Created with Sketch.</desc>
    <defs></defs>
    <g id="Symbols" stroke="none" stroke-width="1" fill="none" fill-rule="evenodd">
        <g id="parking-white" fill-rule="nonzero" fill="#FFFFFF">
            <path d="M26.6250124,0.96488877 L3.40086655,0.96488877 L1.79692003,3.37711069 L28.2289589,3.37711069 L26.6250124,0.96488877 Z M2.88710374,0 L27.1387752,0 L30.0258789,4.34199946 L0,4.34199946 L2.88710374,0 Z" id="Rectangle-296"></path>
            <path d="M4.56393359,18.815331 L25.4619453,18.815331 L25.4619453,4.34199946 L4.56393359,4.34199946 L4.56393359,18.815331 Z M3.60310547,3.37711069 L26.4227734,3.37711069 L26.4227734,19.7802198 L3.60310547,19.7802198 L3.60310547,3.37711069 Z" id="Rectangle-297"></path>
            <path d="M7.69230769,18.815331 L22.8327228,18.815331 L22.8327228,7.71911016 L7.69230769,7.71911016 L7.69230769,18.815331 Z M6.71550672,6.75422139 L23.8095238,6.75422139 L23.8095238,19.7802198 L6.71550672,19.7802198 L6.71550672,6.75422139 Z" id="Rectangle-298"></path>
            <path d="M10.1343101,15.6794425 C10.1343101,16.3442077 10.6817161,16.8855535 11.3545164,16.8855535 L19.1705141,16.8855535 C19.8412774,16.8855535 20.3907204,16.3435043 20.3907204,15.6794425 C20.3907204,15.0146774 19.8433144,14.4733315 19.1705141,14.4733315 L11.3545164,14.4733315 C10.6837531,14.4733315 10.1343101,15.0153808 10.1343101,15.6794425 Z M9.15750916,15.6794425 C9.15750916,14.4804325 10.1463631,13.5084428 11.3545164,13.5084428 L19.1705141,13.5084428 C20.3838877,13.5084428 21.3675214,14.4828722 21.3675214,15.6794425 C21.3675214,16.8784526 20.3786675,17.8504422 19.1705141,17.8504422 L11.3545164,17.8504422 C10.1411428,17.8504422 9.15750916,16.8760128 9.15750916,15.6794425 Z" id="Rectangle-305"></path>
            <polygon id="Line" points="10.1343101 16.8855535 10.1343101 19.2977754 11.1111111 19.2977754 11.1111111 16.8855535"></polygon>
            <polygon id="Line" points="20.1723011 14.6381542 22.0227794 13.7241985 21.5859407 12.8611757 19.7354624 13.7751315"></polygon>
            <polygon id="Line" points="10.7895681 13.7751315 8.93908982 12.8611757 8.50225114 13.7241985 10.3527295 14.6381542"></polygon>
            <polygon id="Line" points="11.1111111 14.9557759 11.1111111 16.4031091 12.0879121 16.4031091 12.0879121 14.9557759"></polygon>
            <polygon id="Line-34" points="18.4371184 14.9557759 18.4371184 16.4031091 19.4139194 16.4031091 19.4139194 14.9557759"></polygon>
            <polygon id="Line" points="19.4139194 16.8855535 19.4139194 19.2977754 20.3907204 19.2977754 20.3907204 16.8855535"></polygon>
            <path d="M11.1111111,13.5084428 L19.4139194,13.5084428 L19.4139194,12.7847762 C19.4139194,12.3856443 19.0864494,12.0611096 18.6855695,12.0611096 L11.839461,12.0611096 C11.4372384,12.0611096 11.1111111,12.3841811 11.1111111,12.7847762 L11.1111111,13.5084428 Z M10.1343101,12.7847762 C10.1343101,11.8522128 10.8968286,11.0962209 11.839461,11.0962209 L18.6855695,11.0962209 C19.6272983,11.0962209 20.3907204,11.8541104 20.3907204,12.7847762 L20.3907204,14.4733315 L10.1343101,14.4733315 L10.1343101,12.7847762 Z" id="Rectangle-306"></path>
        </g>
    </g>
</svg>