<?xml version="1.0" encoding="UTF-8" standalone="no"?>
<svg width="20px" height="20px" viewBox="0 0 20 20" version="1.1" xmlns="http://www.w3.org/2000/svg" xmlns:xlink="http://www.w3.org/1999/xlink">
    <!-- Generator: Sketch 44.1 (41455) - http://www.bohemiancoding.com/sketch -->
    <title>phone-white</title>
    <desc>Created with Sketch.</desc>
    <defs></defs>
    <g id="Symbols" stroke="none" stroke-width="1" fill="none" fill-rule="evenodd">
        <g id="phone-white" fill-rule="nonzero" fill="#FFFFFF">
            <path d="M1.32434183,4.94982718 L3.39308232,3.08796074 C3.56130713,2.93655841 3.81860991,2.94332486 3.97864467,3.10335962 L6.94173989,6.06645484 C7.09069008,6.21540503 7.10824743,6.45091683 6.98302938,6.6203062 L6.28011017,7.5711838 C5.60466079,8.48490146 5.7103476,9.90538822 6.51513454,10.7101752 L9.27811266,13.4731533 C10.0829597,14.2780003 11.5021825,14.384517 12.417104,13.7081777 L13.3679816,13.0052585 C13.537371,12.8800404 13.7728828,12.8975978 13.921833,13.0465479 L16.8849282,16.0096432 C17.044963,16.1696779 17.0517294,16.4269807 16.9003271,16.5952055 L15.0384607,18.663946 C13.627042,20.232189 11.1508282,20.4458157 9.51998377,19.132078 C9.36797919,19.0381642 9.07433313,18.8165308 8.59082632,18.4028803 C7.74175341,17.6764803 6.56025794,16.5682716 4.99013065,14.9981443 C3.42000053,13.4280142 2.31113024,12.2457312 1.58363495,11.3953545 C1.1670695,10.9084268 0.944713325,10.6135398 0.851359544,10.4619328 C-0.446979162,8.81377959 -0.237652005,6.35562163 1.32434183,4.94982718 Z M3.66232797,3.99062893 L1.89367352,5.58241794 C0.659244543,6.69340402 0.497426382,8.65758208 1.53441433,9.95356138 L1.57177233,10.008564 C1.57884032,10.0209537 1.61187893,10.0706434 1.6806097,10.1634154 C1.80462136,10.330805 1.98460776,10.5548685 2.23033621,10.842103 C2.94204778,11.67403 4.03630725,12.8407349 5.59192365,14.3963513 C7.14754287,15.9519705 8.31346797,17.0455746 9.1440866,17.7561867 C9.43084617,18.0015156 9.65439985,18.181075 9.82127182,18.3046569 C9.91367107,18.3730858 9.96304423,18.4058827 9.97518238,18.412792 L10.0344088,18.4534867 C11.3109934,19.4997233 13.2895701,19.3349475 14.4058699,18.0946143 L15.9976589,16.3259599 L13.5791855,13.9074865 L12.9230137,14.3925496 C11.6691678,15.3194328 9.77893916,15.1775658 8.67631966,14.0749463 L5.91334154,11.3119682 C4.81061655,10.2092432 4.66988434,8.31772769 5.59573819,7.06527409 L6.08080138,6.40910234 L3.66232797,3.99062893 Z" id="Rectangle-240-Copy-2"></path>
            <path d="M17.4468085,8.5106383 C17.4468085,6.94121266 16.8340966,5.43027116 15.7019127,4.29808726 C14.5697288,3.16590336 13.0587873,2.55319149 11.4893617,2.55319149 C11.2543469,2.55319149 11.0638298,2.74370862 11.0638298,2.9787234 C11.0638298,3.21373819 11.2543469,3.40425532 11.4893617,3.40425532 C12.8353088,3.40425532 14.1291818,3.92894232 15.1001197,4.89988027 C16.0710577,5.87081821 16.5957447,7.16469124 16.5957447,8.5106383 C16.5957447,8.74565308 16.7862618,8.93617021 17.0212766,8.93617021 C17.2562914,8.93617021 17.4468085,8.74565308 17.4468085,8.5106383 Z" id="Oval-128"></path>
            <path d="M20,8.93617021 C20,6.58183655 19.0810654,4.31575267 17.3826563,2.61734366 C15.6842473,0.918934641 13.4181635,2.53981233e-13 11.0638298,0 C10.828815,-2.41886889e-14 10.6382979,0.190517128 10.6382979,0.425531915 C10.6382979,0.660546702 10.828815,0.85106383 11.0638298,0.85106383 C13.1946849,0.85106383 15.2437003,1.6819736 16.7808633,3.21913666 C18.3180264,4.75629972 19.1489362,6.80531513 19.1489362,8.93617021 C19.1489362,9.171185 19.3394533,9.36170213 19.5744681,9.36170213 C19.8094829,9.36170213 20,9.171185 20,8.93617021 Z" id="Oval-128-Copy-2"></path>
            <path d="M14.893617,8.93617021 C14.893617,7.92739317 14.4996357,6.95583908 13.7718983,6.22810169 C13.0441609,5.5003643 12.0726068,5.10638298 11.0638298,5.10638298 C10.828815,5.10638298 10.6382979,5.29690011 10.6382979,5.53191489 C10.6382979,5.76692968 10.828815,5.95744681 11.0638298,5.95744681 C11.8491282,5.95744681 12.6036139,6.26340326 13.1701053,6.82989469 C13.7365967,7.39638613 14.0425532,8.15087175 14.0425532,8.93617021 C14.0425532,9.171185 14.2330703,9.36170213 14.4680851,9.36170213 C14.7030999,9.36170213 14.893617,9.171185 14.893617,8.93617021 Z" id="Oval-128-Copy"></path>
        </g>
    </g>
</svg>