<?xml version="1.0" encoding="UTF-8" standalone="no"?>
<svg width="20px" height="20px" viewBox="0 0 20 20" version="1.1" xmlns="http://www.w3.org/2000/svg" xmlns:xlink="http://www.w3.org/1999/xlink">
    <!-- Generator: Sketch 44.1 (41455) - http://www.bohemiancoding.com/sketch -->
    <title>price-white</title>
    <desc>Created with Sketch.</desc>
    <defs></defs>
    <g id="Symbols" stroke="none" stroke-width="1" fill="none" fill-rule="evenodd">
        <g id="price-white" fill="#FFFFFF">
            <path d="M11.1206897,19.3103448 C15.5851066,19.3103448 19.2241379,15.1514518 19.2241379,10 C19.2241379,4.84854817 15.5851066,0.689655172 11.1206897,0.689655172 C6.65627275,0.689655172 3.01724138,4.84854817 3.01724138,10 C3.01724138,15.1514518 6.65627275,19.3103448 11.1206897,19.3103448 Z M11.1206897,20 C6.25338242,20 2.32758621,15.5133758 2.32758621,10 C2.32758621,4.48662425 6.25338242,0 11.1206897,0 C15.9879969,0 19.9137931,4.48662425 19.9137931,10 C19.9137931,15.5133758 15.9879969,20 11.1206897,20 Z" id="Stroke-341" fill-rule="nonzero"></path>
            <path d="M3.01724138,10 C3.01724138,14.7264406 6.09939682,18.6757111 10.1339031,19.2391767 L12.5829976,19.581221 L10.1337578,19.9222229 C9.76534067,19.9735168 9.4062461,20 9.05172414,20 C4.18441691,20 0.25862069,15.5133758 0.25862069,10 C0.25862069,4.48662425 4.18441691,0 9.05172414,0 C9.4062461,0 9.76534067,0.0264832251 10.1337578,0.0777770687 L12.5829976,0.418778956 L10.1339031,0.76082335 C6.09939682,1.32428886 3.01724138,5.27355936 3.01724138,10 Z M2.32758621,10 C2.32758621,5.93970155 4.46828977,2.39722026 7.58605713,0.841848009 C3.81748899,1.63412499 0.948275862,5.42576842 0.948275862,10 C0.948275862,14.5742316 3.81748899,18.365875 7.58605713,19.158152 C4.46828977,17.6027797 2.32758621,14.0602984 2.32758621,10 Z" id="Stroke-343" fill-rule="nonzero"></path>
            <path d="M2.62448276,10.3448276 L0.603448276,10.3448276 C0.413005259,10.3448276 0.430745443,10.4992122 0.430745443,10.6896552 C0.430745443,10.8800982 0.413005259,11.0344828 0.603448276,11.0344828 L2.62448276,11.0344828 C2.81492578,11.0344828 2.96931034,10.8800982 2.96931034,10.6896552 C2.96931034,10.4992122 2.81492578,10.3448276 2.62448276,10.3448276 Z" id="Stroke-345" fill-rule="nonzero"></path>
            <path d="M2.67241379,8.62068966 L0.603448276,8.62068966 C0.413005259,8.62068966 0.603448276,8.77507422 0.603448276,8.96551724 C0.603448276,9.15596026 0.413005259,9.31034483 0.603448276,9.31034483 L2.67241379,9.31034483 C2.86285681,9.31034483 2.82080078,9.15596026 2.82080078,8.96551724 C2.82080078,8.77507422 2.86285681,8.62068966 2.67241379,8.62068966 Z" id="Stroke-347" fill-rule="nonzero"></path>
            <path d="M2.68390805,12.0689655 L0.948275862,12.0689655 C0.757832845,12.0689655 0.603448276,12.2233501 0.603448276,12.4137931 C0.603448276,12.6042361 0.757832845,12.7586207 0.948275862,12.7586207 L3.01724138,12.7586207 C3.2076844,12.7586207 3.02873563,12.6042361 3.02873563,12.4137931 C3.02873563,12.2233501 2.87435106,12.0689655 2.68390805,12.0689655 Z" id="Stroke-349" fill-rule="nonzero"></path>
            <path d="M3.37390805,13.7931034 L1.63793103,13.7931034 C1.44748802,13.7931034 1.29310345,13.947488 1.29310345,14.137931 C1.29310345,14.3283741 1.44748802,14.4827586 1.63793103,14.4827586 L3.70724138,14.4827586 C3.8976844,14.4827586 3.71873563,14.3283741 3.71873563,14.137931 C3.71873563,13.947488 3.56435106,13.7931034 3.37390805,13.7931034 Z" id="Stroke-351" fill-rule="nonzero"></path>
            <path d="M2.92957245,6.89655172 L1.07806326,6.89655172 C0.887620246,6.89655172 0.733235677,7.05093629 0.733235677,7.24137931 C0.733235677,7.43182233 0.757832845,7.5862069 0.948275862,7.5862069 L3.01724138,7.5862069 C3.2076844,7.5862069 3.27440003,7.43182233 3.27440003,7.24137931 C3.27440003,7.05093629 3.12001546,6.89655172 2.92957245,6.89655172 Z" id="Stroke-353" fill-rule="nonzero"></path>
            <path d="M3.70647001,5.17241379 L1.79982433,5.17241379 C1.60938131,5.17241379 1.45499674,5.32679836 1.45499674,5.51724138 C1.45499674,5.7076844 1.44748802,5.86206897 1.63793103,5.86206897 L3.70689655,5.86206897 C3.89733957,5.86206897 3.82047526,5.58544922 3.82047526,5.58544922 C3.82047526,5.58544922 3.89691302,5.17241379 3.70647001,5.17241379 Z" id="Stroke-355" fill-rule="nonzero"></path>
            <path d="M4.88680013,3.10344828 L3.01724138,3.10344828 C2.82679836,3.10344828 2.67241379,3.25783284 2.67241379,3.44827586 C2.67241379,3.63871888 2.82679836,3.79310345 3.01724138,3.79310345 L4.88680013,3.79310345 C5.07724315,3.79310345 5.23162772,3.63871888 5.23162772,3.44827586 C5.23162772,3.25783284 5.07724315,3.10344828 4.88680013,3.10344828 Z" id="Stroke-357" fill-rule="nonzero"></path>
            <path d="M6.78965517,1.37931034 L4.74137931,1.37931034 C4.55093629,1.37931034 4.39655172,1.53369491 4.39655172,1.72413793 C4.39655172,1.91458095 4.55093629,2.06896552 4.74137931,2.06896552 L6.78965517,2.06896552 C6.98009819,2.06896552 7.13448276,1.91458095 7.13448276,1.72413793 C7.13448276,1.53369491 6.98009819,1.37931034 6.78965517,1.37931034 Z" id="Stroke-359" fill-rule="nonzero"></path>
            <path d="M4.40804598,15.862069 L2.67241379,15.862069 C2.48197078,15.862069 2.32758621,16.0164535 2.32758621,16.2068966 C2.32758621,16.3973396 2.48197078,16.5517241 2.67241379,16.5517241 L4.74137931,16.5517241 C4.93182233,16.5517241 4.75287356,16.3973396 4.75287356,16.2068966 C4.75287356,16.0164535 4.59848899,15.862069 4.40804598,15.862069 Z" id="Stroke-361" fill-rule="nonzero"></path>
            <path d="M6.13528736,17.5862069 L4.39655172,17.5862069 C4.20610871,17.5862069 4.05172414,17.7405915 4.05172414,17.9310345 C4.05172414,18.1214775 4.20610871,18.2758621 4.39655172,18.2758621 L6.46862069,18.2758621 C6.65906371,18.2758621 6.48011494,18.1214775 6.48011494,17.9310345 C6.48011494,17.7405915 6.32573037,17.5862069 6.13528736,17.5862069 Z" id="Stroke-363" fill-rule="nonzero"></path>
            <path d="M11.2355172,17.257931 C11.0199251,17.257931 10.8057652,17.2451656 10.5935729,17.2198229 C10.4044738,17.1972382 10.2328702,17.3322249 10.2102855,17.521324 C10.1877009,17.7104231 10.3226876,17.8820267 10.5117867,17.9046114 C10.7510973,17.9331929 10.9925671,17.9475862 11.2355172,17.9475862 C11.4259603,17.9475862 11.5803448,17.7932016 11.5803448,17.6027586 C11.5803448,17.4123156 11.4259603,17.257931 11.2355172,17.257931 Z M8.73585666,16.6482641 C8.54533593,16.5505021 8.35929243,16.4415866 8.17841015,16.3219857 C8.01955294,16.2169479 7.8056238,16.2605772 7.70058606,16.4194345 C7.59554831,16.5782917 7.63917761,16.7922208 7.79803482,16.8972586 C7.99994656,17.0307643 8.20785651,17.1524811 8.42100484,17.2618541 C8.59044301,17.348798 8.79828178,17.2819232 8.88522571,17.112485 C8.97216964,16.9430468 8.90529483,16.7352081 8.73585666,16.6482641 Z M6.73418575,15.0011186 C6.59843055,14.8333088 6.46976385,14.6580279 6.3486913,14.4759206 C6.24325294,14.317329 6.02921437,14.2742398 5.87062277,14.3796782 C5.71203117,14.4851165 5.66894195,14.6991551 5.77438031,14.8577467 C5.9073186,15.0577014 6.04870732,15.2503134 6.19801295,15.4348731 C6.31779095,15.5829331 6.53491658,15.6058602 6.68297661,15.4860822 C6.83103664,15.3663042 6.85396375,15.1491786 6.73418575,15.0011186 Z M5.49749653,12.7299786 C5.42830982,12.5239957 5.36753582,12.3141721 5.31541934,12.1010812 C5.27017546,11.9160905 5.08353351,11.8028034 4.89854288,11.8480473 C4.71355225,11.8932912 4.60026512,12.0799331 4.645509,12.2649237 C4.70222213,12.4968092 4.76838316,12.7252317 4.84373451,12.9495679 C4.90437242,13.1300993 5.09987878,13.2272922 5.28041018,13.1666543 C5.46094158,13.1060164 5.55813445,12.91051 5.49749653,12.7299786 Z M5.08645093,10.1169773 C5.0881365,9.89701957 5.09855015,9.67837716 5.11757691,9.46149467 C5.13422025,9.2717803 4.99391847,9.10449432 4.8042041,9.08785098 C4.61448973,9.07120764 4.44720375,9.21150942 4.43056041,9.40122379 C4.40992958,9.63639076 4.39864226,9.87337646 4.396816,10.1116925 C4.39535665,10.3021299 4.54855365,10.457693 4.73899107,10.4591524 C4.9294285,10.4606117 5.08499157,10.3074147 5.08645093,10.1169773 Z M5.53149829,7.53240748 C5.60414569,7.32549966 5.68527524,7.12281028 5.77457185,6.92495347 C5.85291334,6.75137019 5.77570461,6.54714482 5.60212133,6.46880333 C5.42853805,6.39046184 5.22431268,6.46767057 5.14597119,6.64125385 C5.04850664,6.8572086 4.96000136,7.07832506 4.88078702,7.30393625 C4.81769643,7.48362521 4.91221808,7.68043691 5.09190704,7.7435275 C5.27159599,7.80661809 5.4684077,7.71209644 5.53149829,7.53240748 Z M6.81685155,5.26004124 C6.95735573,5.09297442 7.10487186,4.933923 7.25881849,4.78350682 C7.39503491,4.65041426 7.39756729,4.4320962 7.26447473,4.29587978 C7.13138217,4.15966336 6.9130641,4.15713098 6.77684769,4.29022354 C6.60676993,4.45640089 6.44396179,4.63194011 6.28904079,4.8161493 C6.16646342,4.96190021 6.18524928,5.17942327 6.3310002,5.30200065 C6.47675112,5.42457802 6.69427418,5.40579216 6.81685155,5.26004124 Z M8.83288602,3.66448079 C9.02683089,3.56955968 9.22501751,3.48619885 9.42677038,3.41477874 C9.60629668,3.3512268 9.70031247,3.15417294 9.63676053,2.97464664 C9.57320858,2.79512034 9.37615473,2.70110455 9.19662843,2.76465649 C8.96986399,2.84493064 8.74730057,2.93854479 8.5297154,3.04503602 C8.35866044,3.12875427 8.28786006,3.33528876 8.37157832,3.50634371 C8.45529657,3.67739867 8.66183106,3.74819905 8.83288602,3.66448079 Z M11.3602911,3.10487597 C11.5755958,3.10980738 11.7893377,3.1275011 12.0009691,3.15775869 C12.189495,3.18471283 12.3641761,3.05373303 12.3911302,2.86520712 C12.4180843,2.67668122 12.2871045,2.50200013 12.0985786,2.47504599 C11.8598644,2.44091628 11.618802,2.42096094 11.3760831,2.41540162 C11.18569,2.41104079 11.0278108,2.56184973 11.0234499,2.75224281 C11.0190891,2.94263589 11.169898,3.10051513 11.3602911,3.10487597 Z M13.8303064,3.76305475 C14.0190317,3.8643808 14.2031516,3.97673467 14.3819832,4.09963628 C14.5389347,4.20750084 14.7536105,4.16770801 14.8614751,4.01075649 C14.9693397,3.85380498 14.9295468,3.63912913 14.7725953,3.53126456 C14.5731243,3.39417859 14.367519,3.2687138 14.1565346,3.15543691 C13.9887456,3.06535149 13.779697,3.12834271 13.6896116,3.29613174 C13.5995262,3.46392077 13.6625174,3.67296932 13.8303064,3.76305475 Z M15.8047179,5.44553168 C15.9378597,5.61556025 16.063829,5.79289927 16.1821311,5.97690222 C16.2851236,6.13709303 16.4984758,6.18346147 16.6586666,6.08046901 C16.8188574,5.97747656 16.8652259,5.76412436 16.7622334,5.60393355 C16.6324047,5.40200257 16.4940554,5.20723495 16.3477069,5.02034093 C16.2302937,4.87039865 16.0135593,4.84402861 15.863617,4.96144179 C15.7136747,5.07885497 15.6873047,5.2955894 15.8047179,5.44553168 Z M17.0134063,7.75345459 C17.0791703,7.96060567 17.1364888,8.17143819 17.1851279,8.38538652 C17.227346,8.57109104 17.4121139,8.68740973 17.5978184,8.64519157 C17.7835229,8.60297341 17.8998416,8.41820557 17.8576235,8.23250105 C17.8047109,7.99975541 17.7423317,7.7703082 17.6707319,7.54477442 C17.6131064,7.36325899 17.4192444,7.26282631 17.237729,7.32045175 C17.0562136,7.37807718 16.9557809,7.57193916 17.0134063,7.75345459 Z M17.3826376,10.3714107 C17.3775819,10.5913043 17.3637844,10.8097676 17.3413669,11.0263465 C17.3217595,11.2157775 17.4594287,11.3852366 17.6488596,11.404844 C17.8382906,11.4244515 18.0077497,11.2867823 18.0273571,11.0973513 C18.0516717,10.8624443 18.0666312,10.625582 18.0721106,10.3872628 C18.076488,10.1968701 17.9256929,10.0389777 17.7353002,10.0346003 C17.5449075,10.0302228 17.3870151,10.181018 17.3826376,10.3714107 Z M16.8957988,12.9502658 C16.8197272,13.1557864 16.735223,13.3569238 16.6426136,13.5530593 C16.5613005,13.7252706 16.634988,13.9307927 16.8071993,14.0121058 C16.9794105,14.0934189 17.1849326,14.0197314 17.2662457,13.8475201 C17.3673678,13.6333558 17.4595908,13.413846 17.5425704,13.1896626 C17.608678,13.0110616 17.5174841,12.812686 17.338883,12.7465784 C17.160282,12.6804708 16.9619065,12.7716647 16.8957988,12.9502658 Z M15.5706907,15.1987274 C15.4270637,15.3630767 15.2765297,15.5192111 15.1196818,15.6665168 C14.9808618,15.7968915 14.9740155,16.0151169 15.1043901,16.1539369 C15.2347648,16.2927569 15.4529902,16.2996032 15.5918102,16.1692285 C15.7652339,16.0063554 15.9315037,15.8338997 16.0899887,15.6525487 C16.215308,15.5091486 16.2006506,15.2913084 16.0572504,15.1659891 C15.9138502,15.0406697 15.69601,15.0553272 15.5706907,15.1987274 Z M13.524078,16.7511676 C13.3282345,16.8416844 13.1283082,16.9205174 12.9249699,16.9873012 C12.7440358,17.0467267 12.6455335,17.2415766 12.704959,17.4225108 C12.7643845,17.6034449 12.9592344,17.7019471 13.1401685,17.6425216 C13.3688626,17.56741 13.5935385,17.478818 13.8134194,17.3771915 C13.9862911,17.2972921 14.06166,17.0923806 13.9817606,16.9195089 C13.9018612,16.7466372 13.6969497,16.6712682 13.524078,16.7511676 Z" id="Stroke-365" fill-rule="nonzero"></path>
            <path d="M14.7403448,12.5968966 C14.6662069,12.522069 14.5872414,12.5062069 14.5344828,12.5062069 C14.4506897,12.5062069 14.37,12.5441379 14.292069,12.6213793 C13.68,13.2624138 12.8593103,13.5872414 11.8531034,13.5872414 C11.0472414,13.5872414 10.3572414,13.3537931 9.80206897,12.8934483 C9.29689655,12.4744828 8.94655172,11.9206897 8.75931034,11.2448276 L11.5172414,11.2448276 C11.7237931,11.2448276 11.8575862,11.1113793 11.8575862,10.9048276 C11.8575862,10.697931 11.7237931,10.5641379 11.5172414,10.5641379 L8.6337931,10.5641379 C8.61827586,10.4193103 8.61034483,10.2562069 8.61034483,10.0758621 C8.61034483,9.89206897 8.61862069,9.72103448 8.63482759,9.56551724 L11.7410345,9.56551724 C11.947931,9.56551724 12.0813793,9.43172414 12.0813793,9.22517241 C12.0813793,9.01827586 11.947931,8.88482759 11.7410345,8.88482759 L8.75931034,8.88482759 C8.94448276,8.2137931 9.27931034,7.66068966 9.7562069,7.23793103 C10.2772414,6.77655172 10.8827586,6.54241379 11.5562069,6.54241379 C12.2368966,6.54241379 12.8755172,6.75034483 13.4537931,7.15896552 C13.692069,7.33137931 13.9051724,7.52103448 14.0875862,7.72310345 L14.0875862,8.44137931 C14.0875862,8.64827586 14.2213793,8.78172414 14.4282759,8.78172414 C14.6348276,8.78172414 14.7682759,8.64827586 14.7682759,8.44137931 L14.7682759,6.31413793 C14.7682759,6.10758621 14.6348276,5.9737931 14.4282759,5.9737931 C14.2213793,5.9737931 14.0875862,6.10758621 14.0875862,6.31413793 L14.0875862,6.76724138 C13.3475862,6.16655172 12.5286207,5.86206897 11.6513793,5.86206897 C10.7306897,5.86206897 9.93448276,6.15931034 9.28551724,6.74586207 C8.67310345,7.29965517 8.26241379,8.01862069 8.0637931,8.88482759 L7.37448276,8.88482759 C7.16758621,8.88482759 7.03413793,9.01827586 7.03413793,9.22517241 C7.03413793,9.43172414 7.16758621,9.56551724 7.37448276,9.56551724 L7.95275862,9.56551724 C7.93758621,9.72275862 7.93,9.8937931 7.93,10.0758621 C7.93,10.2537931 7.93724138,10.4172414 7.95137931,10.5641379 L7.15068966,10.5641379 C6.9437931,10.5641379 6.81034483,10.697931 6.81034483,10.9048276 C6.81034483,11.1113793 6.9437931,11.2448276 7.15068966,11.2448276 L8.06344828,11.2448276 C8.26413793,12.1275862 8.69310345,12.8513793 9.34,13.3986207 C10.0217241,13.9755172 10.8672414,14.267931 11.8531034,14.267931 C12.9996552,14.267931 13.9817241,13.8744828 14.7734483,13.0986207 C14.8617241,13.0110345 14.8803448,12.9224138 14.8803448,12.8637931 C14.8803448,12.7496552 14.8003448,12.6568966 14.7403448,12.5968966" id="Fill-367"></path>
        </g>
    </g>
</svg>