<?xml version="1.0" encoding="UTF-8" standalone="no"?>
<svg width="20px" height="20px" viewBox="0 0 20 20" version="1.1" xmlns="http://www.w3.org/2000/svg" xmlns:xlink="http://www.w3.org/1999/xlink">
    <!-- Generator: Sketch 44.1 (41455) - http://www.bohemiancoding.com/sketch -->
    <title>react-white</title>
    <desc>Created with Sketch.</desc>
    <defs></defs>
    <g id="Symbols" stroke="none" stroke-width="1" fill="none" fill-rule="evenodd">
        <g id="react-white" fill-rule="nonzero" fill="#FFFFFF">
            <path d="M2.46383206,19.9499316 C2.17075628,20.1051614 1.81566488,19.8779379 1.86016881,19.5636468 L2.42622545,15.5660993 C0.871914241,13.8702484 0,11.7069725 0,9.4168591 C0,4.21590804 4.47732533,0 10,0 C15.5226747,0 20,4.21590804 20,9.4168591 C20,14.6178102 15.5226747,18.8337182 10,18.8337182 C8.61590759,18.8337182 7.27088634,18.5685303 6.02866372,18.0617923 L2.46383206,19.9499316 Z M5.80786369,17.2966037 C5.9214266,17.2364543 6.05861724,17.2311123 6.17704811,17.2822283 C7.36592698,17.7953607 8.66237612,18.0645193 10,18.0645193 C15.0727162,18.0645193 19.1846523,14.1926666 19.1846523,9.4168591 C19.1846523,4.64105163 15.0727162,0.769198887 10,0.769198887 C4.92728379,0.769198887 0.815347722,4.64105163 0.815347722,9.4168591 C0.815347722,11.5761959 1.6585885,13.6109948 3.15822035,15.1863586 C3.23796353,15.2701289 3.2747916,15.3826576 3.25898884,15.4942582 L2.7764164,18.9022321 L5.80786369,17.2966037 Z" id="Oval-12"></path>
            <path d="M7.40029597,10.9137995 C6.78324086,10.9137995 6.28301887,10.4135775 6.28301887,9.79652238 C6.28301887,9.17946728 6.78324086,8.67924528 7.40029597,8.67924528 C8.01735107,8.67924528 8.51757307,9.17946728 8.51757307,9.79652238 C8.51757307,10.4135775 8.01735107,10.9137995 7.40029597,10.9137995 Z M7.40029597,10.1590825 C7.60053239,10.1590825 7.76285609,9.99675881 7.76285609,9.79652238 C7.76285609,9.59628596 7.60053239,9.43396226 7.40029597,9.43396226 C7.20005954,9.43396226 7.03773585,9.59628596 7.03773585,9.79652238 C7.03773585,9.99675881 7.20005954,10.1590825 7.40029597,10.1590825 Z" id="Oval-13"></path>
            <path d="M10.0418054,10.9137995 C9.4247503,10.9137995 8.9245283,10.4135775 8.9245283,9.79652238 C8.9245283,9.17946728 9.4247503,8.67924528 10.0418054,8.67924528 C10.6588605,8.67924528 11.1590825,9.17946728 11.1590825,9.79652238 C11.1590825,10.4135775 10.6588605,10.9137995 10.0418054,10.9137995 Z M10.0418054,10.1590825 C10.2420418,10.1590825 10.4043655,9.99675881 10.4043655,9.79652238 C10.4043655,9.59628596 10.2420418,9.43396226 10.0418054,9.43396226 C9.84156898,9.43396226 9.67924528,9.59628596 9.67924528,9.79652238 C9.67924528,9.99675881 9.84156898,10.1590825 10.0418054,10.1590825 Z" id="Oval-13-Copy"></path>
            <path d="M12.6833148,10.9137995 C12.0662597,10.9137995 11.5660377,10.4135775 11.5660377,9.79652238 C11.5660377,9.17946728 12.0662597,8.67924528 12.6833148,8.67924528 C13.3003699,8.67924528 13.8005919,9.17946728 13.8005919,9.79652238 C13.8005919,10.4135775 13.3003699,10.9137995 12.6833148,10.9137995 Z M12.6833148,10.1590825 C12.8835513,10.1590825 13.045875,9.99675881 13.045875,9.79652238 C13.045875,9.59628596 12.8835513,9.43396226 12.6833148,9.43396226 C12.4830784,9.43396226 12.3207547,9.59628596 12.3207547,9.79652238 C12.3207547,9.99675881 12.4830784,10.1590825 12.6833148,10.1590825 Z" id="Oval-13-Copy-2"></path>
        </g>
    </g>
</svg>