<?xml version="1.0" encoding="UTF-8" standalone="no"?>
<svg width="20px" height="20px" viewBox="0 0 20 20" version="1.1" xmlns="http://www.w3.org/2000/svg" xmlns:xlink="http://www.w3.org/1999/xlink">
    <!-- Generator: Sketch 44.1 (41455) - http://www.bohemiancoding.com/sketch -->
    <title>rent-grey</title>
    <desc>Created with Sketch.</desc>
    <defs></defs>
    <g id="Symbols" stroke="none" stroke-width="1" fill="none" fill-rule="evenodd">
        <g id="rent-grey" fill-rule="nonzero" fill="#727272">
            <path d="M10.1380418,19.1917376 C9.88474422,19.6976332 9.18772635,19.7604851 8.8483871,19.3077995 L8.06451613,18.2626382 C8.02263802,18.2068007 8,18.1388867 8,18.0690898 L8,10.8110253 C8,10.6328689 8.14442427,10.4884447 8.32258065,10.4884447 L11.5483871,10.4884447 C11.7265435,10.4884447 11.8709677,10.6328689 11.8709677,10.8110253 L11.8709677,18.8509447 C11.8709677,19.1979179 11.4037905,19.3072573 11.2489897,18.9976557 L10.741972,17.9838773 L10.1380418,19.1917376 Z M8.64516129,17.9615629 L9.36456399,18.9207666 C9.41625265,18.9897203 9.52247408,18.980142 9.56107187,18.9030532 L10.4534106,17.1183758 C10.5722826,16.8806316 10.9115496,16.8806144 11.0304458,17.1183465 L11.2258065,17.5089689 L11.2258065,11.133606 L8.64516129,11.133606 L8.64516129,17.9615629 Z" id="Path"></path>
            <path d="M14.9447783,19.4907878 C14.8653466,19.5702195 14.8507057,19.6398093 14.8525125,19.716471 C14.8529112,19.7333857 14.8543372,19.7438916 14.8560419,19.7523479 C14.8556093,19.7502018 14.8537373,19.7432342 14.8505916,19.7327217 C14.8468755,19.6456178 14.8782711,19.557295 14.9447783,19.4907878 Z M4.99104797,19.8321524 C4.9284931,19.9989654 4.74255369,20.0834833 4.57574068,20.0209284 C4.40892767,19.9583735 4.32440976,19.7724341 4.38696463,19.6056211 L5.59664205,16.3798147 C5.70129856,16.1007306 6.09606188,16.1007271 6.20072337,16.3798093 L7.12941615,18.8561891 C7.16143428,18.9417126 7.275831,18.9580936 7.33092894,18.8846297 L8.0599612,17.9124523 C8.18898739,17.7403936 8.44706547,17.740385 8.57610308,17.9124351 L9.36002191,18.9576603 C9.41171057,19.026614 9.517932,19.0170357 9.55652979,18.9399469 L10.4488685,17.1552695 C10.5677411,16.9175242 10.9070103,16.9175085 11.025905,17.1552428 L11.8977697,18.8985692 C11.9374712,18.9780786 12.0486644,18.9850091 12.0980223,18.9109189 L12.4851191,18.3302738 C12.6127898,18.1387678 12.8941882,18.1387424 13.0218935,18.3302254 L13.3658774,18.8459996 C13.4177532,18.9238133 13.5354931,18.9115674 13.5701429,18.8248898 L14.066917,17.5829543 C14.1732943,17.3170111 14.547681,17.3112904 14.662134,17.5738592 C14.668577,17.5886403 14.668577,17.5886403 14.6971529,17.6544957 C14.7249066,17.7185391 14.7558219,17.790134 14.7891111,17.8675477 C14.8842451,18.0887807 14.9793899,18.312427 15.0682707,18.5246954 C15.0813186,18.5558742 15.0813186,18.5558742 15.0943546,18.587098 C15.2105058,18.8654714 15.3052409,19.0992475 15.3723326,19.2749639 C15.4116261,19.3778753 15.4412715,19.4604149 15.4610029,19.5228529 C15.4733817,19.562024 15.4824485,19.5949314 15.4884815,19.6248601 C15.4935956,19.6502297 15.4968582,19.6742654 15.4974947,19.7012694 C15.4995431,19.7881822 15.4834932,19.8644687 15.4009762,19.9469857 C15.2750007,20.0729613 15.0707539,20.0729613 14.9447783,19.9469857 C14.8853099,19.8875174 14.8539144,19.8106068 14.8505916,19.7327217 C14.849236,19.7281915 14.8476439,19.7230031 14.8458286,19.7172586 C14.8306558,19.6692461 14.8047864,19.5972197 14.7696111,19.5050939 C14.7053417,19.3367693 14.6127779,19.1083515 14.4989444,18.8355326 C14.486068,18.8046913 14.486068,18.8046913 14.4731718,18.7738747 C14.4417878,18.6989223 14.4095935,18.6224867 14.3768775,18.5452032 L14.1691855,19.0644331 C13.9416836,19.6335379 13.1690864,19.7138941 12.829103,19.2039191 L12.7535749,19.0906712 L12.6348884,19.2687009 C12.3108136,19.7551631 11.5816815,19.7097172 11.320656,19.1869662 L10.7374268,18.0207774 L10.1334998,19.2286313 C9.88020213,19.7345269 9.18318427,19.7973788 8.84384501,19.3446932 L8.3180564,18.6436417 L7.84707082,19.2717093 C7.48618779,19.7528867 6.73601214,19.6454654 6.52527311,19.082561 L5.89869192,17.4117685 L4.99104797,19.8321524 Z" id="Path"></path>
            <path d="M8.32258065,2.25806452 C8.14442427,2.25806452 8,2.11364024 8,1.93548387 L8,0.322580645 C8,0.144424274 8.14442427,0 8.32258065,0 L11.5483871,0 C11.7265435,0 11.8709677,0.144424274 11.8709677,0.322580645 L11.8709677,1.93548387 C11.8709677,2.11364024 11.7265435,2.25806452 11.5483871,2.25806452 L8.32258065,2.25806452 Z M11.2258065,1.61290323 L11.2258065,0.64516129 L8.64516129,0.64516129 L8.64516129,1.61290323 L11.2258065,1.61290323 Z" id="Path"></path>
            <path d="M0.870967742,2.49040263 L0.870967742,10.2515329 C0.870967742,10.3834183 0.976379316,10.4884793 1.10843082,10.4884793 L19,10.4884793 C19.1304162,10.4884793 19.2374631,10.3817188 19.2374631,10.2515329 L19.2374631,2.49040263 C19.2374631,2.3585172 19.1320515,2.25345622 19,2.25345622 L1.10843082,2.25345622 C0.97801465,2.25345622 0.870967742,2.36021665 0.870967742,2.49040263 Z M0.235023041,2.49040263 C0.235023041,2.00861204 0.627173017,1.61751152 1.10843082,1.61751152 L19,1.61751152 C19.4828007,1.61751152 19.8734078,2.00681949 19.8734078,2.49040263 L19.8734078,10.2515329 C19.8734078,10.7333234 19.4812578,11.124424 19,11.124424 L1.10843082,11.124424 C0.625630159,11.124424 0.235023041,10.735116 0.235023041,10.2515329 L0.235023041,2.49040263 Z" id="Rectangle-1578"></path>
        </g>
    </g>
</svg>