<?xml version="1.0" encoding="UTF-8" standalone="no"?>
<svg width="20px" height="20px" viewBox="0 0 20 20" version="1.1" xmlns="http://www.w3.org/2000/svg" xmlns:xlink="http://www.w3.org/1999/xlink">
    <!-- Generator: Sketch 44.1 (41455) - http://www.bohemiancoding.com/sketch -->
    <title>save-white</title>
    <desc>Created with Sketch.</desc>
    <defs></defs>
    <g id="Symbols" stroke="none" stroke-width="1" fill="none" fill-rule="evenodd">
        <g id="save-white" fill-rule="nonzero" fill="#FFFFFF">
            <path d="M19.1489362,19.1666667 L0.85106383,19.1666667 L0.85106383,8.97717625 L4.61789198,6.60023793 C4.81543861,6.47558235 4.8723784,6.21772218 4.74507058,6.02429111 C4.61776276,5.83086004 4.35441619,5.77510649 4.15686957,5.89976207 L0.195020709,8.39976207 C0.0734543539,8.47647269 0,8.60838945 0,8.75 L0,19.5833333 C0,19.813452 0.190517128,20 0.425531915,20 L19.5744681,20 C19.8094829,20 20,19.813452 20,19.5833333 L20,8.75 C20,8.60838945 19.9265456,8.47647269 19.8049793,8.39976207 L15.8431304,5.89976207 C15.6455838,5.77510649 15.3822372,5.83086004 15.2549294,6.02429111 C15.1276216,6.21772218 15.1845614,6.47558235 15.382108,6.60023793 L19.1489362,8.97717625 L19.1489362,19.1666667 Z" id="Rectangle-260"></path>
            <path d="M0.204690156,12.8561615 L6.16213696,16.3978281 C6.36302467,16.5172547 6.62475056,16.4546101 6.74671809,16.2579076 C6.86868563,16.061205 6.80470819,15.8049317 6.60382048,15.6855052 L0.646373674,12.1438385 C0.445485968,12.024412 0.183760082,12.0870566 0.0617925467,12.2837591 C-0.060174989,12.4804617 0.00380244968,12.7367349 0.204690156,12.8561615 Z" id="Triangle-12"></path>
            <path d="M19.3536263,12.1438385 L13.3961795,15.6855052 C13.1952918,15.8049317 13.1313144,16.061205 13.2532819,16.2579076 C13.3752494,16.4546101 13.6369753,16.5172547 13.837863,16.3978281 L19.7953098,12.8561615 C19.9961976,12.7367349 20.060175,12.4804617 19.9382075,12.2837591 C19.8162399,12.0870566 19.554514,12.024412 19.3536263,12.1438385 Z" id="Triangle-12-Copy"></path>
            <path d="M18.9451693,19.5324565 C19.1514877,19.6426493 19.4099714,19.5682085 19.5225088,19.3661884 C19.6350461,19.1641682 19.5590215,18.9110696 19.352703,18.8008768 L9.99100091,13.8008768 C9.86136005,13.7316368 9.70432655,13.7331591 9.57611109,13.8048987 L0.639940877,18.8048987 C0.4358909,18.9190695 0.364998676,19.1735923 0.481598663,19.3733912 C0.59819865,19.5731902 0.858136805,19.6426055 1.06218678,19.5284346 L9.79205882,14.6438634 L18.9451693,19.5324565 Z" id="Triangle-11"></path>
            <path d="M14.893617,5.41666667 L14.893617,14.7916667 C14.893617,15.0217853 15.0841341,15.2083333 15.3191489,15.2083333 C15.5541637,15.2083333 15.7446809,15.0217853 15.7446809,14.7916667 L15.7446809,5 C15.7446809,4.76988135 15.5541637,4.58333333 15.3191489,4.58333333 L4.68085106,4.58333333 C4.44583628,4.58333333 4.25531915,4.76988135 4.25531915,5 L4.25531915,14.7916667 C4.25531915,15.0217853 4.44583628,15.2083333 4.68085106,15.2083333 C4.91586585,15.2083333 5.10638298,15.0217853 5.10638298,14.7916667 L5.10638298,5.41666667 L14.893617,5.41666667 Z" id="Rectangle-260"></path>
            <path d="M13.3914898,5.35333263 C13.590782,5.47529526 13.853314,5.41597311 13.9778716,5.22083289 C14.1024292,5.02569267 14.0418449,4.76863001 13.8425527,4.64666737 L10.4382974,2.56333404 C10.3003101,2.47888865 10.1252218,2.47888865 9.98723449,2.56333404 L6.58297917,4.64666737 C6.38368703,4.76863001 6.32310271,5.02569267 6.4476603,5.22083289 C6.57221788,5.41597311 6.83474996,5.47529526 7.0340421,5.35333263 L10.212766,3.40801985 L13.3914898,5.35333263 Z" id="Triangle-10"></path>
            <path d="M7.23404255,8.75 L9.4893617,8.75 L9.4893617,7.08333333 L7.23404255,7.08333333 L7.23404255,8.75 Z M6.80851064,6.25 L9.91489362,6.25 C10.1499084,6.25 10.3404255,6.43654802 10.3404255,6.66666667 L10.3404255,9.16666667 C10.3404255,9.39678531 10.1499084,9.58333333 9.91489362,9.58333333 L6.80851064,9.58333333 C6.57349585,9.58333333 6.38297872,9.39678531 6.38297872,9.16666667 L6.38297872,6.66666667 C6.38297872,6.43654802 6.57349585,6.25 6.80851064,6.25 Z" id="Rectangle-261"></path>
            <polygon id="Line" points="6.38297872 11.25 13.1914894 11.25 13.1914894 10.4166667 6.38297872 10.4166667"></polygon>
            <polygon id="Line-Copy-20" points="6.38297872 12.9166667 13.1914894 12.9166667 13.1914894 12.0833333 6.38297872 12.0833333"></polygon>
            <path d="M18.1732369,4.87796116 L19.6777194,3.40482203 C19.8439,3.24210358 19.8439,2.97828484 19.6777194,2.81556638 C19.5115389,2.65284793 19.242107,2.65284793 19.0759264,2.81556638 L17.5714439,4.28870551 C17.4052634,4.45142396 17.4052634,4.7152427 17.5714439,4.87796116 C17.7376245,5.04067961 18.0070564,5.04067961 18.1732369,4.87796116 Z" id="Line"></path>
            <path d="M2.42855608,4.28870551 L0.924073564,2.81556638 C0.757893015,2.65284793 0.488461109,2.65284793 0.322280559,2.81556638 C0.156100009,2.97828484 0.156100009,3.24210358 0.322280559,3.40482203 L1.82676307,4.87796116 C1.99294362,5.04067961 2.26237553,5.04067961 2.42855608,4.87796116 C2.59473663,4.7152427 2.59473663,4.45142396 2.42855608,4.28870551 Z" id="Line-Copy-21"></path>
            <path d="M14.8631816,2.65474612 L15.7142454,0.571412782 C15.8015277,0.357752983 15.6953933,0.115265298 15.4771875,0.0298013788 C15.2589818,-0.0556625407 15.0113348,0.0482607528 14.9240525,0.261920552 L14.0729886,2.34525388 C13.9857063,2.55891368 14.0918408,2.80140137 14.3100465,2.88686529 C14.5282523,2.97232921 14.7758993,2.86840591 14.8631816,2.65474612 Z" id="Line"></path>
            <path d="M6.35254327,2.34525388 L5.50147944,0.261920552 C5.41419714,0.0482607528 5.16655014,-0.0556625407 4.94834439,0.0298013788 C4.73013864,0.115265298 4.62400421,0.357752983 4.71128651,0.571412782 L5.56235034,2.65474612 C5.64963265,2.86840591 5.89727964,2.97232921 6.11548539,2.88686529 C6.33369115,2.80140137 6.43982557,2.55891368 6.35254327,2.34525388 Z" id="Line-Copy-22"></path>
        </g>
    </g>
</svg>