<?xml version="1.0" encoding="utf-8"?>
<!-- Generator: Adobe Illustrator 15.0.0, SVG Export Plug-In . SVG Version: 6.00 Build 0)  -->
<!DOCTYPE svg PUBLIC "-//W3C//DTD SVG 1.1//EN" "http://www.w3.org/Graphics/SVG/1.1/DTD/svg11.dtd">
<svg version="1.1" id="Layer_1" xmlns="http://www.w3.org/2000/svg" xmlns:xlink="http://www.w3.org/1999/xlink" x="0px" y="0px"
	 width="14px" height="14px" viewBox="0 0 14 14" enable-background="new 0 0 14 14" xml:space="preserve">
<g>
	<defs>
		<path id="SVGID_1_" d="M7.957,8.733h2.188V9.8H7.957V8.733z M3.854,8.733h1.915V12.2H3.854V8.733z M7.547,7.934
			c-0.227,0-0.41,0.179-0.41,0.399V10.2c0,0.221,0.184,0.399,0.41,0.399h3.009c0.227,0,0.411-0.179,0.411-0.399V8.333
			c0-0.221-0.185-0.399-0.411-0.399H7.547z M3.307,6.32c0.302,0.335,0.742,0.547,1.231,0.547c0.489,0,0.929-0.212,1.231-0.547
			C6.07,6.655,6.51,6.867,7,6.867c0.489,0,0.93-0.212,1.23-0.547c0.302,0.335,0.742,0.547,1.231,0.547s0.93-0.212,1.23-0.547
			c0.273,0.303,0.66,0.502,1.095,0.538V12.2H6.589V8.333c0-0.221-0.184-0.399-0.41-0.399H3.444c-0.227,0-0.411,0.179-0.411,0.399
			V12.2h-0.82V6.858C2.647,6.822,3.034,6.623,3.307,6.32z M11.104,5h1.641v0.267c0,0.45-0.358,0.8-0.82,0.8s-0.82-0.35-0.82-0.8V5z
			 M8.642,5h1.641v0.267c0,0.45-0.358,0.8-0.82,0.8s-0.82-0.35-0.82-0.8V5z M6.179,5H7.82v0.267c0,0.45-0.358,0.8-0.82,0.8
			s-0.821-0.35-0.821-0.8V5z M3.717,5h1.641v0.267c0,0.45-0.359,0.8-0.82,0.8c-0.462,0-0.821-0.35-0.821-0.8V5z M1.255,5h1.641
			v0.267c0,0.45-0.359,0.8-0.821,0.8c-0.461,0-0.82-0.35-0.82-0.8V5z M2.867,1.8h8.266l1.334,2.4H1.533L2.867,1.8z M2.623,1
			C2.472,1.001,2.334,1.083,2.264,1.212l-1.778,3.2C0.453,4.47,0.436,4.534,0.435,4.6v0.667c0,0.642,0.394,1.2,0.958,1.454V12.6
			c0,0.222,0.184,0.4,0.41,0.4h1.611h2.809h5.975c0.227,0,0.41-0.179,0.41-0.4V6.721c0.563-0.254,0.958-0.812,0.958-1.454V4.6
			c-0.001-0.066-0.019-0.13-0.052-0.188l-1.778-3.2C11.665,1.083,11.527,1.001,11.377,1H2.623z"/>
	</defs>
	<clipPath id="SVGID_2_">
		<use xlink:href="#SVGID_1_"  overflow="visible"/>
	</clipPath>
	<g clip-path="url(#SVGID_2_)">
		<defs>
			<rect id="SVGID_3_" x="0.435" y="1" width="13.588" height="12"/>
		</defs>
		<clipPath id="SVGID_4_">
			<use xlink:href="#SVGID_3_"  overflow="visible"/>
		</clipPath>
		<rect x="-4.565" y="-4" clip-path="url(#SVGID_4_)" fill="#727272" width="23.131" height="22"/>
	</g>
</g>
</svg>
