<svg xmlns="http://www.w3.org/2000/svg" width="48" height="45" viewBox="0 0 48 45">
    <path fill="#FFF" fill-rule="nonzero" d="M7.936 0a1.487 1.487 0 0 0-1.302.797l-6.448 12A1.51 1.51 0 0 0 0 13.5V16a6.03 6.03 0 0 0 3.472 5.453V43.5c0 .828.666 1.5 1.488 1.5h37.697c.821 0 1.487-.672 1.487-1.5V21.453A6.03 6.03 0 0 0 47.616 16v-2.5a1.51 1.51 0 0 0-.186-.703l-6.448-12A1.487 1.487 0 0 0 39.68 0H7.936zm.884 3h29.977l4.836 9H3.983L8.82 3zM2.976 15h5.952v1c0 1.688-1.302 3-2.976 3s-2.976-1.312-2.976-3v-1zm8.928 0h5.952v1c0 1.688-1.301 3-2.976 3-1.674 0-2.976-1.312-2.976-3v-1zm8.928 0h5.952v1c0 1.688-1.301 3-2.976 3-1.674 0-2.976-1.312-2.976-3v-1zm8.928 0h5.952v1c0 1.688-1.301 3-2.976 3-1.674 0-2.976-1.312-2.976-3v-1zm8.928 0h5.952v1c0 1.688-1.301 3-2.976 3-1.674 0-2.976-1.312-2.976-3v-1zm-28.272 4.953A5.912 5.912 0 0 0 14.88 22c1.775 0 3.37-.793 4.464-2.047A5.912 5.912 0 0 0 23.808 22c1.775 0 3.37-.793 4.464-2.047A5.912 5.912 0 0 0 32.736 22c1.775 0 3.37-.793 4.464-2.047a5.918 5.918 0 0 0 3.968 2.016V42H22.32V27.5c0-.828-.666-1.5-1.488-1.5h-9.92c-.822 0-1.488.672-1.488 1.5V42H6.448V21.969a5.918 5.918 0 0 0 3.968-2.016zM25.792 26c-.822 0-1.488.672-1.488 1.5v7c0 .828.666 1.5 1.488 1.5h10.912c.822 0 1.488-.672 1.488-1.5v-7c0-.828-.666-1.5-1.488-1.5H25.792zM12.4 29h6.944v13H12.4V29zm14.88 0h7.936v4H27.28v-4z"/>
</svg>
