<?xml version="1.0" encoding="UTF-8" standalone="no"?>
<svg width="20px" height="20px" viewBox="0 0 20 20" version="1.1" xmlns="http://www.w3.org/2000/svg" xmlns:xlink="http://www.w3.org/1999/xlink">
    <!-- Generator: Sketch 44.1 (41455) - http://www.bohemiancoding.com/sketch -->
    <title>shop-white</title>
    <desc>Created with Sketch.</desc>
    <defs></defs>
    <g id="Symbols" stroke="none" stroke-width="1" fill="none" fill-rule="evenodd">
        <g id="shop-white" fill-rule="nonzero" fill="#FFFFFF">
            <path d="M0.769230769,13.4640138 C0.769230769,14.3097439 1.45940954,15 2.30769231,15 C3.15598157,15 3.84615385,14.3111028 3.84615385,13.4640138 L3.84615385,10 L0.769230769,10 L0.769230769,13.4640138 Z M0,9.23076923 L4.61538462,9.23076923 L4.61538462,13.4640138 C4.61538462,14.73715 3.57960222,15.7692308 2.30769231,15.7692308 C1.03318904,15.7692308 0,14.7331921 0,13.4640138 L0,9.23076923 Z" id="Rectangle-268"></path>
            <path d="M4.61538462,13.4640138 C4.61538462,14.3097439 5.30556339,15 6.15384615,15 C7.00213541,15 7.69230769,14.3111028 7.69230769,13.4640138 L7.69230769,10 L4.61538462,10 L4.61538462,13.4640138 Z M3.84615385,9.23076923 L8.46153846,9.23076923 L8.46153846,13.4640138 C8.46153846,14.73715 7.42575606,15.7692308 6.15384615,15.7692308 C4.87934289,15.7692308 3.84615385,14.7331921 3.84615385,13.4640138 L3.84615385,9.23076923 Z" id="Rectangle-269"></path>
            <path d="M8.46153846,13.4640138 C8.46153846,14.3097439 9.15171723,15 10,15 C10.8482893,15 11.5384615,14.3111028 11.5384615,13.4640138 L11.5384615,10 L8.46153846,10 L8.46153846,13.4640138 Z M7.69230769,9.23076923 L12.3076923,9.23076923 L12.3076923,13.4640138 C12.3076923,14.73715 11.2719099,15.7692308 10,15.7692308 C8.72549673,15.7692308 7.69230769,14.7331921 7.69230769,13.4640138 L7.69230769,9.23076923 Z" id="Rectangle-270"></path>
            <path d="M12.3076923,13.4640138 C12.3076923,14.3097439 12.9978711,15 13.8461538,15 C14.6944431,15 15.3846154,14.3111028 15.3846154,13.4640138 L15.3846154,10 L12.3076923,10 L12.3076923,13.4640138 Z M11.5384615,9.23076923 L16.1538462,9.23076923 L16.1538462,13.4640138 C16.1538462,14.73715 15.1180638,15.7692308 13.8461538,15.7692308 C12.5716506,15.7692308 11.5384615,14.7331921 11.5384615,13.4640138 L11.5384615,9.23076923 Z" id="Rectangle-271"></path>
            <path d="M16.1538462,13.4640138 C16.1538462,14.3097439 16.8440249,15 17.6923077,15 C18.540597,15 19.2307692,14.3111028 19.2307692,13.4640138 L19.2307692,10 L16.1538462,10 L16.1538462,13.4640138 Z M15.3846154,9.23076923 L20,9.23076923 L20,13.4640138 C20,14.73715 18.9642176,15.7692308 17.6923077,15.7692308 C16.4178044,15.7692308 15.3846154,14.7331921 15.3846154,13.4640138 L15.3846154,9.23076923 Z" id="Rectangle-272"></path>
            <path d="M18.2455566,6.15384615 L1.75444339,6.15384615 L0.98521262,9.23076923 L19.0147874,9.23076923 L18.2455566,6.15384615 Z M1.15384615,5.38461538 L18.8461538,5.38461538 L20,10 L0,10 L1.15384615,5.38461538 Z" id="Rectangle-273"></path>
            <polygon id="Line" points="10.3846154 7.69230769 10.3846154 3.84615385 9.61538462 3.84615385 9.61538462 7.69230769"></polygon>
            <path d="M5,3.84615385 L15,3.84615385 L15,0.769230769 L5,0.769230769 L5,3.84615385 Z M4.23076923,0 L15.7692308,0 L15.7692308,4.61538462 L4.23076923,4.61538462 L4.23076923,0 Z" id="Rectangle-282"></path>
            <path d="M2.30769231,19.2307692 L2.30769231,15.7692308 C2.30769231,15.5568136 2.13549413,15.3846154 1.92307692,15.3846154 C1.71065971,15.3846154 1.53846154,15.5568136 1.53846154,15.7692308 L1.53846154,19.6153846 C1.53846154,19.8278018 1.71065971,20 1.92307692,20 L18.0769231,20 C18.2893403,20 18.4615385,19.8278018 18.4615385,19.6153846 L18.4615385,15.7692308 C18.4615385,15.5568136 18.2893403,15.3846154 18.0769231,15.3846154 C17.8645059,15.3846154 17.6923077,15.5568136 17.6923077,15.7692308 L17.6923077,19.2307692 L2.30769231,19.2307692 Z" id="Rectangle-274"></path>
            <path d="M8.76923077,19.1367521 L10.6923077,19.1367521 L10.6923077,17.2136752 L8.76923077,17.2136752 L8.76923077,19.1367521 Z M8,16.4444444 L11.4615385,16.4444444 L11.4615385,19.9059829 L8,19.9059829 L8,16.4444444 Z" id="Rectangle-283"></path>
        </g>
    </g>
</svg>