<?xml version="1.0" encoding="UTF-8" standalone="no"?>
<svg width="20px" height="20px" viewBox="0 0 20 20" version="1.1" xmlns="http://www.w3.org/2000/svg" xmlns:xlink="http://www.w3.org/1999/xlink">
    <!-- Generator: Sketch 44.1 (41455) - http://www.bohemiancoding.com/sketch -->
    <title>social-white</title>
    <desc>Created with Sketch.</desc>
    <defs></defs>
    <g id="Symbols" stroke="none" stroke-width="1" fill="none" fill-rule="evenodd">
        <g id="social-white" fill-rule="nonzero" fill="#FFFFFF">
            <path d="M0.888888889,19.1111111 L19.1111111,19.1111111 L19.1111111,7.11111111 L0.888888889,7.11111111 L0.888888889,19.1111111 Z M0.444444444,6.22222222 L19.5555556,6.22222222 C19.8010154,6.22222222 20,6.42120678 20,6.66666667 L20,19.5555556 C20,19.8010154 19.8010154,20 19.5555556,20 L0.444444444,20 C0.198984556,20 0,19.8010154 0,19.5555556 L0,6.66666667 C0,6.42120678 0.198984556,6.22222222 0.444444444,6.22222222 Z" id="Rectangle-388"></path>
            <path d="M3.55555556,13.3333333 L3.55555556,19.1111111 L4.44444444,19.1111111 L4.44444444,13.3333333 L3.55555556,13.3333333 Z M3.11111111,12.4444444 L4.88888889,12.4444444 C5.13434878,12.4444444 5.33333333,12.643429 5.33333333,12.8888889 L5.33333333,19.5555556 C5.33333333,19.8010154 5.13434878,20 4.88888889,20 L3.11111111,20 C2.86565122,20 2.66666667,19.8010154 2.66666667,19.5555556 L2.66666667,12.8888889 C2.66666667,12.643429 2.86565122,12.4444444 3.11111111,12.4444444 Z" id="Rectangle-391"></path>
            <path d="M7.55555556,13.3333333 L7.55555556,19.1111111 L8.44444444,19.1111111 L8.44444444,13.3333333 L7.55555556,13.3333333 Z M7.11111111,12.4444444 L8.88888889,12.4444444 C9.13434878,12.4444444 9.33333333,12.643429 9.33333333,12.8888889 L9.33333333,19.5555556 C9.33333333,19.8010154 9.13434878,20 8.88888889,20 L7.11111111,20 C6.86565122,20 6.66666667,19.8010154 6.66666667,19.5555556 L6.66666667,12.8888889 C6.66666667,12.643429 6.86565122,12.4444444 7.11111111,12.4444444 Z" id="Rectangle-391-Copy"></path>
            <path d="M11.5555556,13.3333333 L11.5555556,19.1111111 L12.4444444,19.1111111 L12.4444444,13.3333333 L11.5555556,13.3333333 Z M11.1111111,12.4444444 L12.8888889,12.4444444 C13.1343488,12.4444444 13.3333333,12.643429 13.3333333,12.8888889 L13.3333333,19.5555556 C13.3333333,19.8010154 13.1343488,20 12.8888889,20 L11.1111111,20 C10.8656512,20 10.6666667,19.8010154 10.6666667,19.5555556 L10.6666667,12.8888889 C10.6666667,12.643429 10.8656512,12.4444444 11.1111111,12.4444444 Z" id="Rectangle-391-Copy-2"></path>
            <path d="M15.5555556,13.3333333 L15.5555556,19.1111111 L16.4444444,19.1111111 L16.4444444,13.3333333 L15.5555556,13.3333333 Z M15.1111111,12.4444444 L16.8888889,12.4444444 C17.1343488,12.4444444 17.3333333,12.643429 17.3333333,12.8888889 L17.3333333,19.5555556 C17.3333333,19.8010154 17.1343488,20 16.8888889,20 L15.1111111,20 C14.8656512,20 14.6666667,19.8010154 14.6666667,19.5555556 L14.6666667,12.8888889 C14.6666667,12.643429 14.8656512,12.4444444 15.1111111,12.4444444 Z" id="Rectangle-391-Copy-3"></path>
            <path d="M3.55555556,9.33333333 L3.55555556,10.2222222 L4.44444444,10.2222222 L4.44444444,9.33333333 L3.55555556,9.33333333 Z M3.11111111,8.44444444 L4.88888889,8.44444444 C5.13434878,8.44444444 5.33333333,8.643429 5.33333333,8.88888889 L5.33333333,10.6666667 C5.33333333,10.9121266 5.13434878,11.1111111 4.88888889,11.1111111 L3.11111111,11.1111111 C2.86565122,11.1111111 2.66666667,10.9121266 2.66666667,10.6666667 L2.66666667,8.88888889 C2.66666667,8.643429 2.86565122,8.44444444 3.11111111,8.44444444 Z" id="Rectangle-395"></path>
            <path d="M7.55555556,9.33333333 L7.55555556,10.2222222 L8.44444444,10.2222222 L8.44444444,9.33333333 L7.55555556,9.33333333 Z M7.11111111,8.44444444 L8.88888889,8.44444444 C9.13434878,8.44444444 9.33333333,8.643429 9.33333333,8.88888889 L9.33333333,10.6666667 C9.33333333,10.9121266 9.13434878,11.1111111 8.88888889,11.1111111 L7.11111111,11.1111111 C6.86565122,11.1111111 6.66666667,10.9121266 6.66666667,10.6666667 L6.66666667,8.88888889 C6.66666667,8.643429 6.86565122,8.44444444 7.11111111,8.44444444 Z" id="Rectangle-395-Copy"></path>
            <path d="M11.5555556,9.33333333 L11.5555556,10.2222222 L12.4444444,10.2222222 L12.4444444,9.33333333 L11.5555556,9.33333333 Z M11.1111111,8.44444444 L12.8888889,8.44444444 C13.1343488,8.44444444 13.3333333,8.643429 13.3333333,8.88888889 L13.3333333,10.6666667 C13.3333333,10.9121266 13.1343488,11.1111111 12.8888889,11.1111111 L11.1111111,11.1111111 C10.8656512,11.1111111 10.6666667,10.9121266 10.6666667,10.6666667 L10.6666667,8.88888889 C10.6666667,8.643429 10.8656512,8.44444444 11.1111111,8.44444444 Z" id="Rectangle-395-Copy-2"></path>
            <path d="M15.5555556,9.33333333 L15.5555556,10.2222222 L16.4444444,10.2222222 L16.4444444,9.33333333 L15.5555556,9.33333333 Z M15.1111111,8.44444444 L16.8888889,8.44444444 C17.1343488,8.44444444 17.3333333,8.643429 17.3333333,8.88888889 L17.3333333,10.6666667 C17.3333333,10.9121266 17.1343488,11.1111111 16.8888889,11.1111111 L15.1111111,11.1111111 C14.8656512,11.1111111 14.6666667,10.9121266 14.6666667,10.6666667 L14.6666667,8.88888889 C14.6666667,8.643429 14.8656512,8.44444444 15.1111111,8.44444444 Z" id="Rectangle-395-Copy-3"></path>
            <path d="M3.11111111,6.22222222 L16.8888889,6.22222222 L16.8888889,4.88888889 L3.11111111,4.88888889 L3.11111111,6.22222222 Z M2.66666667,4 L17.3333333,4 C17.5787932,4 17.7777778,4.19898456 17.7777778,4.44444444 L17.7777778,6.66666667 C17.7777778,6.91212656 17.5787932,7.11111111 17.3333333,7.11111111 L2.66666667,7.11111111 C2.42120678,7.11111111 2.22222222,6.91212656 2.22222222,6.66666667 L2.22222222,4.44444444 C2.22222222,4.19898456 2.42120678,4 2.66666667,4 Z" id="Rectangle-399"></path>
            <polygon id="Line" points="10.2222222 4.88888889 10.2222222 0 9.33333333 0 9.33333333 4.88888889"></polygon>
            <path d="M10.2222222,2.22222222 L12.4444444,2.22222222 L12.4444444,0.888888889 L10.2222222,0.888888889 L10.2222222,2.22222222 Z M9.77777778,0 L12.8888889,0 C13.1343488,0 13.3333333,0.198984556 13.3333333,0.444444444 L13.3333333,2.66666667 C13.3333333,2.91212656 13.1343488,3.11111111 12.8888889,3.11111111 L9.77777778,3.11111111 C9.53231789,3.11111111 9.33333333,2.91212656 9.33333333,2.66666667 L9.33333333,0.444444444 C9.33333333,0.198984556 9.53231789,0 9.77777778,0 Z" id="Rectangle-400"></path>
        </g>
    </g>
</svg>