<?xml version="1.0" encoding="UTF-8" standalone="no"?>
<svg width="20px" height="20px" viewBox="0 0 20 20" version="1.1" xmlns="http://www.w3.org/2000/svg" xmlns:xlink="http://www.w3.org/1999/xlink">
    <!-- Generator: Sketch 44.1 (41455) - http://www.bohemiancoding.com/sketch -->
    <title>transaction-white</title>
    <desc>Created with Sketch.</desc>
    <defs></defs>
    <g id="Symbols" stroke="none" stroke-width="1" fill="none" fill-rule="evenodd">
        <g id="transaction-white" fill-rule="nonzero" fill="#FFFFFF">
            <path d="M3.45444923,3.13117029 C5.20230425,1.4572118 7.51543309,0.506329114 9.97318415,0.506329114 C15.1849711,0.506329114 19.4260912,4.76515981 19.4260912,10 C19.4260912,10.1398189 19.5394369,10.2531646 19.6792558,10.2531646 C19.8190747,10.2531646 19.9324204,10.1398189 19.9324204,10 C19.9324204,4.4859932 15.4650824,0 9.97318415,0 C7.38342859,0 4.94529745,1.00226872 3.10423402,2.76549492 C3.00325555,2.86220418 2.99979468,3.02246174 3.09650394,3.12344021 C3.19321319,3.22441868 3.35347076,3.22787955 3.45444923,3.13117029 Z" id="Stroke-40"></path>
            <path d="M3.53250618,0.253164557 C3.53250618,0.113345633 3.41916055,0 3.27934162,0 C3.1395227,0 3.02617707,0.113345633 3.02617707,0.253164557 L3.02617707,3.19511131 L5.95687863,3.19511131 C6.09669756,3.19511131 6.21004319,3.08176567 6.21004319,2.94194675 C6.21004319,2.80212782 6.09669756,2.68878219 5.95687863,2.68878219 L3.53250618,2.68878219 L3.53250618,0.253164557 Z" id="Stroke-42"></path>
            <path d="M15.8046231,10.2334933 L15.4728404,10.2013782 L15.8043809,10.1668527 C15.8055405,10.1779877 15.806643,10.1891295 15.8076883,10.2002777 C15.806716,10.2113551 15.8056942,10.222427 15.8046231,10.2334933 Z M11.3578552,14.6700911 C10.9751295,14.7314701 10.5784198,14.7637131 10.1722012,14.7637131 C9.98810631,14.7637131 9.83886789,14.6144747 9.83886789,14.4303797 C9.83886789,14.2462848 9.98810631,14.0970464 10.1722012,14.0970464 C10.6811558,14.0970464 11.1712982,14.0419147 11.6323615,13.9397707 C12.1432159,13.8265959 12.6183715,13.6557066 13.0438631,13.4381468 C13.2207286,13.347713 13.3890129,13.2492153 13.5477131,13.1434469 C14.5381765,12.4833356 15.1553236,11.5400204 15.1553236,10.5063291 C15.1553236,8.54894037 12.9424268,6.91561181 10.1722012,6.91561181 C9.22980681,6.91561181 8.32712472,7.10547142 7.5444932,7.45781945 C7.50404931,7.47602767 7.46037825,7.48598132 7.41603862,7.48709725 L5.79689458,7.52784734 L6.16454324,7.92305419 C6.28756743,8.05530004 6.28288059,8.2614703 6.15397392,8.38798902 C5.68397447,8.84928191 5.37380577,9.38189231 5.250107,9.94494321 C5.21651851,10.097831 5.08107185,10.2067511 4.92453794,10.2067511 L3.43530994,10.2067511 C3.61425821,11.8254731 5.08540279,13.2463844 7.22165123,13.8269921 C7.36681061,13.8664447 7.46755988,13.9982313 7.46755988,14.1486566 L7.46755988,15.6160338 L8.31988055,15.6160338 L8.31988055,14.4069467 C8.31988055,14.2131005 8.48465469,14.0601395 8.67796571,14.0745336 C8.87903823,14.0895057 9.0819287,14.0970464 9.28612528,14.0970464 C9.43444305,14.0970464 9.58208225,14.093068 9.72884902,14.0851514 C9.90074997,14.0930948 10.0361368,14.0970464 10.1722012,14.0970464 C10.6683077,14.0970464 11.154433,14.044507 11.6196711,13.9423091 C11.8355674,13.9030993 12.0245219,14.0592996 12.0245219,14.2678799 L12.0245219,15.6160338 L12.8768426,15.6160338 L12.8768426,13.7270277 C12.8768426,13.6074174 12.940878,13.4974136 13.0438631,13.4381468 C13.2303121,13.3417448 13.3938775,13.2457547 13.5477131,13.1434469 C14.5637262,12.4677509 15.1553236,11.5164781 15.1553236,10.5063291 C15.1553236,10.4157005 15.1506328,10.3255256 15.1412999,10.2359037 L15.1410577,10.1692631 C15.1505531,10.0711656 15.1553236,9.97251831 15.1553236,9.87341772 C15.1553236,9.6893228 15.304562,9.54008439 15.4886569,9.54008439 C15.5685697,9.54008439 15.6419145,9.5682053 15.6993355,9.61509133 C15.7741951,9.67621657 15.8219903,9.76923557 15.8219903,9.87341772 C15.8219903,9.98259322 15.8172285,10.0913732 15.807745,10.1996309 C15.8172084,10.3018039 15.8219903,10.4038678 15.8219903,10.5063291 C15.8219903,11.5452471 15.3299763,12.5128255 14.4816978,13.2648257 C14.2052417,13.5099044 13.8909459,13.732086 13.5435092,13.9263777 C13.4842152,13.9595358 13.4239559,13.9918817 13.3627547,14.0233904 L13.5435092,13.7270277 L13.5435092,15.9493671 C13.5435092,16.133462 13.3942708,16.2827004 13.2101759,16.2827004 L11.6911886,16.2827004 C11.5070937,16.2827004 11.3578552,16.133462 11.3578552,15.9493671 L11.3578552,14.6702297 L11.3578552,14.2678799 L11.7625053,14.5932893 C11.6291654,14.6227854 11.4941457,14.6483955 11.3578552,14.6702297 C10.9712793,14.7321605 10.5744786,14.7637131 10.1722012,14.7637131 C10.0294742,14.7637131 9.88737018,14.7597417 9.74608578,14.7518376 C9.59351558,14.7597427 9.44013425,14.7637131 9.28612528,14.7637131 C9.18597942,14.7637131 9.08610306,14.7620342 8.98654722,14.7586869 L8.98654722,15.9493671 C8.98654722,16.133462 8.8373088,16.2827004 8.65321389,16.2827004 L7.13422654,16.2827004 C6.95013163,16.2827004 6.80089321,16.133462 6.80089321,15.9493671 L6.80089321,14.3992626 C4.38757311,13.6597714 2.7502603,11.8966088 2.7502603,9.87341772 C2.7502603,9.6893228 2.89949872,9.54008439 3.08359363,9.54008439 L4.66772535,9.54008439 C4.82077731,9.04016656 5.09134291,8.569704 5.46327194,8.14799963 L4.80489475,7.44027182 C4.6092641,7.22997708 4.7534371,6.88723096 5.040566,6.8800046 L7.33303968,6.82230837 C8.18775004,6.44859317 9.16100965,6.24894515 10.1722012,6.24894515 C12.8746075,6.24894515 15.1561801,7.6759234 15.6993355,9.61509133 C15.7526118,9.80529783 15.7891627,10.0004321 15.807745,10.1996309 C15.8171875,10.3008519 15.8219903,10.4031224 15.8219903,10.5063291 C15.8219903,11.565128 15.3165102,12.5253929 14.4816978,13.2648256 C14.203394,13.5113324 13.888489,13.7332965 13.5435092,13.9261867 C13.4842007,13.9593482 13.4240032,13.9916504 13.3629499,14.0230703 C13.2063571,14.1036577 13.0441348,14.1784407 12.8768426,14.2470308 C12.6052959,14.3583654 12.3203914,14.4533832 12.0245219,14.5304229 C11.9380987,14.5529261 11.8507399,14.5738954 11.7625053,14.5932893 C11.6295429,14.6225144 11.4945915,14.6481622 11.3578552,14.6700911 Z" id="Rectangle-1580"></path>
            <path d="M13.2447257,6.96202532 C13.2447257,5.17001277 11.7920125,3.71729958 10,3.71729958 C8.20798746,3.71729958 6.75527426,5.17001277 6.75527426,6.96202532 C6.75527426,7.14612023 6.90451268,7.29535865 7.08860759,7.29535865 C7.27270251,7.29535865 7.42194093,7.14612023 7.42194093,6.96202532 C7.42194093,5.53820261 8.57617729,4.38396624 10,4.38396624 C11.4238227,4.38396624 12.5780591,5.53820261 12.5780591,6.96202532 C12.5780591,7.14612023 12.7272975,7.29535865 12.9113924,7.29535865 C13.0954873,7.29535865 13.2447257,7.14612023 13.2447257,6.96202532 Z" id="Oval-1438"></path>
            <path d="M15.553236,10.275566 C15.6146563,10.2625423 15.7145689,10.2366547 15.8407114,10.1960558 C16.0498664,10.1287393 16.2592915,10.0429388 16.4571908,9.93578341 C17.1712583,9.54914127 17.5735049,8.9775664 17.4125931,8.21954778 C17.2580783,7.49166324 16.6972186,7.09408734 16.0568436,7.11639898 C15.4175531,7.13867284 14.9008622,7.60215927 15.1859502,8.17233524 C15.2671244,8.33468378 15.3627102,8.46576677 15.4722008,8.56621076 C15.7244224,8.79759264 16.0116629,8.84239186 16.2654366,8.77103748 C16.3088398,8.75883365 16.3438326,8.74509343 16.3698657,8.73234371 C16.5351974,8.65137233 16.603585,8.45170422 16.5226136,8.28637251 C16.4416422,8.12104081 16.2419741,8.05265325 16.0766424,8.13362463 C16.085153,8.12945654 16.087363,8.12858877 16.0849851,8.12925737 C16.0374034,8.14263608 15.9883112,8.13497945 15.9228731,8.07494815 C15.8761657,8.0320999 15.8285158,7.96675456 15.782235,7.87419285 C15.7744653,7.85865351 15.850255,7.79066804 16.0800572,7.78266137 C16.4093701,7.77118761 16.6760183,7.96020619 16.760458,8.35798262 C16.8476508,8.76872829 16.6230743,9.08784186 16.1397604,9.34953911 C15.9813671,9.43530344 15.8090501,9.50590092 15.6364631,9.561448 C15.5335603,9.59456722 15.4553266,9.61483777 15.4149491,9.62339952 C15.2348583,9.6615864 15.1198224,9.83853542 15.1580093,10.0186262 C15.1961962,10.198717 15.3731452,10.3137529 15.553236,10.275566 Z" id="Path-3609"></path>
            <path d="M6.58227848,10.2067511 C6.25836464,10.2067511 5.99578059,9.94416701 5.99578059,9.62025316 C5.99578059,9.29633932 6.25836464,9.03375527 6.58227848,9.03375527 C6.90619232,9.03375527 7.16877637,9.29633932 7.16877637,9.62025316 C7.16877637,9.94416701 6.90619232,10.2067511 6.58227848,10.2067511 Z M6.58227848,9.54008439 C6.53800249,9.54008439 6.5021097,9.57597717 6.5021097,9.62025316 C6.5021097,9.66452916 6.53800249,9.70042194 6.58227848,9.70042194 C6.62655447,9.70042194 6.66244726,9.66452916 6.66244726,9.62025316 C6.66244726,9.57597717 6.62655447,9.54008439 6.58227848,9.54008439 Z" id="Oval-1437"></path>
            <path d="M9.99999993,19.9619408 C9.78758271,19.9619408 9.61538454,19.7897426 9.61538454,19.5773254 C9.61538454,19.3649082 9.78758271,19.1927101 9.99999993,19.1927101 C10.4970748,19.1927101 10.9890442,19.1534561 11.472845,19.0759044 C11.6825846,19.0422838 11.8798671,19.1850565 11.9134877,19.3947962 C11.9471083,19.6045358 11.8043356,19.8018183 11.5945959,19.8354389 C11.0705703,19.9194385 10.5378896,19.9619408 9.99999993,19.9619408 Z M13.5417458,19.3165153 C14.0418759,19.1270636 14.5253848,18.8977079 14.9880019,18.6309739 C15.1720222,18.5248721 15.2351877,18.2896817 15.129086,18.1056614 C15.0229842,17.921641 14.7877938,17.8584755 14.6037734,17.9645773 C14.1768397,18.2107371 13.7306894,18.4223715 13.2692527,18.597166 C13.0706099,18.6724129 12.9705777,18.8944444 13.0458246,19.0930872 C13.1210715,19.2917301 13.343103,19.3917622 13.5417458,19.3165153 Z M16.6230223,17.4544583 C17.0229682,17.100669 17.3942471,16.715455 17.7330345,16.3027467 C17.8678111,16.1385628 17.8439718,15.8962075 17.679788,15.7614309 C17.5156041,15.6266543 17.2732488,15.6504936 17.1384722,15.8146774 C16.8256046,16.1958104 16.4827154,16.5515692 16.1133574,16.8783005 C15.9542559,17.0190406 15.9393709,17.2621103 16.080111,17.4212118 C16.220851,17.5803134 16.4639207,17.5951983 16.6230223,17.4544583 Z M18.8359984,14.648454 C19.0865017,14.1770961 19.2989487,13.6860477 19.4709723,13.1795472 C19.5392836,12.9784138 19.43161,12.7599858 19.2304766,12.6916745 C19.0293432,12.6233632 18.8109152,12.7310368 18.7426039,12.9321702 C18.5839012,13.3994489 18.3878895,13.8525088 18.156735,14.2874593 C18.057049,14.4750327 18.1282959,14.7079025 18.3158693,14.8075884 C18.5034428,14.9072743 18.7363125,14.8360274 18.8359984,14.648454 Z M0.593338895,13.3629848 C0.775250864,13.8660279 0.997310571,14.3529557 1.25706035,14.8195084 C1.36038757,15.0051008 1.59460325,15.07179 1.78019569,14.9684627 C1.96578814,14.8651355 2.03247727,14.6309198 1.92915004,14.4453274 C1.6894479,14.0147835 1.48455551,13.5654998 1.31672353,13.1013922 C1.24448675,12.9016351 1.0239921,12.7982594 0.824234948,12.8704962 C0.624477798,12.942733 0.521102113,13.1632276 0.593338895,13.3629848 Z M2.40894738,16.4718844 C2.75673627,16.8770691 3.13638773,17.2540563 3.54401236,17.5989769 C3.70616727,17.7361879 3.94885128,17.7159669 4.08606228,17.553812 C4.22327327,17.3916571 4.20305224,17.1489731 4.04089733,17.0117621 C3.66445339,16.6932256 3.31383064,16.3450634 2.99264358,15.9708707 C2.85429247,15.8096875 2.61147188,15.7911784 2.45028863,15.9295295 C2.28910538,16.0678806 2.27059627,16.3107012 2.40894738,16.4718844 Z M5.18216792,18.7268846 C5.64977624,18.9844418 6.13759313,19.2042352 6.6413656,19.3838294 C6.84144858,19.4551587 7.06147172,19.3507833 7.13280105,19.1507003 C7.20413038,18.9506173 7.09975492,18.7305942 6.89967194,18.6592648 C6.43489612,18.4935728 5.98479829,18.2907744 5.55328677,18.0530992 C5.36722606,17.9506176 5.13331628,18.0183718 5.03083464,18.2044325 C4.928353,18.3904932 4.99610722,18.624403 5.18216792,18.7268846 Z M8.62388879,19.8679861 C8.41345676,19.8390131 8.26635513,19.644937 8.2953281,19.434505 C8.32430108,19.2240729 8.51837718,19.0769713 8.7288092,19.1059443 C9.14749731,19.1635906 9.57187388,19.1927101 9.99999993,19.1927101 C10.2124171,19.1927101 10.3846153,19.3649082 10.3846153,19.5773254 C10.3846153,19.7897426 10.2124171,19.9619408 9.99999993,19.9619408 C9.53675213,19.9619408 9.0773205,19.930416 8.62388879,19.8679861 Z" id="Oval-1-Copy-11"></path>
        </g>
    </g>
</svg>