<?xml version="1.0" encoding="UTF-8" standalone="no"?>
<svg width="20px" height="20px" viewBox="0 0 20 20" version="1.1" xmlns="http://www.w3.org/2000/svg" xmlns:xlink="http://www.w3.org/1999/xlink">
    <!-- Generator: Sketch 44.1 (41455) - http://www.bohemiancoding.com/sketch -->
    <title>workplace-white</title>
    <desc>Created with Sketch.</desc>
    <defs></defs>
    <g id="Symbols" stroke="none" stroke-width="1" fill="none" fill-rule="evenodd">
        <g id="workplace-white" fill="#FFFFFF">
            <path d="M7.62393162,11.4836601 L6.82905983,12.2679739 L6.82905983,11.4836601 L7.62393162,11.4836601 Z M1.79487179,11.4836601 L6.82905983,11.4836601 L6.82905983,9.78431373 L1.79487179,9.78431373 L1.79487179,11.4836601 Z M1,9 L7.62393162,9 L7.62393162,12.2679739 L1,12.2679739 L1,9 Z" id="Rectangle-104" fill-rule="nonzero"></path>
            <path d="M7.34102989,12.2679739 L6.5461581,11.4836601 L7.34102989,11.4836601 L7.34102989,12.2679739 Z M13.1700897,11.4836601 L12.3752179,12.2679739 L12.3752179,11.4836601 L13.1700897,11.4836601 Z M7.34102989,11.4836601 L12.3752179,11.4836601 L12.3752179,9.78431373 L7.34102989,9.78431373 L7.34102989,11.4836601 Z M6.5461581,9 L13.1700897,9 L13.1700897,12.2679739 L6.5461581,12.2679739 L6.5461581,9 Z" id="Rectangle-104-Copy" fill-rule="nonzero"></path>
            <path d="M13.1694448,11.4836601 L18.2036328,11.4836601 L18.2036328,9.78431373 L13.1694448,9.78431373 L13.1694448,11.4836601 Z M12.374573,9 L18.9985046,9 L18.9985046,12.2679739 L12.374573,12.2679739 L12.374573,9 Z" id="Rectangle-104-Copy-2" fill-rule="nonzero"></path>
            <polygon id="Line-Copy-54" fill-rule="nonzero" points="1.5308642 9 0 9 0 9.78431373 1.5308642 9.78431373"></polygon>
            <path d="M1.79487179,19.2093649 L2.41310541,19.2093649 L2.41310541,12.3010254 L1.79487179,12.3010254 L1.79487179,19.2093649 Z M1,11.5167117 L3.20797721,11.5167117 L3.20797721,19.9936786 L1,19.9936786 L1,11.5167117 Z" id="Rectangle-107" fill-rule="nonzero"></path>
            <path d="M8.8823648,8.83478578 L10.8567467,8.83478578 L10.6477248,8.01568416 L9.09138664,8.01568416 L8.8823648,8.83478578 Z M8.76556714,7.5549932 L10.9735443,7.5549932 C11.1629945,7.5549932 11.3261081,7.68693817 11.3632623,7.87024177 L11.7312585,9.15003435 C11.7804445,9.39269785 11.5923411,9.6190995 11.3415405,9.6190995 L8.39757094,9.6190995 C8.14677044,9.6190995 7.95866695,9.39269785 8.00785298,9.15003435 L8.37584918,7.87024177 C8.41300341,7.68693817 8.57611699,7.5549932 8.76556714,7.5549932 Z" id="Rectangle-109" fill-rule="nonzero"></path>
            <path d="M5.2388705,1.56871554 L5.2388705,6.41966499 C5.2388705,6.85271719 5.59583863,7.20406681 6.03750259,7.20406681 L13.8903809,7.20406681 C14.3329151,7.20406681 14.689013,6.85323142 14.689013,6.41966499 L14.689013,1.56871554 C14.689013,1.13566334 14.3320448,0.784313725 13.8903809,0.784313725 L6.03750259,0.784313725 C5.59496831,0.784313725 5.2388705,1.13514912 5.2388705,1.56871554 Z M4.44399871,1.56871554 C4.44399871,0.702337873 5.15561332,0 6.03750259,0 L13.8903809,0 C14.7704488,0 15.4838847,0.701914208 15.4838847,1.56871554 L15.4838847,6.41966499 C15.4838847,7.28604266 14.7722701,7.98838054 13.8903809,7.98838054 L6.03750259,7.98838054 C5.1574347,7.98838054 4.44399871,7.28646633 4.44399871,6.41966499 L4.44399871,1.56871554 Z" id="Rectangle-110" fill-rule="nonzero"></path>
            <polygon id="Line" fill-rule="nonzero" points="5.00769043 5.99377441 14.9091797 5.99377441 14.9091797 5.20946069 5.00769043 5.20946069"></polygon>
            <path d="M6.41767709,1.29133067 L5.68168469,2.01754709 C5.52647632,2.17069387 5.52647632,2.41899386 5.68168469,2.57214064 C5.83689306,2.72528742 6.08853555,2.72528742 6.24374393,2.57214064 L6.97973633,1.84592423 C7.1349447,1.69277745 7.1349447,1.44447746 6.97973633,1.29133067 C6.82452796,1.13818389 6.57288546,1.13818389 6.41767709,1.29133067 Z" id="Line" fill-rule="nonzero"></path>
            <polygon id="Line-Copy-57" fill-rule="nonzero" points="19.5308642 9 18 9 18 9.78431373 19.5308642 9.78431373"></polygon>
            <polygon id="Line-Copy-58" fill-rule="nonzero" points="20 9 18.4691358 9 18.4691358 9.78431373 20 9.78431373"></polygon>
            <path d="M17.5846668,19.2156863 L18.2029004,19.2156863 L18.2029004,12.3073468 L17.5846668,12.3073468 L17.5846668,19.2156863 Z M16.789795,11.523033 L18.9977722,11.523033 L18.9977722,20 L16.789795,20 L16.789795,11.523033 Z" id="Rectangle-107" fill-rule="nonzero"></path>
            <polygon id="Rectangle" points="3.50601196 10.3755493 4.50601196 10.3755493 4.50601196 11.0112305 3.50601196 11.0112305"></polygon>
            <polygon id="Rectangle" points="9.50601196 10.3755493 10.506012 10.3755493 10.506012 11.0112305 9.50601196 11.0112305"></polygon>
            <polygon id="Rectangle" points="15.506012 10.3755493 16.506012 10.3755493 16.506012 11.0112305 15.506012 11.0112305"></polygon>
        </g>
    </g>
</svg>