<svg xmlns="http://www.w3.org/2000/svg" width="38" height="45" viewBox="0 0 38 45">
    <path fill="#FFF" fill-rule="nonzero" d="M.957 0C.457 0 0 .456 0 .957v43.086c0 .5.456.957.957.957h35.426c.501 0 .957-.456.957-.957V13.404c0-.501-.456-.957-.957-.957h-8.617V.957c0-.5-.456-.957-.957-.957H.957zm.958 1.915H25.85v41.17h-5.745v-8.617c0-.501-.456-.957-.957-.957H8.617c-.501 0-.957.456-.957.957v8.617H1.915V1.915zm1.915.957c-.502 0-.958.456-.958.958v4.787c0 .501.456.957.958.957h4.787c.501 0 .957-.456.957-.957V3.83c0-.502-.456-.958-.957-.958H3.83zm7.66 0c-.502 0-.958.456-.958.958v4.787c0 .501.456.957.957.957h4.788c.5 0 .957-.456.957-.957V3.83c0-.502-.456-.958-.957-.958h-4.788zm7.659 0c-.501 0-.957.456-.958.958v4.787c0 .501.457.957.958.957h4.787c.501 0 .958-.456.958-.957V3.83c0-.502-.457-.958-.958-.958H19.15zM4.787 4.787H7.66V7.66H4.787V4.787zm7.66 0h2.872V7.66h-2.872V4.787zm7.66 0h2.872V7.66h-2.873V4.787zM3.83 10.532c-.502 0-.958.456-.958.957v4.788c0 .5.456.957.958.957h4.787c.501 0 .957-.456.957-.957v-4.788c0-.5-.456-.957-.957-.957H3.83zm7.66 0c-.502 0-.958.456-.958.957v4.788c0 .5.456.957.957.957h4.788c.5 0 .957-.456.957-.957v-4.788c0-.5-.456-.957-.957-.957h-4.788zm7.659 0c-.501 0-.957.456-.958.957v4.788c0 .5.457.957.958.957h4.787c.501 0 .958-.456.958-.957v-4.788c0-.5-.457-.957-.958-.957H19.15zM4.787 12.447H7.66v2.872H4.787v-2.872zm7.66 0h2.872v2.872h-2.872v-2.872zm7.66 0h2.872v2.872h-2.873v-2.872zm7.659 1.915h7.66v28.723h-7.66V14.362zm1.915.957c-.501 0-.958.456-.958.958v3.83c0 .5.457.957.958.957h3.83c.5 0 .957-.456.957-.958v-3.83c0-.5-.456-.957-.957-.957h-3.83zm.957 1.915h1.915v1.915h-1.915v-1.915zm-26.808.957c-.502 0-.958.457-.958.958v4.787c0 .501.456.958.958.958h4.787c.501 0 .957-.457.957-.958V19.15c0-.501-.456-.957-.957-.958H3.83zm7.66 0c-.502 0-.958.457-.958.958v4.787c0 .501.456.958.957.958h4.788c.5 0 .957-.457.957-.958V19.15c0-.501-.456-.957-.957-.958h-4.788zm7.659 0c-.501 0-.957.457-.958.958v4.787c0 .501.457.958.958.958h4.787c.501 0 .958-.457.958-.958V19.15c0-.501-.457-.957-.958-.958H19.15zM4.787 20.106H7.66v2.873H4.787v-2.873zm7.66 0h2.872v2.873h-2.872v-2.873zm7.66 0h2.872v2.873h-2.873v-2.873zm9.574 1.915c-.501 0-.958.456-.958.958v3.83c0 .5.457.957.958.957h3.83c.5 0 .957-.456.957-.957v-3.83c0-.502-.456-.958-.957-.958h-3.83zm.957 1.915h1.915v1.915h-1.915v-1.915zM3.83 25.851c-.502 0-.958.456-.958.958v4.787c0 .501.456.957.958.957h4.787c.501 0 .957-.456.957-.957v-4.787c0-.502-.456-.958-.957-.958H3.83zm7.66 0c-.502 0-.958.456-.958.958v4.787c0 .501.456.957.957.957h4.788c.5 0 .957-.456.957-.957v-4.787c0-.502-.456-.958-.957-.958h-4.788zm7.659 0c-.501 0-.957.456-.958.958v4.787c0 .501.457.957.958.957h4.787c.501 0 .958-.456.958-.957v-4.787c0-.502-.457-.958-.958-.958H19.15zM4.787 27.766H7.66v2.872H4.787v-2.872zm7.66 0h2.872v2.872h-2.872v-2.872zm7.66 0h2.872v2.872h-2.873v-2.872zm9.574.957c-.501 0-.958.457-.958.958v3.83c0 .501.457.957.958.957h3.83c.5 0 .957-.456.957-.957v-3.83c0-.501-.456-.958-.957-.958h-3.83zm.957 1.915h1.915v1.915h-1.915v-1.915zM9.574 35.426h3.352v7.66H9.574v-7.66zm5.266 0h3.351v7.66h-3.35v-7.66zm14.84 0c-.5 0-.957.456-.957.957v3.83c0 .501.457.957.958.957h3.83c.5 0 .957-.456.957-.957v-3.83c0-.501-.456-.957-.957-.957h-3.83zm.958 1.914h1.915v1.915h-1.915V37.34z"/>
</svg>
