<svg xmlns="http://www.w3.org/2000/svg" width="56" height="45" viewBox="0 0 56 45">
    <path fill="#FFF" fill-rule="nonzero" d="M54.515 35.72a5.721 5.721 0 0 0-4.602-2.34 5.721 5.721 0 0 0-4.601 2.34c-.702.935-1.17 2.183-1.17 3.43a5.758 5.758 0 0 0 5.771 5.772 5.758 5.758 0 0 0 5.772-5.771c0-1.326-.39-2.496-1.17-3.432zm-4.602 6.862c-1.871 0-3.431-1.56-3.431-3.431 0-1.872 1.56-3.432 3.431-3.432 1.872 0 3.432 1.56 3.432 3.432 0 1.872-1.56 3.431-3.432 3.431zM15.286 14.038c-.546-.39-.702-1.014-.312-1.638 1.482-2.183 2.652-3.977 3.432-5.303.857-1.794 2.183-2.184 2.885-2.262.156-.078.312-.078.468-.078 1.248 0 2.184.858 2.808 1.404.468.39.78.702 1.092 1.014l.312.312.078-.078c.233-.312.311-.39.39-.546.155-.234.39-.546.857-1.014.078-.078.156-.156.312-.234.468-.312 1.638-1.326 3.354-1.56.234-.078.468-.078.702-.078.39 0 .78 0 1.092.078.39.078.78.156 1.637.156h.078c.156-.39.312-.857.624-1.403.078 0 .078-.078.078-.078C35.875 1.482 37.28.468 38.45.156c.234-.078.546-.156.858-.156 1.014 0 2.417.468 4.055 2.964C45 4.914 46.95 8.11 49.055 12.556c.312.546 0 1.248-.545 1.56-.156.078-.312.078-.468.078-.468 0-.858-.312-1.092-.702-2.028-4.211-3.822-7.33-5.382-9.125-1.325-1.56-2.027-1.793-2.417-1.793-.078 0-.156.078-.234.078-.468.078-1.326.702-1.872 1.56v.077c-.312.468-.39.936-.468 1.248v.078c-.078.156-.156.39-.156.468-.156.39-.468.624-.936.702h-1.17c-1.013-.078-1.56-.156-1.95-.234-.311-.078-.467-.078-.701-.078h-.39c-1.092.156-1.794.78-2.106 1.014l-.078.078c-.078 0-.078.078-.156.078-.234.234-.39.468-.468.624-.156.234-.312.468-.702.858-.312.39-.702.702-.936.936a1.117 1.117 0 0 1-.78.312c-.233 0-.467-.078-.701-.234-.234-.234-.546-.546-.936-.858l-.312-.312c-.234-.234-.624-.546-1.014-.936-.546-.468-.936-.78-1.326-.78h-.078c-.546.078-.936.624-1.17 1.092-.858 1.404-2.027 3.197-3.587 5.46a1.112 1.112 0 0 1-.936.467c-.234 0-.468-.078-.702-.234zm37.903 3.432v-.702c0-.624-.546-1.17-1.17-1.17H9.827l-.39-1.326-.78-2.418c-.156-.623-.546-.935-1.092-.935H1.17c-.624 0-1.17.545-1.17 1.17 0 .623.546 1.17 1.17 1.17h5.537l.312.935.858 2.886 5.85 18.717 2.65 8.423c.157.468.625.78 1.093.78h3.587c.468 0 .936-.312 1.092-.702l3.432-8.5h3.743c.624.077 1.248.077 1.872.077.702 0 1.326 0 2.028-.078 11.23-.78 19.965-8.735 19.965-18.327zM18.328 42.582l-2.184-6.863-2.184-6.94c2.496 2.65 5.771 4.6 9.515 5.848l-.468 1.092-2.808 6.863h-1.871z"/>
</svg>
