<svg xmlns="http://www.w3.org/2000/svg" width="79" height="49" viewBox="0 0 79 49">
    <path fill="none" fill-rule="evenodd" stroke="#FFF" stroke-linecap="round" stroke-linejoin="round" stroke-width="3" d="M40.204 37.757c7.352 0 13.312-5.935 13.312-13.256 0-7.321-5.96-13.256-13.312-13.256-7.352 0-13.313 5.935-13.313 13.256 0 7.321 5.96 13.256 13.313 13.256zm0 9.243c-12.479 0-22.595-10.073-22.595-22.5 0-12.425 10.116-22.498 22.595-22.498 12.478 0 22.594 10.073 22.594 22.499C62.798 36.927 52.682 47 40.204 47zM76.75 2v45h-5.614l1.316-13.302s-4.63-.173-3.28-5.323C70.525 23.22 71.136 3.747 76.75 2zm-75 0v11.441V2zm5.744 0v11.441V2zm5.746 0v11.441V2zM7.494 19.11v27.888-27.887zm5.746-5.669c0 3.132-2.572 5.668-5.744 5.668-3.173 0-5.746-2.536-5.746-5.668"/>
</svg>
