<svg xmlns="http://www.w3.org/2000/svg" width="45" height="45" viewBox="0 0 45 45">
    <path fill="#FFF" fill-rule="nonzero" d="M12.664 21.327v-5.078h-1.488a1.285 1.285 0 0 0-1.23.895l-1.335 4.173h-3.83l1.693-5.286a4.91 4.91 0 0 1 4.702-3.418h1.498V4.73A4.74 4.74 0 0 1 17.404 0h9.803a4.74 4.74 0 0 1 4.74 4.74v7.883h1.488a4.91 4.91 0 0 1 4.693 3.427l1.692 5.286h-3.807l-1.336-4.173a1.285 1.285 0 0 0-1.242-.914h-1.489v5.078H12.664zm-10.846 6.44h2.434v15.415a1.818 1.818 0 0 0 3.636 0V27.768h28.834v15.414a1.818 1.818 0 1 0 3.636 0V27.768h2.435a1.818 1.818 0 1 0 0-3.636H1.818a1.818 1.818 0 1 0 0 3.636zm30.142 6.465a1.818 1.818 0 0 0 0-3.635H12.664a1.818 1.818 0 1 0 0 3.635h7.786v7.132h-3.867a1.818 1.818 0 0 0 0 3.636h11.445a1.818 1.818 0 0 0 0-3.636H24.09v-7.132h7.869z"/>
</svg>
