<?xml version="1.0" encoding="utf-8"?>
<!-- Generator: Adobe Illustrator 15.0.0, SVG Export Plug-In . SVG Version: 6.00 Build 0)  -->
<!DOCTYPE svg PUBLIC "-//W3C//DTD SVG 1.1//EN" "http://www.w3.org/Graphics/SVG/1.1/DTD/svg11.dtd">
<svg version="1.1" id="Layer_1" xmlns="http://www.w3.org/2000/svg" xmlns:xlink="http://www.w3.org/1999/xlink" x="0px" y="0px"
	 width="30px" height="31px" viewBox="0 0 30 31" enable-background="new 0 0 30 31" xml:space="preserve">
<g>
	<defs>
		<path id="SVGID_1_" d="M10.197,21.2c-0.219,0-0.397-0.178-0.397-0.397c0-2.279,1.527-4.133,3.404-4.133h2.713
			c1.877,0,3.403,1.854,3.403,4.133c0,0.22-0.178,0.397-0.397,0.397H10.197z M14.562,15.846c-1.612,0-2.922-1.311-2.922-2.923
			S12.951,10,14.562,10s2.923,1.311,2.923,2.923S16.175,15.846,14.562,15.846z"/>
	</defs>
	<clipPath id="SVGID_2_">
		<use xlink:href="#SVGID_1_"  overflow="visible"/>
	</clipPath>
	<rect x="4.8" y="5" clip-path="url(#SVGID_2_)" fill="#FFFFFF" width="19.521" height="21.2"/>
</g>
<g>
	<defs>
		<path id="SVGID_3_" d="M17.312,19.6C17.14,19.6,17,19.46,17,19.288c0-1.791,1.199-3.248,2.674-3.248h2.133
			c1.474,0,2.674,1.457,2.674,3.248c0,0.172-0.14,0.312-0.312,0.312H17.312z M20.742,15.393c-1.267,0-2.297-1.03-2.297-2.297
			c0-1.266,1.03-2.296,2.297-2.296c1.266,0,2.296,1.03,2.296,2.296C23.038,14.363,22.009,15.393,20.742,15.393z"/>
	</defs>
	<clipPath id="SVGID_4_">
		<use xlink:href="#SVGID_3_"  overflow="visible"/>
	</clipPath>
	<rect x="12" y="5.8" clip-path="url(#SVGID_4_)" fill="#FFFFFF" width="17.48" height="18.8"/>
</g>
<g>
	<defs>
		<path id="SVGID_5_" d="M5.312,19.6C5.14,19.6,5,19.46,5,19.288c0-1.791,1.2-3.248,2.674-3.248h2.132
			c1.475,0,2.674,1.457,2.674,3.248c0,0.172-0.14,0.312-0.312,0.312H5.312z M8.742,15.393c-1.267,0-2.296-1.03-2.296-2.297
			c0-1.266,1.03-2.296,2.296-2.296s2.296,1.03,2.296,2.296C11.039,14.363,10.008,15.393,8.742,15.393z"/>
	</defs>
	<clipPath id="SVGID_6_">
		<use xlink:href="#SVGID_5_"  overflow="visible"/>
	</clipPath>
	<rect y="5.8" clip-path="url(#SVGID_6_)" fill="#FFFFFF" width="17.48" height="18.8"/>
</g>
</svg>
