<?xml version="1.0" encoding="utf-8"?>
<!-- Generator: Adobe Illustrator 15.0.0, SVG Export Plug-In . SVG Version: 6.00 Build 0)  -->
<!DOCTYPE svg PUBLIC "-//W3C//DTD SVG 1.1//EN" "http://www.w3.org/Graphics/SVG/1.1/DTD/svg11.dtd">
<svg version="1.1" id="Layer_1" xmlns="http://www.w3.org/2000/svg" xmlns:xlink="http://www.w3.org/1999/xlink" x="0px" y="0px"
	 width="20px" height="20px" viewBox="0 0 20 20" enable-background="new 0 0 20 20" xml:space="preserve">
<g>
	<path fill="#727272" d="M9.361,11.979c0,0.133-0.103,0.24-0.229,0.24H4.09c-0.129-0.002-0.232-0.11-0.229-0.24
		c0-0.001,0-0.001,0-0.001c0-1.598,1.231-2.895,2.75-2.895C8.13,9.083,9.361,10.38,9.361,11.979L9.361,11.979z"/>
	<path fill="#727272" d="M4.653,5.708c0-0.926,0.715-1.678,1.596-1.678h2.503c0.12,0.003,0.214,0.103,0.211,0.223v1.739
		c0.233,0.12,0.391,0.371,0.391,0.655v0.15c0,0.294-0.167,0.551-0.412,0.667c-0.147,1.107-1.051,1.95-2.134,1.95
		c-1.079,0-1.981-0.838-2.132-1.94C4.409,7.356,4.237,7.09,4.24,6.798v-0.15c0-0.296,0.168-0.554,0.414-0.667V5.708L4.653,5.708z
		 M16.007,16.245c0,0.133-0.102,0.241-0.229,0.241h-5.041c-0.131-0.004-0.232-0.111-0.23-0.241c0-1.599,1.231-2.896,2.75-2.896
		S16.007,14.646,16.007,16.245z"/>
	<path fill="#727272" d="M11.132,10.726v-0.481c0-1.011,0.812-1.834,1.811-1.834h0.608c1.001,0,1.812,0.821,1.812,1.835v0.48
		c0,0.247,0.04,0.592,0.111,1.009c0.03,0.175,0.065,0.358,0.104,0.549c0.066,0.319,0.14,0.636,0.218,0.951
		c0.029,0.108-0.034,0.219-0.141,0.252c-0.231,0.061-0.465,0.111-0.701,0.154c-0.563,0.101-1.135,0.152-1.707,0.154
		c-0.747-0.002-1.492-0.089-2.22-0.26c-0.063-0.016-0.127-0.032-0.19-0.049c-0.107-0.033-0.168-0.144-0.141-0.252
		c0.024-0.093,0.047-0.185,0.068-0.276c0.051-0.215,0.102-0.442,0.149-0.675c0.039-0.19,0.074-0.374,0.104-0.549
		C11.092,11.318,11.132,10.973,11.132,10.726z"/>
</g>
</svg>
