<?xml version="1.0" encoding="utf-8"?>
<!-- Generator: Adobe Illustrator 15.0.0, SVG Export Plug-In . SVG Version: 6.00 Build 0)  -->
<!DOCTYPE svg PUBLIC "-//W3C//DTD SVG 1.1//EN" "http://www.w3.org/Graphics/SVG/1.1/DTD/svg11.dtd">
<svg version="1.1" id="Layer_1" xmlns="http://www.w3.org/2000/svg" xmlns:xlink="http://www.w3.org/1999/xlink" x="0px" y="0px"
	 width="30px" height="31px" viewBox="0 0 30 31" enable-background="new 0 0 30 31" xml:space="preserve">
<path fill="#FFFFFF" d="M26.987,9.468l-2.56-0.963L23.64,4.264c-0.065-0.354-0.413-0.585-0.758-0.521l-7.433,1.381L9.455,2.867
	c-0.16-0.06-0.34-0.055-0.497,0.016s-0.279,0.202-0.34,0.363L7.343,6.63l-2.88,0.535c-0.169,0.032-0.32,0.129-0.417,0.271
	C3.948,7.579,3.911,7.753,3.942,7.923l0.963,5.183l-2.631,6.988c-0.126,0.336,0.043,0.711,0.379,0.838l3.984,1.5l0.593,3.191
	c0.058,0.312,0.332,0.531,0.638,0.531c0.04,0,0.08-0.004,0.12-0.012l5.695-1.058l6.502,2.448c0.074,0.027,0.152,0.042,0.229,0.042
	c0.092,0,0.184-0.02,0.269-0.059c0.156-0.071,0.279-0.201,0.34-0.362l1.39-3.691l3.996-0.742c0.353-0.065,0.586-0.404,0.52-0.758
	l-1.306-7.027l1.743-4.63C27.492,9.97,27.323,9.595,26.987,9.468z M22.948,22.042l1.79-4.755l0.794,4.274L22.948,22.042z
	 M22.48,5.14l0.526,2.83l-5.206-1.96L22.48,5.14z M5.339,8.325l1.469-0.273l-1.017,2.702L5.339,8.325z M8.39,24.746L8.06,22.967
	l3.272,1.232L8.39,24.746z M24.344,14.645c0,0-0.001,0.001-0.001,0.002l-3.018,8.015c0,0.001,0,0.001,0,0.002l-1.289,3.424
	l-6.063-2.283c0,0,0,0,0,0l-6.534-2.461c-0.001,0-0.002,0-0.003,0L3.72,19.944l2.466-6.55l0,0l2.245-5.963c0,0,0,0,0,0l1.174-3.118
	l5.555,2.092c0,0,0,0,0,0l8.466,3.188c0.001,0,0.001,0,0.002,0l2.292,0.863L24.344,14.645z"/>
</svg>
