<?xml version="1.0" encoding="utf-8"?>
<!-- Generator: Adobe Illustrator 15.0.0, SVG Export Plug-In . SVG Version: 6.00 Build 0)  -->
<!DOCTYPE svg PUBLIC "-//W3C//DTD SVG 1.1//EN" "http://www.w3.org/Graphics/SVG/1.1/DTD/svg11.dtd">
<svg version="1.1" id="Layer_1" xmlns="http://www.w3.org/2000/svg" xmlns:xlink="http://www.w3.org/1999/xlink" x="0px" y="0px"
	 width="32px" height="32px" viewBox="0 0 32 32" enable-background="new 0 0 32 32" xml:space="preserve">
<path fill="#FFFFFF" d="M20.41,8.5v2.018c-2.99,0.76-7.252,2.793-8.638,7.074c3.461-3.036,8.351-2.706,8.638-2.692v2.017
	l5.453-4.204L20.41,8.5z M9.045,9.864c-0.502,0.001-0.908,0.407-0.908,0.909V22.59c0,0.502,0.407,0.91,0.91,0.91h11.816
	c0.502,0,0.91-0.408,0.91-0.91v-5.58l-0.811,0.625l-1.008,0.781v3.268h-10v-10h5.476c1.33-0.853,2.742-1.438,4.005-1.818H9.047
	L9.045,9.864z"/>
</svg>
