<?xml version="1.0" encoding="utf-8"?>
<!-- Generator: Adobe Illustrator 15.0.0, SVG Export Plug-In . SVG Version: 6.00 Build 0)  -->
<!DOCTYPE svg PUBLIC "-//W3C//DTD SVG 1.1//EN" "http://www.w3.org/Graphics/SVG/1.1/DTD/svg11.dtd">
<svg version="1.1" xmlns="http://www.w3.org/2000/svg" xmlns:xlink="http://www.w3.org/1999/xlink" x="0px" y="0px" width="30px"
	 height="30px" viewBox="0 0 30 30" enable-background="new 0 0 30 30" xml:space="preserve">
<g id="reload" display="none">
	<g display="inline">
		<path fill="none" stroke="#727272" stroke-width="0.75" stroke-miterlimit="10" d="M25.651,13.667
			c0.056,0.438,0.082,0.882,0.082,1.333c0,5.928-4.805,10.733-10.735,10.733c-2.962,0-5.646-1.201-7.589-3.143"/>
		<path fill="none" stroke="#727272" stroke-width="0.75" stroke-miterlimit="10" d="M4.335,16.223
			c-0.044-0.4-0.069-0.809-0.069-1.223c0-5.927,4.806-10.733,10.733-10.733c2.964,0,5.648,1.201,7.59,3.143"/>
		<polyline fill="none" stroke="#727272" stroke-width="0.75" stroke-miterlimit="10" points="7.393,13.365 4.266,16.492 
			1.14,13.365 		"/>
		<polyline fill="none" stroke="#727272" stroke-width="0.75" stroke-miterlimit="10" points="22.607,16.792 25.733,13.665 
			28.858,16.792 		"/>
	</g>
</g>
<g id="add" display="none">
	<g display="inline">
		<line fill="none" stroke="#727272" stroke-width="0.75" stroke-miterlimit="10" x1="15" y1="7.534" x2="15" y2="22.466"/>
		<line fill="none" stroke="#727272" stroke-width="0.75" stroke-miterlimit="10" x1="22.465" y1="15" x2="7.534" y2="15"/>
	</g>
</g>
<g id="next" display="none">
	<g display="inline">
		<polyline fill="none" stroke="#727272" stroke-width="0.75" stroke-miterlimit="10" points="10.431,9.72 15,12.358 19.566,14.996 
			15,17.632 10.431,20.271 		"/>
	</g>
</g>
<g id="close" display="none">
	<g display="inline">
		<line fill="none" stroke="#727272" stroke-width="0.75" stroke-miterlimit="10" x1="20.28" y1="9.72" x2="9.721" y2="20.279"/>
		<line fill="none" stroke="#727272" stroke-width="0.75" stroke-miterlimit="10" x1="20.28" y1="20.279" x2="9.721" y2="9.722"/>
	</g>
</g>
<g id="prev" display="none">
	<g display="inline">
		<polyline fill="none" stroke="#727272" stroke-width="0.75" stroke-miterlimit="10" points="19.567,20.279 15,17.644 
			10.432,15.004 15,12.368 19.567,9.73 		"/>
	</g>
</g>
<g id="search" display="none">
	<g display="inline">
		<circle fill="none" stroke="#727272" stroke-width="0.75" stroke-miterlimit="10" cx="12.149" cy="12.15" r="8.077"/>
		
			<line fill="none" stroke="#727272" stroke-width="0.75" stroke-miterlimit="10" x1="17.874" y1="17.874" x2="25.929" y2="25.929"/>
	</g>
</g>
<g id="login">
	<path fill="#727272" d="M14.998,19.961c-4.66,0-8.45-3.792-8.45-8.453s3.791-8.452,8.45-8.452c4.662,0,8.455,3.792,8.455,8.452
		S19.66,19.961,14.998,19.961z M14.998,3.806c-4.246,0-7.7,3.455-7.7,7.702s3.454,7.703,7.7,7.703c4.249,0,7.705-3.456,7.705-7.703
		S19.247,3.806,14.998,3.806z"/>
	<polygon fill="#727272" points="25.168,26.942 4.831,26.942 12.943,19.15 13.462,19.691 6.694,26.192 23.309,26.192 16.564,19.696 
		17.084,19.155 	"/>
</g>
</svg>
