<?xml version="1.0" encoding="utf-8"?>
<!-- Generator: Adobe Illustrator 15.0.0, SVG Export Plug-In . SVG Version: 6.00 Build 0)  -->
<!DOCTYPE svg PUBLIC "-//W3C//DTD SVG 1.1//EN" "http://www.w3.org/Graphics/SVG/1.1/DTD/svg11.dtd">
<svg version="1.1" id="reload" xmlns="http://www.w3.org/2000/svg" xmlns:xlink="http://www.w3.org/1999/xlink" x="0px" y="0px"
	 width="30px" height="30px" viewBox="0 0 30 30" enable-background="new 0 0 30 30" xml:space="preserve">
<g>
	<path fill="#727272" d="M14.999,26.108c-2.965,0-5.754-1.155-7.854-3.252l0.53-0.531c1.958,1.956,4.559,3.033,7.324,3.033
		c5.712,0,10.36-4.646,10.36-10.358c0-0.44-0.026-0.873-0.079-1.286l0.744-0.095c0.057,0.444,0.085,0.909,0.085,1.381
		C26.108,21.125,21.125,26.108,14.999,26.108z"/>
	<path fill="#727272" d="M3.962,16.264C3.915,15.836,3.891,15.411,3.891,15c0-6.125,4.983-11.108,11.108-11.108
		c2.967,0,5.757,1.155,7.855,3.252l-0.529,0.53c-1.957-1.956-4.559-3.033-7.326-3.033C9.287,4.642,4.641,9.289,4.641,15
		c0,0.383,0.022,0.78,0.067,1.182L3.962,16.264z"/>
	<polygon fill="#727272" points="4.266,17.022 0.875,13.63 1.405,13.1 4.266,15.962 7.127,13.1 7.658,13.63 	"/>
	<polygon fill="#727272" points="22.873,17.057 22.342,16.527 25.733,13.135 29.124,16.527 28.593,17.057 25.733,14.195 	"/>
</g>
</svg>
