<svg xmlns="http://www.w3.org/2000/svg" width="25" height="25" viewBox="0 0 25 25">
    <g fill="none" fill-rule="evenodd">
        <path fill="#DC4E41" d="M0 12.5C0 5.596 5.513 0 12.313 0c6.8 0 12.313 5.596 12.313 12.5S19.113 25 12.313 25C5.513 25 0 19.404 0 12.5z"/>
        <path fill="#FFF" d="M10.06 12.143V13.5h2.218c-.09.582-.67 1.708-2.218 1.708-1.336 0-2.426-1.12-2.426-2.5s1.09-2.5 2.426-2.5c.76 0 1.268.329 1.559.612l1.062-1.035A3.726 3.726 0 0 0 10.06 8.75c-2.163 0-3.912 1.77-3.912 3.958 0 2.189 1.749 3.959 3.912 3.959 2.257 0 3.755-1.606 3.755-3.868 0-.26-.028-.458-.061-.656H10.06zM18.443 12.143h-1.118v-1.131h-1.118v1.13H15.09v1.132h1.118v1.13h1.118v-1.13h1.118"/>
    </g>
</svg>
