<svg xmlns="http://www.w3.org/2000/svg" width="25" height="25" viewBox="0 0 25 25">
    <g fill="none" fill-rule="evenodd">
        <path fill="#0077B5" d="M0 12.5C0 5.596 5.596 0 12.5 0S25 5.596 25 12.5 19.404 25 12.5 25 0 19.404 0 12.5z"/>
        <path fill="#FFF" d="M8.834 10.353v8.511H6v-8.511h2.833zM9.02 7.72c0 .817-.615 1.471-1.603 1.471H7.4c-.95 0-1.566-.654-1.566-1.47 0-.835.634-1.471 1.603-1.471s1.566.636 1.584 1.47zm10.03 6.264v4.88h-2.833v-4.553c0-1.144-.41-1.924-1.435-1.924-.783 0-1.25.526-1.454 1.034-.075.182-.093.436-.093.69v4.754h-2.833s.037-7.713 0-8.512h2.833v1.206c.376-.58 1.05-1.406 2.553-1.406 1.864 0 3.262 1.217 3.262 3.831z"/>
    </g>
</svg>
