<svg xmlns="http://www.w3.org/2000/svg" width="25" height="25" viewBox="0 0 25 25">
    <g fill="none" fill-rule="evenodd">
        <path fill="#FFF" d="M12.48 24.73C5.585 24.73 0 19.23 0 12.446 0 5.661 5.586.161 12.48.161c6.891 0 12.479 5.5 12.479 12.284 0 6.784-5.588 12.286-12.48 12.286z"/>
        <path fill="#BD071C" d="M12.464 1.313c-6.246 0-11.31 4.982-11.31 11.132 0 4.716 2.982 8.745 7.188 10.367-.099-.88-.187-2.231.04-3.194.205-.869 1.326-5.533 1.326-5.533s-.338-.667-.338-1.653c0-1.548.91-2.704 2.047-2.704.963 0 1.43.713 1.43 1.569 0 .955-.618 2.383-.937 3.706-.266 1.11.565 2.012 1.675 2.012 2.01 0 3.555-2.087 3.555-5.099 0-2.665-1.945-4.529-4.724-4.529-3.217 0-5.106 2.377-5.106 4.832 0 .957.373 1.983.841 2.54.092.111.106.207.079.32-.086.352-.277 1.108-.314 1.262-.05.204-.165.248-.38.15-1.411-.647-2.294-2.681-2.294-4.313 0-3.512 2.592-6.738 7.472-6.738 3.924 0 6.973 2.753 6.973 6.43 0 3.837-2.459 6.925-5.868 6.925-1.147 0-2.225-.586-2.594-1.279l-.704 2.647c-.255.967-.945 2.178-1.405 2.918a11.42 11.42 0 0 0 3.348.497c6.247 0 11.31-4.984 11.31-11.133 0-6.15-5.063-11.133-11.31-11.133"/>
    </g>
</svg>
