<?xml version="1.0" encoding="utf-8"?>
<!-- Generator: Adobe Illustrator 15.0.0, SVG Export Plug-In . SVG Version: 6.00 Build 0)  -->
<!DOCTYPE svg PUBLIC "-//W3C//DTD SVG 1.1//EN" "http://www.w3.org/Graphics/SVG/1.1/DTD/svg11.dtd">
<svg version="1.1" xmlns="http://www.w3.org/2000/svg" xmlns:xlink="http://www.w3.org/1999/xlink" x="0px" y="0px" width="32px"
	 height="48px" viewBox="0 0 32 48" enable-background="new 0 0 32 48" xml:space="preserve">
<g id="Layer_1">
	<rect x="-108" y="-105" fill="#FFFFFF" width="349" height="408"/>
	<image overflow="visible" width="1152" height="1600" xlink:href="card-back.jpg"  transform="matrix(1 0 0 1 1015 -778)">
	</image>
	<g>
		<g>
			<polygon fill="#00E5A9" stroke="#00E5A9" stroke-miterlimit="10" points="34,19 45,3 56,19 45,35 			"/>
			<polygon fill="#00E5A9" stroke="#00E5A9" stroke-miterlimit="10" points="1,19 12,3 23,19 12,35 			"/>
			<polygon fill="#00E5A9" stroke="#00E5A9" stroke-miterlimit="10" points="17.5,43 28.5,27 39.5,43 28.5,59 			"/>
			<polygon fill="#00E5A9" stroke="#00E5A9" stroke-miterlimit="10" points="17.5,-5 28.5,-21 39.5,-5 28.5,11 			"/>
			<line fill="none" stroke="#00E5A9" stroke-miterlimit="10" x1="12" y1="35" x2="17.5" y2="43"/>
			<polyline fill="none" stroke="#00E5A9" stroke-miterlimit="10" points="34,19 28.5,11 23,19 28.5,27 			"/>
			<line fill="none" stroke="#00E5A9" stroke-miterlimit="10" x1="17.5" y1="11" x2="23" y2="3"/>
			<line fill="none" stroke="#00E5A9" stroke-miterlimit="10" x1="12" y1="3" x2="17.5" y2="-5"/>
			<line fill="none" stroke="#00E5A9" stroke-miterlimit="10" x1="39.5" y1="-5" x2="45" y2="3"/>
			<line fill="none" stroke="#00E5A9" stroke-miterlimit="10" x1="39.5" y1="43" x2="45" y2="35"/>
			<line fill="none" stroke="#00E5A9" stroke-miterlimit="10" x1="28.5" y1="27" x2="34" y2="19"/>
			<line fill="none" stroke="#00E5A9" stroke-miterlimit="10" x1="14.75" y1="6.75" x2="20.25" y2="-1"/>
			<line fill="none" stroke="#00E5A9" stroke-miterlimit="10" x1="25.75" y1="7" x2="20.25" y2="15"/>
			<line fill="none" stroke="#00E5A9" stroke-miterlimit="10" x1="34" y1="35" x2="39.5" y2="27"/>
			<line fill="none" stroke="#00E5A9" stroke-miterlimit="10" x1="31.25" y1="30.75" x2="36.75" y2="23"/>
			<line fill="none" stroke="#00E5A9" stroke-miterlimit="10" x1="42.25" y1="31" x2="36.75" y2="39"/>
			<line fill="#00E5A9" stroke="#00E5A9" stroke-miterlimit="10" x1="17.5" y1="27" x2="23" y2="35"/>
			<line fill="#00E5A9" stroke="#00E5A9" stroke-miterlimit="10" x1="20.25" y1="23" x2="25.75" y2="31"/>
			<line fill="#00E5A9" stroke="#00E5A9" stroke-miterlimit="10" x1="14.75" y1="31" x2="20.25" y2="39"/>
			<line fill="none" stroke="#00E5A9" stroke-miterlimit="10" x1="28.5" y1="11" x2="34" y2="19"/>
			<line fill="#00E5A9" stroke="#00E5A9" stroke-miterlimit="10" x1="34" y1="3" x2="39.5" y2="11"/>
			<line fill="#00E5A9" stroke="#00E5A9" stroke-miterlimit="10" x1="36.75" y1="-1" x2="42.25" y2="7"/>
			<line fill="#00E5A9" stroke="#00E5A9" stroke-miterlimit="10" x1="31.25" y1="7" x2="36.75" y2="15"/>
			<polygon fill="#00E5A9" stroke="#00E5A9" stroke-miterlimit="10" points="17.5,-5 28.5,-21 39.5,-5 28.5,11 			"/>
			<polygon fill="#00E5A9" stroke="#00E5A9" stroke-miterlimit="10" points="-15.5,-5 -4.5,-21 6.5,-5 -4.5,11 			"/>
			<polygon fill="#00E5A9" stroke="#00E5A9" stroke-miterlimit="10" points="1,19 12,3 23,19 12,35 			"/>
			<polygon fill="#00E5A9" stroke="#00E5A9" stroke-miterlimit="10" points="1,-29 12,-45 23,-29 12,-13 			"/>
			<line fill="none" stroke="#00E5A9" stroke-miterlimit="10" x1="-4.5" y1="11" x2="1" y2="19"/>
			<polyline fill="none" stroke="#00E5A9" stroke-miterlimit="10" points="17.5,-5 12,-13 6.5,-5 12,3 			"/>
			<line fill="none" stroke="#00E5A9" stroke-miterlimit="10" x1="1" y1="-13" x2="6.5" y2="-21"/>
			<line fill="none" stroke="#00E5A9" stroke-miterlimit="10" x1="-4.5" y1="-21" x2="1" y2="-29"/>
			<line fill="none" stroke="#00E5A9" stroke-miterlimit="10" x1="23" y1="-29" x2="28.5" y2="-21"/>
			<line fill="none" stroke="#00E5A9" stroke-miterlimit="10" x1="23" y1="19" x2="28.5" y2="11"/>
			<line fill="none" stroke="#00E5A9" stroke-miterlimit="10" x1="12" y1="3" x2="17.5" y2="-5"/>
			<line fill="none" stroke="#00E5A9" stroke-miterlimit="10" x1="-1.75" y1="-17.25" x2="3.75" y2="-25"/>
			<line fill="none" stroke="#00E5A9" stroke-miterlimit="10" x1="9.25" y1="-17" x2="3.75" y2="-9"/>
			<line fill="none" stroke="#00E5A9" stroke-miterlimit="10" x1="17.5" y1="11" x2="23" y2="3"/>
			<line fill="none" stroke="#00E5A9" stroke-miterlimit="10" x1="14.75" y1="6.75" x2="20.25" y2="-1"/>
			<line fill="none" stroke="#00E5A9" stroke-miterlimit="10" x1="25.75" y1="7" x2="20.25" y2="15"/>
			<line fill="#00E5A9" stroke="#00E5A9" stroke-miterlimit="10" x1="1" y1="3" x2="6.5" y2="11"/>
			<line fill="#00E5A9" stroke="#00E5A9" stroke-miterlimit="10" x1="3.75" y1="-1" x2="9.25" y2="7"/>
			<line fill="#00E5A9" stroke="#00E5A9" stroke-miterlimit="10" x1="-1.75" y1="7" x2="3.75" y2="15"/>
			<line fill="none" stroke="#00E5A9" stroke-miterlimit="10" x1="12" y1="-13" x2="17.5" y2="-5"/>
			<line fill="#00E5A9" stroke="#00E5A9" stroke-miterlimit="10" x1="17.5" y1="-21" x2="23" y2="-13"/>
			<line fill="#00E5A9" stroke="#00E5A9" stroke-miterlimit="10" x1="20.25" y1="-25" x2="25.75" y2="-17"/>
			<line fill="#00E5A9" stroke="#00E5A9" stroke-miterlimit="10" x1="14.75" y1="-17" x2="20.25" y2="-9"/>
		</g>
		<g>
			<polygon fill="#00E5A9" stroke="#00E5A9" stroke-miterlimit="10" points="17.5,43 28.5,27 39.5,43 28.5,59 			"/>
			<polygon fill="#00E5A9" stroke="#00E5A9" stroke-miterlimit="10" points="-15.5,43 -4.5,27 6.5,43 -4.5,59 			"/>
			<polygon fill="#00E5A9" stroke="#00E5A9" stroke-miterlimit="10" points="1,67 12,51 23,67 12,83 			"/>
			<polygon fill="#00E5A9" stroke="#00E5A9" stroke-miterlimit="10" points="1,19 12,3 23,19 12,35 			"/>
			<line fill="none" stroke="#00E5A9" stroke-miterlimit="10" x1="-4.5" y1="59" x2="1" y2="67"/>
			<polyline fill="none" stroke="#00E5A9" stroke-miterlimit="10" points="17.5,43 12,35 6.5,43 12,51 			"/>
			<line fill="none" stroke="#00E5A9" stroke-miterlimit="10" x1="1" y1="35" x2="6.5" y2="27"/>
			<line fill="none" stroke="#00E5A9" stroke-miterlimit="10" x1="-4.5" y1="27" x2="1" y2="19"/>
			<line fill="none" stroke="#00E5A9" stroke-miterlimit="10" x1="23" y1="19" x2="28.5" y2="27"/>
			<line fill="none" stroke="#00E5A9" stroke-miterlimit="10" x1="23" y1="67" x2="28.5" y2="59"/>
			<line fill="none" stroke="#00E5A9" stroke-miterlimit="10" x1="12" y1="51" x2="17.5" y2="43"/>
			<line fill="none" stroke="#00E5A9" stroke-miterlimit="10" x1="-1.75" y1="30.75" x2="3.75" y2="23"/>
			<line fill="none" stroke="#00E5A9" stroke-miterlimit="10" x1="9.25" y1="31" x2="3.75" y2="39"/>
			<line fill="none" stroke="#00E5A9" stroke-miterlimit="10" x1="17.5" y1="59" x2="23" y2="51"/>
			<line fill="none" stroke="#00E5A9" stroke-miterlimit="10" x1="14.75" y1="54.75" x2="20.25" y2="47"/>
			<line fill="none" stroke="#00E5A9" stroke-miterlimit="10" x1="25.75" y1="55" x2="20.25" y2="63"/>
			<line fill="#00E5A9" stroke="#00E5A9" stroke-miterlimit="10" x1="1" y1="51" x2="6.5" y2="59"/>
			<line fill="#00E5A9" stroke="#00E5A9" stroke-miterlimit="10" x1="3.75" y1="47" x2="9.25" y2="55"/>
			<line fill="#00E5A9" stroke="#00E5A9" stroke-miterlimit="10" x1="-1.75" y1="55" x2="3.75" y2="63"/>
			<line fill="none" stroke="#00E5A9" stroke-miterlimit="10" x1="12" y1="35" x2="17.5" y2="43"/>
			<line fill="#00E5A9" stroke="#00E5A9" stroke-miterlimit="10" x1="17.5" y1="27" x2="23" y2="35"/>
			<line fill="#00E5A9" stroke="#00E5A9" stroke-miterlimit="10" x1="20.25" y1="23" x2="25.75" y2="31"/>
			<line fill="#00E5A9" stroke="#00E5A9" stroke-miterlimit="10" x1="14.75" y1="31" x2="20.25" y2="39"/>
			<polygon fill="#00E5A9" stroke="#00E5A9" stroke-miterlimit="10" points="1,19 12,3 23,19 12,35 			"/>
			<polygon fill="#00E5A9" stroke="#00E5A9" stroke-miterlimit="10" points="-32,19 -21,3 -10,19 -21,35 			"/>
			<polygon fill="#00E5A9" stroke="#00E5A9" stroke-miterlimit="10" points="-15.5,43 -4.5,27 6.5,43 -4.5,59 			"/>
			<polygon fill="#00E5A9" stroke="#00E5A9" stroke-miterlimit="10" points="-15.5,-5 -4.5,-21 6.5,-5 -4.5,11 			"/>
			<line fill="none" stroke="#00E5A9" stroke-miterlimit="10" x1="-21" y1="35" x2="-15.5" y2="43"/>
			<polyline fill="none" stroke="#00E5A9" stroke-miterlimit="10" points="1,19 -4.5,11 -10,19 -4.5,27 			"/>
			<line fill="none" stroke="#00E5A9" stroke-miterlimit="10" x1="-15.5" y1="11" x2="-10" y2="3"/>
			<line fill="none" stroke="#00E5A9" stroke-miterlimit="10" x1="-21" y1="3" x2="-15.5" y2="-5"/>
			<line fill="none" stroke="#00E5A9" stroke-miterlimit="10" x1="6.5" y1="-5" x2="12" y2="3"/>
			<line fill="none" stroke="#00E5A9" stroke-miterlimit="10" x1="6.5" y1="43" x2="12" y2="35"/>
			<line fill="none" stroke="#00E5A9" stroke-miterlimit="10" x1="-4.5" y1="27" x2="1" y2="19"/>
			<line fill="none" stroke="#00E5A9" stroke-miterlimit="10" x1="-18.25" y1="6.75" x2="-12.75" y2="-1"/>
			<line fill="none" stroke="#00E5A9" stroke-miterlimit="10" x1="-7.25" y1="7" x2="-12.75" y2="15"/>
			<line fill="none" stroke="#00E5A9" stroke-miterlimit="10" x1="1" y1="35" x2="6.5" y2="27"/>
			<line fill="none" stroke="#00E5A9" stroke-miterlimit="10" x1="-1.75" y1="30.75" x2="3.75" y2="23"/>
			<line fill="none" stroke="#00E5A9" stroke-miterlimit="10" x1="9.25" y1="31" x2="3.75" y2="39"/>
			<line fill="#00E5A9" stroke="#00E5A9" stroke-miterlimit="10" x1="-15.5" y1="27" x2="-10" y2="35"/>
			<line fill="#00E5A9" stroke="#00E5A9" stroke-miterlimit="10" x1="-12.75" y1="23" x2="-7.25" y2="31"/>
			<line fill="#00E5A9" stroke="#00E5A9" stroke-miterlimit="10" x1="-18.25" y1="31" x2="-12.75" y2="39"/>
			<line fill="none" stroke="#00E5A9" stroke-miterlimit="10" x1="-4.5" y1="11" x2="1" y2="19"/>
			<line fill="#00E5A9" stroke="#00E5A9" stroke-miterlimit="10" x1="1" y1="3" x2="6.5" y2="11"/>
			<line fill="#00E5A9" stroke="#00E5A9" stroke-miterlimit="10" x1="3.75" y1="-1" x2="9.25" y2="7"/>
			<line fill="#00E5A9" stroke="#00E5A9" stroke-miterlimit="10" x1="-1.75" y1="7" x2="3.75" y2="15"/>
		</g>
	</g>
</g>
<g id="Layer_2">
</g>
</svg>
