<svg xmlns="http://www.w3.org/2000/svg" xmlns:xlink="http://www.w3.org/1999/xlink" width="232" height="41" viewBox="0 0 232 41">
    <defs>
        <path id="a" d="M.063 0h115.232v41H.063z"/>
        <path id="c" d="M.063 0h115.232v41H.063z"/>
    </defs>
    <g fill="none" fill-rule="evenodd">
        <g transform="translate(116)">
            <mask id="b" fill="#fff">
                <use xlink:href="#a"/>
            </mask>
            <g mask="url(#b)">
                <path fill="#16E3A7" d="M-127.337.038l5.85 10.132 5.85 10.132 5.85-10.132 5.85-10.132h-23.4zm6.717 9.633l-4.985-8.633H-105.67l-4.984 8.633-4.983 8.632-4.983-8.632z"/>
                <path fill="#164DC8" d="M-114.499 20.302l5.85-10.132L-102.8.038l5.851 10.132 5.849 10.132h-23.399zm6.716-9.633l-4.984 8.633h19.936l-4.985-8.633-4.984-8.632-4.983 8.632z"/>
                <path fill="#00DFF3" d="M-101.661.038l5.849 10.132 5.85 10.132 5.849-10.132 5.85-10.132h-23.398zm6.716 9.633l-4.984-8.633H-79.994l-4.985 8.633-4.983 8.632-4.983-8.632z"/>
                <path fill="#00A2FF" d="M-88.825 20.302l5.85-10.132L-77.124.038l5.85 10.132 5.85 10.132h-23.4zm6.716-9.633l-4.984 8.633H-67.158l-4.983-8.633-4.983-8.632-4.985 8.632z"/>
                <path fill="#8400C6" d="M-75.986.038l5.849 10.132 5.85 10.132 5.85-10.132L-52.588.038h-23.398zm6.716 9.633l-4.984-8.633H-54.319l-4.985 8.633-4.983 8.632-4.983-8.632z"/>
                <path fill="#EB196D" d="M-63.15 20.302l5.85-10.132L-51.45.038l5.85 10.132 5.85 10.132h-23.4zm6.717-9.633l-4.983 8.633H-41.481l-4.984-8.633-4.984-8.632-4.984 8.632z"/>
                <path fill="#FF632C" d="M-50.31.038l5.85 10.132 5.848 10.132 5.85-10.132 5.85-10.132h-23.399zm6.715 9.633l-4.984-8.633H-28.644l-4.984 8.633-4.984 8.632-4.983-8.632z"/>
                <path fill="#FFDE00" d="M-37.474 20.302l5.85-10.132 5.85-10.132 5.85 10.132 5.85 10.132h-23.4zm6.716-9.633l-4.984 8.633H-15.807l-4.984-8.633-4.983-8.632-4.984 8.632z"/>
                <path fill="#727272" d="M-24.636.038l5.85 10.132 5.849 10.132 5.85-10.132L-1.237.04l-23.4-.002zm6.716 9.633l-4.984-8.633h19.936l-4.986 8.633-4.983 8.632-4.983-8.632z"/>
                <path fill="#16E3A7" d="M11.6 20.264L5.75 10.132-.1 0l-5.849 10.132-5.85 10.132h23.4zm-6.717-9.633l4.985 8.633H-10.067l4.984-8.633L-.1 1.999l4.983 8.632z"/>
                <path fill="#164DC8" d="M24.438 0l-5.85 10.132-5.849 10.132-5.85-10.132L1.038 0h23.4zm-6.716 9.633L22.706 1H2.77l4.985 8.633 4.984 8.632 4.983-8.632z"/>
                <path fill="#00DFF3" d="M37.275 20.264l-5.85-10.132L25.576 0l-5.848 10.132-5.85 10.132h23.398zm-6.716-9.633l4.984 8.633H15.608l4.985-8.633 4.983-8.632 4.983 8.632z"/>
                <path fill="#00A2FF" d="M50.114 0l-5.85 10.132-5.851 10.132-5.85-10.132L26.714 0h23.4zm-6.716 9.633L48.382 1H28.447l4.983 8.633 4.983 8.632 4.985-8.632z"/>
                <path fill="#8400C6" d="M62.95 20.264l-5.849-10.132L51.251 0l-5.85 10.132-5.849 10.132H62.95zm-6.716-9.633l4.984 8.633H41.283l4.985-8.633 4.983-8.632 4.983 8.632z"/>
                <path fill="#EB196D" d="M75.789 0l-5.85 10.132-5.85 10.132-5.85-10.132L52.389 0h23.4zm-6.716 9.633L74.056 1H54.12l4.984 8.633 4.984 8.632 4.984-8.632z"/>
                <path fill="#FF632C" d="M88.626 20.264l-5.85-10.132L76.926 0l-5.85 10.132-5.848 10.132h23.398zm-6.716-9.633l4.984 8.633H66.959l4.984-8.633 4.984-8.632 4.983 8.632z"/>
                <path fill="#FFDE00" d="M101.463 0l-5.85 10.132-5.85 10.132-5.849-10.132L78.064 0h23.4zm-6.716 9.633L99.731 1H79.796l4.984 8.633 4.983 8.632 4.984-8.632z"/>
                <path fill="#727272" d="M114.3 20.264l-5.85-10.132L102.603 0l-5.85 10.132-5.85 10.13 23.399.002zm-6.715-9.633l4.984 8.633H92.632l4.987-8.633 4.983-8.632 4.983 8.632z"/>
                <path fill="#16E3A7" d="M103.74.038l5.85 10.132 5.85 10.132 5.849-10.132 5.85-10.132h-23.4zm6.717 9.633l-4.985-8.633H125.407l-4.984 8.633-4.983 8.632-4.983-8.632zM-76.121 40.962l5.85-10.132 5.85-10.132 5.849 10.132 5.85 10.132h-23.4zm6.717-9.633l-4.985 8.633H-54.454l-4.984-8.633-4.983-8.632-4.983 8.632z"/>
                <path fill="#164DC8" d="M-63.284 20.698l5.85 10.132 5.85 10.132 5.85-10.132 5.85-10.132h-23.4zm6.716 9.633l-4.984-8.633h19.937l-4.986 8.633-4.984 8.632-4.983-8.632z"/>
                <path fill="#00DFF3" d="M-50.446 40.962l5.849-10.132 5.85-10.132 5.849 10.132 5.85 10.132h-23.398zm6.716-9.633l-4.984 8.633H-28.78l-4.985-8.633-4.983-8.632-4.983 8.632z"/>
                <path fill="#00A2FF" d="M-37.61 20.698l5.85 10.132 5.852 10.132 5.849-10.132 5.85-10.132h-23.4zm6.717 9.633l-4.984-8.633h19.935l-4.983 8.633-4.983 8.632-4.985-8.632z"/>
                <path fill="#8400C6" d="M-24.77 40.962l5.848-10.132 5.85-10.132 5.85 10.132 5.85 10.132h-23.399zm6.715-9.633l-4.984 8.633H-3.104l-4.985-8.633-4.983-8.632-4.983 8.632z"/>
                <path fill="#EB196D" d="M-11.934 20.698l5.85 10.132 5.85 10.132 5.85-10.132 5.85-10.132h-23.4zm6.716 9.633l-4.983-8.633H9.734L4.75 30.33l-4.984 8.632-4.984-8.632z"/>
                <path fill="#FF632C" d="M.905 40.962l5.85-10.132 5.849-10.132 5.85 10.132 5.849 10.132H.905zm6.716-9.633l-4.984 8.633H22.572l-4.984-8.633-4.984-8.632-4.983 8.632z"/>
                <path fill="#FFDE00" d="M13.741 20.698l5.85 10.132 5.85 10.132 5.85-10.132 5.85-10.132h-23.4zm6.716 9.633l-4.984-8.633H35.408l-4.984 8.633-4.983 8.632-4.984-8.632z"/>
                <path fill="#727272" d="M26.579 40.962l5.85-10.132 5.849-10.132 5.85 10.132 5.85 10.13-23.399.002zm6.716-9.633l-4.984 8.633h19.936l-4.986-8.633-4.983-8.632-4.983 8.632z"/>
                <path fill="#16E3A7" d="M62.816 20.736l-5.85 10.132L51.116 41l-5.85-10.132-5.85-10.132h23.4zm-6.717 9.633l4.985-8.633H41.149l4.984 8.633 4.983 8.632 4.983-8.632z"/>
                <path fill="#164DC8" d="M75.653 41l-5.85-10.132-5.849-10.132-5.85 10.132L52.253 41h23.4zm-6.716-9.633L73.921 40H53.985l4.985-8.633 4.984-8.632 4.983 8.632z"/>
                <path fill="#00DFF3" d="M88.49 20.736l-5.849 10.132L76.791 41l-5.849-10.132-5.85-10.132H88.49zm-6.716 9.633l4.984-8.633H66.823l4.985 8.633 4.983 8.632 4.983-8.632z"/>
                <path fill="#00A2FF" d="M101.329 41l-5.85-10.132-5.851-10.132-5.85 10.132L77.929 41h23.4zm-6.716-9.633L99.597 40H79.662l4.983-8.633 4.983-8.632 4.985 8.632z"/>
                <path fill="#8400C6" d="M114.165 20.736l-5.849 10.132L102.466 41l-5.85-10.132-5.849-10.132h23.398zm-6.716 9.633l4.984-8.633H92.498l4.985 8.633 4.983 8.632 4.983-8.632z"/>
                <path fill="#EB196D" d="M127.004 41l-5.85-10.132-5.85-10.132-5.85 10.132L103.604 41h23.4zm-6.716-9.633L125.271 40H105.336l4.984-8.633 4.984-8.632 4.984 8.632z"/>
            </g>
        </g>
        <g transform="matrix(-1 0 0 1 116 0)">
            <mask id="d" fill="#fff">
                <use xlink:href="#c"/>
            </mask>
            <g mask="url(#d)">
                <path fill="#16E3A7" d="M-127.337.038l5.85 10.132 5.85 10.132 5.85-10.132 5.85-10.132h-23.4zm6.717 9.633l-4.985-8.633H-105.67l-4.984 8.633-4.983 8.632-4.983-8.632z"/>
                <path fill="#164DC8" d="M-114.499 20.302l5.85-10.132L-102.8.038l5.851 10.132 5.849 10.132h-23.399zm6.716-9.633l-4.984 8.633h19.936l-4.985-8.633-4.984-8.632-4.983 8.632z"/>
                <path fill="#00DFF3" d="M-101.661.038l5.849 10.132 5.85 10.132 5.849-10.132 5.85-10.132h-23.398zm6.716 9.633l-4.984-8.633H-79.994l-4.985 8.633-4.983 8.632-4.983-8.632z"/>
                <path fill="#00A2FF" d="M-88.825 20.302l5.85-10.132L-77.124.038l5.85 10.132 5.85 10.132h-23.4zm6.716-9.633l-4.984 8.633H-67.158l-4.983-8.633-4.983-8.632-4.985 8.632z"/>
                <path fill="#8400C6" d="M-75.986.038l5.849 10.132 5.85 10.132 5.85-10.132L-52.588.038h-23.398zm6.716 9.633l-4.984-8.633H-54.319l-4.985 8.633-4.983 8.632-4.983-8.632z"/>
                <path fill="#EB196D" d="M-63.15 20.302l5.85-10.132L-51.45.038l5.85 10.132 5.85 10.132h-23.4zm6.717-9.633l-4.983 8.633H-41.481l-4.984-8.633-4.984-8.632-4.984 8.632z"/>
                <path fill="#FF632C" d="M-50.31.038l5.85 10.132 5.848 10.132 5.85-10.132 5.85-10.132h-23.399zm6.715 9.633l-4.984-8.633H-28.644l-4.984 8.633-4.984 8.632-4.983-8.632z"/>
                <path fill="#FFDE00" d="M-37.474 20.302l5.85-10.132 5.85-10.132 5.85 10.132 5.85 10.132h-23.4zm6.716-9.633l-4.984 8.633H-15.807l-4.984-8.633-4.983-8.632-4.984 8.632z"/>
                <path fill="#727272" d="M-24.636.038l5.85 10.132 5.849 10.132 5.85-10.132L-1.237.04l-23.4-.002zm6.716 9.633l-4.984-8.633h19.936l-4.986 8.633-4.983 8.632-4.983-8.632z"/>
                <path fill="#16E3A7" d="M11.6 20.264L5.75 10.132-.1 0l-5.849 10.132-5.85 10.132h23.4zm-6.717-9.633l4.985 8.633H-10.067l4.984-8.633L-.1 1.999l4.983 8.632z"/>
                <path fill="#164DC8" d="M24.438 0l-5.85 10.132-5.849 10.132-5.85-10.132L1.038 0h23.4zm-6.716 9.633L22.706 1H2.77l4.985 8.633 4.984 8.632 4.983-8.632z"/>
                <path fill="#00DFF3" d="M37.275 20.264l-5.85-10.132L25.576 0l-5.848 10.132-5.85 10.132h23.398zm-6.716-9.633l4.984 8.633H15.608l4.985-8.633 4.983-8.632 4.983 8.632z"/>
                <path fill="#00A2FF" d="M50.114 0l-5.85 10.132-5.851 10.132-5.85-10.132L26.714 0h23.4zm-6.716 9.633L48.382 1H28.447l4.983 8.633 4.983 8.632 4.985-8.632z"/>
                <path fill="#8400C6" d="M62.95 20.264l-5.849-10.132L51.251 0l-5.85 10.132-5.849 10.132H62.95zm-6.716-9.633l4.984 8.633H41.283l4.985-8.633 4.983-8.632 4.983 8.632z"/>
                <path fill="#EB196D" d="M75.789 0l-5.85 10.132-5.85 10.132-5.85-10.132L52.389 0h23.4zm-6.716 9.633L74.056 1H54.12l4.984 8.633 4.984 8.632 4.984-8.632z"/>
                <path fill="#FF632C" d="M88.626 20.264l-5.85-10.132L76.926 0l-5.85 10.132-5.848 10.132h23.398zm-6.716-9.633l4.984 8.633H66.959l4.984-8.633 4.984-8.632 4.983 8.632z"/>
                <path fill="#FFDE00" d="M101.463 0l-5.85 10.132-5.85 10.132-5.849-10.132L78.064 0h23.4zm-6.716 9.633L99.731 1H79.796l4.984 8.633 4.983 8.632 4.984-8.632z"/>
                <path fill="#727272" d="M114.3 20.264l-5.85-10.132L102.603 0l-5.85 10.132-5.85 10.13 23.399.002zm-6.715-9.633l4.984 8.633H92.632l4.987-8.633 4.983-8.632 4.983 8.632z"/>
                <path fill="#16E3A7" d="M103.74.038l5.85 10.132 5.85 10.132 5.849-10.132 5.85-10.132h-23.4zm6.717 9.633l-4.985-8.633H125.407l-4.984 8.633-4.983 8.632-4.983-8.632zM-76.121 40.962l5.85-10.132 5.85-10.132 5.849 10.132 5.85 10.132h-23.4zm6.717-9.633l-4.985 8.633H-54.454l-4.984-8.633-4.983-8.632-4.983 8.632z"/>
                <path fill="#164DC8" d="M-63.284 20.698l5.85 10.132 5.85 10.132 5.85-10.132 5.85-10.132h-23.4zm6.716 9.633l-4.984-8.633h19.937l-4.986 8.633-4.984 8.632-4.983-8.632z"/>
                <path fill="#00DFF3" d="M-50.446 40.962l5.849-10.132 5.85-10.132 5.849 10.132 5.85 10.132h-23.398zm6.716-9.633l-4.984 8.633H-28.78l-4.985-8.633-4.983-8.632-4.983 8.632z"/>
                <path fill="#00A2FF" d="M-37.61 20.698l5.85 10.132 5.852 10.132 5.849-10.132 5.85-10.132h-23.4zm6.717 9.633l-4.984-8.633h19.935l-4.983 8.633-4.983 8.632-4.985-8.632z"/>
                <path fill="#8400C6" d="M-24.77 40.962l5.848-10.132 5.85-10.132 5.85 10.132 5.85 10.132h-23.399zm6.715-9.633l-4.984 8.633H-3.104l-4.985-8.633-4.983-8.632-4.983 8.632z"/>
                <path fill="#EB196D" d="M-11.934 20.698l5.85 10.132 5.85 10.132 5.85-10.132 5.85-10.132h-23.4zm6.716 9.633l-4.983-8.633H9.734L4.75 30.33l-4.984 8.632-4.984-8.632z"/>
                <path fill="#FF632C" d="M.905 40.962l5.85-10.132 5.849-10.132 5.85 10.132 5.849 10.132H.905zm6.716-9.633l-4.984 8.633H22.572l-4.984-8.633-4.984-8.632-4.983 8.632z"/>
                <path fill="#FFDE00" d="M13.741 20.698l5.85 10.132 5.85 10.132 5.85-10.132 5.85-10.132h-23.4zm6.716 9.633l-4.984-8.633H35.408l-4.984 8.633-4.983 8.632-4.984-8.632z"/>
                <path fill="#727272" d="M26.579 40.962l5.85-10.132 5.849-10.132 5.85 10.132 5.85 10.13-23.399.002zm6.716-9.633l-4.984 8.633h19.936l-4.986-8.633-4.983-8.632-4.983 8.632z"/>
                <path fill="#16E3A7" d="M62.816 20.736l-5.85 10.132L51.116 41l-5.85-10.132-5.85-10.132h23.4zm-6.717 9.633l4.985-8.633H41.149l4.984 8.633 4.983 8.632 4.983-8.632z"/>
                <path fill="#164DC8" d="M75.653 41l-5.85-10.132-5.849-10.132-5.85 10.132L52.253 41h23.4zm-6.716-9.633L73.921 40H53.985l4.985-8.633 4.984-8.632 4.983 8.632z"/>
                <path fill="#00DFF3" d="M88.49 20.736l-5.849 10.132L76.791 41l-5.849-10.132-5.85-10.132H88.49zm-6.716 9.633l4.984-8.633H66.823l4.985 8.633 4.983 8.632 4.983-8.632z"/>
                <path fill="#00A2FF" d="M101.329 41l-5.85-10.132-5.851-10.132-5.85 10.132L77.929 41h23.4zm-6.716-9.633L99.597 40H79.662l4.983-8.633 4.983-8.632 4.985 8.632z"/>
                <path fill="#8400C6" d="M114.165 20.736l-5.849 10.132L102.466 41l-5.85-10.132-5.849-10.132h23.398zm-6.716 9.633l4.984-8.633H92.498l4.985 8.633 4.983 8.632 4.983-8.632z"/>
                <path fill="#EB196D" d="M127.004 41l-5.85-10.132-5.85-10.132-5.85 10.132L103.604 41h23.4zm-6.716-9.633L125.271 40H105.336l4.984-8.633 4.984-8.632 4.984 8.632z"/>
            </g>
        </g>
    </g>
</svg>
