<?xml version="1.0" encoding="utf-8"?>
<!-- Generator: Adobe Illustrator 15.0.0, SVG Export Plug-In . SVG Version: 6.00 Build 0)  -->
<!DOCTYPE svg PUBLIC "-//W3C//DTD SVG 1.1//EN" "http://www.w3.org/Graphics/SVG/1.1/DTD/svg11.dtd">
<svg version="1.1" id="Layer_1" xmlns="http://www.w3.org/2000/svg" xmlns:xlink="http://www.w3.org/1999/xlink" x="0px" y="0px"
	 width="32px" height="32px" viewBox="0 0 32 32" enable-background="new 0 0 32 32" xml:space="preserve">
<g>
	<path fill="#FFFFFF" d="M12.243,9.543c-1.061,0-2.12,0.423-2.926,1.266c-1.612,1.687-1.61,4.394,0,6.082l6.573,6.894
		c0.13,0.137,0.346,0.143,0.483,0.013c0.004-0.004,0.008-0.009,0.012-0.013c2.194-2.295,4.386-4.593,6.579-6.888
		c1.612-1.687,1.612-4.396,0-6.083c-1.523-1.618-4.068-1.694-5.687-0.171c-0.06,0.056-0.116,0.113-0.171,0.171l-0.966,1.01
		l-0.967-1.015C14.412,10.003,13.352,9.545,12.243,9.543z"/>
</g>
</svg>
