<?xml version="1.0" encoding="utf-8"?>
<!-- Generator: Adobe Illustrator 15.0.0, SVG Export Plug-In . SVG Version: 6.00 Build 0)  -->
<!DOCTYPE svg PUBLIC "-//W3C//DTD SVG 1.1//EN" "http://www.w3.org/Graphics/SVG/1.1/DTD/svg11.dtd">
<svg version="1.1" id="Layer_1" xmlns="http://www.w3.org/2000/svg" xmlns:xlink="http://www.w3.org/1999/xlink" x="0px" y="0px"
	 width="33px" height="33px" viewBox="0 0 33 33" enable-background="new 0 0 33 33" xml:space="preserve">
<g>
	<circle fill="none" stroke="#164DC8" cx="16" cy="17" r="15.5"/>
	<path fill="#164DC8" d="M10.333,17.132h0.919c-0.74,0-1.333,0.566-1.333,1.275v0.141c0,0.709,0.592,1.275,1.333,1.275h2.43
		c-3.912,4.59-0.445,6.829,0.355,5.581c1.096-1.729,2.844-2.805,4.207-3.854c1.808-1.389,3.082-2.465,3.082-2.465h2.162
		c0.682,0,1.216-0.51,1.216-1.162v-5.072c0-0.651-0.534-1.161-1.216-1.161h-1.955C20.941,10.133,19.281,9,17.296,9h-4.8
		c-0.74,0-1.333,0.567-1.333,1.275v0.142c0,0.708,0.593,1.275,1.333,1.275h-1.244c-0.74,0-1.333,0.566-1.333,1.275v0.17
		c0,0.708,0.592,1.275,1.333,1.275h-0.919C9.593,14.412,9,14.978,9,15.687v0.141C9,16.565,9.593,17.132,10.333,17.132z"/>
</g>
</svg>
