<?xml version="1.0" encoding="utf-8"?>
<!-- Generator: Adobe Illustrator 15.0.0, SVG Export Plug-In . SVG Version: 6.00 Build 0)  -->
<!DOCTYPE svg PUBLIC "-//W3C//DTD SVG 1.1//EN" "http://www.w3.org/Graphics/SVG/1.1/DTD/svg11.dtd">
<svg version="1.1" id="Layer_1" xmlns="http://www.w3.org/2000/svg" xmlns:xlink="http://www.w3.org/1999/xlink" x="0px" y="0px"
	 width="33px" height="33px" viewBox="0 0 33 33" enable-background="new 0 0 33 33" xml:space="preserve">
<g>
	<circle fill="none" stroke="#164DC8" cx="16.5" cy="16.5" r="15.5"/>
	<path fill="#164DC8" d="M21.872,16.716h-0.823c0.664,0,1.194-0.507,1.194-1.142v-0.127c0-0.634-0.53-1.142-1.194-1.142h-2.176
		c3.503-4.111,0.398-6.116-0.318-5c-0.982,1.549-2.548,2.513-3.769,3.452c-1.62,1.244-2.76,2.208-2.76,2.208h-1.938
		c-0.61,0-1.088,0.457-1.088,1.04v4.543c0,0.584,0.478,1.041,1.088,1.041h1.752C12.37,22.984,13.857,24,15.635,24h4.301
		c0.662,0,1.193-0.508,1.193-1.143V22.73c0-0.633-0.531-1.142-1.195-1.142h1.115c0.664,0,1.194-0.508,1.194-1.142v-0.152
		c0-0.635-0.53-1.143-1.194-1.143h0.823c0.663,0,1.194-0.508,1.194-1.142v-0.127C23.066,17.225,22.536,16.716,21.872,16.716
		L21.872,16.716z"/>
</g>
</svg>
