<?xml version="1.0" encoding="utf-8"?>
<!-- Generator: Adobe Illustrator 15.0.0, SVG Export Plug-In . SVG Version: 6.00 Build 0)  -->
<!DOCTYPE svg PUBLIC "-//W3C//DTD SVG 1.1//EN" "http://www.w3.org/Graphics/SVG/1.1/DTD/svg11.dtd">
<svg version="1.1" id="Layer_1" xmlns="http://www.w3.org/2000/svg" xmlns:xlink="http://www.w3.org/1999/xlink" x="0px" y="0px"
	 width="16px" height="16px" viewBox="0 0 16 16" enable-background="new 0 0 16 16" xml:space="preserve">
<circle fill="#2ECC71" cx="8" cy="8" r="8"/>
<g>
	<path fill="#FFFFFF" d="M6.122,4.771c-0.531,0-1.06,0.211-1.463,0.633c-0.806,0.844-0.805,2.197,0,3.041l3.287,3.447
		c0.064,0.068,0.173,0.071,0.241,0.006c0.002-0.002,0.004-0.004,0.006-0.006c1.097-1.147,2.193-2.297,3.29-3.444
		c0.806-0.843,0.806-2.198,0-3.041c-0.761-0.81-2.034-0.847-2.843-0.086C8.608,5.35,8.581,5.378,8.553,5.407L8.07,5.912L7.586,5.404
		C7.206,5.001,6.676,4.772,6.122,4.771z"/>
</g>
</svg>
